<svg width="28.000000" height="32.000000" viewBox="0 0 28 32" fill="none" xmlns="http://www.w3.org/2000/svg" xmlns:xlink="http://www.w3.org/1999/xlink">
	<desc>
			Created with Pixso.
	</desc>
	<defs/>
	<g opacity="0.600000">
		<path id="image 25 (Traced)" d="M13.37 0.14C12.98 0.33 12.66 0.7 12.54 1.1C12.4 1.57 12.4 9.39 12.54 9.87C12.72 10.47 13.37 10.96 13.99 10.96C14.51 10.96 15.07 10.6 15.31 10.1L15.47 9.79L15.47 5.48L15.47 1.18L15.33 0.88C14.97 0.11 14.11 -0.22 13.37 0.14ZM7.46 4.95C4 6.78 1.31 10.29 0.38 14.18C0.05 15.56 -0.01 16.08 0 17.69C0 18.97 0.02 19.28 0.13 19.93C0.41 21.51 0.77 22.66 1.39 23.92C2.52 26.25 4.05 28.07 6.06 29.48C11.62 33.38 19.09 32.68 23.87 27.8C28.24 23.35 29.24 16.58 26.38 10.96C25.08 8.44 22.93 6.24 20.48 4.94C19.89 4.63 19.82 4.6 19.45 4.6C18.98 4.6 18.67 4.73 18.37 5.03C17.92 5.5 17.81 6.2 18.1 6.81C18.28 7.19 18.44 7.33 19.11 7.7C21.6 9.05 23.51 11.36 24.39 14.08C25.33 16.98 25.12 19.98 23.78 22.69C21.06 28.21 14.55 30.46 9.17 27.75C7.98 27.15 7.23 26.6 6.28 25.64C3.54 22.88 2.43 19.02 3.26 15.21C3.96 11.99 5.97 9.28 8.85 7.7C9.72 7.22 10.02 6.8 10.02 6.08C10.02 5.52 9.62 4.92 9.1 4.69C8.98 4.64 8.71 4.6 8.51 4.6C8.16 4.6 8.07 4.63 7.46 4.95Z" fill="#219BE0" fill-opacity="1.000000" fill-rule="evenodd"/>
	</g>
</svg>
