<svg width="15.031616" height="40.102783" viewBox="0 0 15.0316 40.1028" fill="none" xmlns="http://www.w3.org/2000/svg" xmlns:xlink="http://www.w3.org/1999/xlink">
	<desc>
			Created with Pixso.
	</desc>
	<defs/>
	<g opacity="0.600000">
		<path id="image 25 (Traced)" d="M6.41 0.09C5 0.4 3.69 1.43 3.05 2.72C2.46 3.92 2.49 3.16 2.49 15.73L2.49 26.98L2.17 27.29C0.36 29.05 -0.43 31.95 0.22 34.42C1.44 39.07 6.55 41.43 10.82 39.32C11.61 38.93 12.03 38.63 12.7 38C14.49 36.31 15.34 33.76 14.92 31.35C14.66 29.9 14.01 28.57 13.06 27.53L12.53 26.95L12.51 15.48L12.49 4.01L12.31 3.5C11.61 1.44 9.81 0.08 7.7 0C7.2 -0.02 6.74 0.01 6.41 0.09ZM8.55 2.73C9.09 2.98 9.51 3.41 9.77 3.96L9.98 4.4L10.02 16.33L10.05 28.25L10.53 28.6C11.93 29.63 12.71 31.5 12.47 33.2C12.29 34.41 11.87 35.26 11.03 36.1C10.15 37 9.09 37.48 7.84 37.57C4.64 37.8 2.01 34.89 2.57 31.75C2.8 30.48 3.49 29.33 4.47 28.61L4.96 28.25L5 16.33L5.04 4.4L5.24 3.97C5.85 2.69 7.29 2.16 8.55 2.73ZM6.99 3.92C6.85 3.98 6.64 4.16 6.52 4.33L6.29 4.62L6.27 22.43L6.25 29.02L5.81 29.24C5.18 29.55 4.5 30.22 4.18 30.86C3.43 32.36 3.7 34.04 4.87 35.21C6.36 36.7 8.66 36.7 10.14 35.21C11.6 33.76 11.63 31.49 10.21 30C9.95 29.72 9.56 29.43 9.26 29.27L8.76 29.01L8.74 22.42C8.72 15.89 8.72 4.6 8.56 4.39C8.47 4.27 8.31 4.1 8.19 4.02C7.93 3.82 7.31 3.77 6.99 3.92Z" fill="#219BE0" fill-opacity="1.000000" fill-rule="evenodd"/>
	</g>
</svg>
