<svg width="36.000000" height="36.000000" viewBox="0 0 36 36" fill="none" xmlns="http://www.w3.org/2000/svg" xmlns:xlink="http://www.w3.org/1999/xlink">
	<desc>
			Created with Pixso.
	</desc>
	<defs/>
	<g opacity="0.600000">
		<path id="image 25 (Traced)" d="M28.31 0.91C25.02 4.35 22.87 7.96 22.6 10.5C22.5 11.4 22.6 12.53 22.85 13.27C23.85 16.27 26.7 18.21 29.77 17.98C31.67 17.84 33.52 16.83 34.66 15.32C35.04 14.81 35.62 13.61 35.81 12.94C36.01 12.22 36.06 10.96 35.91 10.14C35.54 7.98 33.87 5.01 31.5 2.27C30.76 1.42 29.37 0 29.27 0C29.23 0 28.79 0.41 28.31 0.91ZM29.95 3.92C31.95 6.33 33.2 8.42 33.61 10.07C34.2 12.4 32.96 14.71 30.71 15.5C27.86 16.49 24.8 14.31 24.8 11.27C24.8 10.06 25.34 8.64 26.5 6.78C27.3 5.52 29.1 3.2 29.28 3.2C29.32 3.2 29.62 3.52 29.95 3.92ZM10.63 5.62C5.73 10.64 2.01 16.14 0.67 20.36C-0.39 23.69 -0.21 26.58 1.25 29.52C1.86 30.75 2.43 31.54 3.44 32.57C5.09 34.24 6.69 35.16 9.18 35.85C9.67 35.98 9.85 35.99 11.77 36C13.48 36 13.9 35.98 14.29 35.88C19.11 34.7 22.49 31.17 23.45 26.32C23.54 25.86 23.57 25.4 23.57 24.32C23.57 22.87 23.54 22.57 23.24 21.35C22.14 16.9 18.35 11.12 12.77 5.35C12.3 4.86 11.88 4.47 11.83 4.47C11.79 4.47 11.25 4.98 10.63 5.62ZM13.78 9.77C17.91 14.59 20.38 18.79 21.19 22.38C21.29 22.82 21.32 23.19 21.31 24.35C21.31 25.74 21.3 25.81 21.1 26.57C20.67 28.22 19.94 29.56 18.88 30.68C17.54 32.09 16.4 32.84 14.78 33.38C13.71 33.74 12.85 33.85 11.47 33.81C10.17 33.77 9.34 33.61 8.4 33.23C7.01 32.68 6.19 32.13 5.06 30.99C3.9 29.82 3.24 28.77 2.75 27.33C2.28 25.95 2.13 24.26 2.34 22.95C2.8 20.2 4.34 17.03 7.01 13.35C8.12 11.82 10.09 9.42 11.24 8.21L11.83 7.58L12.32 8.11C12.59 8.4 13.25 9.15 13.78 9.77ZM27.25 11.29C26.64 11.71 26.51 12.41 26.96 12.93C27.83 13.95 29.41 12.87 28.76 11.71C28.46 11.18 27.72 10.97 27.25 11.29ZM4.22 23.93C4.17 24.02 4.29 25.18 4.4 25.66C4.69 26.93 5.36 28.2 6.26 29.21C6.97 30 8.25 30.84 9.27 31.19C9.96 31.42 10.94 31.62 11.4 31.62L11.8 31.62L11.8 30.49L11.8 29.36L11.45 29.35C10.27 29.35 9.01 28.75 8 27.7C7.03 26.7 6.63 25.81 6.46 24.27L6.42 23.88L5.33 23.88C4.73 23.88 4.23 23.91 4.22 23.93Z" fill="#219BE0" fill-opacity="1.000000" fill-rule="evenodd"/>
	</g>
</svg>
