<svg width="32.000000" height="24.000000" viewBox="0 0 32 24" fill="none" xmlns="http://www.w3.org/2000/svg" xmlns:xlink="http://www.w3.org/1999/xlink">
	<desc>
			Created with Pixso.
	</desc>
	<defs/>
	<g opacity="0.600000">
		<path id="image 27 (Traced)" d="M5.43 0.03C5.12 0.09 4.86 0.26 4.52 0.61C2.86 2.35 1.58 4.49 0.82 6.83C-0.28 10.19 -0.28 13.8 0.82 17.18C1.57 19.5 2.87 21.67 4.52 23.4C5 23.89 5.37 24.05 5.93 23.98C6.46 23.91 6.95 23.5 7.12 22.94C7.17 22.81 7.18 22.68 7.17 22.44C7.15 21.98 7.05 21.78 6.6 21.29C5.34 19.91 4.48 18.54 3.87 16.97C3.23 15.3 2.95 13.79 2.95 12.01C2.95 10.8 3.06 9.85 3.33 8.76C3.89 6.47 4.93 4.55 6.6 2.72C7.04 2.23 7.15 2.02 7.17 1.57C7.19 1.08 7.04 0.72 6.69 0.38C6.49 0.2 6.32 0.11 6.04 0.04C5.8 -0.02 5.66 -0.02 5.43 0.03ZM25.93 0.04C25.44 0.17 25.05 0.54 24.89 1.04C24.83 1.22 24.82 1.32 24.83 1.57C24.85 2.02 24.95 2.23 25.4 2.72C27.43 4.95 28.57 7.38 28.96 10.37C29.05 11 29.06 12.63 29 13.29C28.86 14.64 28.6 15.73 28.12 16.97C27.52 18.54 26.64 19.93 25.4 21.29C25.15 21.56 25.02 21.73 24.94 21.89C24.84 22.11 24.84 22.15 24.84 22.52C24.84 22.89 24.84 22.94 24.94 23.13C25.07 23.4 25.39 23.73 25.65 23.86C26.03 24.04 26.54 24.04 26.93 23.84C27.1 23.76 27.23 23.65 27.47 23.4C29.69 21.08 31.21 18.03 31.75 14.86C32.49 10.52 31.54 6.16 29.08 2.58C28.5 1.74 27.46 0.52 27.12 0.28C26.76 0.03 26.32 -0.06 25.93 0.04ZM9.52 4.24C9.23 4.3 9.01 4.44 8.65 4.81C6.79 6.72 5.72 9.58 5.82 12.33C5.92 14.92 6.9 17.34 8.61 19.16C8.97 19.54 9.18 19.68 9.54 19.76C9.76 19.81 9.84 19.81 10.04 19.78C11.02 19.6 11.55 18.56 11.12 17.66C11.06 17.53 10.91 17.32 10.71 17.1C9.94 16.25 9.44 15.39 9.1 14.34C8.84 13.53 8.74 12.9 8.74 12C8.74 11.11 8.84 10.48 9.1 9.67C9.44 8.62 9.94 7.76 10.71 6.9C10.91 6.69 11.06 6.48 11.12 6.35C11.65 5.24 10.71 4 9.52 4.24ZM21.91 4.25C21.47 4.36 21.13 4.65 20.93 5.06C20.82 5.29 20.82 5.32 20.82 5.7C20.82 6.08 20.82 6.11 20.93 6.33C21 6.47 21.16 6.69 21.36 6.92C21.92 7.53 22.23 7.99 22.57 8.69C23.09 9.76 23.33 10.78 23.33 12C23.33 13.21 23.09 14.26 22.57 15.31C22.23 16.01 21.91 16.48 21.36 17.09C21.16 17.32 21 17.54 20.93 17.68C20.82 17.89 20.82 17.92 20.82 18.31C20.82 18.69 20.82 18.72 20.93 18.94C21.25 19.6 21.96 19.94 22.66 19.75C22.98 19.67 23.17 19.54 23.51 19.17C25.32 17.25 26.33 14.5 26.24 11.76C26.19 10.29 25.89 8.98 25.29 7.65C24.88 6.75 24.14 5.64 23.48 4.95C23.39 4.85 23.3 4.73 23.28 4.69C23.12 4.36 22.37 4.13 21.91 4.25ZM15.26 7.6C13.86 7.86 12.66 8.79 12.05 10.1C11.41 11.46 11.52 13.14 12.32 14.41C13.65 16.51 16.38 17.1 18.42 15.71C19.63 14.89 20.36 13.49 20.36 12C20.36 9.82 18.82 7.97 16.7 7.6C16.32 7.53 15.63 7.54 15.26 7.6ZM16.61 10.67C16.9 10.81 17.16 11.08 17.3 11.37C17.4 11.59 17.41 11.62 17.41 12C17.41 12.38 17.4 12.42 17.3 12.63C17.16 12.93 16.9 13.19 16.61 13.34C16.4 13.44 16.37 13.45 16 13.45C15.62 13.45 15.59 13.44 15.38 13.34C15.09 13.19 14.83 12.93 14.69 12.63C14.59 12.42 14.58 12.38 14.58 12C14.58 11.62 14.59 11.59 14.69 11.38C14.87 11.01 15.15 10.75 15.52 10.61C15.67 10.55 15.77 10.54 16.05 10.55C16.35 10.56 16.41 10.57 16.61 10.67Z" fill="#219BE0" fill-opacity="1.000000" fill-rule="evenodd"/>
	</g>
</svg>
