<svg width="40.015503" height="40.000000" viewBox="0 0 40.0155 40" fill="none" xmlns="http://www.w3.org/2000/svg" xmlns:xlink="http://www.w3.org/1999/xlink">
	<desc>
			Created with Pixso.
	</desc>
	<defs/>
	<g opacity="0.600000">
		<path id="image 25 (Traced)" d="M18.2 0.07C14.97 0.35 11.6 1.55 8.84 3.41C6.81 4.77 4.75 6.83 3.39 8.87C-0.17 14.21 -0.98 20.79 1.19 26.84C1.51 27.74 2.31 29.42 2.81 30.25C5.15 34.12 8.59 37.03 12.78 38.68C14.22 39.24 15.57 39.59 17.37 39.86C18.68 40.05 21.56 40.04 22.93 39.82C26.47 39.28 29.73 37.86 32.51 35.65C33.38 34.96 35.19 33.11 35.86 32.24C38.02 29.4 39.34 26.26 39.85 22.73C40 21.69 40.06 19.49 39.96 18.42C39.76 16.07 39.23 13.99 38.33 11.95C36 6.69 31.63 2.76 26.08 0.94C23.71 0.16 20.79 -0.16 18.2 0.07ZM22.65 1.93C25.11 2.3 27.29 3.07 29.33 4.29C33.38 6.71 36.34 10.56 37.6 15.05C38.87 19.55 38.36 24.41 36.18 28.54C35.34 30.13 34.46 31.34 33.2 32.65C32.15 33.73 31.22 34.51 30.16 35.22C21.84 40.73 10.73 38.63 5.01 30.45C0.26 23.66 0.73 14.41 6.14 8.12C9.14 4.63 13.36 2.37 17.84 1.87C18.22 1.83 18.62 1.78 18.74 1.76C19.28 1.69 21.76 1.79 22.65 1.93ZM19.39 7.87C17.39 8.1 15.74 9.46 15.04 11.44C14.85 12 14.84 12.07 14.82 13.84L14.79 15.66L14.02 15.68C13.35 15.7 13.19 15.74 12.83 15.91C12.29 16.18 11.8 16.66 11.56 17.17L11.37 17.59L11.37 22.65L11.37 27.71L11.58 28.13C11.85 28.66 12.43 29.2 12.98 29.42L13.39 29.58L20.01 29.58L26.62 29.58L27.05 29.41C27.65 29.17 28.31 28.51 28.52 27.93C28.68 27.51 28.68 27.5 28.66 22.51L28.64 17.51L28.47 17.17C28.2 16.63 27.78 16.21 27.25 15.95C26.81 15.73 26.7 15.71 25.99 15.68L25.21 15.65L25.21 14.03C25.21 12.16 25.14 11.7 24.7 10.79C23.73 8.78 21.62 7.62 19.39 7.87ZM21.33 9.81C22.17 10.14 22.93 10.9 23.27 11.75C23.42 12.13 23.44 12.3 23.46 13.92L23.49 15.67L20.01 15.67L16.54 15.67L16.54 14.13C16.54 12.46 16.59 12.08 16.94 11.39C17.17 10.94 17.76 10.3 18.18 10.05C18.79 9.7 19.24 9.6 20.11 9.62C20.73 9.64 21.01 9.68 21.33 9.81ZM26.51 17.51C26.97 17.75 26.94 17.49 26.94 22.62L26.94 27.31L26.75 27.53C26.63 27.66 26.43 27.78 26.26 27.82C26.09 27.85 23.39 27.88 20.01 27.88C16.62 27.88 13.92 27.85 13.75 27.82C13.58 27.78 13.38 27.66 13.27 27.53L13.07 27.31L13.07 22.68C13.07 17.62 13.06 17.75 13.48 17.52C13.78 17.36 26.2 17.35 26.51 17.51ZM19.57 20.07C18.26 20.48 17.85 22.04 18.82 23L19.14 23.32L19.14 23.94C19.14 24.89 19.37 25.21 20.03 25.21C20.33 25.21 20.42 25.18 20.63 24.97L20.87 24.72L20.87 24L20.87 23.28L21.12 23.09C21.45 22.84 21.74 22.24 21.74 21.82C21.74 21.24 21.61 20.94 21.21 20.54C20.72 20.07 20.14 19.9 19.57 20.07Z" fill="#219BE0" fill-opacity="1.000000" fill-rule="evenodd"/>
	</g>
</svg>
