<svg width="37.000000" height="34.000000" viewBox="0 0 37 34" fill="none" xmlns="http://www.w3.org/2000/svg" xmlns:xlink="http://www.w3.org/1999/xlink">
	<desc>
			Created with Pixso.
	</desc>
	<defs/>
	<g opacity="0.600000">
		<path id="image 26 (Traced)" d="M17.9 0.04C16.99 0.23 16.17 0.82 15.55 1.71C15.44 1.86 15.2 2.25 15.02 2.58C14.71 3.14 14.29 3.88 11.89 8.19C11.42 9.03 10.89 9.97 10.72 10.29C10.54 10.61 10.1 11.39 9.75 12.02C9.02 13.32 8.43 14.38 7.96 15.22C7.78 15.54 7.15 16.67 6.56 17.73C5.97 18.78 5.34 19.91 5.16 20.23C4.98 20.55 4.55 21.33 4.2 21.96C3.84 22.59 3.41 23.37 3.23 23.69C3.05 24.01 2.72 24.61 2.49 25.02C0.25 29.02 0.43 28.68 0.25 29.21C-0.34 30.86 0.11 32.41 1.42 33.3C1.68 33.47 2.2 33.7 2.54 33.8C3.29 34.01 2.42 33.99 18.49 34C31.8 34 33.43 33.99 33.8 33.93C35.68 33.66 36.89 32.46 36.99 30.79C37.02 30.3 36.93 29.75 36.74 29.21C36.57 28.73 36.57 28.73 35.66 27.1C35.26 26.38 34.77 25.5 34.58 25.16C34.39 24.82 34.2 24.49 34.17 24.42C34.13 24.36 33.9 23.95 33.65 23.51C33.21 22.71 32.63 21.67 32.05 20.64C31.5 19.66 29.36 15.82 29.15 15.44C29.03 15.23 28.64 14.53 28.28 13.88C27.91 13.23 27.43 12.38 27.21 11.98C26.99 11.59 26.57 10.83 26.27 10.29C25.97 9.76 25.63 9.15 25.52 8.95C25.41 8.75 24.98 7.98 24.57 7.24C24.16 6.51 23.68 5.65 23.51 5.34C21.39 1.54 21.43 1.62 20.94 1.1C20.49 0.63 19.94 0.29 19.34 0.1C18.98 -0.01 18.27 -0.04 17.9 0.04ZM18.76 2.85C18.99 3.02 19.14 3.24 19.81 4.45C20.84 6.28 22.35 8.99 22.57 9.38C22.68 9.58 23.06 10.26 23.41 10.89C24.12 12.15 24.7 13.18 25.35 14.35C25.58 14.77 26.06 15.62 26.41 16.25C27.19 17.64 28.62 20.21 29.07 21.01C29.6 21.97 30.41 23.42 31.1 24.64C31.45 25.27 31.83 25.95 31.94 26.15C32.05 26.35 32.43 27.04 32.79 27.67C33.86 29.58 34.05 29.93 34.13 30.18C34.32 30.79 34.13 31.08 33.47 31.2C33.13 31.26 3.83 31.26 3.51 31.2C3.2 31.14 2.91 30.99 2.84 30.85C2.76 30.7 2.76 30.48 2.86 30.18C2.94 29.93 3.12 29.58 4.2 27.67C4.55 27.04 4.93 26.35 5.04 26.15C5.16 25.95 5.59 25.18 6 24.44C6.75 23.1 6.96 22.72 7.92 21.01C8.2 20.5 8.87 19.3 9.4 18.35C9.93 17.4 10.81 15.83 11.35 14.87C11.88 13.91 12.46 12.87 12.64 12.56C12.81 12.25 13.14 11.66 13.37 11.24C13.61 10.83 14.08 9.97 14.44 9.34C14.79 8.71 15.17 8.03 15.28 7.83C16.85 5.01 17.71 3.49 17.86 3.26C18.07 2.95 18.33 2.74 18.49 2.74C18.55 2.74 18.67 2.79 18.76 2.85ZM18.15 9.73C17.55 9.85 17.05 10.29 16.88 10.85C16.8 11.09 16.8 11.25 16.8 16.11C16.8 21.01 16.8 21.14 16.88 21.38C17.12 22.15 17.97 22.66 18.75 22.5C19.48 22.35 20 21.81 20.11 21.09C20.16 20.71 20.16 11.51 20.11 11.15C19.97 10.2 19.07 9.55 18.15 9.73ZM17.91 24.26C17.31 24.49 16.91 24.99 16.82 25.63C16.77 26.02 16.95 26.59 17.23 26.9C17.61 27.33 18.24 27.53 18.8 27.42C19.45 27.29 19.89 26.89 20.07 26.3C20.31 25.51 19.96 24.7 19.21 24.34C18.94 24.21 18.88 24.19 18.54 24.18C18.22 24.17 18.12 24.19 17.91 24.26Z" fill="#219BE0" fill-opacity="1.000000" fill-rule="evenodd"/>
	</g>
</svg>
