<svg width="27.671387" height="43.000000" viewBox="0 0 27.6714 43" fill="none" xmlns="http://www.w3.org/2000/svg" xmlns:xlink="http://www.w3.org/1999/xlink">
	<desc>
			Created with Pixso.
	</desc>
	<defs/>
	<g opacity="0.600000">
		<path id="image 25 (Traced)" d="M15.03 1.03C13.32 4.43 12.18 5.63 8.04 8.36C5.38 10.12 4.27 10.99 2.87 12.38C1.26 13.99 0.47 15.45 0.11 17.46C-0.27 19.63 0.31 22.2 1.59 24C2.11 24.74 3.07 25.66 3.87 26.19C5.59 27.32 7.56 27.8 9.71 27.61C11.25 27.46 12.35 27.09 13.93 26.16C15.25 25.38 15.74 25.18 16.29 25.18C16.56 25.18 16.86 25.22 16.96 25.27C17.06 25.33 17.47 25.68 17.86 26.06C19.13 27.29 19.88 27.63 21.38 27.63C24.22 27.64 26.67 25.75 27.44 22.96C27.63 22.29 27.63 22.24 27.66 14.4C27.68 9.3 27.66 6.22 27.6 5.7C27.32 3.09 25.68 1.1 23.11 0.25C22.54 0.06 22.41 0.05 19.04 0.02L15.55 0L15.03 1.03ZM22.07 2.61C23.37 2.85 24.43 3.78 24.94 5.11C25.11 5.57 25.11 5.73 25.14 10.93C25.16 13.88 25.14 16.28 25.1 16.28C25.06 16.28 24.86 16.18 24.65 16.05C23.74 15.48 22.84 15.21 21.64 15.14C20.02 15.05 18.46 15.58 17.26 16.63L16.9 16.94L17.73 17.79C18.19 18.25 18.62 18.63 18.68 18.63C18.73 18.63 18.95 18.5 19.16 18.35C20.62 17.23 22.87 17.45 24.13 18.84C25.83 20.71 25.24 23.64 22.96 24.75C22.33 25.06 21.5 25.2 20.97 25.09C20.76 25.05 20.56 25.02 20.52 25.02C20.48 25.01 20.09 24.67 19.65 24.25C19.21 23.83 18.68 23.38 18.46 23.24C17.88 22.87 17.11 22.66 16.36 22.66C15.2 22.67 14.47 22.93 12.7 23.97C11.16 24.87 10.34 25.12 8.88 25.11C6.3 25.11 4.21 23.87 3.18 21.71C2.69 20.69 2.56 20.11 2.55 18.89C2.55 16.98 3.12 15.66 4.59 14.19C5.81 12.98 6.89 12.14 9.51 10.41C13.55 7.73 14.96 6.36 16.57 3.51L17.12 2.52L19.37 2.52C20.6 2.52 21.82 2.56 22.07 2.61ZM7.59 31.85C7.24 32.38 6.95 32.84 6.95 32.87C6.95 32.89 7.08 33.07 7.24 33.25C7.63 33.7 7.74 34.24 7.58 34.84C7.48 35.24 7.38 35.37 6.63 36.09C5.42 37.24 5.02 38.06 5.02 39.45C5.02 40.62 5.46 41.64 6.34 42.48L6.88 43L7.58 41.95L8.28 40.91L8.04 40.66C7.51 40.11 7.39 39.26 7.73 38.61C7.84 38.4 8.16 38.05 8.5 37.78C9.62 36.87 10.15 35.76 10.16 34.37C10.16 33.54 9.97 32.84 9.57 32.15C9.33 31.74 8.5 30.89 8.34 30.89C8.28 30.89 7.95 31.32 7.59 31.85ZM13.89 31.85C13.53 32.38 13.24 32.85 13.24 32.89C13.24 32.93 13.32 33.03 13.42 33.12C13.9 33.55 14.08 34.5 13.8 35.1C13.72 35.26 13.32 35.71 12.9 36.09C12.09 36.84 11.74 37.34 11.48 38.17C11.28 38.8 11.26 39.86 11.43 40.5C11.65 41.33 12.2 42.2 12.81 42.68L13.19 42.97L13.88 41.94L14.57 40.91L14.34 40.66C13.97 40.27 13.83 39.92 13.83 39.4C13.83 38.75 14.05 38.38 14.77 37.8C15.45 37.24 15.92 36.61 16.19 35.9C16.66 34.64 16.5 33.12 15.76 32.02C15.49 31.62 14.75 30.89 14.62 30.89C14.57 30.89 14.24 31.32 13.89 31.85ZM20.18 31.85C19.83 32.38 19.54 32.85 19.54 32.89C19.54 32.93 19.62 33.03 19.72 33.12C20.21 33.56 20.37 34.53 20.05 35.16C19.96 35.34 19.62 35.7 19.31 35.97C18.4 36.75 17.93 37.45 17.7 38.39C17.57 38.9 17.57 39.86 17.69 40.4C17.88 41.25 18.51 42.25 19.16 42.73L19.49 42.97L20.11 42.03C20.45 41.51 20.75 41.04 20.77 40.98C20.8 40.92 20.7 40.74 20.55 40.57C20.21 40.18 20.11 39.93 20.11 39.39C20.11 38.78 20.36 38.36 21.03 37.82C21.7 37.27 21.98 36.93 22.31 36.27C22.63 35.62 22.72 35.19 22.73 34.36C22.73 33.2 22.35 32.27 21.53 31.41C21.25 31.12 20.98 30.89 20.92 30.89C20.87 30.89 20.53 31.32 20.18 31.85Z" fill="#219BE0" fill-opacity="1.000000" fill-rule="evenodd"/>
	</g>
</svg>
