<svg width="35.000000" height="30.000000" viewBox="0 0 35 30" fill="none" xmlns="http://www.w3.org/2000/svg" xmlns:xlink="http://www.w3.org/1999/xlink">
	<desc>
			Created with Pixso.
	</desc>
	<defs/>
	<g opacity="0.600000">
		<path id="image 25 (Traced)" d="M18.73 0.01C15.8 0.32 13.25 1.3 10.95 3.01C10.24 3.54 8.79 4.95 8.24 5.65C6.31 8.1 5.21 11.04 5.01 14.24L4.97 14.98L2.48 14.98L0 14.98L3.12 18.72C6.13 22.32 6.25 22.45 6.36 22.34C6.42 22.27 7.83 20.59 9.48 18.61L12.48 15.01L9.98 14.99C8.6 14.98 7.48 14.96 7.48 14.95C7.48 14.59 7.65 13.07 7.75 12.56C8.22 10.07 9.54 7.69 11.4 5.93C14.77 2.73 19.55 1.67 23.97 3.13C27.73 4.37 30.77 7.46 31.94 11.22C33.31 15.63 32.2 20.32 28.99 23.65C26.88 25.84 24.03 27.17 20.9 27.42C20.43 27.46 20.04 27.49 20.03 27.49C20.02 27.49 20 28.05 20 28.74L20 30L20.71 29.95C23.51 29.78 26.05 28.95 28.24 27.5C31.86 25.11 34.21 21.44 34.87 17.14C35.02 16.2 35.04 13.86 34.91 12.98C34.41 9.63 32.93 6.67 30.63 4.37C28.36 2.11 25.47 0.65 22.25 0.13C21.64 0.04 19.28 -0.04 18.73 0.01Z" fill="#219BE0" fill-opacity="1.000000" fill-rule="evenodd"/>
	</g>
</svg>
