<svg width="38.976562" height="39.000000" viewBox="0 0 38.9766 39" fill="none" xmlns="http://www.w3.org/2000/svg" xmlns:xlink="http://www.w3.org/1999/xlink">
	<desc>
			Created with Pixso.
	</desc>
	<defs/>
	<g opacity="0.600000">
		<path id="image 25 (Traced)" d="M18.11 0.01C17.96 0.03 17.52 0.08 17.12 0.12C14.6 0.4 11.81 1.34 9.56 2.68C6.7 4.39 4.37 6.72 2.66 9.58C1.33 11.81 0.45 14.41 0.09 17.14C-0.04 18.07 -0.04 20.93 0.09 21.87C0.72 26.62 2.8 30.65 6.34 33.93C8.3 35.75 10.73 37.18 13.38 38.05C15.47 38.74 17.13 39 19.48 39C21.23 39 22 38.92 23.53 38.61C28.78 37.54 33.48 34.16 36.3 29.42C37.63 27.19 38.52 24.6 38.88 21.87C39 20.93 39 18.07 38.88 17.14C38.52 14.41 37.63 11.81 36.3 9.58C34.59 6.72 32.27 4.39 29.4 2.68C27.2 1.37 24.56 0.46 21.93 0.12C21.26 0.03 18.58 -0.04 18.11 0.01ZM21.93 2.45C25.01 2.91 27.72 4.07 30.15 5.98C30.49 6.26 30.78 6.5 30.78 6.53C30.78 6.55 29.37 7.98 27.65 9.7C25.67 11.67 24.5 12.79 24.46 12.74C24.27 12.43 19.51 5.92 19.48 5.92C19.39 5.92 11.57 16.79 11.27 17.33C10.51 18.73 10.16 20.15 10.15 21.91C10.15 23.46 10.38 24.72 10.88 25.85L11.07 26.27L8.81 28.54C7.57 29.78 6.53 30.8 6.5 30.8C6.48 30.8 6.24 30.51 5.96 30.17C4.39 28.17 3.31 25.95 2.74 23.55C1.46 18.16 2.77 12.63 6.34 8.36C9.13 5.03 13.39 2.79 17.77 2.34C18.7 2.24 20.94 2.3 21.93 2.45ZM33 8.84C35.31 11.77 36.52 15.07 36.7 18.89C36.94 24.2 34.48 29.59 30.27 32.94C23.96 37.97 15.14 38 8.82 33.02C8.47 32.75 8.19 32.51 8.19 32.48C8.19 32.46 9.12 31.5 10.26 30.36L12.34 28.29L12.96 28.88C13.75 29.63 14.4 30.09 15.26 30.53C20.43 33.14 26.7 30.48 28.4 24.96C28.73 23.88 28.81 23.3 28.81 21.95C28.81 19.54 28.26 17.96 26.66 15.76L25.91 14.73L29.16 11.47C30.95 9.68 32.44 8.21 32.46 8.21C32.49 8.21 32.73 8.49 33 8.84ZM21.16 12.08C22.06 13.32 22.82 14.37 22.83 14.41C22.85 14.45 20.6 16.75 17.83 19.51L12.81 24.54L12.67 24.06C12.18 22.31 12.41 20.07 13.24 18.51C13.51 18 19.39 9.82 19.48 9.82C19.5 9.82 20.26 10.83 21.16 12.08ZM24.85 17.16C25.92 18.63 26.37 19.72 26.51 21.19C26.59 22.09 26.51 23.22 26.31 24.03C26.13 24.75 25.49 25.99 24.98 26.63C23.38 28.61 20.8 29.59 18.33 29.16C16.8 28.89 15.48 28.2 14.42 27.11L13.98 26.65L19.12 21.51C21.94 18.69 24.26 16.37 24.27 16.37C24.27 16.37 24.54 16.73 24.85 17.16Z" fill="#219BE0" fill-opacity="1.000000" fill-rule="evenodd"/>
	</g>
</svg>
