<svg width="280" height="101" viewBox="0 0 280 101" fill="none" xmlns="http://www.w3.org/2000/svg">
<g filter="url(#filter0_b_1_2217)">
<path d="M0 53C0 23.7289 23.7289 0 53 0H104.825C108.195 0 111.484 1.02725 114.255 2.94477L121.777 8.1499C127.132 11.8553 133.488 13.8404 140 13.8404C146.512 13.8404 152.869 11.8553 158.223 8.1499L165.745 2.94476C168.516 1.02724 171.805 0 175.175 0H227C256.271 0 280 23.7289 280 53V91C280 96.5229 275.523 101 270 101H10C4.47715 101 0 96.5229 0 91V53Z" fill="black"/>
<path d="M0.5 53C0.5 24.0051 24.0051 0.5 53 0.5H104.825C108.093 0.5 111.284 1.49625 113.971 3.35592L121.492 8.56105C126.931 12.3243 133.387 14.3404 140 14.3404C146.613 14.3404 153.069 12.3243 158.508 8.56105L166.029 3.35592C168.717 1.49625 171.907 0.5 175.175 0.5H227C255.995 0.5 279.5 24.0051 279.5 53V91C279.5 96.2467 275.247 100.5 270 100.5H10C4.75329 100.5 0.5 96.2467 0.5 91V53Z" stroke="url(#paint0_linear_1_2217)"/>
</g>
<defs>
<filter id="filter0_b_1_2217" x="-15" y="-15" width="310" height="131" filterUnits="userSpaceOnUse" color-interpolation-filters="sRGB">
<feFlood flood-opacity="0" result="BackgroundImageFix"/>
<feGaussianBlur in="BackgroundImageFix" stdDeviation="7.5"/>
<feComposite in2="SourceAlpha" operator="in" result="effect1_backgroundBlur_1_2217"/>
<feBlend mode="normal" in="SourceGraphic" in2="effect1_backgroundBlur_1_2217" result="shape"/>
</filter>
<linearGradient id="paint0_linear_1_2217" x1="-310" y1="0" x2="-310" y2="770.999" gradientUnits="userSpaceOnUse">
<stop stop-color="#1D1D2F"/>
<stop offset="1" stop-color="#29292E"/>
</linearGradient>
</defs>
</svg>
