<svg width="80.000000" height="80.000000" viewBox="0 0 80 80" fill="none" xmlns="http://www.w3.org/2000/svg" xmlns:xlink="http://www.w3.org/1999/xlink">
	<desc>
			Created with Pixso.
	</desc>
	<defs/>
	<rect id="Rectangle 34624487" x="80.000000" y="80.000000" rx="40.000004" width="80.000008" height="80.000008" transform="rotate(180 80.000000 80.000000)" fill="#219BE0" fill-opacity="1.000000"/>
	<path id="Vector" d="M28.89 19L31.08 19L31.11 21.21L48.87 21.21L48.9 19L51.09 19L51.11 21.21L53.74 21.23C56.01 21.26 56.42 21.28 56.69 21.35C56.86 21.4 57.23 21.56 57.52 21.7C57.81 21.84 58.19 22.08 58.38 22.23C58.57 22.39 58.84 22.67 58.98 22.85C59.14 23.04 59.35 23.36 59.46 23.58C59.58 23.79 59.74 24.18 59.97 24.91L60 47.25L48.25 59L36.16 59C27.94 59 23.96 58.97 23.73 58.94C23.55 58.91 23.22 58.83 23 58.76C22.79 58.68 22.44 58.53 22.22 58.41C21.95 58.26 21.67 58.03 21.31 57.67C20.95 57.31 20.72 57.03 20.57 56.76C20.45 56.54 20.29 56.19 20.22 55.97C20.15 55.76 20.07 55.42 20.03 55.22C20 54.96 19.98 50.4 20.01 24.91L20.15 24.44C20.24 24.18 20.39 23.79 20.51 23.58C20.63 23.36 20.84 23.04 20.99 22.85C21.14 22.67 21.44 22.38 21.65 22.21C21.86 22.04 22.22 21.81 22.45 21.7C22.67 21.58 23.02 21.44 23.22 21.38C23.59 21.27 23.72 21.27 28.87 21.21L28.89 19ZM23.51 23.65C23.34 23.72 23.08 23.91 22.92 24.06C22.76 24.21 22.58 24.43 22.51 24.54C22.44 24.66 22.35 24.88 22.31 25.04C22.23 25.28 22.22 25.66 22.22 27.71L22.22 30.09L57.75 30.09C57.75 25.44 57.74 25.28 57.65 24.98C57.59 24.81 57.49 24.58 57.42 24.48C57.35 24.37 57.18 24.17 57.04 24.04C56.91 23.91 56.69 23.76 56.57 23.69C56.45 23.63 56.19 23.54 56.01 23.5C55.73 23.44 55.26 23.42 53.39 23.44L51.11 23.45L51.09 25.66L48.9 25.66L48.87 23.45L31.11 23.45L31.08 25.66L28.89 25.66L28.87 23.45C25.31 23.44 24.17 23.45 24.05 23.47C23.92 23.5 23.68 23.57 23.51 23.65ZM22.25 55.12C22.56 55.76 22.72 55.98 22.89 56.14C23.04 56.28 23.32 56.47 23.51 56.56L23.86 56.73L46.66 56.76C46.66 51.05 46.68 49.63 46.71 49.41C46.74 49.22 46.82 48.9 46.9 48.68C46.96 48.47 47.13 48.11 47.25 47.9C47.4 47.63 47.62 47.35 47.99 46.99C48.35 46.63 48.63 46.4 48.9 46.25C49.11 46.13 49.46 45.97 49.68 45.9C49.89 45.83 50.22 45.75 50.41 45.72C50.62 45.68 52.04 45.66 54.25 45.66L57.75 45.66L57.75 32.33L22.22 32.33L22.25 55.12ZM50.07 48.15C49.96 48.2 49.74 48.37 49.59 48.51C49.39 48.68 49.25 48.88 49.12 49.15L48.92 49.54C48.9 52.89 48.9 54.15 48.91 54.51L48.92 55.14L56.17 47.9C51.38 47.91 50.65 47.92 50.49 47.97C50.37 48.01 50.18 48.09 50.07 48.15Z" fill="#FFFFFF" fill-opacity="1.000000" fill-rule="evenodd"/>
	<path id="Vector" d="M31.08 19L31.11 21.21L48.87 21.21L48.9 19L51.09 19L51.11 21.21L53.74 21.23C56.01 21.26 56.42 21.28 56.69 21.35C56.86 21.4 57.23 21.56 57.52 21.7C57.81 21.84 58.19 22.08 58.38 22.23C58.57 22.39 58.84 22.67 58.98 22.85C59.14 23.04 59.35 23.36 59.46 23.58C59.58 23.79 59.74 24.18 59.97 24.91L60 47.25L48.25 59L36.16 59C27.94 59 23.96 58.97 23.73 58.94C23.55 58.91 23.22 58.83 23 58.76C22.79 58.68 22.44 58.53 22.22 58.41C21.95 58.26 21.67 58.03 21.31 57.67C20.95 57.31 20.72 57.03 20.57 56.76C20.45 56.54 20.29 56.19 20.22 55.97C20.15 55.76 20.07 55.42 20.03 55.22C20 54.96 19.98 50.4 20.01 24.91L20.15 24.44C20.24 24.18 20.39 23.79 20.51 23.58C20.63 23.36 20.84 23.04 20.99 22.85C21.14 22.67 21.44 22.38 21.65 22.21C21.86 22.04 22.22 21.81 22.45 21.7C22.67 21.58 23.02 21.44 23.22 21.38C23.59 21.27 23.72 21.27 28.87 21.21L28.89 19L31.08 19ZM22.92 24.06C22.76 24.21 22.58 24.43 22.51 24.54C22.44 24.66 22.35 24.88 22.31 25.04C22.23 25.28 22.22 25.66 22.22 27.71L22.22 30.09L57.75 30.09C57.75 25.44 57.74 25.28 57.65 24.98C57.59 24.81 57.49 24.58 57.42 24.48C57.35 24.37 57.18 24.17 57.04 24.04C56.91 23.91 56.69 23.76 56.57 23.69C56.45 23.63 56.19 23.54 56.01 23.5C55.73 23.44 55.26 23.42 53.39 23.44L51.11 23.45L51.09 25.66L48.9 25.66L48.87 23.45L31.11 23.45L31.08 25.66L28.89 25.66L28.87 23.45C25.31 23.44 24.17 23.45 24.05 23.47C23.92 23.5 23.68 23.57 23.51 23.65C23.34 23.72 23.08 23.91 22.92 24.06ZM22.89 56.14C23.04 56.28 23.32 56.47 23.51 56.56L23.86 56.73L46.66 56.76C46.66 51.05 46.68 49.63 46.71 49.41C46.74 49.22 46.82 48.9 46.9 48.68C46.96 48.47 47.13 48.11 47.25 47.9C47.4 47.63 47.62 47.35 47.99 46.99C48.35 46.63 48.63 46.4 48.9 46.25C49.11 46.13 49.46 45.97 49.68 45.9C49.89 45.83 50.22 45.75 50.41 45.72C50.62 45.68 52.04 45.66 54.25 45.66L57.75 45.66L57.75 32.33L22.22 32.33L22.25 55.12C22.56 55.76 22.72 55.98 22.89 56.14ZM49.59 48.51C49.39 48.68 49.25 48.88 49.12 49.15L48.92 49.54C48.9 52.89 48.9 54.15 48.91 54.51L48.92 55.14L56.17 47.9C51.38 47.91 50.65 47.92 50.49 47.97C50.37 48.01 50.18 48.09 50.07 48.15C49.96 48.2 49.74 48.37 49.59 48.51Z" stroke="#219BE0" stroke-opacity="1.000000" stroke-width="0.052083"/>
</svg>
