<svg width="80.000000" height="80.000000" viewBox="0 0 80 80" fill="none" xmlns="http://www.w3.org/2000/svg" xmlns:xlink="http://www.w3.org/1999/xlink">
	<desc>
			Created with Pixso.
	</desc>
	<defs/>
	<rect id="Rectangle 34624488" x="80.000000" y="80.000000" rx="40.000004" width="80.000008" height="80.000008" transform="rotate(180 80.000000 80.000000)" fill="#219BE0" fill-opacity="1.000000"/>
	<mask id="mask_1_1003" fill="white">
		<path id="Subtract" d="M53.4287 20.1018C53.1233 20.0339 47.8318 20 39.4304 20C27.8181 20 25.8281 20.0227 25.2966 20.1697C24.9575 20.26 24.3696 20.5088 24.0076 20.7009C23.6233 20.9045 23.0466 21.3794 22.6621 21.7979C22.2324 22.2615 21.8367 22.8267 21.6106 23.3242C21.407 23.7539 21.1921 24.4211 21.1243 24.7942C21.0339 25.269 21 29.9275 21 40.0022C21 52.3721 21.0339 54.6448 21.1697 55.3232C21.26 55.7642 21.4976 56.4426 21.7009 56.8499C21.9158 57.2908 22.3342 57.8562 22.7412 58.2744C23.2163 58.7607 23.6912 59.0999 24.2791 59.3826C24.7427 59.5974 25.4551 59.8347 25.8621 59.9026C26.3257 59.9819 28.7341 60.0156 32.4993 59.9932L38.3904 59.9592C38.8538 59.5183 39.0122 59.2129 39.0461 58.998C39.0801 58.772 39.0461 58.4666 38.9556 58.2744C38.8765 58.0935 38.7407 57.8899 38.6504 57.8223C38.5374 57.7317 36.6265 57.6753 32.3184 57.6414C26.5518 57.5847 26.1108 57.562 25.5793 57.3586C25.2627 57.2341 24.7878 56.9175 24.5051 56.6235C24.2224 56.3408 23.8833 55.9114 23.7703 55.6626C23.5442 55.2214 23.5442 54.8711 23.5103 40.1719C23.4875 27.2139 23.5103 25.0657 23.6572 24.6245C23.7476 24.3418 24.0415 23.8669 24.3018 23.5618C24.573 23.2563 25.0479 22.8721 25.3533 22.7136L25.9185 22.4197L52.9424 22.4197C53.9036 22.8833 54.356 23.2 54.5593 23.426C54.7517 23.6521 55.0342 24.0479 55.1814 24.3081L55.4299 24.7942L55.5432 43.53C56.1875 44.1067 56.3911 44.1858 56.7417 44.1858C57.1035 44.1858 57.2732 44.1179 57.5332 43.8467L57.8611 43.5073C57.8611 28.175 57.8159 24.7263 57.7366 24.3984C57.6689 24.1157 57.4653 23.5618 57.2617 23.1548C57.0356 22.6685 56.6626 22.1709 56.1763 21.6848C55.6902 21.21 55.1587 20.8254 54.6724 20.5767C54.2427 20.3845 53.6887 20.1697 53.4287 20.1018ZM48.1482 29.5657L47.8203 29.2039C31.5044 29.1475 31.3347 29.1475 30.9841 29.3735C30.7466 29.5205 30.5657 29.7466 30.498 29.9954C30.4187 30.2896 30.4302 30.4817 30.5432 30.7529C30.6223 30.9565 30.8032 31.228 30.9502 31.3523C31.199 31.5784 31.3799 31.5784 39.1365 31.6123C43.4897 31.635 47.2437 31.6123 47.4585 31.5671C47.6733 31.5332 47.99 31.3523 48.1709 31.1714C48.397 30.9226 48.4761 30.7305 48.4761 30.3911C48.4761 30.052 48.397 29.8484 48.1482 29.5657ZM48.0803 39.041L47.6848 38.6453C31.5496 38.6453 31.3347 38.6567 30.9729 38.8716C30.7466 39.0186 30.5657 39.2446 30.498 39.4934C30.4187 39.7874 30.4302 39.991 30.532 40.251C30.6111 40.4546 30.8032 40.7146 30.9614 40.8276C31.2102 41.0085 31.7869 41.0198 39.4871 41.0198C47.1306 41.0198 47.7639 40.9973 47.9788 40.8164C48.1143 40.7146 48.2839 40.511 48.3518 40.364C48.4197 40.2283 48.4761 39.957 48.4761 39.7761C48.4761 39.5386 48.3518 39.3125 48.0803 39.041ZM38.5259 48.3354C38.2207 48.166 37.8137 48.1433 34.7041 48.1433C31.572 48.1433 31.2102 48.166 30.9614 48.3354C30.8032 48.4485 30.6111 48.7087 30.532 48.9009C30.4302 49.1724 30.4187 49.3757 30.498 49.6697C30.5544 49.8845 30.7466 50.1672 30.9163 50.2917C31.2217 50.5178 31.3911 50.5291 34.7832 50.5178L38.3225 50.5178C38.967 49.8506 39.0913 49.6245 39.0913 49.3872C39.0913 49.2061 39.0347 48.9348 38.9783 48.7878C38.9104 48.6521 38.7068 48.4485 38.5259 48.3354ZM57.522 48.4824C57.2617 48.2224 57.0808 48.1433 56.7529 48.1433C56.4929 48.1433 56.199 48.2339 56.0405 48.3582C55.8936 48.4712 53.9375 50.4839 51.6987 52.8245C49.46 55.165 47.6055 57.0759 47.5715 57.0759C47.5376 57.0759 47.0288 56.6235 46.4409 56.0808C45.853 55.5381 45.197 54.9502 44.9937 54.7805C44.7336 54.5657 44.5073 54.4753 44.1794 54.4753C43.8628 54.4753 43.6255 54.5544 43.3879 54.7581C43.1846 54.9275 43.0261 55.199 42.981 55.4023C42.947 55.606 42.9697 55.8999 43.0376 56.0583C43.1052 56.2166 43.9985 57.0986 45.0388 58.0371C46.0679 58.9641 47.0742 59.8008 47.2664 59.8914C47.4924 59.9819 47.7639 60.0044 47.9673 59.9592C48.1597 59.9141 48.5327 59.6426 48.8154 59.3486C49.0981 59.0547 51.1785 56.8611 53.4514 54.4866C55.7241 52.1008 57.635 50.043 57.7141 49.9072C57.7932 49.7827 57.8499 49.4775 57.8611 49.24C57.8611 48.9236 57.782 48.7427 57.522 48.4824Z" clip-rule="evenodd" fill="" fill-opacity="1.000000" fill-rule="evenodd"/>
	</mask>
	<path id="Subtract" d="M53.4287 20.1018C53.1233 20.0339 47.8318 20 39.4304 20C27.8181 20 25.8281 20.0227 25.2966 20.1697C24.9575 20.26 24.3696 20.5088 24.0076 20.7009C23.6233 20.9045 23.0466 21.3794 22.6621 21.7979C22.2324 22.2615 21.8367 22.8267 21.6106 23.3242C21.407 23.7539 21.1921 24.4211 21.1243 24.7942C21.0339 25.269 21 29.9275 21 40.0022C21 52.3721 21.0339 54.6448 21.1697 55.3232C21.26 55.7642 21.4976 56.4426 21.7009 56.8499C21.9158 57.2908 22.3342 57.8562 22.7412 58.2744C23.2163 58.7607 23.6912 59.0999 24.2791 59.3826C24.7427 59.5974 25.4551 59.8347 25.8621 59.9026C26.3257 59.9819 28.7341 60.0156 32.4993 59.9932L38.3904 59.9592C38.8538 59.5183 39.0122 59.2129 39.0461 58.998C39.0801 58.772 39.0461 58.4666 38.9556 58.2744C38.8765 58.0935 38.7407 57.8899 38.6504 57.8223C38.5374 57.7317 36.6265 57.6753 32.3184 57.6414C26.5518 57.5847 26.1108 57.562 25.5793 57.3586C25.2627 57.2341 24.7878 56.9175 24.5051 56.6235C24.2224 56.3408 23.8833 55.9114 23.7703 55.6626C23.5442 55.2214 23.5442 54.8711 23.5103 40.1719C23.4875 27.2139 23.5103 25.0657 23.6572 24.6245C23.7476 24.3418 24.0415 23.8669 24.3018 23.5618C24.573 23.2563 25.0479 22.8721 25.3533 22.7136L25.9185 22.4197L52.9424 22.4197C53.9036 22.8833 54.356 23.2 54.5593 23.426C54.7517 23.6521 55.0342 24.0479 55.1814 24.3081L55.4299 24.7942L55.5432 43.53C56.1875 44.1067 56.3911 44.1858 56.7417 44.1858C57.1035 44.1858 57.2732 44.1179 57.5332 43.8467L57.8611 43.5073C57.8611 28.175 57.8159 24.7263 57.7366 24.3984C57.6689 24.1157 57.4653 23.5618 57.2617 23.1548C57.0356 22.6685 56.6626 22.1709 56.1763 21.6848C55.6902 21.21 55.1587 20.8254 54.6724 20.5767C54.2427 20.3845 53.6887 20.1697 53.4287 20.1018ZM48.1482 29.5657L47.8203 29.2039C31.5044 29.1475 31.3347 29.1475 30.9841 29.3735C30.7466 29.5205 30.5657 29.7466 30.498 29.9954C30.4187 30.2896 30.4302 30.4817 30.5432 30.7529C30.6223 30.9565 30.8032 31.228 30.9502 31.3523C31.199 31.5784 31.3799 31.5784 39.1365 31.6123C43.4897 31.635 47.2437 31.6123 47.4585 31.5671C47.6733 31.5332 47.99 31.3523 48.1709 31.1714C48.397 30.9226 48.4761 30.7305 48.4761 30.3911C48.4761 30.052 48.397 29.8484 48.1482 29.5657ZM48.0803 39.041L47.6848 38.6453C31.5496 38.6453 31.3347 38.6567 30.9729 38.8716C30.7466 39.0186 30.5657 39.2446 30.498 39.4934C30.4187 39.7874 30.4302 39.991 30.532 40.251C30.6111 40.4546 30.8032 40.7146 30.9614 40.8276C31.2102 41.0085 31.7869 41.0198 39.4871 41.0198C47.1306 41.0198 47.7639 40.9973 47.9788 40.8164C48.1143 40.7146 48.2839 40.511 48.3518 40.364C48.4197 40.2283 48.4761 39.957 48.4761 39.7761C48.4761 39.5386 48.3518 39.3125 48.0803 39.041ZM38.5259 48.3354C38.2207 48.166 37.8137 48.1433 34.7041 48.1433C31.572 48.1433 31.2102 48.166 30.9614 48.3354C30.8032 48.4485 30.6111 48.7087 30.532 48.9009C30.4302 49.1724 30.4187 49.3757 30.498 49.6697C30.5544 49.8845 30.7466 50.1672 30.9163 50.2917C31.2217 50.5178 31.3911 50.5291 34.7832 50.5178L38.3225 50.5178C38.967 49.8506 39.0913 49.6245 39.0913 49.3872C39.0913 49.2061 39.0347 48.9348 38.9783 48.7878C38.9104 48.6521 38.7068 48.4485 38.5259 48.3354ZM57.522 48.4824C57.2617 48.2224 57.0808 48.1433 56.7529 48.1433C56.4929 48.1433 56.199 48.2339 56.0405 48.3582C55.8936 48.4712 53.9375 50.4839 51.6987 52.8245C49.46 55.165 47.6055 57.0759 47.5715 57.0759C47.5376 57.0759 47.0288 56.6235 46.4409 56.0808C45.853 55.5381 45.197 54.9502 44.9937 54.7805C44.7336 54.5657 44.5073 54.4753 44.1794 54.4753C43.8628 54.4753 43.6255 54.5544 43.3879 54.7581C43.1846 54.9275 43.0261 55.199 42.981 55.4023C42.947 55.606 42.9697 55.8999 43.0376 56.0583C43.1052 56.2166 43.9985 57.0986 45.0388 58.0371C46.0679 58.9641 47.0742 59.8008 47.2664 59.8914C47.4924 59.9819 47.7639 60.0044 47.9673 59.9592C48.1597 59.9141 48.5327 59.6426 48.8154 59.3486C49.0981 59.0547 51.1785 56.8611 53.4514 54.4866C55.7241 52.1008 57.635 50.043 57.7141 49.9072C57.7932 49.7827 57.8499 49.4775 57.8611 49.24C57.8611 48.9236 57.782 48.7427 57.522 48.4824Z" clip-rule="evenodd" fill="#FFFFFF" fill-opacity="1.000000" fill-rule="evenodd" mask="url(#mask_1_1003)"/>
	<path id="Subtract" d="" fill="#000000" fill-opacity="0.000000" fill-rule="nonzero"/>
</svg>
