<svg width="80.000000" height="80.000000" viewBox="0 0 80 80" fill="none" xmlns="http://www.w3.org/2000/svg" xmlns:xlink="http://www.w3.org/1999/xlink">
	<desc>
			Created with Pixso.
	</desc>
	<defs/>
	<rect id="Rectangle 34624489" x="80.000000" y="80.000000" rx="40.000004" width="80.000008" height="80.000008" transform="rotate(180 80.000000 80.000000)" fill="#219BE0" fill-opacity="1.000000"/>
	<mask id="mask_1_1006" fill="white">
		<path id="Subtract" d="M29.3765 20C29.5305 20 29.7212 20.0999 30.1655 20.5442L30.1655 28.4353L36.3333 28.4353L36.3333 20.5442L36.5964 20.2722C36.7595 20.1089 36.9592 20 37.0952 20C37.2222 20 37.5034 20.0908 37.7119 20.1995C37.9297 20.2993 38.3289 20.5532 38.6008 20.7529C38.873 20.9524 39.3628 21.3877 39.6895 21.7144C40.0159 22.0408 40.4512 22.5579 40.6509 22.8572C40.8594 23.1565 41.1587 23.6643 41.322 23.991C41.4854 24.3174 41.6938 24.8074 41.7937 25.0793C41.8843 25.3516 42.0205 25.8413 42.093 26.1677C42.1565 26.4944 42.238 27.0386 42.2744 27.3923C42.3105 27.7371 42.2925 28.4353 42.238 28.9343C42.1836 29.4331 42.0566 30.1497 41.9478 30.5215C41.8481 30.8933 41.6304 31.4829 41.467 31.8367C41.304 32.1814 40.9954 32.7346 40.7778 33.0613C40.5601 33.3877 40.2153 33.8232 40.0068 34.0408C39.8074 34.2585 39.6621 34.4309 39.6895 34.4309C39.7056 34.4255 39.8474 34.4297 40.0554 34.436L40.0554 34.436C40.1963 34.4402 40.3677 34.4453 40.551 34.449C41.2131 34.467 41.449 34.5125 41.8027 34.6938C42.1111 34.8572 43.0908 35.7642 45.0498 37.7324C46.7915 39.4739 47.8889 40.5081 47.9343 40.4536C47.9795 40.4082 48.0613 40.2085 48.1157 40.0181C48.1792 39.7913 48.3062 39.6372 48.4875 39.5464C48.7144 39.4285 49.449 39.4104 53.2947 39.4104C57.1406 39.4104 57.8752 39.4285 58.1021 39.5464C58.2471 39.6191 58.4104 39.7913 58.4558 39.9275C58.5012 40.0725 58.5193 40.2812 58.5012 40.4082C58.4739 40.5352 58.356 40.7346 57.9932 41.0884L49.7573 41.1338L49.7573 55.9185L56.7869 55.873L56.8049 50.4761C56.8232 46.3401 56.8594 45.0249 56.9412 44.8616C57.0046 44.7437 57.1677 44.5896 57.304 44.5261C57.449 44.4536 57.6667 44.4172 57.8027 44.4443C57.9478 44.4717 58.1565 44.5896 58.5103 44.9614L58.5374 50.8662C58.5557 56.3628 58.5464 56.7981 58.4014 57.0974C58.2834 57.3333 58.1384 57.4421 57.8752 57.533C57.594 57.6235 56.5239 57.6416 53.1133 57.6235C49.0952 57.5964 48.687 57.5781 48.4602 57.4331C48.3242 57.3516 48.1702 57.1792 48.1248 57.0522C48.0703 56.907 48.0339 54.322 48.0339 43.084L44.6145 39.6643C42.1292 37.1882 41.1133 36.2268 40.9138 36.1814C40.7595 36.145 40.4785 36.145 40.2788 36.1724C39.9524 36.2268 39.7256 36.4172 38.0747 38.0681C37.0588 39.084 36.1702 40.0181 36.0974 40.1543C36.0249 40.2993 35.9705 40.5715 35.9705 40.771C35.9705 41.0522 36.0339 41.2063 36.2607 41.4602C36.4241 41.6326 36.678 41.8232 36.8323 41.8684C37.0137 41.929 37.2253 41.929 37.467 41.8684C37.7483 41.7959 38.0386 41.5691 38.7822 40.8074C39.3083 40.2812 39.8708 39.7915 40.0249 39.7188C40.2881 39.6099 40.3696 39.6099 40.6416 39.7278C40.814 39.8005 40.9954 39.9456 41.0498 40.0454C41.0952 40.145 41.1406 40.3718 41.1406 40.5442C41.1406 40.8254 41.0317 40.9705 40.2971 41.7415C39.8435 42.2222 39.2178 42.7937 38.9185 43.0112C38.6191 43.229 38.2109 43.4558 38.0112 43.5103C37.8118 43.5557 37.3855 43.6008 37.0588 43.5918C36.6055 43.5918 36.3516 43.5283 35.925 43.3198C35.6167 43.1746 35.2268 42.8843 35.0271 42.6667C34.8367 42.449 34.5918 42.0862 34.4919 41.8594C34.3923 41.6326 34.2925 41.2063 34.2654 40.907C34.238 40.5442 34.2744 40.1904 34.3743 39.864C34.4648 39.5918 34.6191 39.238 34.7188 39.093C34.8276 38.9478 35.4536 38.2676 37.313 36.3718L37.3765 34.2495L38.1655 33.4512C38.6008 33.0159 39.0544 32.5261 39.1724 32.3809C39.2993 32.2358 39.5623 31.7822 39.771 31.3833C39.9705 30.9841 40.2246 30.3311 40.3333 29.9319C40.4875 29.3787 40.533 28.9434 40.533 28.0725C40.542 27.2654 40.4966 26.7573 40.3787 26.304C40.2881 25.9502 40.0793 25.3877 39.925 25.0339C39.762 24.6802 39.4988 24.1904 39.3264 23.9456C39.1543 23.6917 38.8457 23.3015 38.6282 23.0566C38.4104 22.8208 38.1926 22.6484 38.1475 22.6758C38.093 22.7029 38.0566 23.9092 38.0566 26.0046C38.0566 27.991 38.0205 29.415 37.9661 29.5874C37.9116 29.7778 37.7754 29.9412 37.6033 30.0227C37.3765 30.1406 36.687 30.1587 33.2041 30.1587C29.4219 30.1587 29.0588 30.1497 28.8503 29.9954C28.7234 29.9138 28.5781 29.7144 28.5239 29.5691C28.4785 29.415 28.4421 27.864 28.4421 22.4944L28.0249 22.9026C27.7981 23.1292 27.4443 23.5557 27.2358 23.855C27.0364 24.1543 26.7371 24.6802 26.5737 25.0339C26.4104 25.3877 26.2109 25.9319 26.1201 26.2585C26.0022 26.6758 25.957 27.1836 25.957 28.0271C25.9478 28.8889 25.9932 29.3787 26.1201 29.8413C26.2109 30.1951 26.4468 30.8027 26.6372 31.2019C26.8276 31.6008 27.1724 32.1724 27.3992 32.4717C27.6257 32.771 28.1067 33.2881 29.1226 34.2222L29.1677 37.2336L30.3198 37.2607C31.3538 37.2788 31.5352 37.3062 31.925 37.5056C32.1702 37.6326 32.533 37.8958 32.7324 38.0952C32.9319 38.2947 33.1951 38.6848 33.322 38.957C33.5034 39.3469 33.5488 39.6008 33.5488 40.136C33.5488 40.635 33.4944 40.9343 33.3491 41.2698C33.2405 41.5146 33.0588 41.814 32.9502 41.9319C32.7595 42.1316 32.7595 42.1497 32.9048 42.3855C32.9863 42.5215 33.1497 42.7937 33.2585 42.9932C33.3674 43.1926 33.4854 43.5828 33.5305 43.855C33.5759 44.1724 33.5669 44.5532 33.5034 44.8979C33.4309 45.2427 33.2856 45.6055 33.0862 45.8958C32.7869 46.3311 32.7869 46.3584 32.9319 46.5759C33.0137 46.7029 33.186 47.0295 33.313 47.3015C33.4854 47.6736 33.5488 47.9456 33.5488 48.3901C33.5488 48.7166 33.4944 49.1428 33.4309 49.3423C33.3674 49.542 33.1951 49.8774 33.0588 50.0862C32.9138 50.304 32.7959 50.4944 32.7959 50.5215C32.7959 50.5488 32.9138 50.7393 33.0588 50.9478C33.1951 51.1655 33.3674 51.5012 33.4309 51.7007C33.5034 51.9001 33.5488 52.3264 33.5488 52.6531C33.5488 53.0793 33.4854 53.3787 33.322 53.7415C33.2041 54.0137 32.9773 54.3855 32.8232 54.5579C32.6689 54.7302 32.3516 54.9841 32.1067 55.1201C31.8616 55.2563 31.3992 55.4014 31.0725 55.4558C30.7461 55.5103 30.2471 55.5557 29.957 55.5557C29.5215 55.5557 29.4399 55.5828 29.4399 55.7097C29.4399 55.8005 29.5669 56.0725 29.7029 56.3264C29.8481 56.5715 30.1746 56.9705 30.4285 57.2063C30.6826 57.4512 31.145 57.7595 31.4536 57.9138C31.771 58.0588 32.3062 58.2222 32.6599 58.2676C33.0681 58.3311 33.5034 58.3311 33.8843 58.2766C34.2109 58.2312 34.7188 58.0681 35.0181 57.9229C35.3174 57.7778 35.7256 57.5146 35.925 57.3423C36.1248 57.1792 36.4512 56.7981 36.6416 56.4988C36.8413 56.2085 37.0771 55.7371 37.1677 55.4648C37.322 55.0112 37.3311 54.6123 37.3311 50.9297C37.3311 48.5352 37.3674 46.7573 37.4219 46.5488C37.4761 46.3674 37.6033 46.1497 37.7119 46.0771C37.8298 46.0046 38.0657 45.9412 38.238 45.9412C38.4285 45.9412 38.6372 46.0137 38.7551 46.1226C38.873 46.2222 38.9729 46.313 38.9819 46.322C38.991 46.3401 39.0271 48.0271 39.0999 53.7869L42.6372 53.8323C44.5781 53.8594 46.1836 53.8958 46.1926 53.9048C46.2109 53.9138 46.3015 54.0137 46.4014 54.1226C46.5103 54.2405 46.5828 54.458 46.5828 54.6213C46.5828 54.7847 46.5374 55.0022 46.4919 55.1021C46.4377 55.2019 46.3105 55.3379 46.1926 55.3923C46.0476 55.4829 45.0408 55.5193 38.9365 55.6008L38.7822 56.0544C38.7007 56.2993 38.5374 56.6895 38.4194 56.916C38.3015 57.1428 38.0205 57.5601 37.7937 57.8503C37.5669 58.1406 37.1497 58.5579 36.8774 58.7754C36.6055 58.9932 36.1157 59.2925 35.7891 59.4468C35.4626 59.6008 34.9729 59.7915 34.7007 59.864C34.4104 59.9365 33.8027 60 33.2676 60C32.7595 60 32.1519 59.9546 31.907 59.9001C31.6711 59.8457 31.0999 59.6191 30.6372 59.4014C29.9661 59.084 29.6758 58.8752 29.1406 58.3401C28.7505 57.9502 28.3606 57.4421 28.1792 57.0974C28.0068 56.771 27.7981 56.2993 27.5623 55.6008L26.5283 55.5464C25.957 55.5103 25.3491 55.4558 25.1768 55.4194C25.0046 55.3833 24.7144 55.2834 24.542 55.1926C24.3696 55.1021 24.0613 54.8752 23.8616 54.6848C23.6621 54.4854 23.3901 54.1226 23.2722 53.8774C23.1179 53.5691 23.0364 53.2246 23.0181 52.7891C23 52.4353 23.0271 51.991 23.0725 51.7915C23.127 51.5918 23.3083 51.22 23.7891 50.5215L23.5715 50.2495C23.4536 50.1042 23.2812 49.7595 23.1814 49.4966C23.0635 49.2063 23 48.8074 23 48.4353C23 48.0635 23.0635 47.6736 23.1814 47.365C23.2812 47.1111 23.4626 46.7664 23.7891 46.3491L23.4807 45.8958C23.3083 45.6418 23.136 45.2971 23.0908 45.1248C23.0364 44.9524 23 44.5623 23 44.2629C23 43.9636 23.0635 43.5374 23.136 43.3105C23.2178 43.084 23.3809 42.7664 23.5081 42.6033C23.6257 42.449 23.7256 42.2676 23.7256 42.2222C23.7256 42.1768 23.6077 41.9592 23.4626 41.7415C23.3264 41.533 23.1633 41.2153 23.0999 41.043C23.0454 40.8708 23 40.4443 23 40.0908C23 39.6008 23.0544 39.3379 23.2358 38.957C23.3628 38.6848 23.6167 38.304 23.7981 38.1133C23.9795 37.9229 24.3333 37.6509 24.5874 37.5239C24.9863 37.3152 25.1768 37.2788 27.3992 37.1882L27.4443 35.0112L26.7371 34.2856C26.356 33.8867 25.8933 33.3333 25.7119 33.0613C25.5305 32.7891 25.2766 32.3447 25.1406 32.0815C25.0137 31.8276 24.7869 31.2563 24.6416 30.8118C24.4695 30.322 24.3333 29.6326 24.2607 28.9795C24.1792 28.145 24.1792 27.7551 24.2698 27.0295C24.3333 26.5305 24.4512 25.8774 24.542 25.5781C24.6326 25.2788 24.814 24.771 24.9502 24.4443C25.0862 24.1179 25.4126 23.5283 25.6667 23.1292C25.9297 22.7302 26.365 22.1677 26.6372 21.8684C26.9092 21.5781 27.4082 21.1248 27.762 20.8616C28.1067 20.5986 28.5601 20.2993 28.7595 20.1995C28.9592 20.0908 29.2312 20.009 29.3674 20L29.3765 20ZM24.8142 39.6013C24.8867 39.438 25.0771 39.2205 25.2224 39.1296C25.4763 38.9756 25.7122 38.9573 28.261 38.9573C31 38.9482 31.0273 38.9573 31.3447 39.166C31.5535 39.302 31.7075 39.5015 31.7983 39.7556C31.9163 40.0911 31.9163 40.1819 31.7983 40.5173C31.7075 40.7715 31.5535 40.9709 31.3447 41.1069C31.0273 41.3157 31 41.3247 28.2881 41.3157C26.0295 41.3157 25.4944 41.2883 25.2676 41.1794C25.1226 41.1069 24.9321 40.9075 24.8503 40.7532C24.7688 40.5901 24.6963 40.3269 24.6963 40.1819C24.6873 40.0366 24.7417 39.7737 24.8142 39.6013ZM24.9866 43.4744C25.0862 43.3384 25.304 43.1841 25.4673 43.1387C25.6306 43.0933 26.9458 43.0571 28.397 43.0662C30.7371 43.0842 31.0637 43.1025 31.2812 43.2476C31.4172 43.3291 31.5896 43.4924 31.6624 43.6104C31.7349 43.7192 31.8254 43.9551 31.8528 44.1274C31.8979 44.345 31.8618 44.5537 31.7439 44.7986C31.644 44.998 31.4446 45.2339 31.2993 45.3247C31.0544 45.4697 30.7644 45.488 25.449 45.488L25.1226 45.1978C24.9412 45.0254 24.7688 44.7622 24.7234 44.5808C24.6782 44.4087 24.6782 44.1455 24.7234 43.9915C24.7688 43.8462 24.8867 43.6104 24.9866 43.4744ZM25.3674 47.3745C25.1951 47.4563 24.9775 47.6284 24.8867 47.7556C24.7869 47.8916 24.7053 48.1545 24.6963 48.3904C24.6873 48.6353 24.7507 48.8984 24.8413 49.0525C24.9231 49.1887 25.1316 49.3792 25.2859 49.4788C25.5762 49.6511 25.7122 49.6602 28.3789 49.6421L31.1814 49.615C31.6624 49.0889 31.8254 48.7986 31.8528 48.6443C31.8979 48.4448 31.8528 48.2271 31.7439 47.9822C31.644 47.7827 31.4265 47.5288 31.2542 47.4109C30.9458 47.2112 30.9004 47.2021 28.3062 47.2112C25.9841 47.2112 25.6396 47.2295 25.3674 47.3745ZM24.9502 51.8281C25.0771 51.6738 25.2676 51.5105 25.3855 51.4744C25.4944 51.429 26.7825 51.3926 28.2336 51.3926C30.2473 51.3835 30.9639 51.4109 31.1814 51.5015C31.3447 51.5742 31.5625 51.7463 31.6531 51.8916C31.762 52.0549 31.8345 52.3179 31.8345 52.5808C31.8438 52.8711 31.7893 53.0798 31.6531 53.2612C31.5535 53.3972 31.3267 53.5876 31.1543 53.6694C30.8821 53.8145 30.5466 53.8325 28.2791 53.8325C26.3743 53.8325 25.6487 53.8054 25.4219 53.7146C25.2676 53.6511 25.041 53.4697 24.9412 53.3247C24.8323 53.1794 24.7324 52.9346 24.7234 52.7896C24.7053 52.6443 24.7053 52.4268 24.7053 52.3179C24.7144 52.2 24.8232 51.9822 24.9502 51.8281Z" clip-rule="evenodd" fill="" fill-opacity="1.000000" fill-rule="evenodd"/>
	</mask>
	<path id="Subtract" d="M29.3765 20C29.5305 20 29.7212 20.0999 30.1655 20.5442L30.1655 28.4353L36.3333 28.4353L36.3333 20.5442L36.5964 20.2722C36.7595 20.1089 36.9592 20 37.0952 20C37.2222 20 37.5034 20.0908 37.7119 20.1995C37.9297 20.2993 38.3289 20.5532 38.6008 20.7529C38.873 20.9524 39.3628 21.3877 39.6895 21.7144C40.0159 22.0408 40.4512 22.5579 40.6509 22.8572C40.8594 23.1565 41.1587 23.6643 41.322 23.991C41.4854 24.3174 41.6938 24.8074 41.7937 25.0793C41.8843 25.3516 42.0205 25.8413 42.093 26.1677C42.1565 26.4944 42.238 27.0386 42.2744 27.3923C42.3105 27.7371 42.2925 28.4353 42.238 28.9343C42.1836 29.4331 42.0566 30.1497 41.9478 30.5215C41.8481 30.8933 41.6304 31.4829 41.467 31.8367C41.304 32.1814 40.9954 32.7346 40.7778 33.0613C40.5601 33.3877 40.2153 33.8232 40.0068 34.0408C39.8074 34.2585 39.6621 34.4309 39.6895 34.4309C39.7056 34.4255 39.8474 34.4297 40.0554 34.436L40.0554 34.436C40.1963 34.4402 40.3677 34.4453 40.551 34.449C41.2131 34.467 41.449 34.5125 41.8027 34.6938C42.1111 34.8572 43.0908 35.7642 45.0498 37.7324C46.7915 39.4739 47.8889 40.5081 47.9343 40.4536C47.9795 40.4082 48.0613 40.2085 48.1157 40.0181C48.1792 39.7913 48.3062 39.6372 48.4875 39.5464C48.7144 39.4285 49.449 39.4104 53.2947 39.4104C57.1406 39.4104 57.8752 39.4285 58.1021 39.5464C58.2471 39.6191 58.4104 39.7913 58.4558 39.9275C58.5012 40.0725 58.5193 40.2812 58.5012 40.4082C58.4739 40.5352 58.356 40.7346 57.9932 41.0884L49.7573 41.1338L49.7573 55.9185L56.7869 55.873L56.8049 50.4761C56.8232 46.3401 56.8594 45.0249 56.9412 44.8616C57.0046 44.7437 57.1677 44.5896 57.304 44.5261C57.449 44.4536 57.6667 44.4172 57.8027 44.4443C57.9478 44.4717 58.1565 44.5896 58.5103 44.9614L58.5374 50.8662C58.5557 56.3628 58.5464 56.7981 58.4014 57.0974C58.2834 57.3333 58.1384 57.4421 57.8752 57.533C57.594 57.6235 56.5239 57.6416 53.1133 57.6235C49.0952 57.5964 48.687 57.5781 48.4602 57.4331C48.3242 57.3516 48.1702 57.1792 48.1248 57.0522C48.0703 56.907 48.0339 54.322 48.0339 43.084L44.6145 39.6643C42.1292 37.1882 41.1133 36.2268 40.9138 36.1814C40.7595 36.145 40.4785 36.145 40.2788 36.1724C39.9524 36.2268 39.7256 36.4172 38.0747 38.0681C37.0588 39.084 36.1702 40.0181 36.0974 40.1543C36.0249 40.2993 35.9705 40.5715 35.9705 40.771C35.9705 41.0522 36.0339 41.2063 36.2607 41.4602C36.4241 41.6326 36.678 41.8232 36.8323 41.8684C37.0137 41.929 37.2253 41.929 37.467 41.8684C37.7483 41.7959 38.0386 41.5691 38.7822 40.8074C39.3083 40.2812 39.8708 39.7915 40.0249 39.7188C40.2881 39.6099 40.3696 39.6099 40.6416 39.7278C40.814 39.8005 40.9954 39.9456 41.0498 40.0454C41.0952 40.145 41.1406 40.3718 41.1406 40.5442C41.1406 40.8254 41.0317 40.9705 40.2971 41.7415C39.8435 42.2222 39.2178 42.7937 38.9185 43.0112C38.6191 43.229 38.2109 43.4558 38.0112 43.5103C37.8118 43.5557 37.3855 43.6008 37.0588 43.5918C36.6055 43.5918 36.3516 43.5283 35.925 43.3198C35.6167 43.1746 35.2268 42.8843 35.0271 42.6667C34.8367 42.449 34.5918 42.0862 34.4919 41.8594C34.3923 41.6326 34.2925 41.2063 34.2654 40.907C34.238 40.5442 34.2744 40.1904 34.3743 39.864C34.4648 39.5918 34.6191 39.238 34.7188 39.093C34.8276 38.9478 35.4536 38.2676 37.313 36.3718L37.3765 34.2495L38.1655 33.4512C38.6008 33.0159 39.0544 32.5261 39.1724 32.3809C39.2993 32.2358 39.5623 31.7822 39.771 31.3833C39.9705 30.9841 40.2246 30.3311 40.3333 29.9319C40.4875 29.3787 40.533 28.9434 40.533 28.0725C40.542 27.2654 40.4966 26.7573 40.3787 26.304C40.2881 25.9502 40.0793 25.3877 39.925 25.0339C39.762 24.6802 39.4988 24.1904 39.3264 23.9456C39.1543 23.6917 38.8457 23.3015 38.6282 23.0566C38.4104 22.8208 38.1926 22.6484 38.1475 22.6758C38.093 22.7029 38.0566 23.9092 38.0566 26.0046C38.0566 27.991 38.0205 29.415 37.9661 29.5874C37.9116 29.7778 37.7754 29.9412 37.6033 30.0227C37.3765 30.1406 36.687 30.1587 33.2041 30.1587C29.4219 30.1587 29.0588 30.1497 28.8503 29.9954C28.7234 29.9138 28.5781 29.7144 28.5239 29.5691C28.4785 29.415 28.4421 27.864 28.4421 22.4944L28.0249 22.9026C27.7981 23.1292 27.4443 23.5557 27.2358 23.855C27.0364 24.1543 26.7371 24.6802 26.5737 25.0339C26.4104 25.3877 26.2109 25.9319 26.1201 26.2585C26.0022 26.6758 25.957 27.1836 25.957 28.0271C25.9478 28.8889 25.9932 29.3787 26.1201 29.8413C26.2109 30.1951 26.4468 30.8027 26.6372 31.2019C26.8276 31.6008 27.1724 32.1724 27.3992 32.4717C27.6257 32.771 28.1067 33.2881 29.1226 34.2222L29.1677 37.2336L30.3198 37.2607C31.3538 37.2788 31.5352 37.3062 31.925 37.5056C32.1702 37.6326 32.533 37.8958 32.7324 38.0952C32.9319 38.2947 33.1951 38.6848 33.322 38.957C33.5034 39.3469 33.5488 39.6008 33.5488 40.136C33.5488 40.635 33.4944 40.9343 33.3491 41.2698C33.2405 41.5146 33.0588 41.814 32.9502 41.9319C32.7595 42.1316 32.7595 42.1497 32.9048 42.3855C32.9863 42.5215 33.1497 42.7937 33.2585 42.9932C33.3674 43.1926 33.4854 43.5828 33.5305 43.855C33.5759 44.1724 33.5669 44.5532 33.5034 44.8979C33.4309 45.2427 33.2856 45.6055 33.0862 45.8958C32.7869 46.3311 32.7869 46.3584 32.9319 46.5759C33.0137 46.7029 33.186 47.0295 33.313 47.3015C33.4854 47.6736 33.5488 47.9456 33.5488 48.3901C33.5488 48.7166 33.4944 49.1428 33.4309 49.3423C33.3674 49.542 33.1951 49.8774 33.0588 50.0862C32.9138 50.304 32.7959 50.4944 32.7959 50.5215C32.7959 50.5488 32.9138 50.7393 33.0588 50.9478C33.1951 51.1655 33.3674 51.5012 33.4309 51.7007C33.5034 51.9001 33.5488 52.3264 33.5488 52.6531C33.5488 53.0793 33.4854 53.3787 33.322 53.7415C33.2041 54.0137 32.9773 54.3855 32.8232 54.5579C32.6689 54.7302 32.3516 54.9841 32.1067 55.1201C31.8616 55.2563 31.3992 55.4014 31.0725 55.4558C30.7461 55.5103 30.2471 55.5557 29.957 55.5557C29.5215 55.5557 29.4399 55.5828 29.4399 55.7097C29.4399 55.8005 29.5669 56.0725 29.7029 56.3264C29.8481 56.5715 30.1746 56.9705 30.4285 57.2063C30.6826 57.4512 31.145 57.7595 31.4536 57.9138C31.771 58.0588 32.3062 58.2222 32.6599 58.2676C33.0681 58.3311 33.5034 58.3311 33.8843 58.2766C34.2109 58.2312 34.7188 58.0681 35.0181 57.9229C35.3174 57.7778 35.7256 57.5146 35.925 57.3423C36.1248 57.1792 36.4512 56.7981 36.6416 56.4988C36.8413 56.2085 37.0771 55.7371 37.1677 55.4648C37.322 55.0112 37.3311 54.6123 37.3311 50.9297C37.3311 48.5352 37.3674 46.7573 37.4219 46.5488C37.4761 46.3674 37.6033 46.1497 37.7119 46.0771C37.8298 46.0046 38.0657 45.9412 38.238 45.9412C38.4285 45.9412 38.6372 46.0137 38.7551 46.1226C38.873 46.2222 38.9729 46.313 38.9819 46.322C38.991 46.3401 39.0271 48.0271 39.0999 53.7869L42.6372 53.8323C44.5781 53.8594 46.1836 53.8958 46.1926 53.9048C46.2109 53.9138 46.3015 54.0137 46.4014 54.1226C46.5103 54.2405 46.5828 54.458 46.5828 54.6213C46.5828 54.7847 46.5374 55.0022 46.4919 55.1021C46.4377 55.2019 46.3105 55.3379 46.1926 55.3923C46.0476 55.4829 45.0408 55.5193 38.9365 55.6008L38.7822 56.0544C38.7007 56.2993 38.5374 56.6895 38.4194 56.916C38.3015 57.1428 38.0205 57.5601 37.7937 57.8503C37.5669 58.1406 37.1497 58.5579 36.8774 58.7754C36.6055 58.9932 36.1157 59.2925 35.7891 59.4468C35.4626 59.6008 34.9729 59.7915 34.7007 59.864C34.4104 59.9365 33.8027 60 33.2676 60C32.7595 60 32.1519 59.9546 31.907 59.9001C31.6711 59.8457 31.0999 59.6191 30.6372 59.4014C29.9661 59.084 29.6758 58.8752 29.1406 58.3401C28.7505 57.9502 28.3606 57.4421 28.1792 57.0974C28.0068 56.771 27.7981 56.2993 27.5623 55.6008L26.5283 55.5464C25.957 55.5103 25.3491 55.4558 25.1768 55.4194C25.0046 55.3833 24.7144 55.2834 24.542 55.1926C24.3696 55.1021 24.0613 54.8752 23.8616 54.6848C23.6621 54.4854 23.3901 54.1226 23.2722 53.8774C23.1179 53.5691 23.0364 53.2246 23.0181 52.7891C23 52.4353 23.0271 51.991 23.0725 51.7915C23.127 51.5918 23.3083 51.22 23.7891 50.5215L23.5715 50.2495C23.4536 50.1042 23.2812 49.7595 23.1814 49.4966C23.0635 49.2063 23 48.8074 23 48.4353C23 48.0635 23.0635 47.6736 23.1814 47.365C23.2812 47.1111 23.4626 46.7664 23.7891 46.3491L23.4807 45.8958C23.3083 45.6418 23.136 45.2971 23.0908 45.1248C23.0364 44.9524 23 44.5623 23 44.2629C23 43.9636 23.0635 43.5374 23.136 43.3105C23.2178 43.084 23.3809 42.7664 23.5081 42.6033C23.6257 42.449 23.7256 42.2676 23.7256 42.2222C23.7256 42.1768 23.6077 41.9592 23.4626 41.7415C23.3264 41.533 23.1633 41.2153 23.0999 41.043C23.0454 40.8708 23 40.4443 23 40.0908C23 39.6008 23.0544 39.3379 23.2358 38.957C23.3628 38.6848 23.6167 38.304 23.7981 38.1133C23.9795 37.9229 24.3333 37.6509 24.5874 37.5239C24.9863 37.3152 25.1768 37.2788 27.3992 37.1882L27.4443 35.0112L26.7371 34.2856C26.356 33.8867 25.8933 33.3333 25.7119 33.0613C25.5305 32.7891 25.2766 32.3447 25.1406 32.0815C25.0137 31.8276 24.7869 31.2563 24.6416 30.8118C24.4695 30.322 24.3333 29.6326 24.2607 28.9795C24.1792 28.145 24.1792 27.7551 24.2698 27.0295C24.3333 26.5305 24.4512 25.8774 24.542 25.5781C24.6326 25.2788 24.814 24.771 24.9502 24.4443C25.0862 24.1179 25.4126 23.5283 25.6667 23.1292C25.9297 22.7302 26.365 22.1677 26.6372 21.8684C26.9092 21.5781 27.4082 21.1248 27.762 20.8616C28.1067 20.5986 28.5601 20.2993 28.7595 20.1995C28.9592 20.0908 29.2312 20.009 29.3674 20L29.3765 20ZM24.8142 39.6013C24.8867 39.438 25.0771 39.2205 25.2224 39.1296C25.4763 38.9756 25.7122 38.9573 28.261 38.9573C31 38.9482 31.0273 38.9573 31.3447 39.166C31.5535 39.302 31.7075 39.5015 31.7983 39.7556C31.9163 40.0911 31.9163 40.1819 31.7983 40.5173C31.7075 40.7715 31.5535 40.9709 31.3447 41.1069C31.0273 41.3157 31 41.3247 28.2881 41.3157C26.0295 41.3157 25.4944 41.2883 25.2676 41.1794C25.1226 41.1069 24.9321 40.9075 24.8503 40.7532C24.7688 40.5901 24.6963 40.3269 24.6963 40.1819C24.6873 40.0366 24.7417 39.7737 24.8142 39.6013ZM24.9866 43.4744C25.0862 43.3384 25.304 43.1841 25.4673 43.1387C25.6306 43.0933 26.9458 43.0571 28.397 43.0662C30.7371 43.0842 31.0637 43.1025 31.2812 43.2476C31.4172 43.3291 31.5896 43.4924 31.6624 43.6104C31.7349 43.7192 31.8254 43.9551 31.8528 44.1274C31.8979 44.345 31.8618 44.5537 31.7439 44.7986C31.644 44.998 31.4446 45.2339 31.2993 45.3247C31.0544 45.4697 30.7644 45.488 25.449 45.488L25.1226 45.1978C24.9412 45.0254 24.7688 44.7622 24.7234 44.5808C24.6782 44.4087 24.6782 44.1455 24.7234 43.9915C24.7688 43.8462 24.8867 43.6104 24.9866 43.4744ZM25.3674 47.3745C25.1951 47.4563 24.9775 47.6284 24.8867 47.7556C24.7869 47.8916 24.7053 48.1545 24.6963 48.3904C24.6873 48.6353 24.7507 48.8984 24.8413 49.0525C24.9231 49.1887 25.1316 49.3792 25.2859 49.4788C25.5762 49.6511 25.7122 49.6602 28.3789 49.6421L31.1814 49.615C31.6624 49.0889 31.8254 48.7986 31.8528 48.6443C31.8979 48.4448 31.8528 48.2271 31.7439 47.9822C31.644 47.7827 31.4265 47.5288 31.2542 47.4109C30.9458 47.2112 30.9004 47.2021 28.3062 47.2112C25.9841 47.2112 25.6396 47.2295 25.3674 47.3745ZM24.9502 51.8281C25.0771 51.6738 25.2676 51.5105 25.3855 51.4744C25.4944 51.429 26.7825 51.3926 28.2336 51.3926C30.2473 51.3835 30.9639 51.4109 31.1814 51.5015C31.3447 51.5742 31.5625 51.7463 31.6531 51.8916C31.762 52.0549 31.8345 52.3179 31.8345 52.5808C31.8438 52.8711 31.7893 53.0798 31.6531 53.2612C31.5535 53.3972 31.3267 53.5876 31.1543 53.6694C30.8821 53.8145 30.5466 53.8325 28.2791 53.8325C26.3743 53.8325 25.6487 53.8054 25.4219 53.7146C25.2676 53.6511 25.041 53.4697 24.9412 53.3247C24.8323 53.1794 24.7324 52.9346 24.7234 52.7896C24.7053 52.6443 24.7053 52.4268 24.7053 52.3179C24.7144 52.2 24.8232 51.9822 24.9502 51.8281Z" clip-rule="evenodd" fill="#FFFFFF" fill-opacity="1.000000" fill-rule="evenodd" mask="url(#mask_1_1006)"/>
	<path id="Subtract" d="" fill="#000000" fill-opacity="0.000000" fill-rule="nonzero"/>
</svg>
