<svg width="80.000000" height="80.000000" viewBox="0 0 80 80" fill="none" xmlns="http://www.w3.org/2000/svg" xmlns:xlink="http://www.w3.org/1999/xlink">
	<desc>
			Created with Pixso.
	</desc>
	<defs/>
	<rect id="Rectangle 34624488" x="80.000000" y="80.000000" rx="40.000004" width="80.000008" height="80.000008" transform="rotate(180 80.000000 80.000000)" fill="#219BE0" fill-opacity="1.000000"/>
	<path id="Vector" d="M37.96 20.19C38.68 19.84 39.48 19.42 39.74 19.27C40.01 19.12 40.24 19 40.27 19C40.29 19 40.64 19.19 41.06 19.44C41.48 19.68 42.09 20.03 42.4 20.2C42.72 20.38 43.56 20.81 44.27 21.16C44.97 21.51 46.05 22.01 46.66 22.28C47.27 22.54 47.97 22.84 48.2 22.93C48.4 23.01 48.67 23.12 48.86 23.19C48.9 23.21 48.94 23.22 48.98 23.24C49.08 23.27 49.2 23.32 49.29 23.35C49.36 23.38 49.42 23.4 49.45 23.41C49.51 23.43 49.75 23.51 50.03 23.61C50.11 23.64 50.19 23.67 50.28 23.7C50.66 23.84 51.48 24.1 52.09 24.28C52.7 24.47 53.35 24.66 53.52 24.7C53.63 24.73 53.78 24.77 53.93 24.81C54.04 24.84 54.15 24.87 54.24 24.9C54.46 24.95 55.02 25.07 55.49 25.17C55.73 25.21 55.95 25.26 56.13 25.29C56.31 25.33 56.43 25.35 56.47 25.36C56.58 25.38 56.58 25.39 56.59 26.43L56.59 26.43C56.59 27.01 56.6 27.54 56.61 27.61C56.62 27.69 56.64 30.17 56.67 33.12C56.7 36.08 56.71 38.77 56.7 39.11C56.7 39.44 56.65 40.05 56.61 40.46C56.56 40.87 56.48 41.5 56.42 41.85C56.36 42.2 56.28 42.65 56.23 42.86C56.19 43.07 56.08 43.53 55.99 43.9C55.9 44.26 55.68 45.01 55.49 45.57C55.31 46.13 55.02 46.9 54.85 47.27C54.69 47.65 54.42 48.23 54.25 48.55C54.08 48.87 53.79 49.39 53.6 49.68C53.41 49.99 53.03 50.54 52.75 50.91C52.44 51.32 51.9 51.93 51.37 52.47C50.89 52.96 50.26 53.54 49.99 53.77C49.71 53.99 49.11 54.42 48.66 54.72C48.2 55.03 47.45 55.48 46.98 55.74C46.51 55.99 45.77 56.38 45.33 56.59C44.89 56.8 44.13 57.17 43.63 57.41C43.13 57.65 42.46 57.99 42.14 58.17C41.82 58.35 41.32 58.61 41.05 58.76C40.63 58.97 40.5 59.01 40.33 58.99C40.2 58.98 39.86 58.83 39.4 58.57C39 58.35 37.64 57.64 36.37 57C35.09 56.36 33.69 55.62 33.25 55.37C32.82 55.11 32.23 54.74 31.95 54.55C31.67 54.36 31.19 54.01 30.89 53.77C30.58 53.54 30 53.02 29.59 52.62C29.18 52.23 28.68 51.69 28.46 51.42C28.26 51.16 27.93 50.73 27.74 50.47C27.55 50.2 27.24 49.74 27.05 49.43C26.86 49.12 26.54 48.56 26.35 48.18C26.16 47.8 25.88 47.2 25.73 46.85C25.59 46.5 25.38 45.97 25.28 45.68C25.18 45.39 25.01 44.86 24.9 44.51C24.8 44.16 24.65 43.56 24.56 43.18C24.47 42.8 24.35 42.22 24.29 41.9C24.23 41.58 24.14 41 24.09 40.62C24 39.98 24 39.4 24 25.62L24.82 25.37C25.27 25.24 26.26 24.92 27 24.67C27.75 24.42 28.6 24.13 28.89 24.02C28.99 23.99 29.1 23.95 29.21 23.91C29.42 23.83 29.64 23.75 29.77 23.7C29.96 23.63 30.27 23.52 30.46 23.45C30.65 23.38 31 23.25 31.23 23.16C31.47 23.07 31.87 22.91 32.14 22.8C32.15 22.79 32.17 22.78 32.19 22.78C32.44 22.67 32.73 22.56 32.85 22.51C32.99 22.46 33.42 22.28 33.81 22.11C34.21 21.94 34.88 21.64 35.3 21.45C35.73 21.27 36.21 21.05 36.37 20.98C36.53 20.91 37.24 20.55 37.96 20.19ZM38.73 23.43C39.26 23.21 39.81 22.96 39.96 22.88L40.23 22.74L41.4 23.31C42.04 23.62 43.02 24.08 43.57 24.32C44.13 24.56 44.88 24.87 45.25 25.02C45.62 25.16 46.32 25.43 46.82 25.61C47.32 25.8 48.13 26.08 48.63 26.25C48.71 26.27 48.79 26.3 48.88 26.33C49.34 26.48 49.88 26.65 50.17 26.73C50.52 26.84 50.99 26.98 51.21 27.03C51.4 27.09 51.64 27.16 51.78 27.2C51.81 27.2 51.83 27.21 51.85 27.22C51.98 27.25 52.43 27.37 52.86 27.47C53.29 27.58 53.73 27.68 54.06 27.75L54.07 32.91C54.08 37.29 54.07 38.19 54 38.89C53.96 39.35 53.88 39.97 53.84 40.28C53.8 40.59 53.72 41.05 53.68 41.31C53.63 41.58 53.54 42.07 53.46 42.41C53.39 42.74 53.27 43.25 53.2 43.52C53.13 43.8 52.98 44.31 52.88 44.64C52.77 44.98 52.57 45.55 52.42 45.92C52.28 46.28 52.03 46.83 51.88 47.14C51.73 47.45 51.57 47.76 51.52 47.83C51.48 47.9 51.3 48.19 51.11 48.47C50.92 48.75 50.59 49.21 50.36 49.48C50.14 49.76 49.69 50.25 49.37 50.57C49.06 50.9 48.61 51.31 48.39 51.48C48.17 51.66 47.84 51.92 47.65 52.07C47.45 52.22 47.12 52.45 46.9 52.59C46.68 52.73 46.32 52.96 46.1 53.09C45.88 53.22 45.37 53.49 44.96 53.69C44.55 53.89 44.06 54.12 43.87 54.19C43.68 54.27 43.31 54.41 43.04 54.5C42.78 54.61 42.27 54.77 41.9 54.87C41.53 54.97 41.07 55.1 40.86 55.14C40.65 55.19 40.41 55.23 40.33 55.23C40.24 55.23 39.94 55.17 39.66 55.1C39.39 55.03 38.95 54.9 38.68 54.81C38.41 54.72 38.01 54.58 37.78 54.49C37.54 54.41 37.04 54.2 36.66 54.03C36.28 53.87 35.7 53.59 35.38 53.42C35.06 53.25 34.71 53.07 34.61 53.01C34.51 52.95 34.26 52.8 34.05 52.67C33.84 52.54 33.4 52.24 33.07 52C32.73 51.77 32.2 51.35 31.9 51.09C31.59 50.83 31.09 50.35 30.78 50.04C30.47 49.72 30.11 49.33 29.98 49.17C29.85 49.01 29.65 48.76 29.54 48.61C29.44 48.46 29.19 48.07 29 47.75C28.81 47.43 28.58 47 28.49 46.8C28.4 46.59 28.24 46.22 28.13 45.97C28.04 45.73 27.92 45.42 27.86 45.25L27.85 45.23C27.8 45.07 27.67 44.66 27.57 44.32C27.47 43.99 27.35 43.55 27.3 43.36C27.26 43.17 27.19 42.9 27.16 42.75L27.16 42.73C27.12 42.57 27.05 42.24 27 41.98C26.96 41.75 26.88 41.33 26.82 40.98C26.81 40.92 26.8 40.86 26.79 40.81C26.74 40.44 26.64 39.8 26.59 39.37C26.51 38.68 26.5 38.07 26.5 27.76L27 27.6C27.28 27.52 28 27.29 28.6 27.1C29.2 26.91 30.35 26.52 31.15 26.25C31.95 25.98 32.91 25.65 33.28 25.52C33.65 25.39 34.17 25.2 34.45 25.1C34.59 25.05 34.77 24.98 34.96 24.91C35.14 24.85 35.32 24.78 35.46 24.73C35.74 24.62 36.37 24.38 36.87 24.18C37.37 23.99 38.21 23.65 38.73 23.43ZM46.47 32.88C46.43 32.93 46.15 33.27 45.85 33.61C45.55 33.96 45.13 34.46 44.91 34.72C44.68 34.98 44.38 35.33 44.24 35.49C44.1 35.65 43.76 36.04 43.49 36.36C43.21 36.68 42.84 37.13 42.64 37.35C42.45 37.57 41.82 38.32 41.23 39C40.65 39.68 40.1 40.31 40.02 40.41C39.94 40.5 39.69 40.79 39.46 41.06C39.24 41.34 39.04 41.55 39.03 41.55C39.01 41.55 38.62 41.03 38.15 40.41C37.68 39.77 37.12 39.02 36.9 38.73C36.68 38.45 36.22 37.84 35.89 37.38L35.27 36.56L31.52 36.55C31.71 36.79 32.01 37.14 32.31 37.49C32.6 37.84 33.03 38.34 33.25 38.6C33.48 38.87 33.78 39.21 33.92 39.37C34.06 39.53 34.33 39.86 34.54 40.1C34.74 40.33 35.34 41.04 35.88 41.67C36.42 42.29 36.98 42.95 37.14 43.12C37.29 43.3 37.77 43.86 38.21 44.36C38.64 44.87 39.01 45.28 39.03 45.28C39.04 45.28 39.16 45.17 39.29 45.03C39.42 44.89 39.85 44.43 40.22 44C40.6 43.58 40.94 43.2 40.97 43.18C41.01 43.15 41.41 42.7 41.88 42.17C42.34 41.65 42.97 40.94 43.28 40.6C43.58 40.26 43.94 39.87 44.08 39.72C44.21 39.58 44.62 39.12 44.98 38.71C45.35 38.3 45.77 37.83 45.92 37.67C46.07 37.51 46.49 37.05 46.84 36.66C47.19 36.27 47.74 35.65 48.05 35.3C48.36 34.95 48.83 34.44 49.08 34.16C49.34 33.88 49.7 33.47 49.9 33.25C50.09 33.04 50.23 32.84 50.22 32.82C50.21 32.79 49.38 32.78 48.37 32.78C46.66 32.78 46.55 32.79 46.47 32.88Z" fill="#FFFFFF" fill-opacity="1.000000" fill-rule="evenodd"/>
	<path id="Vector" d="M39.74 19.27C40.01 19.12 40.24 19 40.27 19C40.29 19 40.64 19.19 41.06 19.44C41.48 19.68 42.09 20.03 42.4 20.2C42.72 20.38 43.56 20.81 44.27 21.16C44.97 21.51 46.05 22.01 46.66 22.28C47.27 22.54 47.97 22.84 48.2 22.93C48.4 23.01 48.67 23.12 48.86 23.19C48.9 23.21 48.94 23.22 48.98 23.24C49.08 23.27 49.2 23.32 49.29 23.35C49.36 23.38 49.42 23.4 49.45 23.41C49.51 23.43 49.75 23.51 50.03 23.61C50.11 23.64 50.19 23.67 50.28 23.7C50.66 23.84 51.48 24.1 52.09 24.28C52.7 24.47 53.35 24.66 53.52 24.7C53.63 24.73 53.78 24.77 53.93 24.81C54.04 24.84 54.15 24.87 54.24 24.9C54.46 24.95 55.02 25.07 55.49 25.17C55.73 25.21 55.95 25.26 56.13 25.29C56.31 25.33 56.43 25.35 56.47 25.36C56.58 25.38 56.58 25.39 56.59 26.43L56.59 26.43C56.59 27.01 56.6 27.54 56.61 27.61C56.62 27.69 56.64 30.17 56.67 33.12C56.7 36.08 56.71 38.77 56.7 39.11C56.7 39.44 56.65 40.05 56.61 40.46C56.56 40.87 56.48 41.5 56.42 41.85C56.36 42.2 56.28 42.65 56.23 42.86C56.19 43.07 56.08 43.53 55.99 43.9C55.9 44.26 55.68 45.01 55.49 45.57C55.31 46.13 55.02 46.9 54.85 47.27C54.69 47.65 54.42 48.23 54.25 48.55C54.08 48.87 53.79 49.39 53.6 49.68C53.41 49.99 53.03 50.54 52.75 50.91C52.44 51.32 51.9 51.93 51.37 52.47C50.89 52.96 50.26 53.54 49.99 53.77C49.71 53.99 49.11 54.42 48.66 54.72C48.2 55.03 47.45 55.48 46.98 55.74C46.51 55.99 45.77 56.38 45.33 56.59C44.89 56.8 44.13 57.17 43.63 57.41C43.13 57.65 42.46 57.99 42.14 58.17C41.82 58.35 41.32 58.61 41.05 58.76C40.63 58.97 40.5 59.01 40.33 58.99C40.2 58.98 39.86 58.83 39.4 58.57C39 58.35 37.64 57.64 36.37 57C35.09 56.36 33.69 55.62 33.25 55.37C32.82 55.11 32.23 54.74 31.95 54.55C31.67 54.36 31.19 54.01 30.89 53.77C30.58 53.54 30 53.02 29.59 52.62C29.18 52.23 28.68 51.69 28.46 51.42C28.26 51.16 27.93 50.73 27.74 50.47C27.55 50.2 27.24 49.74 27.05 49.43C26.86 49.12 26.54 48.56 26.35 48.18C26.16 47.8 25.88 47.2 25.73 46.85C25.59 46.5 25.38 45.97 25.28 45.68C25.18 45.39 25.01 44.86 24.9 44.51C24.8 44.16 24.65 43.56 24.56 43.18C24.47 42.8 24.35 42.22 24.29 41.9C24.23 41.58 24.14 41 24.09 40.62C24 39.98 24 39.4 24 25.62L24.82 25.37C25.27 25.24 26.26 24.92 27 24.67C27.75 24.42 28.6 24.13 28.89 24.02C28.99 23.99 29.1 23.95 29.21 23.91C29.42 23.83 29.64 23.75 29.77 23.7C29.96 23.63 30.27 23.52 30.46 23.45C30.65 23.38 31 23.25 31.23 23.16C31.47 23.07 31.87 22.91 32.14 22.8C32.15 22.79 32.17 22.78 32.19 22.78C32.44 22.67 32.73 22.56 32.85 22.51C32.99 22.46 33.42 22.28 33.81 22.11C34.21 21.94 34.88 21.64 35.3 21.45C35.73 21.27 36.21 21.05 36.37 20.98C36.53 20.91 37.24 20.55 37.96 20.19C38.68 19.84 39.48 19.42 39.74 19.27ZM39.96 22.88L40.23 22.74L41.4 23.31C42.04 23.62 43.02 24.08 43.57 24.32C44.13 24.56 44.88 24.87 45.25 25.02C45.62 25.16 46.32 25.43 46.82 25.61C47.32 25.8 48.13 26.08 48.63 26.25C48.71 26.27 48.79 26.3 48.88 26.33C49.34 26.48 49.88 26.65 50.17 26.73C50.52 26.84 50.99 26.98 51.21 27.03C51.4 27.09 51.64 27.16 51.78 27.2C51.81 27.2 51.83 27.21 51.85 27.22C51.98 27.25 52.43 27.37 52.86 27.47C53.29 27.58 53.73 27.68 54.06 27.75L54.07 32.91C54.08 37.29 54.07 38.19 54 38.89C53.96 39.35 53.88 39.97 53.84 40.28C53.8 40.59 53.72 41.05 53.68 41.31C53.63 41.58 53.54 42.07 53.46 42.41C53.39 42.74 53.27 43.25 53.2 43.52C53.13 43.8 52.98 44.31 52.88 44.64C52.77 44.98 52.57 45.55 52.42 45.92C52.28 46.28 52.03 46.83 51.88 47.14C51.73 47.45 51.57 47.76 51.52 47.83C51.48 47.9 51.3 48.19 51.11 48.47C50.92 48.75 50.59 49.21 50.36 49.48C50.14 49.76 49.69 50.25 49.37 50.57C49.06 50.9 48.61 51.31 48.39 51.48C48.17 51.66 47.84 51.92 47.65 52.07C47.45 52.22 47.12 52.45 46.9 52.59C46.68 52.73 46.32 52.96 46.1 53.09C45.88 53.22 45.37 53.49 44.96 53.69C44.55 53.89 44.06 54.12 43.87 54.19C43.68 54.27 43.31 54.41 43.04 54.5C42.78 54.61 42.27 54.77 41.9 54.87C41.53 54.97 41.07 55.1 40.86 55.14C40.65 55.19 40.41 55.23 40.33 55.23C40.24 55.23 39.94 55.17 39.66 55.1C39.39 55.03 38.95 54.9 38.68 54.81C38.41 54.72 38.01 54.58 37.78 54.49C37.54 54.41 37.04 54.2 36.66 54.03C36.28 53.87 35.7 53.59 35.38 53.42C35.06 53.25 34.71 53.07 34.61 53.01C34.51 52.95 34.26 52.8 34.05 52.67C33.84 52.54 33.4 52.24 33.07 52C32.73 51.77 32.2 51.35 31.9 51.09C31.59 50.83 31.09 50.35 30.78 50.04C30.47 49.72 30.11 49.33 29.98 49.17C29.85 49.01 29.65 48.76 29.54 48.61C29.44 48.46 29.19 48.07 29 47.75C28.81 47.43 28.58 47 28.49 46.8C28.4 46.59 28.24 46.22 28.13 45.97C28.04 45.73 27.92 45.42 27.86 45.25L27.85 45.23C27.8 45.07 27.67 44.66 27.57 44.32C27.47 43.99 27.35 43.55 27.3 43.36C27.26 43.17 27.19 42.9 27.16 42.75L27.16 42.73C27.12 42.57 27.05 42.24 27 41.98C26.96 41.75 26.88 41.33 26.82 40.98C26.81 40.92 26.8 40.86 26.79 40.81C26.74 40.44 26.64 39.8 26.59 39.37C26.51 38.68 26.5 38.07 26.5 27.76L27 27.6C27.28 27.52 28 27.29 28.6 27.1C29.2 26.91 30.35 26.52 31.15 26.25C31.95 25.98 32.91 25.65 33.28 25.52C33.65 25.39 34.17 25.2 34.45 25.1C34.59 25.05 34.77 24.98 34.96 24.91C35.14 24.85 35.32 24.78 35.46 24.73C35.74 24.62 36.37 24.38 36.87 24.18C37.37 23.99 38.21 23.65 38.73 23.43C39.26 23.21 39.81 22.96 39.96 22.88ZM46.47 32.88C46.55 32.79 46.66 32.78 48.37 32.78C49.38 32.78 50.21 32.79 50.22 32.82C50.23 32.84 50.09 33.04 49.9 33.25C49.7 33.47 49.34 33.88 49.08 34.16C48.83 34.44 48.36 34.95 48.05 35.3C47.74 35.65 47.19 36.27 46.84 36.66C46.49 37.05 46.07 37.51 45.92 37.67C45.77 37.83 45.35 38.3 44.98 38.71C44.62 39.12 44.21 39.58 44.08 39.72C43.94 39.87 43.58 40.26 43.28 40.6C42.97 40.94 42.34 41.65 41.88 42.17C41.41 42.7 41.01 43.15 40.97 43.18C40.94 43.2 40.6 43.58 40.22 44C39.85 44.43 39.42 44.89 39.29 45.03C39.16 45.17 39.04 45.28 39.03 45.28C39.01 45.28 38.64 44.87 38.21 44.36C37.77 43.86 37.29 43.3 37.14 43.12C36.98 42.95 36.42 42.29 35.88 41.67C35.34 41.04 34.74 40.33 34.54 40.1C34.33 39.86 34.06 39.53 33.92 39.37C33.78 39.21 33.48 38.87 33.25 38.6C33.03 38.34 32.6 37.84 32.31 37.49C32.01 37.14 31.71 36.79 31.52 36.55L35.27 36.56L35.89 37.38C36.22 37.84 36.68 38.45 36.9 38.73C37.12 39.02 37.68 39.77 38.15 40.41C38.62 41.03 39.01 41.55 39.03 41.55C39.04 41.55 39.24 41.34 39.46 41.06C39.69 40.79 39.94 40.5 40.02 40.41C40.1 40.31 40.65 39.68 41.23 39C41.82 38.32 42.45 37.57 42.64 37.35C42.84 37.13 43.21 36.68 43.49 36.36C43.76 36.04 44.1 35.65 44.24 35.49C44.38 35.33 44.68 34.98 44.91 34.72C45.13 34.46 45.55 33.96 45.85 33.61C46.15 33.27 46.43 32.93 46.47 32.88Z" stroke="#219BE0" stroke-opacity="1.000000" stroke-width="0.053206"/>
</svg>
