<svg width="80.000000" height="80.000000" viewBox="0 0 80 80" fill="none" xmlns="http://www.w3.org/2000/svg" xmlns:xlink="http://www.w3.org/1999/xlink">
	<desc>
			Created with Pixso.
	</desc>
	<defs/>
	<rect id="Rectangle 34624487" x="80.000000" y="80.000000" rx="40.000004" width="80.000008" height="80.000008" transform="rotate(180 80.000000 80.000000)" fill="#219BE0" fill-opacity="1.000000"/>
	<mask id="mask_1_1000" fill="white">
		<path id="Subtract" d="M27.1016 20.4155C27.446 20.2849 27.7192 20.1426 27.7192 20.095L27.7192 20.083C27.7192 20.0356 28.0991 20 28.5505 20C29.2986 20 29.4768 20.0476 30.3555 20.4988C30.9375 20.8076 31.6499 21.3181 32.1487 21.7812C32.6001 22.2087 33.3601 23.0874 33.835 23.7407C34.3101 24.3938 35.0344 25.51 35.4502 26.2344C35.8657 26.9468 36.3765 27.9443 36.5901 28.4312C36.8633 29.0488 36.9822 29.5 36.9822 29.9155C36.9822 30.2957 36.887 30.6995 36.709 31.032C36.5664 31.3289 36.2815 31.6968 36.0676 31.863C35.8657 32.0293 35.3313 32.3857 34.8801 32.6587C34.4407 32.9199 33.5144 33.3713 32.8374 33.6682C32.1724 33.9531 31.5073 34.2856 31.3887 34.3926C31.27 34.5112 31.1155 34.8081 31.0562 35.0457C30.9849 35.3188 30.9849 35.6394 31.0562 35.853C31.1155 36.0549 31.365 36.5537 31.6143 36.9812C31.8518 37.4087 32.3743 38.1807 32.7664 38.7031C33.1582 39.2256 34.1438 40.3418 34.9631 41.1851C35.7827 42.0281 36.9583 43.1326 37.5759 43.655C38.1934 44.1775 39.2385 44.9612 39.8916 45.4006C40.5447 45.8518 41.5662 46.4932 42.1479 46.8374C42.9792 47.3245 43.3237 47.4668 43.6919 47.4551C44.0005 47.4431 44.3213 47.3245 44.6299 47.1106C44.998 46.8494 45.2832 46.4338 45.9363 45.1987C46.3994 44.3318 47.0168 43.2988 47.3137 42.8831C47.6819 42.3843 48.0264 42.0637 48.3826 41.8857C48.7744 41.6838 49.1309 41.6125 49.689 41.6125C50.2947 41.6125 50.6152 41.6838 51.1733 41.9568C51.5652 42.135 52.4678 42.6812 53.1921 43.1562C53.9167 43.6313 55.1399 44.51 55.9119 45.1038C56.6956 45.6975 57.7168 46.5645 58.1799 47.0156C58.655 47.4668 59.1895 48.1082 59.3794 48.4407C59.6646 48.9395 59.7239 49.165 59.7239 49.8062C59.7119 50.2576 59.6169 50.8274 59.4983 51.1719C59.3794 51.4924 58.9995 52.1931 58.655 52.7156C58.2988 53.25 57.5625 54.105 56.9805 54.675C56.3987 55.2332 55.4368 56.0051 54.8547 56.4087C54.261 56.8005 53.3823 57.2756 52.8953 57.4539C52.4084 57.6318 51.9097 57.8337 51.8027 57.8931C51.6841 57.9524 51.031 58 50.342 58C49.6533 58 49.0002 57.9524 48.8933 57.8931C48.7744 57.8337 48.252 57.6675 47.7295 57.5249C47.207 57.3826 46.2212 57.05 45.5325 56.7888C44.8438 56.5156 43.5374 55.9219 42.623 55.4587C41.7085 54.9956 40.2598 54.2 39.4165 53.6895C38.5615 53.1787 37.2434 52.3237 36.4834 51.7893C35.7231 51.2551 34.4883 50.3406 33.752 49.7468C33.0156 49.165 31.6975 47.9893 30.8186 47.1343C29.9399 46.2913 28.6216 44.8662 27.8735 43.9875C27.1252 43.1086 26.0566 41.7312 25.4866 40.9355C24.9165 40.1282 24.0972 38.905 23.6458 38.2043C23.2063 37.4919 22.4463 36.1499 21.9714 35.2C21.4963 34.25 20.9619 33.0981 20.7957 32.647C20.6174 32.1956 20.3682 31.3882 20.2375 30.8657C20.1069 30.343 20 29.6426 20 29.3218C20 28.9893 20.083 28.3955 20.1782 27.98C20.2732 27.5762 20.4751 26.9587 20.6294 26.6262C20.7837 26.282 21.1401 25.6526 21.425 25.2251C21.7102 24.7976 22.2683 24.1086 22.6602 23.6931C23.064 23.2776 23.7527 22.6362 24.2158 22.2563C24.679 21.8882 25.3677 21.3657 25.7598 21.1162C26.1516 20.855 26.7573 20.5461 27.1016 20.4155ZM25.8784 23.1704C26.4009 22.7786 27.1489 22.3037 27.541 22.1255C27.9329 21.9355 28.4434 21.793 28.6692 21.793C28.9185 21.793 29.3696 21.9473 29.7854 22.1729C30.1772 22.3867 30.8186 22.9092 31.2698 23.3843C31.7092 23.8474 32.4692 24.833 32.968 25.5811C33.4668 26.3291 34.1794 27.5166 34.5356 28.2292C34.9751 29.0605 35.2007 29.6423 35.2007 29.9155C35.2007 30.248 35.1174 30.3904 34.8206 30.6162C34.6069 30.7705 34.1555 31.0554 33.835 31.2454C33.5024 31.4473 32.6355 31.863 31.8875 32.1836C30.771 32.6587 30.4385 32.8604 30.0466 33.3118C29.7734 33.6086 29.4885 34.0598 29.4172 34.321C29.3342 34.5706 29.2629 35.1167 29.2629 35.5322C29.2629 36.1855 29.3223 36.3992 29.821 37.3491C30.1416 37.9429 30.8186 38.9998 31.3291 39.7004C31.8635 40.4011 33.1223 41.7905 34.1794 42.8591C35.2363 43.9043 36.6257 45.1631 37.2788 45.6616C37.9321 46.1604 39.0007 46.9204 39.6541 47.3479C40.3071 47.7754 41.2454 48.3455 41.7322 48.6067C42.3259 48.9314 42.8406 49.1174 43.2761 49.1648C43.751 49.2241 44.1191 49.1885 44.6418 49.0225C45.188 48.8562 45.5085 48.6543 46.0312 48.1436C46.4944 47.6804 46.8862 47.1343 47.3257 46.303C47.6582 45.6499 48.1331 44.7949 48.3706 44.4148C48.6082 44.0229 48.9287 43.6074 49.095 43.4885C49.2612 43.3699 49.5107 43.2629 49.6533 43.2749C49.8076 43.2749 50.1758 43.4055 50.4846 43.5598C50.8052 43.7141 51.5415 44.1536 52.1233 44.5217C52.7053 44.9016 53.8096 45.6736 54.5579 46.2554C55.3059 46.8254 56.2917 47.6331 56.7429 48.0486C57.1824 48.4524 57.6575 48.9512 57.7761 49.1531C57.8948 49.3547 58.0017 49.6399 58.0017 49.8062C58.0017 49.9724 57.9187 50.3406 57.8118 50.6375C57.7168 50.9343 57.4316 51.4568 57.1943 51.813C56.9568 52.1692 56.3511 52.8579 55.8643 53.345C55.3772 53.8198 54.5222 54.5322 53.9641 54.9004C53.406 55.2805 52.634 55.708 52.2422 55.8623C51.8027 56.0286 51.1733 56.1592 50.5796 56.1948C49.8433 56.2305 49.3921 56.1829 48.6201 55.9929C48.062 55.8506 46.9932 55.4824 46.2449 55.1855C45.4968 54.8887 44.321 54.3662 43.6323 54.0217C42.9436 53.6772 41.8511 53.0955 41.1978 52.7156C40.5447 52.3354 39.4285 51.6467 38.7039 51.1836C37.9795 50.7085 36.887 49.9485 36.2695 49.4973C35.6519 49.0342 34.5593 48.1555 33.835 47.5381C33.1223 46.9204 32.0298 45.9111 31.4243 45.2937C30.8066 44.676 29.7974 43.5479 29.156 42.7998C28.5266 42.0518 27.719 41.0305 27.3508 40.5437C26.9946 40.0566 26.3176 39.0947 25.8545 38.406C25.3914 37.7173 24.679 36.5417 24.2515 35.7937C23.8357 35.0454 23.2419 33.8936 22.9451 33.2405C22.6482 32.5874 22.2563 31.6135 22.0901 31.0791C21.8882 30.438 21.7812 29.8206 21.7812 29.3218C21.7812 28.8467 21.8762 28.2886 22.0188 27.873C22.1494 27.4929 22.4343 26.8875 22.6482 26.531C22.8501 26.1748 23.4558 25.4385 23.9783 24.8923C24.5007 24.3462 25.3557 23.5623 25.8784 23.1704Z" clip-rule="evenodd" fill="" fill-opacity="1.000000" fill-rule="evenodd"/>
	</mask>
	<path id="Subtract" d="M27.1016 20.4155C27.446 20.2849 27.7192 20.1426 27.7192 20.095L27.7192 20.083C27.7192 20.0356 28.0991 20 28.5505 20C29.2986 20 29.4768 20.0476 30.3555 20.4988C30.9375 20.8076 31.6499 21.3181 32.1487 21.7812C32.6001 22.2087 33.3601 23.0874 33.835 23.7407C34.3101 24.3938 35.0344 25.51 35.4502 26.2344C35.8657 26.9468 36.3765 27.9443 36.5901 28.4312C36.8633 29.0488 36.9822 29.5 36.9822 29.9155C36.9822 30.2957 36.887 30.6995 36.709 31.032C36.5664 31.3289 36.2815 31.6968 36.0676 31.863C35.8657 32.0293 35.3313 32.3857 34.8801 32.6587C34.4407 32.9199 33.5144 33.3713 32.8374 33.6682C32.1724 33.9531 31.5073 34.2856 31.3887 34.3926C31.27 34.5112 31.1155 34.8081 31.0562 35.0457C30.9849 35.3188 30.9849 35.6394 31.0562 35.853C31.1155 36.0549 31.365 36.5537 31.6143 36.9812C31.8518 37.4087 32.3743 38.1807 32.7664 38.7031C33.1582 39.2256 34.1438 40.3418 34.9631 41.1851C35.7827 42.0281 36.9583 43.1326 37.5759 43.655C38.1934 44.1775 39.2385 44.9612 39.8916 45.4006C40.5447 45.8518 41.5662 46.4932 42.1479 46.8374C42.9792 47.3245 43.3237 47.4668 43.6919 47.4551C44.0005 47.4431 44.3213 47.3245 44.6299 47.1106C44.998 46.8494 45.2832 46.4338 45.9363 45.1987C46.3994 44.3318 47.0168 43.2988 47.3137 42.8831C47.6819 42.3843 48.0264 42.0637 48.3826 41.8857C48.7744 41.6838 49.1309 41.6125 49.689 41.6125C50.2947 41.6125 50.6152 41.6838 51.1733 41.9568C51.5652 42.135 52.4678 42.6812 53.1921 43.1562C53.9167 43.6313 55.1399 44.51 55.9119 45.1038C56.6956 45.6975 57.7168 46.5645 58.1799 47.0156C58.655 47.4668 59.1895 48.1082 59.3794 48.4407C59.6646 48.9395 59.7239 49.165 59.7239 49.8062C59.7119 50.2576 59.6169 50.8274 59.4983 51.1719C59.3794 51.4924 58.9995 52.1931 58.655 52.7156C58.2988 53.25 57.5625 54.105 56.9805 54.675C56.3987 55.2332 55.4368 56.0051 54.8547 56.4087C54.261 56.8005 53.3823 57.2756 52.8953 57.4539C52.4084 57.6318 51.9097 57.8337 51.8027 57.8931C51.6841 57.9524 51.031 58 50.342 58C49.6533 58 49.0002 57.9524 48.8933 57.8931C48.7744 57.8337 48.252 57.6675 47.7295 57.5249C47.207 57.3826 46.2212 57.05 45.5325 56.7888C44.8438 56.5156 43.5374 55.9219 42.623 55.4587C41.7085 54.9956 40.2598 54.2 39.4165 53.6895C38.5615 53.1787 37.2434 52.3237 36.4834 51.7893C35.7231 51.2551 34.4883 50.3406 33.752 49.7468C33.0156 49.165 31.6975 47.9893 30.8186 47.1343C29.9399 46.2913 28.6216 44.8662 27.8735 43.9875C27.1252 43.1086 26.0566 41.7312 25.4866 40.9355C24.9165 40.1282 24.0972 38.905 23.6458 38.2043C23.2063 37.4919 22.4463 36.1499 21.9714 35.2C21.4963 34.25 20.9619 33.0981 20.7957 32.647C20.6174 32.1956 20.3682 31.3882 20.2375 30.8657C20.1069 30.343 20 29.6426 20 29.3218C20 28.9893 20.083 28.3955 20.1782 27.98C20.2732 27.5762 20.4751 26.9587 20.6294 26.6262C20.7837 26.282 21.1401 25.6526 21.425 25.2251C21.7102 24.7976 22.2683 24.1086 22.6602 23.6931C23.064 23.2776 23.7527 22.6362 24.2158 22.2563C24.679 21.8882 25.3677 21.3657 25.7598 21.1162C26.1516 20.855 26.7573 20.5461 27.1016 20.4155ZM25.8784 23.1704C26.4009 22.7786 27.1489 22.3037 27.541 22.1255C27.9329 21.9355 28.4434 21.793 28.6692 21.793C28.9185 21.793 29.3696 21.9473 29.7854 22.1729C30.1772 22.3867 30.8186 22.9092 31.2698 23.3843C31.7092 23.8474 32.4692 24.833 32.968 25.5811C33.4668 26.3291 34.1794 27.5166 34.5356 28.2292C34.9751 29.0605 35.2007 29.6423 35.2007 29.9155C35.2007 30.248 35.1174 30.3904 34.8206 30.6162C34.6069 30.7705 34.1555 31.0554 33.835 31.2454C33.5024 31.4473 32.6355 31.863 31.8875 32.1836C30.771 32.6587 30.4385 32.8604 30.0466 33.3118C29.7734 33.6086 29.4885 34.0598 29.4172 34.321C29.3342 34.5706 29.2629 35.1167 29.2629 35.5322C29.2629 36.1855 29.3223 36.3992 29.821 37.3491C30.1416 37.9429 30.8186 38.9998 31.3291 39.7004C31.8635 40.4011 33.1223 41.7905 34.1794 42.8591C35.2363 43.9043 36.6257 45.1631 37.2788 45.6616C37.9321 46.1604 39.0007 46.9204 39.6541 47.3479C40.3071 47.7754 41.2454 48.3455 41.7322 48.6067C42.3259 48.9314 42.8406 49.1174 43.2761 49.1648C43.751 49.2241 44.1191 49.1885 44.6418 49.0225C45.188 48.8562 45.5085 48.6543 46.0312 48.1436C46.4944 47.6804 46.8862 47.1343 47.3257 46.303C47.6582 45.6499 48.1331 44.7949 48.3706 44.4148C48.6082 44.0229 48.9287 43.6074 49.095 43.4885C49.2612 43.3699 49.5107 43.2629 49.6533 43.2749C49.8076 43.2749 50.1758 43.4055 50.4846 43.5598C50.8052 43.7141 51.5415 44.1536 52.1233 44.5217C52.7053 44.9016 53.8096 45.6736 54.5579 46.2554C55.3059 46.8254 56.2917 47.6331 56.7429 48.0486C57.1824 48.4524 57.6575 48.9512 57.7761 49.1531C57.8948 49.3547 58.0017 49.6399 58.0017 49.8062C58.0017 49.9724 57.9187 50.3406 57.8118 50.6375C57.7168 50.9343 57.4316 51.4568 57.1943 51.813C56.9568 52.1692 56.3511 52.8579 55.8643 53.345C55.3772 53.8198 54.5222 54.5322 53.9641 54.9004C53.406 55.2805 52.634 55.708 52.2422 55.8623C51.8027 56.0286 51.1733 56.1592 50.5796 56.1948C49.8433 56.2305 49.3921 56.1829 48.6201 55.9929C48.062 55.8506 46.9932 55.4824 46.2449 55.1855C45.4968 54.8887 44.321 54.3662 43.6323 54.0217C42.9436 53.6772 41.8511 53.0955 41.1978 52.7156C40.5447 52.3354 39.4285 51.6467 38.7039 51.1836C37.9795 50.7085 36.887 49.9485 36.2695 49.4973C35.6519 49.0342 34.5593 48.1555 33.835 47.5381C33.1223 46.9204 32.0298 45.9111 31.4243 45.2937C30.8066 44.676 29.7974 43.5479 29.156 42.7998C28.5266 42.0518 27.719 41.0305 27.3508 40.5437C26.9946 40.0566 26.3176 39.0947 25.8545 38.406C25.3914 37.7173 24.679 36.5417 24.2515 35.7937C23.8357 35.0454 23.2419 33.8936 22.9451 33.2405C22.6482 32.5874 22.2563 31.6135 22.0901 31.0791C21.8882 30.438 21.7812 29.8206 21.7812 29.3218C21.7812 28.8467 21.8762 28.2886 22.0188 27.873C22.1494 27.4929 22.4343 26.8875 22.6482 26.531C22.8501 26.1748 23.4558 25.4385 23.9783 24.8923C24.5007 24.3462 25.3557 23.5623 25.8784 23.1704Z" clip-rule="evenodd" fill="#FFFFFF" fill-opacity="1.000000" fill-rule="evenodd" mask="url(#mask_1_1000)"/>
	<path id="Subtract" d="" fill="#000000" fill-opacity="0.000000" fill-rule="nonzero"/>
</svg>
