<svg width="80" height="80" viewBox="0 0 80 80" fill="none" xmlns="http://www.w3.org/2000/svg">
<rect x="79.5" y="79.5" width="79" height="79" rx="39.5" transform="rotate(180 79.5 79.5)" stroke="white"/>
<path fill-rule="evenodd" clip-rule="evenodd" d="M43.5 41.2071H35C34.4477 41.2071 34 40.7594 34 40.2071C34 39.6548 34.4477 39.2071 35 39.2071H43.5V41.2071Z" fill="white"/>
<path fill-rule="evenodd" clip-rule="evenodd" d="M42.5858 40.2071L40.5 38.1213C40.1095 37.7308 40.1095 37.0976 40.5 36.7071C40.8905 36.3166 41.5237 36.3166 41.9142 36.7071L44.7071 39.5C45.0976 39.8905 45.0976 40.5237 44.7071 40.9142L41.9142 43.7071C41.5237 44.0976 40.8905 44.0976 40.5 43.7071C40.1095 43.3166 40.1095 42.6834 40.5 42.2929L42.5858 40.2071Z" fill="white"/>
</svg>
