<svg width="80" height="80" viewBox="0 0 80 80" fill="none" xmlns="http://www.w3.org/2000/svg">
<rect x="0.5" y="-0.5" width="79" height="79" rx="39.5" transform="matrix(1 8.74228e-08 8.74228e-08 -1 4.37114e-08 79)" stroke="white"/>
<path fill-rule="evenodd" clip-rule="evenodd" d="M36.5 41.2071H45C45.5523 41.2071 46 40.7594 46 40.2071C46 39.6548 45.5523 39.2071 45 39.2071H36.5V41.2071Z" fill="white"/>
<path fill-rule="evenodd" clip-rule="evenodd" d="M37.4142 40.2071L39.5 38.1213C39.8905 37.7308 39.8905 37.0976 39.5 36.7071C39.1095 36.3166 38.4763 36.3166 38.0858 36.7071L35.2929 39.5C34.9024 39.8905 34.9024 40.5237 35.2929 40.9142L38.0858 43.7071C38.4763 44.0976 39.1095 44.0976 39.5 43.7071C39.8905 43.3166 39.8905 42.6834 39.5 42.2929L37.4142 40.2071Z" fill="white"/>
</svg>
