<svg width="63.000000" height="63.000000" viewBox="0 0 63 63" fill="none" xmlns="http://www.w3.org/2000/svg" xmlns:xlink="http://www.w3.org/1999/xlink">
	<desc>
			Created with Pixso.
	</desc>
	<defs/>
	<path id="Vector" d="M15.15 0.26C14.32 0.06 13.61 0 12.43 0.01C11.2 0.02 10.55 0.1 9.7 0.32C9.08 0.48 8.17 0.8 7.66 0.99C7.16 1.2 6.24 1.71 5.63 2.12C5.01 2.53 4.06 3.32 3.53 3.88C2.97 4.46 2.22 5.42 1.84 6.03C1.46 6.65 0.98 7.63 0.77 8.24C0.54 8.83 0.28 9.87 0.16 10.53C0.01 11.4 -0.03 12.15 0.02 13.19C0.06 13.99 0.22 15.08 0.35 15.61C0.49 16.15 0.79 17.04 1.03 17.58C1.25 18.12 1.75 19.04 2.15 19.62C2.53 20.19 3.29 21.1 3.84 21.62C4.39 22.14 5.17 22.79 5.56 23.07L6.3 23.55L6.3 39.44C5.17 40.2 4.39 40.85 3.84 41.38C3.29 41.89 2.53 42.8 2.15 43.37C1.75 43.95 1.25 44.87 1.03 45.41C0.79 45.95 0.49 46.84 0.35 47.38C0.22 47.91 0.06 48.95 0.02 49.67C-0.03 50.47 0.01 51.42 0.11 52.1C0.2 52.72 0.35 53.49 0.45 53.85C0.56 54.19 0.77 54.58 0.94 54.73C1.1 54.87 1.38 54.99 1.59 54.99C1.88 54.99 2.65 54.32 5.64 51.42C7.66 49.45 9.48 47.76 9.67 47.65C9.9 47.55 10.2 47.51 10.49 47.57C10.85 47.64 11.38 48.1 13.14 49.84C14.89 51.6 15.35 52.13 15.41 52.5C15.48 52.78 15.44 53.09 15.33 53.31C15.23 53.51 13.53 55.32 11.58 57.34C8.66 60.33 7.99 61.09 7.99 61.39C7.99 61.59 8.11 61.88 8.25 62.05C8.4 62.21 8.74 62.39 9.02 62.46C9.28 62.52 9.87 62.68 10.33 62.79C10.8 62.92 11.7 63 12.5 63C13.55 63 14.18 62.9 15.41 62.6C16.41 62.35 17.42 62 18.17 61.62C18.81 61.3 19.79 60.71 20.31 60.3C20.82 59.91 21.28 59.6 21.3 59.62C21.32 59.64 21.52 59.96 21.73 60.36C21.94 60.74 22.37 61.3 22.7 61.59C23.03 61.89 23.73 62.33 24.25 62.56L25.2 63L30.12 62.92C38.32 61.14 40.75 60.63 40.83 60.63C40.91 60.63 40.96 61.12 40.96 61.81L40.96 63L43.06 63C43.06 61.12 43.11 60.63 43.19 60.63C43.27 60.63 45.7 61.14 48.62 61.77L53.9 62.92L58.82 63C60.29 62.33 61.02 61.87 61.36 61.55C61.78 61.17 62.17 60.62 62.47 59.99L62.96 59C63.03 43.24 63 40.5 62.88 39.83C62.79 39.27 62.51 38.5 62.18 37.86C61.83 37.14 61.4 36.55 60.81 35.96C60.2 35.37 59.64 34.96 58.95 34.62C58.42 34.37 57.71 34.09 57.38 34.02C57.05 33.94 55.63 33.71 54.23 33.53C51.82 33.2 51.56 33.14 49.98 32.51L48.31 31.82L48.33 29.46C49.69 28.14 50.34 27.4 50.63 26.97C50.93 26.53 51.28 25.94 51.43 25.65C51.57 25.37 51.82 24.75 51.97 24.28C52.12 23.8 52.29 23.13 52.35 22.77L52.45 22.12C53.57 21.9 54.21 21.66 54.61 21.44C54.99 21.23 55.46 20.89 55.64 20.67C55.81 20.44 56.12 19.98 56.3 19.62C56.59 19.07 56.64 18.79 56.64 17.85C56.66 16.82 56.62 16.66 56.2 15.89C55.95 15.43 55.53 14.88 55.28 14.67C55.03 14.47 54.58 14.18 54.29 14.05L53.77 13.8C53.73 12.52 53.66 10.72 53.59 8.99C53.5 6.56 53.42 5.68 53.25 5.18C53.12 4.83 52.83 4.17 52.6 3.75C52.37 3.32 51.83 2.61 51.39 2.17C50.95 1.73 50.25 1.19 49.81 0.95C49.39 0.73 48.66 0.41 48.18 0.27C47.37 0.01 47.05 0 42.01 0C36.97 0 36.65 0.01 35.84 0.27C35.36 0.41 34.63 0.73 34.21 0.95C33.77 1.19 33.07 1.73 32.63 2.17C32.19 2.61 31.65 3.32 31.42 3.75C31.19 4.17 30.9 4.83 30.77 5.18C30.6 5.68 30.52 6.56 30.43 8.99C30.36 10.72 30.29 12.52 30.28 12.98L30.25 13.8C29.44 14.18 28.99 14.47 28.74 14.67C28.49 14.88 28.07 15.43 27.82 15.89C27.4 16.66 27.36 16.82 27.38 17.85C27.38 18.79 27.43 19.07 27.72 19.62C27.9 19.98 28.21 20.44 28.38 20.67C28.56 20.89 29.03 21.23 29.41 21.45C29.81 21.66 30.45 21.9 30.85 21.98L31.57 22.14C31.73 23.13 31.9 23.8 32.05 24.28C32.2 24.75 32.45 25.37 32.59 25.65C32.74 25.94 33.09 26.53 33.39 26.97C33.68 27.4 34.33 28.14 34.81 28.61L35.69 29.46L35.71 31.89C32.49 33.41 32.13 33.52 29.53 34.07C27.98 34.38 26.35 34.78 25.92 34.92C25.49 35.08 24.72 35.47 24.23 35.81C23.71 36.14 23.04 36.75 22.73 37.14C22.41 37.53 22.03 38.1 21.87 38.39C21.73 38.67 21.51 39.24 21.36 39.63C21.23 40.03 21.13 40.49 21.13 40.66C21.13 40.81 21.1 40.95 21.06 40.95C21.02 40.95 20.52 40.6 19.94 40.2L18.89 39.44L18.88 23.55C20.01 22.79 20.78 22.14 21.34 21.62C21.89 21.1 22.65 20.19 23.03 19.62C23.42 19.04 23.92 18.12 24.15 17.58C24.38 17.04 24.69 16.15 24.83 15.61C24.96 15.08 25.12 14.04 25.16 13.32C25.21 12.52 25.17 11.57 25.07 10.89C24.97 10.27 24.83 9.5 24.72 9.16C24.62 8.8 24.41 8.41 24.25 8.26C24.08 8.12 23.79 8 23.6 8C23.29 8 22.53 8.67 19.54 11.58C17.51 13.54 15.7 15.23 15.5 15.34C15.28 15.44 14.98 15.48 14.69 15.42C14.32 15.35 13.8 14.89 12.04 13.15C10.29 11.39 9.83 10.86 9.76 10.5C9.7 10.21 9.74 9.9 9.84 9.68C9.95 9.48 11.64 7.67 13.61 5.65C16.55 2.62 17.19 1.9 17.19 1.6C17.19 1.4 17.11 1.15 17.01 1.03C16.92 0.91 16.73 0.76 16.57 0.68C16.4 0.59 15.77 0.4 15.15 0.26ZM7.79 3.3C8.23 3.08 8.84 2.8 9.17 2.69C9.5 2.57 10.15 2.38 10.62 2.29C11.09 2.2 11.96 2.11 12.56 2.11C13.15 2.1 13.73 2.13 13.85 2.2C13.99 2.27 13.38 2.97 11.17 5.18C9.34 7 8.17 8.29 7.98 8.66C7.75 9.1 7.68 9.47 7.68 10.17C7.68 10.85 7.74 11.24 7.95 11.68Q8.24 12.27 10.71 14.71C12.58 16.55 13.31 17.2 13.7 17.33C13.99 17.43 14.58 17.5 15.02 17.5C15.56 17.5 16.02 17.41 16.46 17.22C16.96 16.98 17.79 16.24 20.02 14C22.7 11.32 22.94 11.11 23.02 11.41C23.06 11.6 23.1 12.14 23.1 12.63C23.1 13.12 23.02 13.95 22.91 14.47C22.81 14.98 22.58 15.8 22.41 16.27C22.24 16.74 21.83 17.57 21.49 18.11C21.17 18.65 20.51 19.47 20.05 19.93C19.6 20.4 18.74 21.09 18.14 21.48C17.54 21.86 17 22.29 16.92 22.44C16.84 22.61 16.79 25.89 16.79 31.5C16.79 37.1 16.84 40.38 16.92 40.55C17 40.7 17.49 41.09 18.01 41.42C18.53 41.76 19.42 42.48 21.01 44.03L20.99 56.7L20.11 57.63C19.62 58.14 18.81 58.83 18.3 59.16C17.8 59.5 16.94 59.94 16.4 60.15C15.86 60.36 14.98 60.61 14.47 60.71C13.94 60.82 13.06 60.89 12.52 60.89C11.98 60.89 11.45 60.86 11.33 60.8C11.18 60.72 11.81 60.02 14.02 57.81C16.24 55.59 16.98 54.77 17.21 54.27C17.41 53.82 17.5 53.36 17.5 52.82C17.5 52.39 17.42 51.8 17.33 51.51C17.2 51.12 16.54 50.38 14.7 48.52Q12.26 46.05 11.67 45.76C11.24 45.55 10.84 45.49 10.16 45.49C9.46 45.49 9.09 45.56 8.65 45.79C8.28 45.99 6.98 47.17 2.22 51.9L2.13 51.38C2.08 51.09 2.08 50.36 2.12 49.74C2.16 49.12 2.29 48.29 2.4 47.9C2.5 47.51 2.71 46.85 2.86 46.46C3 46.06 3.41 45.29 3.76 44.75C4.12 44.21 4.75 43.41 5.18 42.99C5.6 42.56 6.44 41.9 7.05 41.51C7.64 41.13 8.19 40.7 8.25 40.55C8.33 40.38 8.38 37.1 8.38 31.5C8.38 25.89 8.33 22.61 8.25 22.44C8.19 22.29 7.64 21.86 7.05 21.47C6.44 21.07 5.59 20.38 5.13 19.92C4.67 19.47 4.04 18.68 3.72 18.17C3.41 17.67 2.99 16.85 2.79 16.34C2.61 15.84 2.37 14.97 2.26 14.43C2.17 13.89 2.09 13.05 2.08 12.57C2.08 12.07 2.16 11.24 2.26 10.73C2.37 10.21 2.61 9.37 2.8 8.85C3 8.36 3.42 7.53 3.75 7.02C4.08 6.52 4.62 5.81 4.94 5.47C5.29 5.11 5.89 4.58 6.28 4.26C6.68 3.96 7.36 3.53 7.79 3.3ZM33.96 3.8C34.25 3.47 34.84 3.03 35.26 2.79C35.69 2.55 36.27 2.32 36.56 2.24C36.86 2.17 39.25 2.12 47.47 2.16L48.46 2.65C49.09 2.95 49.64 3.34 50.02 3.76C50.34 4.1 50.78 4.77 50.99 5.25C51.39 6.07 51.4 6.15 51.47 10.5L47.26 10.5L47.26 8.72C47.26 7 47.25 6.94 46.61 6.29L37.4 6.29L37.08 6.62C36.77 6.94 36.76 7.02 36.76 10.5L32.55 10.5L32.59 8.3C32.62 6.15 32.63 6.07 33.03 5.25C33.24 4.77 33.66 4.13 33.96 3.8ZM45.16 8.39L45.16 10.5L38.86 10.5L38.86 8.39L45.16 8.39ZM33.22 14.42C32.97 14.25 32.66 13.87 32.53 13.58C32.4 13.29 32.29 12.95 32.29 12.83C32.29 12.61 32.84 12.6 42.01 12.6C51.18 12.6 51.73 12.61 51.73 12.82C51.73 12.95 51.62 13.29 51.49 13.58C51.36 13.87 51.05 14.25 50.8 14.42C50.55 14.6 50.14 14.76 49.89 14.8C49.64 14.83 48.46 14.68 47.26 14.49C45.31 14.14 44.79 14.12 42.01 14.12C39.23 14.12 38.71 14.14 36.76 14.49C35.56 14.68 34.38 14.83 34.13 14.8C33.88 14.76 33.47 14.6 33.22 14.42ZM53.77 19.5C53.56 19.67 53.17 19.85 52.52 20.01L52.56 15.72L52.96 15.8C53.19 15.85 53.56 16.02 53.77 16.19C53.99 16.35 54.26 16.7 54.4 16.97C54.51 17.23 54.62 17.62 54.62 17.85C54.62 18.07 54.51 18.46 54.4 18.72C54.26 18.99 53.99 19.34 53.77 19.5ZM29.45 17.43C29.49 17.15 29.68 16.74 29.83 16.52C30 16.28 30.35 16.02 30.6 15.93C30.85 15.84 31.15 15.76 31.28 15.75C31.48 15.75 31.5 15.93 31.5 17.85C31.5 19.63 31.48 19.95 31.31 19.95C31.2 19.95 30.91 19.87 30.69 19.77C30.45 19.68 30.1 19.39 29.9 19.14C29.7 18.89 29.51 18.53 29.45 18.3C29.41 18.08 29.4 17.69 29.45 17.43ZM38.81 17.41C38.81 17.11 38.75 16.72 38.7 16.56C38.61 16.28 38.65 16.26 39.23 16.22C39.57 16.2 40.71 16.16 41.76 16.15C42.8 16.14 44.06 16.18 44.54 16.23C45.36 16.32 45.42 16.35 45.33 16.6C45.28 16.73 45.24 17.11 45.24 17.43C45.24 17.92 45.31 18.04 45.77 18.46C46.24 18.89 46.33 18.92 46.88 18.86C47.3 18.79 47.58 18.66 47.87 18.37C48.18 18.04 48.26 17.86 48.26 17.37C48.26 16.83 48.29 16.78 48.52 16.85C48.67 16.89 49.16 16.91 50.43 16.93L50.42 19.38C50.42 21.02 50.35 22.15 50.23 22.77C50.13 23.27 49.79 24.18 49.48 24.79C49.05 25.64 48.67 26.15 47.93 26.9C47.18 27.64 46.67 28.02 45.83 28.44C45.21 28.75 44.3 29.09 43.8 29.2C43.28 29.3 42.48 29.38 42.02 29.38C41.55 29.38 40.75 29.29 40.25 29.18C39.74 29.08 38.82 28.74 38.21 28.44C37.36 28.02 36.85 27.65 36.1 26.9C35.34 26.14 34.97 25.65 34.55 24.8C34.25 24.18 33.92 23.27 33.81 22.77C33.68 22.15 33.62 21.02 33.62 16.93L34.43 16.91C34.88 16.91 35.38 16.89 35.52 16.85C35.74 16.78 35.78 16.83 35.78 17.37C35.78 17.87 35.85 18.03 36.2 18.4C36.57 18.76 36.73 18.83 37.29 18.83C37.85 18.83 38 18.76 38.37 18.4C38.71 18.04 38.81 17.86 38.81 17.41ZM40.99 22.02C42.17 21.97 43.45 21.85 43.85 21.74C44.24 21.64 44.65 21.55 44.73 21.53C44.83 21.52 45.02 21.91 45.18 22.48C45.32 22.99 45.39 23.46 45.33 23.52C45.28 23.55 44.78 23.7 44.24 23.82C43.7 23.93 42.27 24.08 38.86 24.21L38.86 22.11L40.99 22.02ZM11.54 22.04L11.54 40.95L13.64 40.95L13.64 22.04L11.54 22.04ZM38.83 35.59C38.02 33 37.81 32.16 37.79 31.47L37.78 30.59L38.49 30.85C38.87 31 39.62 31.21 40.14 31.3C40.67 31.4 41.51 31.5 42.02 31.5C42.52 31.5 43.36 31.4 43.89 31.3C44.41 31.21 45.15 31 46.23 30.58L46.23 31.46C46.23 32.2 46.06 32.87 44.19 38.85L39.86 38.85L38.83 35.59ZM45.98 40.37C45.96 40.35 46.36 38.99 46.87 37.34C47.38 35.67 47.84 34.24 47.88 34.13C47.92 34.04 48.03 33.99 48.1 34.03C48.18 34.07 48.67 34.25 49.17 34.45C49.68 34.66 50.1 34.83 50.11 34.83C50.13 34.84 50 36.5 49.83 38.52C49.65 40.54 49.48 42.21 49.44 42.22C49.4 42.24 48.62 41.84 47.7 41.31C46.78 40.8 46 40.37 45.98 40.37ZM34.21 38.65C34.04 36.69 33.91 35.09 33.92 35.09C33.93 35.08 34.35 34.85 34.85 34.61C35.36 34.34 35.86 34.13 35.97 34.13C36.11 34.12 36.43 34.96 37.12 37.24C37.65 38.95 38.07 40.35 38.04 40.37C38.03 40.38 37.26 40.8 36.34 41.31C35.42 41.84 34.63 42.24 34.59 42.22C34.55 42.21 34.38 40.59 34.21 38.65ZM51.32 44.65C51.39 44.53 51.61 42.4 51.81 39.92L52.18 35.43L52.52 35.43C52.7 35.43 53.83 35.59 55.01 35.76C56.52 36 57.39 36.19 57.88 36.42C58.26 36.6 58.87 37.03 59.26 37.39C59.64 37.74 60.1 38.35 60.29 38.73C60.49 39.12 60.71 39.7 60.78 40.03C60.86 40.35 60.92 42.09 60.92 47.25L58.76 47.25C57.13 47.25 56.48 47.3 55.67 47.64L55.67 44.1L53.57 44.1L53.57 47.25L45.16 47.25L45.16 49.35L48.28 49.35C49.98 49.35 51.34 49.38 51.28 49.44C51.23 49.5 50.73 49.74 50.18 49.98C49.25 50.37 48.98 50.41 46.61 50.59C45.2 50.7 43.82 50.81 43.06 50.92L43.06 49.7C43.06 48.52 43.09 48.43 44.14 45.47C44.73 43.81 45.23 42.44 45.25 42.41C45.28 42.4 46.4 43.01 47.72 43.77C49.06 44.53 50.27 45.14 50.42 45.14C50.56 45.14 50.8 45.08 50.94 45.01C51.09 44.93 51.26 44.78 51.32 44.65ZM24.83 38C25.21 37.66 25.8 37.24 26.12 37.1C26.45 36.94 27.84 36.56 29.2 36.26C30.58 35.97 31.75 35.71 31.8 35.71C31.86 35.7 31.9 35.83 31.9 35.98C31.9 36.14 32.05 38.11 32.24 40.34C32.47 43.11 32.64 44.52 32.76 44.71C32.91 44.95 33.07 45 33.54 45C34.05 45 34.46 44.82 36.43 43.69C37.7 42.97 38.75 42.4 38.78 42.41C38.81 42.43 39.3 43.81 39.9 45.46C40.95 48.41 40.97 48.5 40.96 50.91L40.54 50.84C40.3 50.81 38.94 50.7 34.92 50.38L30.45 48.48L30.45 44.08L28.35 44.08L28.35 47.63L27.96 47.43C27.65 47.28 27.05 47.23 23.1 47.23L23.16 40.59L23.65 39.62C23.98 38.94 24.33 38.45 24.83 38ZM42.01 45C41.98 45 41.64 44.13 41.26 43.07C40.88 42.01 40.57 41.09 40.57 41.04C40.57 40.98 41.22 40.93 42.01 40.93C42.81 40.93 43.45 40.98 43.45 41.04C43.45 41.09 43.15 42.01 42.77 43.07C42.39 44.13 42.05 45 42.01 45ZM36.76 46.2L36.76 48.29L38.86 48.29L38.86 46.2L36.76 46.2ZM27.76 54.6L23.1 54.58L23.1 49.33L27.1 49.35L34.52 52.48L60.92 54.52L60.92 56.35C60.92 57.4 60.86 58.43 60.77 58.72C60.67 59.04 60.35 59.5 59.95 59.91C59.54 60.32 59.09 60.63 58.76 60.72C58.47 60.82 57.46 60.88 56.46 60.88C54.8 60.88 54.46 60.84 51.27 60.16C49.39 59.75 47.59 59.39 47.26 59.32C46.95 59.25 44.14 58.65 35.38 56.76L29.86 56.67L27.76 54.6ZM52.19 51.37C52.48 51.25 53.63 50.75 54.75 50.26L56.79 49.37L60.92 49.33L60.92 50.84C60.92 52.32 60.92 52.35 60.63 52.35C60.46 52.35 58.42 52.21 56.06 52.02C53.73 51.84 51.77 51.67 51.73 51.63C51.7 51.59 51.9 51.47 52.19 51.37ZM23.27 58.72C23.17 58.43 23.11 57.85 23.1 57.44L23.1 56.68L26.84 56.7L28.94 58.77L31.76 58.78C33.77 58.78 34.86 58.83 35.55 58.98C36.07 59.08 36.49 59.23 36.49 59.28C36.49 59.33 34.85 59.71 32.86 60.13C29.47 60.84 29.09 60.89 27.5 60.88C26.56 60.88 25.55 60.82 25.26 60.72C24.95 60.63 24.49 60.3 24.08 59.91C23.67 59.5 23.36 59.04 23.27 58.72Z" fill="#219BE0" fill-opacity="1.000000" fill-rule="evenodd"/>
	<path id="Vector" d="M15.15 0.26C15.77 0.4 16.4 0.59 16.57 0.68C16.73 0.76 16.92 0.91 17.01 1.03C17.11 1.15 17.19 1.4 17.19 1.6C17.19 1.9 16.55 2.62 13.61 5.65C11.64 7.67 9.95 9.48 9.84 9.68C9.74 9.9 9.7 10.21 9.76 10.5C9.83 10.86 10.29 11.39 12.04 13.15C13.8 14.89 14.32 15.35 14.69 15.42C14.98 15.48 15.28 15.44 15.5 15.34C15.7 15.23 17.51 13.54 19.54 11.58C22.53 8.67 23.29 8 23.6 8C23.79 8 24.08 8.12 24.25 8.26C24.41 8.41 24.62 8.8 24.72 9.16C24.83 9.5 24.97 10.27 25.07 10.89C25.17 11.57 25.21 12.52 25.16 13.32C25.12 14.04 24.96 15.08 24.83 15.61C24.69 16.15 24.38 17.04 24.15 17.58C23.92 18.12 23.42 19.04 23.03 19.62C22.65 20.19 21.89 21.1 21.34 21.62C20.78 22.14 20.01 22.79 18.88 23.55L18.89 39.44L19.94 40.2C20.52 40.6 21.02 40.95 21.06 40.95C21.1 40.95 21.13 40.81 21.13 40.66C21.13 40.49 21.23 40.03 21.36 39.63C21.51 39.24 21.73 38.67 21.87 38.39C22.03 38.1 22.41 37.53 22.73 37.14C23.04 36.75 23.71 36.14 24.23 35.81C24.72 35.47 25.49 35.08 25.92 34.92C26.35 34.78 27.98 34.38 29.53 34.07C32.13 33.52 32.49 33.41 35.71 31.89L35.69 29.46L34.81 28.61C34.33 28.14 33.68 27.4 33.39 26.97C33.09 26.53 32.74 25.94 32.59 25.65C32.45 25.37 32.2 24.75 32.05 24.28C31.9 23.8 31.73 23.13 31.57 22.14L30.85 21.98C30.45 21.9 29.81 21.66 29.41 21.45C29.03 21.23 28.56 20.89 28.38 20.67C28.21 20.44 27.9 19.98 27.72 19.62C27.43 19.07 27.38 18.79 27.38 17.85C27.36 16.82 27.4 16.66 27.82 15.89C28.07 15.43 28.49 14.88 28.74 14.67C28.99 14.47 29.44 14.18 30.25 13.8L30.28 12.98C30.29 12.52 30.36 10.72 30.43 8.99C30.52 6.56 30.6 5.68 30.77 5.18C30.9 4.83 31.19 4.17 31.42 3.75C31.65 3.32 32.19 2.61 32.63 2.17C33.07 1.73 33.77 1.19 34.21 0.95C34.63 0.73 35.36 0.41 35.84 0.27C36.65 0.01 36.97 0 42.01 0C47.05 0 47.37 0.01 48.18 0.27C48.66 0.41 49.39 0.73 49.81 0.95C50.25 1.19 50.95 1.73 51.39 2.17C51.83 2.61 52.37 3.32 52.6 3.75C52.83 4.17 53.12 4.83 53.25 5.18C53.42 5.68 53.5 6.56 53.59 8.99C53.66 10.72 53.73 12.52 53.77 13.8L54.29 14.05C54.58 14.18 55.03 14.47 55.28 14.67C55.53 14.88 55.95 15.43 56.2 15.89C56.62 16.66 56.66 16.82 56.64 17.85C56.64 18.79 56.59 19.07 56.3 19.62C56.12 19.98 55.81 20.44 55.64 20.67C55.46 20.89 54.99 21.23 54.61 21.44C54.21 21.66 53.57 21.9 52.45 22.12L52.35 22.77C52.29 23.13 52.12 23.8 51.97 24.28C51.82 24.75 51.57 25.37 51.43 25.65C51.28 25.94 50.93 26.53 50.63 26.97C50.34 27.4 49.69 28.14 48.33 29.46L48.31 31.82L49.98 32.51C51.56 33.14 51.82 33.2 54.23 33.53C55.63 33.71 57.05 33.94 57.38 34.02C57.71 34.09 58.42 34.37 58.95 34.62C59.64 34.96 60.2 35.37 60.81 35.96C61.4 36.55 61.83 37.14 62.18 37.86C62.51 38.5 62.79 39.27 62.88 39.83C63 40.5 63.03 43.24 62.96 59L62.47 59.99C62.17 60.62 61.78 61.17 61.36 61.55C61.02 61.87 60.29 62.33 58.82 63L53.9 62.92L48.62 61.77C45.7 61.14 43.27 60.63 43.19 60.63C43.11 60.63 43.06 61.12 43.06 63L40.96 63L40.96 61.81C40.96 61.12 40.91 60.63 40.83 60.63C40.75 60.63 38.32 61.14 30.12 62.92L25.2 63L24.25 62.56C23.73 62.33 23.03 61.89 22.7 61.59C22.37 61.3 21.94 60.74 21.73 60.36C21.52 59.96 21.32 59.64 21.3 59.62C21.28 59.6 20.82 59.91 20.31 60.3C19.79 60.71 18.81 61.3 18.17 61.62C17.42 62 16.41 62.35 15.41 62.6C14.18 62.9 13.55 63 12.5 63C11.7 63 10.8 62.92 10.33 62.79C9.87 62.68 9.28 62.52 9.02 62.46C8.74 62.39 8.4 62.21 8.25 62.05C8.11 61.88 7.99 61.59 7.99 61.39C7.99 61.09 8.66 60.33 11.58 57.34C13.53 55.32 15.23 53.51 15.33 53.31C15.44 53.09 15.48 52.78 15.41 52.5C15.35 52.13 14.89 51.6 13.14 49.84C11.38 48.1 10.85 47.64 10.49 47.57C10.2 47.51 9.9 47.55 9.67 47.65C9.48 47.76 7.66 49.45 5.64 51.42C2.65 54.32 1.88 54.99 1.59 54.99C1.38 54.99 1.1 54.87 0.94 54.73C0.77 54.58 0.56 54.19 0.45 53.85C0.35 53.49 0.2 52.72 0.11 52.1C0.01 51.42 -0.03 50.47 0.02 49.67C0.06 48.95 0.22 47.91 0.35 47.38C0.49 46.84 0.79 45.95 1.03 45.41C1.25 44.87 1.75 43.95 2.15 43.37C2.53 42.8 3.29 41.89 3.84 41.38C4.39 40.85 5.17 40.2 6.3 39.44L6.3 23.55L5.56 23.07C5.17 22.79 4.39 22.14 3.84 21.62C3.29 21.1 2.53 20.19 2.15 19.62C1.75 19.04 1.25 18.12 1.03 17.58C0.79 17.04 0.49 16.15 0.35 15.61C0.22 15.08 0.06 13.99 0.02 13.19C-0.03 12.15 0.01 11.4 0.16 10.53C0.28 9.87 0.54 8.83 0.77 8.24C0.98 7.63 1.46 6.65 1.84 6.03C2.22 5.42 2.97 4.46 3.53 3.88C4.06 3.32 5.01 2.53 5.63 2.12C6.24 1.71 7.16 1.2 7.66 0.99C8.17 0.8 9.08 0.48 9.7 0.32C10.55 0.1 11.2 0.02 12.43 0.01C13.61 0 14.32 0.06 15.15 0.26ZM7.79 3.3C7.36 3.53 6.68 3.96 6.28 4.26C5.89 4.58 5.29 5.11 4.94 5.47C4.62 5.81 4.08 6.52 3.75 7.02C3.42 7.53 3 8.36 2.8 8.85C2.61 9.37 2.37 10.21 2.26 10.73C2.16 11.24 2.08 12.07 2.08 12.57C2.09 13.05 2.17 13.89 2.26 14.43C2.37 14.97 2.61 15.84 2.79 16.34C2.99 16.85 3.41 17.67 3.72 18.17C4.04 18.68 4.67 19.47 5.13 19.92C5.59 20.38 6.44 21.07 7.05 21.47C7.64 21.86 8.19 22.29 8.25 22.44C8.33 22.61 8.38 25.89 8.38 31.5C8.38 37.1 8.33 40.38 8.25 40.55C8.19 40.7 7.64 41.13 7.05 41.51C6.44 41.9 5.6 42.56 5.18 42.99C4.75 43.41 4.12 44.21 3.76 44.75C3.41 45.29 3 46.06 2.86 46.46C2.71 46.85 2.5 47.51 2.4 47.9C2.29 48.29 2.16 49.12 2.12 49.74C2.08 50.36 2.08 51.09 2.13 51.38L2.22 51.9C6.98 47.17 8.28 45.99 8.65 45.79C9.09 45.56 9.46 45.49 10.16 45.49C10.84 45.49 11.24 45.55 11.67 45.76C12.06 45.95 13.07 46.87 14.7 48.52C16.54 50.38 17.2 51.12 17.33 51.51C17.42 51.8 17.5 52.39 17.5 52.82C17.5 53.36 17.41 53.82 17.21 54.27C16.98 54.77 16.24 55.59 14.02 57.81C11.81 60.02 11.18 60.72 11.33 60.8C11.45 60.86 11.98 60.89 12.52 60.89C13.06 60.89 13.94 60.82 14.47 60.71C14.98 60.61 15.86 60.36 16.4 60.15C16.94 59.94 17.8 59.5 18.3 59.16C18.81 58.83 19.62 58.14 20.11 57.63L20.99 56.7L21.01 44.03C19.42 42.48 18.53 41.76 18.01 41.42C17.49 41.09 17 40.7 16.92 40.55C16.84 40.38 16.79 37.1 16.79 31.5C16.79 25.89 16.84 22.61 16.92 22.44C17 22.29 17.54 21.86 18.14 21.48C18.74 21.09 19.6 20.4 20.05 19.93C20.51 19.47 21.17 18.65 21.49 18.11C21.83 17.57 22.24 16.74 22.41 16.27C22.58 15.8 22.81 14.98 22.91 14.47C23.02 13.95 23.1 13.12 23.1 12.63C23.1 12.14 23.06 11.6 23.02 11.41C22.94 11.11 22.7 11.32 20.02 14C17.79 16.24 16.96 16.98 16.46 17.22C16.02 17.41 15.56 17.5 15.02 17.5C14.58 17.5 13.99 17.43 13.7 17.33C13.31 17.2 12.58 16.55 10.71 14.71C9.06 13.08 8.14 12.07 7.95 11.68C7.74 11.24 7.68 10.85 7.68 10.17C7.68 9.47 7.75 9.1 7.98 8.66C8.17 8.29 9.34 7 11.17 5.18C13.38 2.97 13.99 2.27 13.85 2.2C13.73 2.13 13.15 2.1 12.56 2.11C11.96 2.11 11.09 2.2 10.62 2.29C10.15 2.38 9.5 2.57 9.17 2.69C8.84 2.8 8.23 3.08 7.79 3.3ZM33.96 3.8C33.66 4.13 33.24 4.77 33.03 5.25C32.63 6.07 32.62 6.15 32.59 8.3L32.55 10.5L36.76 10.5C36.76 7.02 36.77 6.94 37.08 6.62L37.4 6.29L46.61 6.29C47.25 6.94 47.26 7 47.26 8.72L47.26 10.5L51.47 10.5C51.4 6.15 51.39 6.07 50.99 5.25C50.78 4.77 50.34 4.1 50.02 3.76C49.64 3.34 49.09 2.95 48.46 2.65L47.47 2.16C39.25 2.12 36.86 2.17 36.56 2.24C36.27 2.32 35.69 2.55 35.26 2.79C34.84 3.03 34.25 3.47 33.96 3.8ZM45.16 10.5L45.16 8.39L38.86 8.39L38.86 10.5L45.16 10.5ZM33.22 14.42C33.47 14.6 33.88 14.76 34.13 14.8C34.38 14.83 35.56 14.68 36.76 14.49C38.71 14.14 39.23 14.12 42.01 14.12C44.79 14.12 45.31 14.14 47.26 14.49C48.46 14.68 49.64 14.83 49.89 14.8C50.14 14.76 50.55 14.6 50.8 14.42C51.05 14.25 51.36 13.87 51.49 13.58C51.62 13.29 51.73 12.95 51.73 12.82C51.73 12.61 51.18 12.6 42.01 12.6C32.84 12.6 32.29 12.61 32.29 12.83C32.29 12.95 32.4 13.29 32.53 13.58C32.66 13.87 32.97 14.25 33.22 14.42ZM29.45 17.43C29.4 17.69 29.41 18.08 29.45 18.3C29.51 18.53 29.7 18.89 29.9 19.14C30.1 19.39 30.45 19.68 30.69 19.77C30.91 19.87 31.2 19.95 31.31 19.95C31.48 19.95 31.5 19.63 31.5 17.85C31.5 15.93 31.48 15.75 31.28 15.75C31.15 15.76 30.85 15.84 30.6 15.93C30.35 16.02 30 16.28 29.83 16.52C29.68 16.74 29.49 17.15 29.45 17.43ZM53.77 19.5C53.99 19.34 54.26 18.99 54.4 18.72C54.51 18.46 54.62 18.07 54.62 17.85C54.62 17.62 54.51 17.23 54.4 16.97C54.26 16.7 53.99 16.35 53.77 16.19C53.56 16.02 53.19 15.85 52.96 15.8L52.56 15.72L52.52 20.01C53.17 19.85 53.56 19.67 53.77 19.5ZM38.81 17.41C38.81 17.86 38.71 18.04 38.37 18.4C38 18.76 37.85 18.83 37.29 18.83C36.73 18.83 36.57 18.76 36.2 18.4C35.85 18.03 35.78 17.87 35.78 17.37C35.78 16.83 35.74 16.78 35.52 16.85C35.38 16.89 34.88 16.91 34.43 16.91L33.62 16.93C33.62 21.02 33.68 22.15 33.81 22.77C33.92 23.27 34.25 24.18 34.55 24.8C34.97 25.65 35.34 26.14 36.1 26.9C36.85 27.65 37.36 28.02 38.21 28.44C38.82 28.74 39.74 29.08 40.25 29.18C40.75 29.29 41.55 29.38 42.02 29.38C42.48 29.38 43.28 29.3 43.8 29.2C44.3 29.09 45.21 28.75 45.83 28.44C46.67 28.02 47.18 27.64 47.93 26.9C48.67 26.15 49.05 25.64 49.48 24.79C49.79 24.18 50.13 23.27 50.23 22.77C50.35 22.15 50.42 21.02 50.42 19.38L50.43 16.93C49.16 16.91 48.67 16.89 48.52 16.85C48.29 16.78 48.26 16.83 48.26 17.37C48.26 17.86 48.18 18.04 47.87 18.37C47.58 18.66 47.3 18.79 46.88 18.86C46.33 18.92 46.24 18.89 45.77 18.46C45.31 18.04 45.24 17.92 45.24 17.43C45.24 17.11 45.28 16.73 45.33 16.6C45.42 16.35 45.36 16.32 44.54 16.23C44.06 16.18 42.8 16.14 41.76 16.15C40.71 16.16 39.57 16.2 39.23 16.22C38.65 16.26 38.61 16.28 38.7 16.56C38.75 16.72 38.81 17.11 38.81 17.41ZM38.83 35.59L39.86 38.85L44.19 38.85C46.06 32.87 46.23 32.2 46.23 31.46L46.23 30.58C45.15 31 44.41 31.21 43.89 31.3C43.36 31.4 42.52 31.5 42.02 31.5C41.51 31.5 40.67 31.4 40.14 31.3C39.62 31.21 38.87 31 38.49 30.85L37.78 30.59L37.79 31.47C37.81 32.16 38.02 33 38.83 35.59ZM45.98 40.37C46 40.37 46.78 40.8 47.7 41.31C48.62 41.84 49.4 42.24 49.44 42.22C49.48 42.21 49.65 40.54 49.83 38.52C50 36.5 50.13 34.84 50.11 34.83C50.1 34.83 49.68 34.66 49.17 34.45C48.67 34.25 48.18 34.07 48.1 34.03C48.03 33.99 47.92 34.04 47.88 34.13C47.84 34.24 47.38 35.67 46.87 37.34C46.36 38.99 45.96 40.35 45.98 40.37ZM34.21 38.65C34.38 40.59 34.55 42.21 34.59 42.22C34.63 42.24 35.42 41.84 36.34 41.31C37.26 40.8 38.03 40.38 38.04 40.37C38.07 40.35 37.65 38.95 37.12 37.24C36.43 34.96 36.11 34.12 35.97 34.13C35.86 34.13 35.36 34.34 34.85 34.61C34.35 34.85 33.93 35.08 33.92 35.09C33.91 35.09 34.04 36.69 34.21 38.65ZM51.32 44.65C51.26 44.78 51.09 44.93 50.94 45.01C50.8 45.08 50.56 45.14 50.42 45.14C50.27 45.14 49.06 44.53 47.72 43.77C46.4 43.01 45.28 42.4 45.25 42.41C45.23 42.44 44.73 43.81 44.14 45.47C43.09 48.43 43.06 48.52 43.06 49.7L43.06 50.92C43.82 50.81 45.2 50.7 46.61 50.59C48.98 50.41 49.25 50.37 50.18 49.98C50.73 49.74 51.23 49.5 51.28 49.44C51.34 49.38 49.98 49.35 48.28 49.35L45.16 49.35L45.16 47.25L53.57 47.25L53.57 44.1L55.67 44.1L55.67 47.64C56.48 47.3 57.13 47.25 58.76 47.25L60.92 47.25C60.92 42.09 60.86 40.35 60.78 40.03C60.71 39.7 60.49 39.12 60.29 38.73C60.1 38.35 59.64 37.74 59.26 37.39C58.87 37.03 58.26 36.6 57.88 36.42C57.39 36.19 56.52 36 55.01 35.76C53.83 35.59 52.7 35.43 52.52 35.43L52.18 35.43L51.81 39.92C51.61 42.4 51.39 44.53 51.32 44.65ZM24.83 38C24.33 38.45 23.98 38.94 23.65 39.62L23.16 40.59L23.1 47.23C27.05 47.23 27.65 47.28 27.96 47.43L28.35 47.63L28.35 44.08L30.45 44.08L30.45 48.48L34.92 50.38C38.94 50.7 40.3 50.81 40.54 50.84L40.96 50.91C40.97 48.5 40.95 48.41 39.9 45.46C39.3 43.81 38.81 42.43 38.78 42.41C38.75 42.4 37.7 42.97 36.43 43.69C34.46 44.82 34.05 45 33.54 45C33.07 45 32.91 44.95 32.76 44.71C32.64 44.52 32.47 43.11 32.24 40.34C32.05 38.11 31.9 36.14 31.9 35.98C31.9 35.83 31.86 35.7 31.8 35.71C31.75 35.71 30.58 35.97 29.2 36.26C27.84 36.56 26.45 36.94 26.12 37.1C25.8 37.24 25.21 37.66 24.83 38ZM42.01 45C42.05 45 42.39 44.13 42.77 43.07C43.15 42.01 43.45 41.09 43.45 41.04C43.45 40.98 42.81 40.93 42.01 40.93C41.22 40.93 40.57 40.98 40.57 41.04C40.57 41.09 40.88 42.01 41.26 43.07C41.64 44.13 41.98 45 42.01 45ZM27.76 54.6L29.86 56.67L35.38 56.76C44.14 58.65 46.95 59.25 47.26 59.32C47.59 59.39 49.39 59.75 51.27 60.16C54.46 60.84 54.8 60.88 56.46 60.88C57.46 60.88 58.47 60.82 58.76 60.72C59.09 60.63 59.54 60.32 59.95 59.91C60.35 59.5 60.67 59.04 60.77 58.72C60.86 58.43 60.92 57.4 60.92 56.35L60.92 54.52L34.52 52.48L27.1 49.35L23.1 49.33L23.1 54.58L27.76 54.6ZM52.19 51.37C51.9 51.47 51.7 51.59 51.73 51.63C51.77 51.67 53.73 51.84 56.06 52.02C58.42 52.21 60.46 52.35 60.63 52.35C60.92 52.35 60.92 52.32 60.92 50.84L60.92 49.33L56.79 49.37L54.75 50.26C53.63 50.75 52.48 51.25 52.19 51.37ZM23.27 58.72C23.36 59.04 23.67 59.5 24.08 59.91C24.49 60.3 24.95 60.63 25.26 60.72C25.55 60.82 26.56 60.88 27.5 60.88C29.09 60.89 29.47 60.84 32.86 60.13C34.85 59.71 36.49 59.33 36.49 59.28C36.49 59.23 36.07 59.08 35.55 58.98C34.86 58.83 33.77 58.78 31.76 58.78L28.94 58.77L26.84 56.7L23.1 56.68L23.1 57.44C23.11 57.85 23.17 58.43 23.27 58.72ZM38.86 48.29L38.86 46.2L36.76 46.2L36.76 48.29L38.86 48.29ZM40.99 22.02L38.86 22.11L38.86 24.21C42.27 24.08 43.7 23.93 44.24 23.82C44.78 23.7 45.28 23.55 45.33 23.52C45.39 23.46 45.32 22.99 45.18 22.48C45.02 21.91 44.83 21.52 44.73 21.53C44.65 21.55 44.24 21.64 43.85 21.74C43.45 21.85 42.17 21.97 40.99 22.02ZM13.64 40.95L13.64 22.04L11.54 22.04L11.54 40.95L13.64 40.95Z" stroke="#000000" stroke-opacity="0" stroke-width="0.131250"/>
</svg>
