<svg width="63.963379" height="64.600098" viewBox="0 0 63.9634 64.6001" fill="none" xmlns="http://www.w3.org/2000/svg" xmlns:xlink="http://www.w3.org/1999/xlink">
	<desc>
			Created with Pixso.
	</desc>
	<defs/>
	<path id="Vector" d="M14.77 7.76C14.82 0.7 14.83 0.48 15.13 0.26C15.3 0.12 15.62 0.03 15.84 0.01C16.06 0.01 16.77 0.31 17.41 0.69C18.05 1.05 18.95 1.5 19.37 1.69C19.81 1.88 20.76 2.15 21.49 2.3C22.48 2.49 23.24 2.54 24.4 2.48C25.26 2.43 26.4 2.27 26.91 2.13C27.43 1.99 28.74 1.46 29.82 0.94C30.9 0.42 31.91 0.01 32.07 0.01C32.21 0.01 33.2 0.43 34.25 0.95C35.32 1.47 36.67 2.01 37.28 2.16C38.08 2.37 38.95 2.45 40.42 2.43C42.2 2.43 42.64 2.37 43.72 2.01C44.41 1.77 45.62 1.24 46.39 0.8C47.16 0.36 47.98 0.01 48.2 0C48.42 0 48.72 0.12 48.88 0.28C49.13 0.54 49.14 1.14 49.1 9.52C49.05 18.12 49.03 18.53 48.69 20.04C48.5 20.91 48.12 22.26 47.87 23.03C47.6 23.8 47.01 25.26 46.54 26.25C46.06 27.24 45.22 28.73 44.67 29.55C44.13 30.36 43.16 31.64 42.53 32.36C41.89 33.1 40.77 34.21 40.03 34.84C39.29 35.48 38.13 36.38 37.44 36.84C36.75 37.31 35.33 38.15 34.3 38.72C33.26 39.29 32.24 39.76 32.02 39.76C31.8 39.76 30.83 39.33 29.87 38.81C28.89 38.3 27.68 37.62 27.2 37.29C26.69 36.98 25.72 36.29 25.03 35.75C24.34 35.22 23.03 34.01 22.14 33.06C21.24 32.12 20.02 30.61 19.4 29.7C18.81 28.79 18.02 27.49 17.68 26.8C17.33 26.11 16.78 24.83 16.47 23.97C16.14 23.1 15.68 21.58 15.46 20.59C15.24 19.6 14.99 17.94 14.9 16.9C14.79 15.78 14.74 12.08 14.77 7.76ZM27.51 4.19C28.27 3.97 29.55 3.44 30.4 3.01L31.91 2.26L33.1 2.84C33.76 3.17 34.89 3.64 35.63 3.91C36.37 4.16 37.53 4.46 38.23 4.57C38.98 4.68 40.05 4.72 40.9 4.66C41.67 4.61 42.84 4.44 43.49 4.27C44.13 4.11 45.12 3.78 45.69 3.55C46.06 3.39 46.42 3.25 46.66 3.16C46.79 3.11 46.88 3.07 46.91 3.06C47.05 3.01 47.1 4.32 47.1 9.28C47.1 12.74 47.02 16.25 46.93 17.1C46.83 17.94 46.63 19.22 46.47 19.96C46.32 20.7 45.95 21.94 45.69 22.71C45.4 23.48 44.89 24.77 44.51 25.54C44.13 26.31 43.38 27.63 42.83 28.45C42.18 29.44 41.16 30.63 39.8 32C38.29 33.52 37.31 34.34 36.09 35.14C35.18 35.74 33.89 36.51 32.02 37.48L30.65 36.77C29.88 36.4 28.56 35.61 27.7 35.03C26.84 34.45 25.53 33.43 24.81 32.73C24.09 32.06 23.06 30.98 22.55 30.33C22.03 29.69 21.31 28.7 20.93 28.13C20.57 27.57 19.95 26.47 19.56 25.7C19.17 24.93 18.6 23.58 18.3 22.71C18.01 21.85 17.66 20.61 17.52 19.96C17.38 19.32 17.19 18.23 17.1 17.57C17.02 16.88 16.94 13.4 16.94 9.67C16.94 6 16.97 3 17.02 3C17.06 3 17.46 3.17 17.88 3.39C18.32 3.61 19.36 3.97 20.21 4.21C21.53 4.57 22.03 4.61 23.93 4.61C25.85 4.61 26.3 4.57 27.51 4.19ZM30.68 5.29C29.99 5.6 28.83 6.03 28.09 6.25C26.9 6.61 26.47 6.66 24.16 6.67C22.74 6.69 21.18 6.62 20.71 6.55C19.94 6.42 19.81 6.44 19.48 6.75C19.14 7.08 19.14 7.11 19.14 11.92C19.14 15.39 19.2 17.13 19.37 18.16C19.5 18.93 19.78 20.21 20 20.98C20.24 21.75 20.65 22.93 20.91 23.58C21.18 24.22 21.79 25.4 22.25 26.17C22.72 26.94 23.47 28.04 23.93 28.6C24.37 29.17 25.23 30.11 25.83 30.71C26.43 31.29 27.4 32.15 28.01 32.62C28.63 33.08 29.68 33.79 30.37 34.18C31.06 34.57 31.8 34.89 32.02 34.89C32.24 34.89 33.03 34.53 33.78 34.07C34.53 33.61 35.73 32.78 36.43 32.22C37.14 31.65 38.26 30.63 38.89 29.94C39.53 29.25 40.49 28.04 41.01 27.27C41.52 26.5 42.22 25.32 42.55 24.68C42.88 24.03 43.36 22.85 43.63 22.08C43.91 21.31 44.27 19.99 44.46 19.18C44.75 17.87 44.79 17.01 44.85 12.42L44.93 7.16C44.12 6.37 44.09 6.37 43.02 6.58C42.4 6.67 41.1 6.77 40.11 6.77C39.12 6.77 37.79 6.67 37.16 6.55C36.54 6.42 35.57 6.17 35 5.98C34.44 5.78 33.67 5.46 33.28 5.27C32.88 5.08 32.43 4.88 32.26 4.83C32.07 4.77 31.44 4.96 30.68 5.29ZM30.84 7.57C30.23 7.83 29.25 8.16 28.64 8.32C28.03 8.49 26.98 8.7 26.29 8.81C25.59 8.92 24.15 8.97 23.08 8.93L21.15 8.89C21.27 15.58 21.38 17.34 21.54 18.23C21.68 18.97 21.98 20.14 22.2 20.83C22.44 21.52 22.88 22.65 23.21 23.34C23.52 24.03 24.2 25.24 24.7 26.01C25.28 26.92 26.21 28.02 27.29 29.07C28.2 29.99 29.52 31.1 30.21 31.56C30.9 32.01 31.63 32.42 31.82 32.47C32.04 32.5 32.49 32.34 32.99 32.03C33.45 31.75 34.25 31.21 34.77 30.82C35.29 30.43 36.21 29.61 36.81 29C37.42 28.4 38.29 27.39 38.74 26.8C39.2 26.2 40.03 24.79 40.58 23.65C41.29 22.24 41.76 21.03 42.11 19.73C42.59 17.86 42.61 17.79 42.67 13.36L42.73 8.89C39.12 8.98 38.32 8.93 36.89 8.65C35.9 8.46 34.49 8.09 33.75 7.8C33.27 7.62 32.8 7.44 32.5 7.32C32.34 7.25 32.22 7.21 32.18 7.19C32.05 7.14 31.45 7.32 30.84 7.57ZM38.21 12.8C37.96 13 36.03 14.92 33.9 17.04C31.78 19.16 29.99 20.91 29.9 20.91C29.82 20.91 28.97 20.12 28.01 19.18C26.54 17.7 26.21 17.46 25.78 17.45C25.47 17.45 25.14 17.57 24.95 17.76C24.78 17.94 24.64 18.27 24.64 18.5C24.64 18.86 25.11 19.4 26.96 21.25C29.05 23.36 29.32 23.58 29.82 23.58C30.34 23.58 30.68 23.26 35.11 18.83C39.2 14.75 39.87 14.01 39.87 13.6C39.87 13.33 39.76 13.02 39.61 12.88C39.45 12.74 39.17 12.56 39 12.52C38.76 12.44 38.52 12.53 38.21 12.8ZM0.98 21.77C1.16 21.52 1.78 21.06 2.33 20.8C3.07 20.42 3.55 20.28 4.13 20.28C4.56 20.28 5.23 20.37 5.63 20.51C6.02 20.64 6.65 21.02 7.04 21.35C7.43 21.69 7.9 22.3 8.09 22.73C8.3 23.15 9.02 25.62 9.71 28.21C10.4 30.8 11 32.94 11.02 32.96C11.03 32.97 11.42 32.86 11.88 32.69C12.32 32.52 12.96 32.37 13.29 32.37C13.61 32.37 14.19 32.47 14.58 32.59C14.97 32.7 17.16 33.9 19.45 35.25C21.75 36.58 23.98 38 24.4 38.37C24.84 38.75 25.56 39.63 26.02 40.32C26.47 41 27.01 42.02 27.2 42.59C27.51 43.53 27.53 43.98 27.62 53.74L28.97 53.79C30.2 53.82 30.35 53.85 30.62 54.21C30.92 54.59 30.94 54.87 30.92 63.95L30.5 64.26C30.07 64.58 29.87 64.6 20.16 64.6C10.45 64.6 10.25 64.58 9.4 63.95L9.4 54.52L9.79 54.13C10.12 53.79 10.29 53.74 12.54 53.74L12.54 52.72C12.54 52.04 12.45 51.49 12.24 51.12C12.05 50.72 10.94 49.64 8.91 47.9C7.06 46.31 5.71 45 5.45 44.6C5.22 44.22 4.92 43.58 4.79 43.14C4.65 42.71 3.51 38.47 2.23 33.71C0.24 26.2 -0.06 24.96 0 24.2C0.05 23.73 0.21 23.09 0.36 22.79C0.51 22.49 0.79 22.04 0.98 21.77ZM56.94 21.41C57.36 21.05 57.99 20.64 58.33 20.51C58.71 20.37 59.36 20.31 59.98 20.34C60.61 20.37 61.26 20.51 61.63 20.7C61.98 20.87 62.54 21.33 62.87 21.71C63.22 22.08 63.6 22.65 63.72 22.95C63.86 23.25 63.96 23.95 63.96 24.52C63.96 25.32 63.64 26.73 62.43 31.2C61.59 34.31 60.75 37.39 60.58 38.03C60.41 38.67 59.98 40.23 59.64 41.49C59.29 42.74 58.92 43.94 58.81 44.16C58.7 44.38 58.41 44.78 58.16 45.08C57.91 45.38 56.51 46.67 55.04 47.93C53.56 49.2 52.24 50.38 52.1 50.53C51.94 50.69 51.72 51.12 51.59 51.46C51.45 51.81 51.36 52.47 51.34 53.74L52.68 53.79C53.7 53.8 54.06 53.88 54.28 54.1C54.53 54.35 54.56 54.81 54.64 63.79L53.87 64.58L43.8 64.58C33.95 64.58 33.75 64.58 33.43 64.26C33.14 63.97 33.12 63.75 33.12 54.37L33.56 54.05C33.89 53.79 34.22 53.72 36.26 53.74L36.31 48.81C36.36 43.98 36.36 43.9 36.76 42.74C37 42.1 37.38 41.22 37.61 40.78C37.85 40.35 38.59 39.46 39.23 38.81C40.27 37.79 40.96 37.32 44.59 35.22C46.88 33.88 49.07 32.69 49.46 32.56C49.85 32.45 50.51 32.39 50.95 32.42C51.39 32.45 52 32.62 52.33 32.78C52.65 32.96 52.95 33.05 52.98 33C53.01 32.96 53.62 30.74 54.33 28.05C55.05 25.37 55.76 22.93 55.9 22.63C56.06 22.33 56.51 21.79 56.94 21.41ZM2.2 24.38C2.22 23.81 2.31 23.58 2.81 23.07C3.3 22.55 3.51 22.46 4.04 22.46C4.4 22.46 4.95 22.59 5.27 22.74C5.56 22.88 5.93 23.17 6.05 23.37C6.16 23.56 6.96 26.33 7.83 29.5C9.1 34.23 9.35 35.36 9.24 35.74C9.16 36 9.08 36.43 9.08 36.68C9.08 36.95 9.21 37.54 9.37 38.01C9.54 38.53 9.88 39.13 10.28 39.54C10.69 39.99 11.97 40.84 14.16 42.1C15.95 43.14 17.58 44.03 17.77 44.08C17.99 44.14 18.29 44.05 18.56 43.84C18.85 43.61 19 43.37 19 43.04C19 42.77 18.85 42.46 18.68 42.3C18.52 42.15 16.94 41.2 15.19 40.2C13.14 39.02 11.89 38.2 11.69 37.92C11.53 37.67 11.36 37.18 11.33 36.84C11.28 36.44 11.35 36.02 11.5 35.7C11.64 35.42 11.99 35.04 12.27 34.87C12.55 34.7 13.06 34.56 13.42 34.56C13.94 34.56 14.68 34.93 17.97 36.85C20.13 38.12 22.22 39.38 22.61 39.66C22.99 39.95 23.57 40.53 23.88 40.94C24.2 41.36 24.64 42.1 24.86 42.57C25.08 43.06 25.33 43.9 25.42 44.45C25.52 45.02 25.58 47.33 25.59 53.72L14.83 53.72L14.74 52.44C14.68 51.65 14.52 50.86 14.33 50.42C14.16 50.05 13.81 49.48 13.56 49.18C13.31 48.88 11.83 47.55 10.28 46.2C8.74 44.85 7.35 43.58 7.21 43.35C7.09 43.15 6.43 40.95 5.77 38.48C5.38 37.04 4.85 35.03 4.34 33.13L4.34 33.13L4.34 33.12C3.99 31.81 3.65 30.54 3.38 29.53C2.64 26.81 2.19 24.79 2.2 24.38ZM57.89 23.53C58 23.29 58.33 22.95 58.62 22.77C58.9 22.6 59.39 22.46 59.72 22.46C60.05 22.46 60.52 22.57 60.78 22.7C61.04 22.84 61.4 23.17 61.57 23.45C61.73 23.73 61.88 24.17 61.88 24.42C61.88 24.69 61.52 26.25 61.08 27.88C60.9 28.59 60.62 29.59 60.33 30.71L60.32 30.72L60.32 30.72L60.32 30.73C59.92 32.22 59.47 33.89 59.1 35.26C58.46 37.68 57.75 40.34 57.53 41.16C57.31 41.99 57 42.9 56.86 43.2C56.68 43.54 55.52 44.66 53.84 46.09C52.35 47.38 50.92 48.65 50.67 48.92C50.42 49.18 50.02 49.83 49.77 50.35C49.44 51.04 49.3 51.63 49.16 53.72L38.48 53.72L38.46 49.21C38.46 45.62 38.52 44.5 38.71 43.75C38.85 43.23 39.15 42.46 39.39 42.02C39.61 41.6 40.22 40.81 40.75 40.29C41.46 39.58 42.44 38.92 44.68 37.64C46.32 36.68 48.19 35.61 48.85 35.23C49.68 34.76 50.2 34.56 50.65 34.56C51.04 34.56 51.47 34.68 51.83 34.92C52.16 35.14 52.46 35.52 52.6 35.91C52.77 36.4 52.79 36.66 52.65 37.15C52.55 37.5 52.32 37.95 52.11 38.14C51.91 38.34 50.26 39.36 48.45 40.43C45.7 42.02 45.14 42.41 45.09 42.74C45.07 42.95 45.07 43.26 45.12 43.43C45.17 43.61 45.4 43.84 45.64 43.97C46.03 44.14 46.17 44.14 46.72 43.86C47.07 43.68 48.66 42.79 50.26 41.86C51.85 40.94 53.32 40.02 53.53 39.85C53.73 39.66 54.06 39.22 54.27 38.88C54.47 38.53 54.71 37.9 54.78 37.46C54.88 36.98 54.88 36.4 54.8 35.94C54.66 35.26 54.75 34.79 55.76 31.07C56.37 28.79 57.05 26.28 57.27 25.45C57.49 24.63 57.77 23.76 57.89 23.53ZM11.61 62.36L11.61 55.92L28.74 55.92L28.74 62.36L11.61 62.36ZM35.15 59.25C35.13 57.54 35.18 56.1 35.26 56.03C35.32 55.97 39.22 55.92 52.46 55.92L52.46 62.36L35.18 62.36L35.15 59.25Z" fill="#219BE0" fill-opacity="1.000000" fill-rule="evenodd"/>
	<path id="Vector" d="M14.77 7.76C14.74 12.08 14.79 15.78 14.9 16.9C14.99 17.94 15.24 19.6 15.46 20.59C15.68 21.58 16.14 23.1 16.47 23.97C16.78 24.83 17.33 26.11 17.68 26.8C18.02 27.49 18.81 28.79 19.4 29.7C20.02 30.61 21.24 32.12 22.14 33.06C23.03 34.01 24.34 35.22 25.03 35.75C25.72 36.29 26.69 36.98 27.2 37.29C27.68 37.62 28.89 38.3 29.87 38.81C30.83 39.33 31.8 39.76 32.02 39.76C32.24 39.76 33.26 39.29 34.3 38.72C35.33 38.15 36.75 37.31 37.44 36.84C38.13 36.38 39.29 35.48 40.03 34.84C40.77 34.21 41.89 33.1 42.53 32.36C43.16 31.64 44.13 30.36 44.67 29.55C45.22 28.73 46.06 27.24 46.54 26.25C47.01 25.26 47.6 23.8 47.87 23.03C48.12 22.26 48.5 20.91 48.69 20.04C49.03 18.53 49.05 18.12 49.1 9.52C49.14 1.14 49.13 0.54 48.88 0.28C48.72 0.12 48.42 0 48.2 0C47.98 0.01 47.16 0.36 46.39 0.8C45.62 1.24 44.41 1.77 43.72 2.01C42.64 2.37 42.2 2.43 40.42 2.43C38.95 2.45 38.08 2.37 37.28 2.16C36.67 2.01 35.32 1.47 34.25 0.95C33.2 0.43 32.21 0.01 32.07 0.01C31.91 0.01 30.9 0.42 29.82 0.94C28.74 1.46 27.43 1.99 26.91 2.13C26.4 2.27 25.26 2.43 24.4 2.48C23.24 2.54 22.48 2.49 21.49 2.3C20.76 2.15 19.81 1.88 19.37 1.69C18.95 1.5 18.05 1.05 17.41 0.69C16.77 0.31 16.06 0.01 15.84 0.01C15.62 0.03 15.3 0.12 15.13 0.26C14.83 0.48 14.82 0.7 14.77 7.76ZM0.98 21.77C0.79 22.04 0.51 22.49 0.36 22.79C0.21 23.09 0.05 23.73 0 24.2C-0.06 24.96 0.24 26.2 2.23 33.71C3.51 38.47 4.65 42.71 4.79 43.14C4.92 43.58 5.22 44.22 5.45 44.6C5.71 45 7.06 46.31 8.91 47.9C10.94 49.64 12.05 50.72 12.24 51.12C12.45 51.49 12.54 52.04 12.54 52.72L12.54 53.74C10.29 53.74 10.12 53.79 9.79 54.13L9.4 54.52L9.4 63.95C10.25 64.58 10.45 64.6 20.16 64.6C29.87 64.6 30.07 64.58 30.5 64.26L30.92 63.95C30.94 54.87 30.92 54.59 30.62 54.21C30.35 53.85 30.2 53.82 28.97 53.79L27.62 53.74C27.53 43.98 27.51 43.53 27.2 42.59C27.01 42.02 26.47 41 26.02 40.32C25.56 39.63 24.84 38.75 24.4 38.37C23.98 38 21.75 36.58 19.45 35.25C17.16 33.9 14.97 32.7 14.58 32.59C14.19 32.47 13.61 32.37 13.29 32.37C12.96 32.37 12.32 32.52 11.88 32.69C11.42 32.86 11.03 32.97 11.02 32.96C11 32.94 10.4 30.8 9.71 28.21C9.02 25.62 8.3 23.15 8.09 22.73C7.9 22.3 7.43 21.69 7.04 21.35C6.65 21.02 6.02 20.64 5.63 20.51C5.23 20.37 4.56 20.28 4.13 20.28C3.55 20.28 3.07 20.42 2.33 20.8C1.78 21.06 1.16 21.52 0.98 21.77ZM58.33 20.51C58.71 20.37 59.36 20.31 59.98 20.34C60.61 20.37 61.26 20.51 61.63 20.7C61.98 20.87 62.54 21.33 62.87 21.71C63.22 22.08 63.6 22.65 63.72 22.95C63.86 23.25 63.96 23.95 63.96 24.52C63.96 25.32 63.64 26.73 62.43 31.2C61.59 34.31 60.75 37.39 60.58 38.03C60.41 38.67 59.98 40.23 59.64 41.49C59.29 42.74 58.92 43.94 58.81 44.16C58.7 44.38 58.41 44.78 58.16 45.08C57.91 45.38 56.51 46.67 55.04 47.93C53.56 49.2 52.24 50.38 52.1 50.53C51.94 50.69 51.72 51.12 51.59 51.46C51.45 51.81 51.36 52.47 51.34 53.74L52.68 53.79C53.7 53.8 54.06 53.88 54.28 54.1C54.53 54.35 54.56 54.81 54.64 63.79L53.87 64.58L43.8 64.58C33.95 64.58 33.75 64.58 33.43 64.26C33.14 63.97 33.12 63.75 33.12 54.37L33.56 54.05C33.89 53.79 34.22 53.72 36.26 53.74L36.31 48.81C36.36 43.98 36.36 43.9 36.76 42.74C37 42.1 37.38 41.22 37.61 40.78C37.85 40.35 38.59 39.46 39.23 38.81C40.27 37.79 40.96 37.32 44.59 35.22C46.88 33.88 49.07 32.69 49.46 32.56C49.85 32.45 50.51 32.39 50.95 32.42C51.39 32.45 52 32.62 52.33 32.78C52.65 32.96 52.95 33.05 52.98 33C53.01 32.96 53.62 30.74 54.33 28.05C55.05 25.37 55.76 22.93 55.9 22.63C56.06 22.33 56.51 21.79 56.94 21.41C57.36 21.05 57.99 20.64 58.33 20.51ZM27.51 4.19C26.3 4.57 25.85 4.61 23.93 4.61C22.03 4.61 21.53 4.57 20.21 4.21C19.36 3.97 18.32 3.61 17.88 3.39C17.46 3.17 17.06 3 17.02 3C16.97 3 16.94 6 16.94 9.67C16.94 13.4 17.02 16.88 17.1 17.57C17.19 18.23 17.38 19.32 17.52 19.96C17.66 20.61 18.01 21.85 18.3 22.71C18.6 23.58 19.17 24.93 19.56 25.7C19.95 26.47 20.57 27.57 20.93 28.13C21.31 28.7 22.03 29.69 22.55 30.33C23.06 30.98 24.09 32.06 24.81 32.73C25.53 33.43 26.84 34.45 27.7 35.03C28.56 35.61 29.88 36.4 30.65 36.77L32.02 37.48C33.89 36.51 35.18 35.74 36.09 35.14C37.31 34.34 38.29 33.52 39.8 32C41.16 30.63 42.18 29.44 42.83 28.45C43.38 27.63 44.13 26.31 44.51 25.54C44.89 24.77 45.4 23.48 45.69 22.71C45.95 21.94 46.32 20.7 46.47 19.96C46.63 19.22 46.83 17.94 46.93 17.1C47.02 16.25 47.1 12.74 47.1 9.28C47.1 4.32 47.05 3.01 46.91 3.06C46.88 3.07 46.79 3.11 46.66 3.16C46.42 3.25 46.06 3.39 45.69 3.55C45.12 3.78 44.13 4.11 43.49 4.27C42.84 4.44 41.67 4.61 40.9 4.66C40.05 4.72 38.98 4.68 38.23 4.57C37.53 4.46 36.37 4.16 35.63 3.91C34.89 3.64 33.76 3.17 33.1 2.84L31.91 2.26L30.4 3.01C29.55 3.44 28.27 3.97 27.51 4.19ZM2.2 24.38C2.19 24.79 2.64 26.81 3.38 29.53C3.65 30.54 3.99 31.81 4.34 33.12L4.34 33.13L4.34 33.13C4.85 35.03 5.38 37.04 5.77 38.48C6.43 40.95 7.09 43.15 7.21 43.35C7.35 43.58 8.74 44.85 10.28 46.2C11.83 47.55 13.31 48.88 13.56 49.18C13.81 49.48 14.16 50.05 14.33 50.42C14.52 50.86 14.68 51.65 14.74 52.44L14.83 53.72L25.59 53.72C25.58 47.33 25.52 45.02 25.42 44.45C25.33 43.9 25.08 43.06 24.86 42.57C24.64 42.1 24.2 41.36 23.88 40.94C23.57 40.53 22.99 39.95 22.61 39.66C22.22 39.38 20.13 38.12 17.97 36.85C14.68 34.93 13.94 34.56 13.42 34.56C13.06 34.56 12.55 34.7 12.27 34.87C11.99 35.04 11.64 35.42 11.5 35.7C11.35 36.02 11.28 36.44 11.33 36.84C11.36 37.18 11.53 37.67 11.69 37.92C11.89 38.2 13.14 39.02 15.19 40.2C16.94 41.2 18.52 42.15 18.68 42.3C18.85 42.46 19 42.77 19 43.04C19 43.37 18.85 43.61 18.56 43.84C18.29 44.05 17.99 44.14 17.77 44.08C17.58 44.03 15.95 43.14 14.16 42.1C11.97 40.84 10.69 39.99 10.28 39.54C9.88 39.13 9.54 38.53 9.37 38.01C9.21 37.54 9.08 36.95 9.08 36.68C9.08 36.43 9.16 36 9.24 35.74C9.35 35.36 9.1 34.23 7.83 29.5C6.96 26.33 6.16 23.56 6.05 23.37C5.93 23.17 5.56 22.88 5.27 22.74C4.95 22.59 4.4 22.46 4.04 22.46C3.51 22.46 3.3 22.55 2.81 23.07C2.31 23.58 2.22 23.81 2.2 24.38ZM58.62 22.77C58.9 22.6 59.39 22.46 59.72 22.46C60.05 22.46 60.52 22.57 60.78 22.7C61.04 22.84 61.4 23.17 61.57 23.45C61.73 23.73 61.88 24.17 61.88 24.42C61.88 24.69 61.52 26.25 61.08 27.88C60.9 28.59 60.62 29.59 60.33 30.71L60.32 30.72L60.32 30.72L60.32 30.73C59.92 32.22 59.47 33.89 59.1 35.26C58.46 37.68 57.75 40.34 57.53 41.16C57.31 41.99 57 42.9 56.86 43.2C56.68 43.54 55.52 44.66 53.84 46.09C52.35 47.38 50.92 48.65 50.67 48.92C50.42 49.18 50.02 49.83 49.77 50.35C49.44 51.04 49.3 51.63 49.16 53.72L38.48 53.72L38.46 49.21C38.46 45.62 38.52 44.5 38.71 43.75C38.85 43.23 39.15 42.46 39.39 42.02C39.61 41.6 40.22 40.81 40.75 40.29C41.46 39.58 42.44 38.92 44.68 37.64C46.32 36.68 48.19 35.61 48.85 35.23C49.68 34.76 50.2 34.56 50.65 34.56C51.04 34.56 51.47 34.68 51.83 34.92C52.16 35.14 52.46 35.52 52.6 35.91C52.77 36.4 52.79 36.66 52.65 37.15C52.55 37.5 52.32 37.95 52.11 38.14C51.91 38.34 50.26 39.36 48.45 40.43C45.7 42.02 45.14 42.41 45.09 42.74C45.07 42.95 45.07 43.26 45.12 43.43C45.17 43.61 45.4 43.84 45.64 43.97C46.03 44.14 46.17 44.14 46.72 43.86C47.07 43.68 48.66 42.79 50.26 41.86C51.85 40.94 53.32 40.02 53.53 39.85C53.73 39.66 54.06 39.22 54.27 38.88C54.47 38.53 54.71 37.9 54.78 37.46C54.88 36.98 54.88 36.4 54.8 35.94C54.66 35.26 54.75 34.79 55.76 31.07C56.37 28.79 57.05 26.28 57.27 25.45C57.49 24.63 57.77 23.76 57.89 23.53C58 23.29 58.33 22.95 58.62 22.77ZM11.61 55.92L11.61 62.36L28.74 62.36L28.74 55.92L11.61 55.92ZM35.26 56.03C35.32 55.97 39.22 55.92 52.46 55.92L52.46 62.36L35.18 62.36L35.15 59.25C35.13 57.54 35.18 56.1 35.26 56.03ZM30.68 5.29C31.44 4.96 32.07 4.77 32.26 4.83C32.43 4.88 32.88 5.08 33.28 5.27C33.67 5.46 34.44 5.78 35 5.98C35.57 6.17 36.54 6.42 37.16 6.55C37.79 6.67 39.12 6.77 40.11 6.77C41.1 6.77 42.4 6.67 43.02 6.58C44.09 6.37 44.12 6.37 44.93 7.16L44.85 12.42C44.79 17.01 44.75 17.87 44.46 19.18C44.27 19.99 43.91 21.31 43.63 22.08C43.36 22.85 42.88 24.03 42.55 24.68C42.22 25.32 41.52 26.5 41.01 27.27C40.49 28.04 39.53 29.25 38.89 29.94C38.26 30.63 37.14 31.65 36.43 32.22C35.73 32.78 34.53 33.61 33.78 34.07C33.03 34.53 32.24 34.89 32.02 34.89C31.8 34.89 31.06 34.57 30.37 34.18C29.68 33.79 28.63 33.08 28.01 32.62C27.4 32.15 26.43 31.29 25.83 30.71C25.23 30.11 24.37 29.17 23.93 28.6C23.47 28.04 22.72 26.94 22.25 26.17C21.79 25.4 21.18 24.22 20.91 23.58C20.65 22.93 20.24 21.75 20 20.98C19.78 20.21 19.5 18.93 19.37 18.16C19.2 17.13 19.14 15.39 19.14 11.92C19.14 7.11 19.14 7.08 19.48 6.75C19.81 6.44 19.94 6.42 20.71 6.55C21.18 6.62 22.74 6.69 24.16 6.67C26.47 6.66 26.9 6.61 28.09 6.25C28.83 6.03 29.99 5.6 30.68 5.29ZM30.84 7.57C31.45 7.32 32.05 7.14 32.18 7.19C32.22 7.21 32.34 7.25 32.5 7.32C32.8 7.44 33.27 7.62 33.75 7.8C34.49 8.09 35.9 8.46 36.89 8.65C38.32 8.93 39.12 8.98 42.73 8.89L42.67 13.36C42.61 17.79 42.59 17.86 42.11 19.73C41.76 21.03 41.29 22.24 40.58 23.65C40.03 24.79 39.2 26.2 38.74 26.8C38.29 27.39 37.42 28.4 36.81 29C36.21 29.61 35.29 30.43 34.77 30.82C34.25 31.21 33.45 31.75 32.99 32.03C32.49 32.34 32.04 32.5 31.82 32.47C31.63 32.42 30.9 32.01 30.21 31.56C29.52 31.1 28.2 29.99 27.29 29.07C26.21 28.02 25.28 26.92 24.7 26.01C24.2 25.24 23.52 24.03 23.21 23.34C22.88 22.65 22.44 21.52 22.2 20.83C21.98 20.14 21.68 18.97 21.54 18.23C21.38 17.34 21.27 15.58 21.15 8.89L23.08 8.93C24.15 8.97 25.59 8.92 26.29 8.81C26.98 8.7 28.03 8.49 28.64 8.32C29.25 8.16 30.23 7.83 30.84 7.57ZM33.9 17.04C31.78 19.16 29.99 20.91 29.9 20.91C29.82 20.91 28.97 20.12 28.01 19.18C26.54 17.7 26.21 17.46 25.78 17.45C25.47 17.45 25.14 17.57 24.95 17.76C24.78 17.94 24.64 18.27 24.64 18.5C24.64 18.86 25.11 19.4 26.96 21.25C29.05 23.36 29.32 23.58 29.82 23.58C30.34 23.58 30.68 23.26 35.11 18.83C39.2 14.75 39.87 14.01 39.87 13.6C39.87 13.33 39.76 13.02 39.61 12.88C39.45 12.74 39.17 12.56 39 12.52C38.76 12.44 38.52 12.53 38.21 12.8C37.96 13 36.03 14.92 33.9 17.04Z" stroke="#000000" stroke-opacity="0" stroke-width="0.157101"/>
</svg>
