<svg width="67.954590" height="68.000000" viewBox="0 0 67.9546 68" fill="none" xmlns="http://www.w3.org/2000/svg" xmlns:xlink="http://www.w3.org/1999/xlink">
	<desc>
			Created with Pixso.
	</desc>
	<defs/>
	<path id="Vector" d="M28.23 0.3C29.02 0.18 30.03 0.05 30.46 0.01C30.88 -0.01 31.89 -0.01 32.68 0.03C33.48 0.09 34.87 0.24 35.78 0.41C36.69 0.57 38.03 0.92 38.79 1.19C39.54 1.46 40.84 2.04 41.69 2.47C42.55 2.91 43.9 3.77 44.7 4.37C45.49 4.97 46.71 6.05 47.39 6.79C48.09 7.53 49.12 8.86 49.7 9.77C50.28 10.68 50.84 11.52 50.92 11.61C51.01 11.73 51.42 11.5 51.96 10.99C52.45 10.53 52.91 10.16 53.03 10.16C53.15 10.16 53.77 10.34 54.42 10.57C55.1 10.78 55.8 11.11 55.99 11.29C56.19 11.48 56.32 11.79 56.32 12C56.32 12.22 56.38 12.68 56.61 13.69L57.58 13.55C58.11 13.47 58.75 13.47 58.98 13.53C59.25 13.61 59.75 14.15 60.2 14.87C60.64 15.53 60.99 16.25 60.97 16.46C60.97 16.67 60.8 17.1 60.59 17.43C60.37 17.76 60.2 18.16 60.2 18.36C60.2 18.55 60.55 18.86 61.11 19.15C61.63 19.38 62.1 19.73 62.18 19.93C62.27 20.1 62.33 20.82 62.33 21.55C62.33 22.33 62.23 23.01 62.06 23.24C61.92 23.45 61.44 23.8 60.99 24.02C60.49 24.25 60.18 24.54 60.2 24.75C60.2 24.93 60.37 25.37 60.59 25.72C60.8 26.05 60.97 26.52 60.97 26.73C60.97 26.94 60.66 27.58 60.3 28.14C59.93 28.69 59.38 29.29 59.07 29.48C58.63 29.73 58.42 29.75 57.72 29.58C57.27 29.44 56.83 29.38 56.71 29.44C56.59 29.5 56.46 29.94 56.4 30.47C56.32 30.97 56.21 31.53 56.11 31.73C56.01 31.9 55.39 32.23 54.72 32.44C54.06 32.66 53.28 32.83 52.97 32.83C52.58 32.83 52.27 32.62 51.81 32.06C51.48 31.63 51.13 31.28 51.03 31.28C50.96 31.28 50.57 31.86 50.18 32.6C49.77 33.32 48.94 34.54 48.28 35.33C47.64 36.13 46.56 37.25 45.86 37.83C45.16 38.43 44 39.3 43.24 39.79C42.49 40.27 41.19 40.95 40.34 41.32C39.49 41.69 37.95 42.19 36.95 42.46C35.82 42.73 34.25 42.97 32.88 43.02C31.66 43.08 30.11 43.06 28.21 42.81L26.33 45.14C24.84 46.98 24.33 47.48 23.91 47.52C23.54 47.54 23 47.29 22.1 46.65C20.98 45.83 20.79 45.76 20.59 46.03C20.48 46.18 17.45 49.92 13.89 54.3C8.17 61.32 7.34 62.28 6.85 62.28C6.49 62.28 5.52 61.65 3.37 59.94C1.76 58.66 0.31 57.46 0.17 57.29C0.03 57.09 -0.04 56.78 0.01 56.57C0.07 56.36 3.04 52.58 13.11 40.2L11.8 39.19C11.08 38.64 10.44 38.1 10.36 37.99C10.28 37.87 10.21 37.6 10.21 37.39C10.21 37.17 10.94 36.09 13.44 32.93L12.59 31.28C12.13 30.37 11.52 28.96 11.27 28.12C11 27.31 10.65 25.88 10.5 24.95C10.34 24 10.21 22.45 10.21 21.5C10.21 20.55 10.34 18.96 10.5 18.01C10.67 17.04 11.06 15.51 11.37 14.56C11.7 13.63 12.18 12.41 12.45 11.85C12.75 11.3 13.35 10.28 13.79 9.58C14.26 8.88 15.23 7.68 15.96 6.89C16.68 6.09 17.98 4.93 18.83 4.29C19.68 3.65 21.12 2.76 22.03 2.31C22.94 1.87 24.37 1.27 25.22 1C26.08 0.72 27.43 0.41 28.23 0.3ZM29.58 2.41C28.89 2.49 27.8 2.7 27.16 2.86C26.52 3.01 25.3 3.42 24.45 3.75C23.6 4.08 22.2 4.79 21.35 5.34C20.5 5.9 19.2 6.91 18.48 7.62C17.74 8.32 16.72 9.46 16.21 10.16C15.69 10.86 14.88 12.25 14.39 13.26C13.91 14.27 13.31 15.84 13.07 16.75C12.69 18.16 12.63 18.84 12.65 21.59C12.65 24.27 12.73 25.04 13.09 26.34C13.33 27.19 13.79 28.55 14.14 29.34C14.49 30.14 15.21 31.46 15.73 32.25C16.27 33.05 17.26 34.27 17.96 34.98C18.65 35.68 19.74 36.63 20.38 37.1C21.02 37.56 22.2 38.28 23 38.68C23.79 39.09 25.11 39.63 25.9 39.89C26.7 40.14 28.05 40.47 28.91 40.6C29.89 40.76 31.31 40.8 32.78 40.72C34.45 40.64 35.61 40.47 36.85 40.12C37.8 39.83 39.33 39.25 40.24 38.8C41.15 38.35 42.55 37.5 43.34 36.88C44.14 36.28 45.26 35.27 45.84 34.65C46.42 34.01 47.24 32.99 47.66 32.35C48.11 31.71 48.79 30.49 49.17 29.63C49.58 28.78 50.08 27.43 50.3 26.63C50.51 25.84 50.78 24.35 50.9 23.34C51.01 22.08 51.01 20.92 50.88 19.66C50.76 18.65 50.45 17.08 50.18 16.17C49.93 15.26 49.39 13.86 48.98 13.07C48.59 12.27 47.97 11.19 47.6 10.65C47.24 10.12 46.29 9 45.47 8.15C44.68 7.31 43.28 6.15 42.37 5.55C41.46 4.95 40.07 4.19 39.27 3.84C38.48 3.52 37.3 3.11 36.66 2.93C36.02 2.76 34.7 2.53 33.75 2.41C32.8 2.31 31.73 2.24 31.42 2.24C31.11 2.26 30.28 2.33 29.58 2.41ZM29.29 4.72C28.75 4.79 27.67 5.07 26.87 5.32C26.08 5.55 24.89 6.01 24.25 6.32C23.62 6.65 22.65 7.2 22.12 7.55C21.58 7.91 20.59 8.75 19.91 9.42C19.24 10.1 18.31 11.17 17.84 11.81C17.4 12.45 16.72 13.63 16.35 14.42C15.96 15.22 15.52 16.44 15.34 17.14C15.17 17.83 14.93 19.11 14.84 20C14.72 21.03 14.74 22.23 14.86 23.38C14.97 24.36 15.32 25.97 15.65 26.92C15.96 27.87 16.64 29.36 17.14 30.22C17.73 31.2 18.67 32.39 19.8 33.51C20.83 34.54 22.08 35.58 22.9 36.05C23.65 36.48 24.86 37.08 25.61 37.39C26.37 37.68 27.53 38.02 28.23 38.18C28.92 38.33 30.53 38.45 31.81 38.45C33.48 38.45 34.56 38.35 35.59 38.08C36.38 37.89 37.64 37.46 38.4 37.15C39.16 36.84 40.42 36.15 41.21 35.6C42 35.06 43.24 34.01 43.94 33.3C44.64 32.56 45.49 31.53 45.86 30.99C46.23 30.47 46.81 29.4 47.16 28.67C47.51 27.93 47.97 26.61 48.19 25.76C48.4 24.91 48.63 23.51 48.71 22.66C48.77 21.77 48.73 20.41 48.59 19.46C48.46 18.55 48.22 17.33 48.05 16.75C47.88 16.17 47.47 15.06 47.12 14.33C46.77 13.59 45.96 12.27 45.32 11.42C44.7 10.57 43.65 9.42 43.03 8.88C42.39 8.34 41.36 7.56 40.73 7.16C40.09 6.75 39.04 6.19 38.4 5.94C37.76 5.67 36.64 5.3 35.88 5.1C35.13 4.89 33.59 4.7 32.39 4.64C31.21 4.6 29.84 4.64 29.29 4.72ZM28.23 7.25C27.43 7.47 25.98 8.03 25.03 8.51C23.93 9.06 22.78 9.83 21.95 10.59C21.21 11.27 20.24 12.33 19.78 12.97C19.33 13.61 18.69 14.7 18.38 15.39C18.05 16.09 17.65 17.21 17.45 17.91C17.22 18.8 17.1 19.87 17.1 21.5C17.1 23.09 17.2 24.23 17.43 25.08C17.61 25.78 18.15 27.14 18.64 28.08C19.1 29.03 19.95 30.39 20.52 31.07C21.08 31.75 22.07 32.7 22.7 33.18C23.34 33.66 24.56 34.38 25.42 34.79C26.27 35.2 27.49 35.66 28.13 35.84C28.77 35.99 29.89 36.18 30.65 36.24C31.4 36.32 32.74 36.26 33.65 36.15C34.56 36.01 35.44 35.84 35.59 35.76C35.82 35.62 35.78 35.53 35.34 35.23C35.05 35.02 34.76 34.75 34.72 34.61C34.66 34.5 34.78 33.9 34.95 33.32C35.26 32.37 35.26 32.21 35.01 31.94C34.74 31.67 34.62 31.67 33.69 31.94C33.15 32.12 32.51 32.21 32.3 32.15C32.08 32.1 31.62 31.59 31.25 31.03C30.9 30.49 30.36 29.54 30.07 28.96C29.78 28.38 29.58 27.72 29.64 27.5C29.7 27.29 30.05 26.83 30.44 26.48C30.9 26.06 31.12 25.71 31.09 25.41C31.04 25.06 30.84 24.95 30.07 24.75C29.51 24.62 28.94 24.33 28.75 24.07C28.44 23.69 28.4 23.34 28.46 21.36C28.48 20.12 28.6 19 28.71 18.88C28.83 18.76 29.39 18.55 29.97 18.42C30.86 18.22 31.04 18.11 31.09 17.7C31.13 17.35 30.94 17.04 30.38 16.5C29.93 16.11 29.58 15.61 29.58 15.39C29.58 15.18 29.89 14.42 30.28 13.69C30.67 12.97 31.23 12.06 31.54 11.65C31.89 11.21 32.28 10.94 32.55 10.94C32.78 10.94 33.34 11.05 33.81 11.23C34.56 11.5 34.64 11.5 34.93 11.17C35.2 10.88 35.2 10.74 34.93 9.81C34.74 9.17 34.68 8.69 34.8 8.46C34.89 8.28 35.11 7.99 35.28 7.84C35.45 7.68 35.61 7.51 35.61 7.45C35.61 7.39 35.09 7.24 34.49 7.1C33.87 6.96 32.53 6.87 31.52 6.87C30.38 6.89 29.14 7.02 28.23 7.25ZM37.82 8.9C37.61 9.08 37.35 9.21 37.28 9.25C37.2 9.27 37.26 9.68 37.43 10.16C37.61 10.65 37.7 11.21 37.64 11.42C37.59 11.63 37.06 12.29 36.46 12.87L35.4 13.94C33.67 13.57 33.11 13.51 33.01 13.55C32.94 13.61 32.7 13.98 32.51 14.37L32.14 15.1C33.32 16.07 33.65 16.54 33.65 16.75C33.65 16.96 33.52 17.68 33.34 18.34C33.17 19.02 32.9 19.71 32.72 19.89C32.53 20.06 32.01 20.28 31.52 20.37C30.65 20.53 30.65 20.55 30.59 21.4L30.59 21.4C30.57 21.88 30.61 22.33 30.69 22.41C30.77 22.5 31.29 22.68 31.81 22.79C32.24 22.91 32.48 22.97 32.65 23.11C32.86 23.29 32.97 23.6 33.21 24.31C33.44 25 33.63 25.8 33.63 26.11C33.65 26.48 33.44 26.84 32.88 27.35C32.16 28.05 32.12 28.1 32.39 28.57C32.53 28.84 32.76 29.21 32.92 29.4C33.15 29.73 33.23 29.73 34.04 29.44C34.52 29.29 35.05 29.19 35.2 29.25C35.36 29.29 36.02 29.87 36.66 30.51L37.82 31.67C37.14 33.7 37.14 33.7 37.59 34.03C37.82 34.23 38.17 34.42 38.36 34.48C38.55 34.54 38.98 34.34 39.39 34.03C39.78 33.74 40.28 33.39 40.51 33.28C40.73 33.14 41.29 32.74 41.75 32.35C42.2 31.98 42.57 31.61 42.57 31.51C42.57 31.44 42.2 31.24 41.75 31.09C41.29 30.93 40.43 30.49 39.85 30.1C39.27 29.73 38.32 28.9 37.76 28.26C37.18 27.64 36.5 26.67 36.25 26.15C36 25.6 35.65 24.69 35.49 24.11C35.34 23.53 35.2 22.39 35.2 21.59C35.2 20.8 35.34 19.62 35.51 18.98C35.67 18.34 36.09 17.29 36.42 16.65C36.77 16.01 37.57 14.97 38.21 14.33C38.85 13.69 39.85 12.93 40.43 12.64C41.02 12.35 41.77 12.02 42.08 11.91L42.66 11.69C41.31 10.35 40.74 9.91 40.53 9.83C40.32 9.77 39.85 9.46 39.52 9.17C39.17 8.86 38.73 8.61 38.55 8.61C38.36 8.61 38.03 8.75 37.82 8.9ZM52.07 14.24C52.04 14.41 52.1 14.59 52.22 14.93C52.34 15.3 52.56 16.14 52.75 16.84L52.8 17.04C53.03 18.03 53.13 19.25 53.13 21.59C53.13 24.48 53.07 24.98 52.58 26.83L52.04 28.86C53.22 30.12 53.65 30.41 53.84 30.37C54.1 30.33 54.19 30.12 54.19 29.6C54.19 29.19 54.31 28.69 54.46 28.47C54.6 28.26 55.06 27.83 55.47 27.54C56.15 27.06 56.34 27 57.23 27.1C58.11 27.19 58.28 27.15 58.38 26.88C58.45 26.67 58.32 26.21 58.07 25.76C57.66 25.04 57.64 24.93 57.87 24.21C58.01 23.78 58.24 23.24 58.4 23.01C58.53 22.76 58.96 22.43 59.33 22.27C59.81 22.06 60.01 21.86 60.01 21.55C60.01 21.23 59.79 21.01 59.19 20.72C58.45 20.37 58.32 20.2 58.01 19.27C57.68 18.22 57.68 18.18 58.07 17.39C58.28 16.92 58.42 16.38 58.36 16.17C58.3 15.96 58.2 15.78 58.11 15.78C58.04 15.78 57.76 15.85 57.44 15.92L57.36 15.94C57.32 15.95 57.28 15.96 57.23 15.97C56.69 16.13 56.4 16.11 55.97 15.9C55.68 15.74 55.2 15.41 54.91 15.16C54.5 14.83 54.33 14.48 54.23 13.75C54.13 13.13 54 12.76 53.8 12.74C53.65 12.7 53.16 13.01 52.74 13.44C52.31 13.85 52.12 14.03 52.07 14.24ZM41.11 14.85C41.54 14.58 42.35 14.21 42.93 14.02C43.52 13.84 44.06 13.73 44.14 13.77C44.23 13.8 44.56 14.35 44.87 14.95C45.18 15.57 45.63 16.73 45.88 17.52C46.27 18.75 46.34 19.38 46.34 21.5C46.33 23.3 46.23 24.36 45.98 25.27C45.8 25.97 45.34 27.17 44.31 29.34L43.59 29.23C43.19 29.17 42.43 28.92 41.89 28.67C41.36 28.41 40.53 27.87 40.05 27.45C39.56 27.02 38.88 26.21 38.55 25.64C38.15 24.98 37.8 24.04 37.61 23.05C37.35 21.79 37.33 21.28 37.51 20.33C37.62 19.69 37.93 18.73 38.17 18.2C38.42 17.66 39 16.81 39.47 16.28C39.95 15.76 40.69 15.12 41.11 14.85ZM13.21 37.29C13.15 37.17 13.46 36.61 13.91 36.03C14.35 35.45 14.74 34.96 14.78 34.96C14.82 34.96 15.5 35.62 16.27 36.44C17.03 37.25 18.23 38.32 18.93 38.84C19.62 39.34 20.75 40.08 21.45 40.47C22.14 40.83 23.38 41.4 25.73 42.23L24.72 43.49C24.18 44.19 23.62 44.75 23.5 44.73C23.38 44.73 21.04 43.08 18.31 41.11C15.55 39.11 13.27 37.4 13.21 37.29ZM8.85 48.95C5.52 53.04 2.8 56.43 2.82 56.51C2.82 56.61 3.68 57.32 4.68 58.12C5.69 58.91 6.56 59.57 6.62 59.57C6.68 59.57 9.45 56.2 12.78 52.09L13.07 51.73L13.07 51.73C16.26 47.79 18.85 44.57 18.89 44.5C18.91 44.42 18.05 43.72 16.99 42.97C15.92 42.19 15.01 41.55 14.97 41.55C14.93 41.55 12.16 44.88 8.85 48.95ZM50.55 43.93C50.9 43.76 51.54 43.51 51.96 43.37C52.39 43.24 52.97 43.12 53.26 43.12C53.67 43.1 53.98 43.31 54.52 43.97C54.93 44.46 55.39 44.85 55.55 44.85C55.7 44.83 56.19 44.42 56.61 43.93C57.37 43.06 57.41 43.06 58.26 43.18C58.75 43.26 59.6 43.53 60.14 43.78C60.86 44.11 61.19 44.4 61.25 44.69C61.28 44.83 61.32 45.07 61.37 45.33C61.41 45.55 61.45 45.79 61.5 46.01C61.65 46.82 61.71 46.88 62.23 46.86C62.56 46.86 63.14 46.76 63.53 46.67C64.23 46.49 64.29 46.53 64.98 47.29C65.39 47.73 65.93 48.47 66.67 49.79L66.09 50.85C65.76 51.43 65.53 52.07 65.57 52.25C65.6 52.46 65.99 52.73 66.52 52.93C67.02 53.12 67.54 53.45 67.7 53.66C67.85 53.91 67.95 54.61 67.95 55.6C67.95 56.55 67.85 57.29 67.72 57.48C67.58 57.65 67.06 57.98 66.54 58.22C65.88 58.49 65.62 58.72 65.62 58.99C65.62 59.2 65.86 59.79 66.63 61.22L66.24 61.99C66.03 62.42 65.55 63.14 65.16 63.58C64.6 64.24 64.33 64.42 63.82 64.42C63.49 64.42 62.91 64.34 62.56 64.22C62.06 64.07 61.9 64.09 61.69 64.36C61.57 64.53 61.42 65.11 61.36 65.64C61.28 66.37 61.15 66.68 60.78 66.97C60.51 67.19 59.77 67.52 59.13 67.71C58.49 67.9 57.8 68.04 57.58 67.98C57.37 67.94 56.9 67.56 56.56 67.13C56.21 66.68 55.76 66.35 55.55 66.35C55.34 66.35 54.89 66.68 54.52 67.13C54.19 67.56 53.73 67.94 53.51 67.98C53.3 68.04 52.6 67.9 51.96 67.71C51.32 67.52 50.59 67.19 50.32 66.97C49.95 66.68 49.81 66.37 49.74 65.64C49.68 65.11 49.54 64.55 49.41 64.4C49.23 64.18 48.96 64.16 46.85 64.51L46.15 63.83C45.76 63.47 45.24 62.71 44.43 61.22L44.95 60.29C45.24 59.79 45.47 59.2 45.47 58.99C45.47 58.72 45.22 58.49 44.54 58.22C44.04 57.98 43.52 57.65 43.38 57.48C43.22 57.27 43.15 56.53 43.15 55.5C43.13 54.17 43.21 53.8 43.48 53.53C43.67 53.35 44.19 53.08 44.64 52.91C45.24 52.67 45.47 52.48 45.47 52.21C45.47 52 45.24 51.36 44.45 49.79L44.93 48.91C45.2 48.43 45.74 47.71 46.13 47.31C46.77 46.65 46.89 46.61 47.55 46.73C47.95 46.78 48.53 46.86 48.86 46.86C49.39 46.88 49.44 46.82 49.6 46.01C49.64 45.79 49.69 45.55 49.73 45.33C49.78 45.07 49.82 44.83 49.85 44.69C49.89 44.46 50.2 44.13 50.55 43.93ZM51.83 46.67C51.79 45.99 51.85 45.83 52.25 45.66C52.68 45.49 52.82 45.54 53.38 46.12C53.71 46.49 54.15 46.86 54.35 46.94C54.52 47.02 55.16 47.09 55.76 47.07C56.81 47.07 56.9 47.04 57.6 46.26C58.24 45.56 58.42 45.49 58.8 45.64C59.15 45.78 59.23 45.97 59.23 46.65C59.23 47.09 59.35 47.64 59.5 47.85C59.64 48.06 60.1 48.49 60.51 48.78C61.21 49.28 61.36 49.32 62.43 49.22C63.45 49.11 63.61 49.15 63.84 49.5C64.04 49.83 64 50.02 63.05 51.72L63.43 52.89C63.78 53.95 63.88 54.09 64.81 54.59C65.57 54.98 65.82 55.23 65.82 55.56C65.82 55.89 65.59 56.1 64.81 56.49C63.82 56.98 63.76 57.05 63.05 59.48L63.55 60.41C64.05 61.28 64.05 61.34 63.74 61.7C63.43 62.03 63.32 62.05 62.49 61.84C61.59 61.61 61.56 61.63 60.55 62.32C59.99 62.71 59.46 63.23 59.38 63.49C59.31 63.72 59.23 64.22 59.23 64.57C59.23 65.04 59.11 65.25 58.73 65.44C58.26 65.66 58.18 65.62 56.9 64.03L54.19 64.03L53.51 64.86C52.87 65.62 52.8 65.66 52.35 65.44C51.94 65.23 51.87 65.06 51.87 64.38C51.87 63.91 51.77 63.41 51.63 63.23C51.5 63.06 50.96 62.63 50.45 62.27C49.54 61.63 49.5 61.61 48.61 61.84C47.78 62.05 47.66 62.03 47.37 61.7C47.04 61.34 47.04 61.28 47.57 60.35C48.05 59.46 48.07 59.34 47.84 58.66C47.75 58.4 47.63 58.08 47.53 57.81C47.47 57.66 47.42 57.54 47.39 57.44C47.29 57.13 46.85 56.78 46.25 56.47C45.49 56.1 45.28 55.89 45.28 55.56C45.28 55.23 45.49 55.02 46.11 54.75C46.56 54.53 47.02 54.26 47.14 54.11C47.27 53.97 47.53 53.37 48.05 51.72L47.55 50.81C47.1 50.02 47.06 49.83 47.27 49.5C47.49 49.15 47.64 49.11 48.67 49.22C49.74 49.32 49.89 49.28 50.59 48.78C50.99 48.49 51.46 48.06 51.6 47.85C51.75 47.64 51.85 47.11 51.83 46.67ZM52.2 50.99C52.6 50.7 53.32 50.33 53.8 50.17C54.33 50 55.14 49.92 55.84 49.96C56.48 50 57.39 50.19 57.87 50.41C58.36 50.6 59.07 51.1 59.48 51.49C59.87 51.88 60.39 52.58 60.63 53.02C60.97 53.7 61.07 54.18 61.07 55.5C61.07 56.88 60.99 57.31 60.59 58.1C60.32 58.6 59.75 59.34 59.33 59.73C58.9 60.11 58.2 60.58 57.78 60.77C57.26 61.01 56.52 61.12 55.55 61.12C54.33 61.12 53.92 61.04 53.05 60.6C52.47 60.29 51.65 59.67 51.25 59.18C50.84 58.7 50.37 57.92 50.22 57.44C50.05 56.96 49.93 56.08 49.93 55.5C49.95 54.92 50.06 54.09 50.22 53.66C50.37 53.24 50.72 52.58 50.98 52.21C51.25 51.84 51.79 51.3 52.2 50.99ZM52.89 53.41C53.15 53.12 53.65 52.73 54.02 52.54C54.48 52.31 55.01 52.21 55.76 52.25C56.58 52.29 57 52.44 57.54 52.83C57.93 53.14 58.4 53.66 58.57 53.99C58.75 54.34 58.9 55.02 58.9 55.5C58.92 56.08 58.76 56.65 58.44 57.21C58.18 57.67 57.7 58.22 57.39 58.41C57.08 58.6 56.5 58.82 56.13 58.89C55.76 58.97 55.08 58.93 54.62 58.82C54.17 58.7 53.53 58.33 53.16 57.96C52.78 57.58 52.45 57 52.29 56.41C52.14 55.77 52.12 55.27 52.25 54.73C52.37 54.3 52.66 53.72 52.89 53.41Z" fill="#219BE0" fill-opacity="1.000000" fill-rule="evenodd"/>
	<path id="Vector" d="M30.46 0.01C30.88 -0.01 31.89 -0.01 32.68 0.03C33.48 0.09 34.87 0.24 35.78 0.41C36.69 0.57 38.03 0.92 38.79 1.19C39.54 1.46 40.84 2.04 41.69 2.47C42.55 2.91 43.9 3.77 44.7 4.37C45.49 4.97 46.71 6.05 47.39 6.79C48.09 7.53 49.12 8.86 49.7 9.77C50.28 10.68 50.84 11.52 50.92 11.61C51.01 11.73 51.42 11.5 51.96 10.99C52.45 10.53 52.91 10.16 53.03 10.16C53.15 10.16 53.77 10.34 54.42 10.57C55.1 10.78 55.8 11.11 55.99 11.29C56.19 11.48 56.32 11.79 56.32 12C56.32 12.22 56.38 12.68 56.61 13.69L57.58 13.55C58.11 13.47 58.75 13.47 58.98 13.53C59.25 13.61 59.75 14.15 60.2 14.87C60.64 15.53 60.99 16.25 60.97 16.46C60.97 16.67 60.8 17.1 60.59 17.43C60.37 17.76 60.2 18.16 60.2 18.36C60.2 18.55 60.55 18.86 61.11 19.15C61.63 19.38 62.1 19.73 62.18 19.93C62.27 20.1 62.33 20.82 62.33 21.55C62.33 22.33 62.23 23.01 62.06 23.24C61.92 23.45 61.44 23.8 60.99 24.02C60.49 24.25 60.18 24.54 60.2 24.75C60.2 24.93 60.37 25.37 60.59 25.72C60.8 26.05 60.97 26.52 60.97 26.73C60.97 26.94 60.66 27.58 60.3 28.14C59.93 28.69 59.38 29.29 59.07 29.48C58.63 29.73 58.42 29.75 57.72 29.58C57.27 29.44 56.83 29.38 56.71 29.44C56.59 29.5 56.46 29.94 56.4 30.47C56.32 30.97 56.21 31.53 56.11 31.73C56.01 31.9 55.39 32.23 54.72 32.44C54.06 32.66 53.28 32.83 52.97 32.83C52.58 32.83 52.27 32.62 51.81 32.06C51.48 31.63 51.13 31.28 51.03 31.28C50.96 31.28 50.57 31.86 50.18 32.6C49.77 33.32 48.94 34.54 48.28 35.33C47.64 36.13 46.56 37.25 45.86 37.83C45.16 38.43 44 39.3 43.24 39.79C42.49 40.27 41.19 40.95 40.34 41.32C39.49 41.69 37.95 42.19 36.95 42.46C35.82 42.73 34.25 42.97 32.88 43.02C31.66 43.08 30.11 43.06 28.21 42.81L26.33 45.14C24.84 46.98 24.33 47.48 23.91 47.52C23.54 47.54 23 47.29 22.1 46.65C20.98 45.83 20.79 45.76 20.59 46.03C20.48 46.18 17.45 49.92 13.89 54.3C8.17 61.32 7.34 62.28 6.85 62.28C6.49 62.28 5.52 61.65 3.37 59.94C1.76 58.66 0.31 57.46 0.17 57.29C0.03 57.09 -0.04 56.78 0.01 56.57C0.07 56.36 3.04 52.58 13.11 40.2L11.8 39.19C11.08 38.64 10.44 38.1 10.36 37.99C10.28 37.87 10.21 37.6 10.21 37.39C10.21 37.17 10.94 36.09 13.44 32.93L12.59 31.28C12.13 30.37 11.52 28.96 11.27 28.12C11 27.31 10.65 25.88 10.5 24.95C10.34 24 10.21 22.45 10.21 21.5C10.21 20.55 10.34 18.96 10.5 18.01C10.67 17.04 11.06 15.51 11.37 14.56C11.7 13.63 12.18 12.41 12.45 11.85C12.75 11.3 13.35 10.28 13.79 9.58C14.26 8.88 15.23 7.68 15.96 6.89C16.68 6.09 17.98 4.93 18.83 4.29C19.68 3.65 21.12 2.76 22.03 2.31C22.94 1.87 24.37 1.27 25.22 1C26.08 0.72 27.43 0.41 28.23 0.3C29.02 0.18 30.03 0.05 30.46 0.01ZM51.96 43.37C52.39 43.24 52.97 43.12 53.26 43.12C53.67 43.1 53.98 43.31 54.52 43.97C54.93 44.46 55.39 44.85 55.55 44.85C55.7 44.83 56.19 44.42 56.61 43.93C57.37 43.06 57.41 43.06 58.26 43.18C58.75 43.26 59.6 43.53 60.14 43.78C60.86 44.11 61.19 44.4 61.25 44.69C61.28 44.83 61.32 45.07 61.37 45.33C61.41 45.55 61.45 45.79 61.5 46.01C61.65 46.82 61.71 46.88 62.23 46.86C62.56 46.86 63.14 46.76 63.53 46.67C64.23 46.49 64.29 46.53 64.98 47.29C65.39 47.73 65.93 48.47 66.67 49.79L66.09 50.85C65.76 51.43 65.53 52.07 65.57 52.25C65.6 52.46 65.99 52.73 66.52 52.93C67.02 53.12 67.54 53.45 67.7 53.66C67.85 53.91 67.95 54.61 67.95 55.6C67.95 56.55 67.85 57.29 67.72 57.48C67.58 57.65 67.06 57.98 66.54 58.22C65.88 58.49 65.62 58.72 65.62 58.99C65.62 59.2 65.86 59.79 66.63 61.22L66.24 61.99C66.03 62.42 65.55 63.14 65.16 63.58C64.6 64.24 64.33 64.42 63.82 64.42C63.49 64.42 62.91 64.34 62.56 64.22C62.06 64.07 61.9 64.09 61.69 64.36C61.57 64.53 61.42 65.11 61.36 65.64C61.28 66.37 61.15 66.68 60.78 66.97C60.51 67.19 59.77 67.52 59.13 67.71C58.49 67.9 57.8 68.04 57.58 67.98C57.37 67.94 56.9 67.56 56.56 67.13C56.21 66.68 55.76 66.35 55.55 66.35C55.34 66.35 54.89 66.68 54.52 67.13C54.19 67.56 53.73 67.94 53.51 67.98C53.3 68.04 52.6 67.9 51.96 67.71C51.32 67.52 50.59 67.19 50.32 66.97C49.95 66.68 49.81 66.37 49.74 65.64C49.68 65.11 49.54 64.55 49.41 64.4C49.23 64.18 48.96 64.16 46.85 64.51L46.15 63.83C45.76 63.47 45.24 62.71 44.43 61.22L44.95 60.29C45.24 59.79 45.47 59.2 45.47 58.99C45.47 58.72 45.22 58.49 44.54 58.22C44.04 57.98 43.52 57.65 43.38 57.48C43.22 57.27 43.15 56.53 43.15 55.5C43.13 54.17 43.21 53.8 43.48 53.53C43.67 53.35 44.19 53.08 44.64 52.91C45.24 52.67 45.47 52.48 45.47 52.21C45.47 52 45.24 51.36 44.45 49.79L44.93 48.91C45.2 48.43 45.74 47.71 46.13 47.31C46.77 46.65 46.89 46.61 47.55 46.73C47.95 46.78 48.53 46.86 48.86 46.86C49.39 46.88 49.44 46.82 49.6 46.01C49.64 45.79 49.69 45.55 49.73 45.33C49.78 45.07 49.82 44.83 49.85 44.69C49.89 44.46 50.2 44.13 50.55 43.93C50.9 43.76 51.54 43.51 51.96 43.37ZM27.16 2.86C26.52 3.01 25.3 3.42 24.45 3.75C23.6 4.08 22.2 4.79 21.35 5.34C20.5 5.9 19.2 6.91 18.48 7.62C17.74 8.32 16.72 9.46 16.21 10.16C15.69 10.86 14.88 12.25 14.39 13.26C13.91 14.27 13.31 15.84 13.07 16.75C12.69 18.16 12.63 18.84 12.65 21.59C12.65 24.27 12.73 25.04 13.09 26.34C13.33 27.19 13.79 28.55 14.14 29.34C14.49 30.14 15.21 31.46 15.73 32.25C16.27 33.05 17.26 34.27 17.96 34.98C18.65 35.68 19.74 36.63 20.38 37.09C21.02 37.56 22.2 38.28 23 38.68C23.79 39.09 25.11 39.63 25.9 39.89C26.7 40.14 28.05 40.47 28.91 40.6C29.89 40.76 31.31 40.8 32.78 40.72C34.45 40.64 35.61 40.47 36.85 40.12C37.8 39.83 39.33 39.25 40.24 38.8C41.15 38.35 42.55 37.5 43.34 36.88C44.14 36.28 45.26 35.27 45.84 34.65C46.42 34.01 47.24 32.99 47.66 32.35C48.11 31.71 48.79 30.49 49.17 29.63C49.58 28.78 50.08 27.43 50.3 26.63C50.51 25.84 50.78 24.35 50.9 23.34C51.01 22.08 51.01 20.92 50.88 19.66C50.76 18.65 50.45 17.08 50.18 16.17C49.93 15.26 49.39 13.86 48.98 13.07C48.59 12.27 47.97 11.19 47.6 10.65C47.24 10.12 46.29 9 45.47 8.15C44.68 7.31 43.28 6.15 42.37 5.55C41.46 4.95 40.07 4.19 39.27 3.84C38.48 3.52 37.3 3.11 36.66 2.93C36.02 2.76 34.7 2.53 33.75 2.41C32.8 2.31 31.73 2.24 31.42 2.24C31.11 2.26 30.28 2.33 29.58 2.41C28.89 2.49 27.8 2.7 27.16 2.86ZM52.22 14.93C52.34 15.3 52.56 16.14 52.75 16.84L52.8 17.04C53.03 18.03 53.13 19.25 53.13 21.59C53.13 24.48 53.07 24.98 52.58 26.83L52.04 28.86C53.22 30.12 53.65 30.41 53.84 30.37C54.1 30.33 54.19 30.12 54.19 29.6C54.19 29.19 54.31 28.69 54.46 28.47C54.6 28.26 55.06 27.83 55.47 27.54C56.15 27.06 56.34 27 57.23 27.1C58.11 27.19 58.28 27.15 58.38 26.88C58.45 26.67 58.32 26.21 58.07 25.76C57.66 25.04 57.64 24.93 57.87 24.21C58.01 23.78 58.24 23.24 58.4 23.01C58.53 22.76 58.96 22.43 59.33 22.27C59.81 22.06 60.01 21.86 60.01 21.55C60.01 21.23 59.79 21.01 59.19 20.72C58.45 20.37 58.32 20.2 58.01 19.27C57.68 18.22 57.68 18.18 58.07 17.39C58.28 16.92 58.42 16.38 58.36 16.17C58.3 15.96 58.2 15.78 58.11 15.78C58.04 15.78 57.76 15.85 57.44 15.92L57.36 15.94C57.32 15.95 57.28 15.96 57.23 15.97C56.69 16.13 56.4 16.11 55.97 15.9C55.68 15.74 55.2 15.41 54.91 15.16C54.5 14.83 54.33 14.48 54.23 13.75C54.13 13.13 54 12.76 53.8 12.74C53.65 12.7 53.16 13.01 52.74 13.44C52.31 13.85 52.12 14.03 52.07 14.24C52.04 14.41 52.1 14.59 52.22 14.93ZM13.91 36.03C14.35 35.45 14.74 34.96 14.78 34.96C14.82 34.96 15.5 35.62 16.27 36.44C17.03 37.25 18.23 38.32 18.93 38.84C19.62 39.34 20.75 40.08 21.45 40.47C22.14 40.83 23.38 41.4 25.73 42.23L24.72 43.49C24.18 44.19 23.62 44.75 23.5 44.73C23.38 44.73 21.04 43.08 18.31 41.11C15.55 39.11 13.27 37.4 13.21 37.29C13.15 37.17 13.46 36.61 13.91 36.03ZM2.82 56.51C2.82 56.61 3.68 57.32 4.68 58.12C5.69 58.91 6.56 59.57 6.62 59.57C6.68 59.57 9.45 56.2 12.78 52.09L13.07 51.73L13.07 51.73C16.26 47.79 18.85 44.57 18.89 44.5C18.91 44.42 18.05 43.72 16.99 42.97C15.92 42.19 15.01 41.55 14.97 41.55C14.93 41.55 12.16 44.88 8.85 48.95C5.52 53.04 2.8 56.43 2.82 56.51ZM52.25 45.66C52.68 45.49 52.82 45.54 53.38 46.12C53.71 46.49 54.15 46.86 54.35 46.94C54.52 47.02 55.16 47.09 55.76 47.07C56.81 47.07 56.9 47.04 57.6 46.26C58.24 45.56 58.42 45.49 58.8 45.64C59.15 45.78 59.23 45.97 59.23 46.65C59.23 47.09 59.35 47.64 59.5 47.85C59.64 48.06 60.1 48.49 60.51 48.78C61.21 49.28 61.36 49.32 62.43 49.22C63.45 49.11 63.61 49.15 63.84 49.5C64.04 49.83 64 50.02 63.05 51.72L63.43 52.89C63.78 53.95 63.88 54.09 64.81 54.59C65.57 54.98 65.82 55.23 65.82 55.56C65.82 55.89 65.59 56.1 64.81 56.49C63.82 56.98 63.76 57.05 63.05 59.48L63.55 60.41C64.05 61.28 64.05 61.34 63.74 61.7C63.43 62.03 63.32 62.05 62.49 61.84C61.59 61.61 61.56 61.63 60.55 62.32C59.99 62.71 59.46 63.23 59.38 63.49C59.31 63.72 59.23 64.22 59.23 64.57C59.23 65.04 59.11 65.25 58.73 65.44C58.26 65.66 58.18 65.62 56.9 64.03L54.19 64.03L53.51 64.86C52.87 65.62 52.8 65.66 52.35 65.44C51.94 65.23 51.87 65.06 51.87 64.38C51.87 63.91 51.77 63.41 51.63 63.23C51.5 63.06 50.96 62.63 50.45 62.27C49.54 61.63 49.5 61.61 48.61 61.84C47.78 62.05 47.66 62.03 47.37 61.7C47.04 61.34 47.04 61.28 47.57 60.35C48.05 59.46 48.07 59.34 47.84 58.66C47.75 58.4 47.63 58.08 47.53 57.81C47.47 57.66 47.42 57.54 47.39 57.44C47.29 57.13 46.85 56.78 46.25 56.47C45.49 56.1 45.28 55.89 45.28 55.56C45.28 55.23 45.49 55.02 46.11 54.75C46.56 54.53 47.02 54.26 47.14 54.11C47.27 53.97 47.53 53.37 48.05 51.72L47.55 50.81C47.1 50.02 47.06 49.83 47.27 49.5C47.49 49.15 47.64 49.11 48.67 49.22C49.74 49.32 49.89 49.28 50.59 48.78C50.99 48.49 51.46 48.06 51.6 47.85C51.75 47.64 51.85 47.11 51.83 46.67C51.79 45.99 51.85 45.83 52.25 45.66ZM29.29 4.72C29.84 4.64 31.21 4.6 32.39 4.64C33.59 4.7 35.13 4.89 35.88 5.1C36.64 5.3 37.76 5.67 38.4 5.94C39.04 6.19 40.09 6.75 40.73 7.16C41.36 7.56 42.39 8.34 43.03 8.88C43.65 9.42 44.7 10.57 45.32 11.42C45.96 12.27 46.77 13.59 47.12 14.33C47.47 15.06 47.88 16.17 48.05 16.75C48.22 17.33 48.46 18.55 48.59 19.46C48.73 20.41 48.77 21.77 48.71 22.66C48.63 23.51 48.4 24.91 48.19 25.76C47.97 26.61 47.51 27.93 47.16 28.67C46.81 29.4 46.23 30.47 45.86 30.99C45.49 31.53 44.64 32.56 43.94 33.3C43.24 34.01 42 35.06 41.21 35.6C40.42 36.15 39.16 36.84 38.4 37.15C37.64 37.46 36.38 37.89 35.59 38.08C34.56 38.35 33.48 38.45 31.81 38.45C30.53 38.45 28.92 38.33 28.23 38.18C27.53 38.02 26.37 37.68 25.61 37.39C24.86 37.08 23.65 36.48 22.9 36.05C22.08 35.58 20.83 34.54 19.8 33.51C18.67 32.39 17.73 31.2 17.14 30.22C16.64 29.36 15.96 27.87 15.65 26.92C15.32 25.97 14.97 24.36 14.86 23.38C14.74 22.23 14.72 21.03 14.84 20C14.93 19.11 15.17 17.83 15.34 17.14C15.52 16.44 15.96 15.22 16.35 14.42C16.72 13.63 17.4 12.45 17.84 11.81C18.31 11.17 19.24 10.1 19.91 9.42C20.59 8.75 21.58 7.91 22.12 7.55C22.65 7.2 23.62 6.65 24.25 6.32C24.89 6.01 26.08 5.55 26.87 5.32C27.67 5.07 28.75 4.79 29.29 4.72ZM53.8 50.17C54.33 50 55.14 49.92 55.84 49.96C56.48 50 57.39 50.19 57.87 50.41C58.36 50.6 59.07 51.1 59.48 51.49C59.87 51.88 60.39 52.58 60.63 53.02C60.97 53.7 61.07 54.18 61.07 55.5C61.07 56.88 60.99 57.31 60.59 58.1C60.32 58.6 59.75 59.34 59.33 59.73C58.9 60.11 58.2 60.58 57.78 60.77C57.26 61.01 56.52 61.12 55.55 61.12C54.33 61.12 53.92 61.04 53.05 60.6C52.47 60.29 51.65 59.67 51.25 59.18C50.84 58.7 50.37 57.92 50.22 57.44C50.05 56.96 49.93 56.08 49.93 55.5C49.95 54.92 50.06 54.09 50.22 53.66C50.37 53.24 50.72 52.58 50.98 52.21C51.25 51.84 51.79 51.3 52.2 50.99C52.6 50.7 53.32 50.33 53.8 50.17ZM28.23 7.25C29.14 7.02 30.38 6.89 31.52 6.87C32.53 6.87 33.87 6.96 34.49 7.1C35.09 7.24 35.61 7.39 35.61 7.45C35.61 7.51 35.45 7.68 35.28 7.84C35.11 7.99 34.89 8.28 34.8 8.46C34.68 8.69 34.74 9.17 34.93 9.81C35.2 10.74 35.2 10.88 34.93 11.17C34.64 11.5 34.56 11.5 33.81 11.23C33.34 11.05 32.78 10.94 32.55 10.94C32.28 10.94 31.89 11.21 31.54 11.65C31.23 12.06 30.67 12.97 30.28 13.69C29.89 14.42 29.58 15.18 29.58 15.39C29.58 15.61 29.93 16.11 30.38 16.5C30.94 17.04 31.13 17.35 31.09 17.7C31.04 18.11 30.86 18.22 29.97 18.42C29.39 18.55 28.83 18.76 28.71 18.88C28.6 19 28.48 20.12 28.46 21.36C28.4 23.34 28.44 23.69 28.75 24.07C28.94 24.33 29.51 24.62 30.07 24.75C30.84 24.95 31.04 25.06 31.09 25.41C31.12 25.71 30.9 26.06 30.44 26.48C30.05 26.83 29.7 27.29 29.64 27.5C29.58 27.72 29.78 28.38 30.07 28.96C30.36 29.54 30.9 30.49 31.25 31.03C31.62 31.59 32.08 32.1 32.3 32.15C32.51 32.21 33.15 32.12 33.69 31.94C34.62 31.67 34.74 31.67 35.01 31.94C35.26 32.21 35.26 32.37 34.95 33.32C34.78 33.9 34.66 34.5 34.72 34.61C34.76 34.75 35.05 35.02 35.34 35.23C35.78 35.53 35.82 35.62 35.59 35.76C35.44 35.84 34.56 36.01 33.65 36.15C32.74 36.26 31.4 36.32 30.65 36.24C29.89 36.18 28.77 35.99 28.13 35.84C27.49 35.66 26.27 35.2 25.42 34.79C24.56 34.38 23.34 33.66 22.7 33.18C22.07 32.7 21.08 31.75 20.52 31.07C19.95 30.39 19.1 29.03 18.64 28.08C18.15 27.14 17.61 25.78 17.43 25.08C17.2 24.23 17.1 23.09 17.1 21.5C17.1 19.87 17.22 18.8 17.45 17.91C17.65 17.21 18.05 16.09 18.38 15.39C18.69 14.7 19.33 13.61 19.78 12.97C20.24 12.33 21.21 11.27 21.95 10.59C22.78 9.83 23.93 9.06 25.03 8.51C25.98 8.03 27.43 7.47 28.23 7.25ZM37.82 8.9C38.03 8.75 38.36 8.61 38.55 8.61C38.73 8.61 39.17 8.86 39.52 9.17C39.85 9.46 40.32 9.77 40.53 9.83C40.74 9.91 41.31 10.35 42.66 11.69L42.08 11.91C41.77 12.02 41.02 12.35 40.43 12.64C39.85 12.93 38.85 13.69 38.21 14.33C37.57 14.97 36.77 16.01 36.42 16.65C36.09 17.29 35.67 18.34 35.51 18.98C35.34 19.62 35.2 20.8 35.2 21.59C35.2 22.39 35.34 23.53 35.49 24.11C35.65 24.69 36 25.6 36.25 26.15C36.5 26.67 37.18 27.64 37.76 28.26C38.32 28.9 39.27 29.73 39.85 30.1C40.43 30.49 41.29 30.93 41.75 31.09C42.2 31.24 42.57 31.44 42.57 31.51C42.57 31.61 42.2 31.98 41.75 32.35C41.29 32.74 40.73 33.14 40.51 33.28C40.28 33.39 39.78 33.74 39.39 34.03C38.98 34.34 38.55 34.54 38.36 34.48C38.17 34.42 37.82 34.23 37.59 34.03C37.14 33.7 37.14 33.7 37.82 31.67L36.66 30.51C36.02 29.87 35.36 29.29 35.2 29.25C35.05 29.19 34.52 29.29 34.04 29.44C33.23 29.73 33.15 29.73 32.92 29.4C32.76 29.21 32.53 28.84 32.39 28.57C32.12 28.1 32.16 28.05 32.88 27.35C33.44 26.84 33.65 26.48 33.63 26.11C33.63 25.8 33.44 25 33.21 24.31C32.97 23.6 32.86 23.29 32.65 23.11C32.48 22.97 32.24 22.91 31.81 22.79C31.29 22.68 30.77 22.5 30.69 22.41C30.61 22.33 30.57 21.88 30.59 21.4L30.59 21.4C30.65 20.55 30.65 20.53 31.52 20.37C32.01 20.28 32.53 20.06 32.72 19.89C32.9 19.71 33.17 19.02 33.34 18.34C33.52 17.68 33.65 16.96 33.65 16.75C33.65 16.54 33.32 16.07 32.14 15.1L32.51 14.37C32.7 13.98 32.94 13.61 33.01 13.55C33.11 13.51 33.67 13.57 35.4 13.94L36.46 12.87C37.06 12.29 37.59 11.63 37.64 11.42C37.7 11.21 37.61 10.65 37.43 10.16C37.26 9.68 37.2 9.27 37.28 9.25C37.35 9.21 37.61 9.08 37.82 8.9ZM41.11 14.85C40.69 15.12 39.95 15.76 39.47 16.28C39 16.81 38.42 17.66 38.17 18.2C37.93 18.73 37.62 19.69 37.51 20.33C37.33 21.28 37.35 21.79 37.61 23.05C37.8 24.04 38.15 24.98 38.55 25.64C38.88 26.21 39.56 27.02 40.05 27.45C40.53 27.87 41.36 28.41 41.89 28.67C42.43 28.92 43.19 29.17 43.59 29.23L44.31 29.34C45.34 27.17 45.8 25.97 45.98 25.27C46.23 24.36 46.33 23.3 46.34 21.5C46.34 19.38 46.27 18.75 45.88 17.52C45.63 16.73 45.18 15.57 44.87 14.95C44.56 14.35 44.23 13.8 44.14 13.77C44.06 13.73 43.52 13.84 42.93 14.02C42.35 14.21 41.54 14.58 41.11 14.85ZM54.02 52.54C54.48 52.31 55.01 52.21 55.76 52.25C56.58 52.29 57 52.44 57.54 52.83C57.93 53.14 58.4 53.66 58.57 53.99C58.75 54.34 58.9 55.02 58.9 55.5C58.92 56.08 58.76 56.65 58.44 57.21C58.18 57.67 57.7 58.22 57.39 58.41C57.08 58.6 56.5 58.82 56.13 58.89C55.76 58.97 55.08 58.93 54.62 58.82C54.17 58.7 53.53 58.33 53.16 57.96C52.78 57.58 52.45 57 52.29 56.41C52.14 55.77 52.12 55.27 52.25 54.73C52.37 54.3 52.66 53.72 52.89 53.41C53.15 53.12 53.65 52.73 54.02 52.54Z" stroke="#000000" stroke-opacity="0" stroke-width="0.193768"/>
</svg>
