<svg width="64.000000" height="64.000000" viewBox="0 0 64 64" fill="none" xmlns="http://www.w3.org/2000/svg" xmlns:xlink="http://www.w3.org/1999/xlink">
	<desc>
			Created with Pixso.
	</desc>
	<defs/>
	<path id="Vector" d="M8.36 0C8.45 0 8.63 0.03 8.78 0.08C8.95 0.14 9.12 0.24 9.27 0.38C9.42 0.5 9.55 0.68 9.74 1.07L9.79 9.09L10.33 8.59C10.64 8.31 11.19 7.83 11.56 7.52C11.93 7.2 12.56 6.71 12.94 6.42C13.33 6.13 14.01 5.65 14.45 5.36C14.9 5.06 15.59 4.63 15.99 4.4C16.38 4.17 17.13 3.76 17.65 3.5C18.17 3.24 18.85 2.91 19.16 2.77C19.47 2.64 20.08 2.39 20.5 2.22C20.92 2.05 21.66 1.79 22.13 1.64C22.61 1.48 23.36 1.25 23.82 1.13C24.27 1.01 25.06 0.83 25.58 0.72C26.1 0.61 26.86 0.48 27.27 0.42C27.68 0.35 28.3 0.28 28.65 0.24C29 0.2 29.58 0.15 29.94 0.13C30.3 0.1 31.23 0.08 32 0.08C32.77 0.08 33.7 0.1 34.06 0.13C34.42 0.15 35.08 0.21 35.53 0.26C35.97 0.31 36.64 0.39 37.02 0.45C37.39 0.52 37.95 0.62 38.26 0.68C38.58 0.74 39.11 0.85 39.45 0.94C39.78 1.02 40.32 1.16 40.63 1.24C40.94 1.33 41.53 1.51 41.94 1.64C42.35 1.78 42.97 1.99 43.3 2.12C43.64 2.25 44.2 2.47 44.55 2.62C44.9 2.77 45.53 3.06 45.95 3.26C46.37 3.47 46.96 3.76 47.25 3.92C47.53 4.08 48.07 4.39 48.43 4.6C48.79 4.82 49.38 5.2 49.74 5.44C50.11 5.68 50.71 6.1 51.08 6.38C51.45 6.66 51.92 7.01 52.11 7.17C52.3 7.33 52.67 7.63 52.92 7.85C53.17 8.07 53.67 8.52 54.03 8.86C54.39 9.2 54.93 9.74 55.24 10.06C55.54 10.39 56.02 10.92 56.3 11.25C56.58 11.57 57.02 12.11 57.28 12.45C57.55 12.79 57.94 13.32 58.15 13.62C58.37 13.93 58.73 14.47 58.96 14.83C59.19 15.18 59.56 15.8 59.79 16.19C60.02 16.59 60.44 17.39 60.72 17.97C61.01 18.54 61.37 19.33 61.53 19.72C61.69 20.1 61.94 20.76 62.1 21.18C62.25 21.6 62.47 22.27 62.6 22.67C62.72 23.07 62.89 23.66 62.97 23.99C63.06 24.31 63.18 24.81 63.24 25.1C63.3 25.39 63.41 25.93 63.48 26.31C63.55 26.68 63.65 27.37 63.71 27.84C63.78 28.31 63.85 29.06 63.89 29.5C63.93 29.95 63.97 30.77 63.99 31.32C64 31.91 63.99 32.76 63.96 33.38C63.93 33.96 63.87 34.81 63.82 35.28C63.78 35.75 63.69 36.46 63.63 36.86C63.57 37.26 63.45 37.93 63.36 38.35C63.28 38.77 63.14 39.39 63.06 39.73C62.97 40.06 62.82 40.63 62.71 40.99C62.61 41.35 62.4 42 62.26 42.42C62.11 42.84 61.87 43.5 61.71 43.88C61.56 44.27 61.32 44.84 61.18 45.15C61.03 45.47 60.75 46.06 60.54 46.47C60.33 46.87 59.97 47.55 59.73 47.96C59.5 48.36 59.03 49.12 58.68 49.64C58.34 50.16 57.86 50.84 57.63 51.15C57.39 51.47 57 51.97 56.75 52.27C56.5 52.57 56.02 53.13 55.67 53.52C55.32 53.9 54.73 54.51 54.36 54.87C53.99 55.24 53.45 55.74 53.16 55.99C52.87 56.24 52.43 56.62 52.17 56.83C51.92 57.03 51.46 57.39 51.14 57.63C50.83 57.86 50.15 58.34 49.63 58.68C49.12 59.03 48.35 59.5 47.95 59.74C47.54 59.97 46.85 60.34 46.41 60.56C45.98 60.78 45.32 61.1 44.95 61.26C44.57 61.43 43.92 61.69 43.5 61.86C43.08 62.02 42.39 62.26 41.97 62.4C41.55 62.54 40.84 62.75 40.41 62.87C39.98 62.99 39.31 63.15 38.92 63.24C38.54 63.32 37.83 63.46 37.34 63.54C36.86 63.62 36.11 63.73 35.68 63.78C35.25 63.83 34.44 63.9 33.88 63.94C33.13 63.99 32.55 64.01 31.58 63.99C30.87 63.97 29.93 63.93 29.48 63.9C29.03 63.86 28.28 63.77 27.82 63.71C27.35 63.65 26.69 63.55 26.37 63.49C26.05 63.44 25.54 63.34 25.25 63.27C24.96 63.21 24.42 63.09 24.05 62.99C23.68 62.89 23.04 62.71 22.65 62.6C22.25 62.47 21.58 62.25 21.16 62.1C20.74 61.94 20.07 61.69 19.69 61.53C19.3 61.37 18.54 61.02 18 60.76C17.46 60.49 16.75 60.12 16.42 59.94C16.1 59.76 15.55 59.43 15.2 59.22C14.85 59 14.32 58.66 14.01 58.45C13.71 58.24 13.19 57.87 12.85 57.62C12.52 57.36 12.04 57 11.8 56.8C11.56 56.6 11.11 56.22 10.79 55.94C10.48 55.67 9.85 55.07 9.39 54.61C8.93 54.15 8.31 53.49 8 53.14C7.7 52.79 7.31 52.33 7.13 52.11C6.96 51.9 6.59 51.42 6.32 51.06C6.05 50.7 5.64 50.11 5.4 49.75C5.16 49.39 4.79 48.82 4.59 48.48C4.38 48.14 4.05 47.56 3.85 47.19C3.65 46.82 3.32 46.19 3.14 45.79C2.94 45.39 2.66 44.76 2.51 44.39C2.35 44.02 2.14 43.48 2.03 43.21C1.93 42.93 1.75 42.4 1.62 42.02C1.5 41.65 1.33 41.1 1.24 40.8C1.16 40.5 1.01 39.93 0.92 39.55C0.82 39.16 0.7 38.59 0.63 38.28C0.57 37.97 0.47 37.4 0.41 37.03C0.35 36.66 0.26 36 0.21 35.57C0.17 35.13 0.1 34.3 0.06 33.71C0.03 33.11 0 32.36 0 32.02C0 31.68 0.03 30.93 0.06 30.36C0.1 29.78 0.16 29.02 0.19 28.67C0.23 28.32 0.3 27.77 0.35 27.44C0.39 27.12 0.49 26.58 0.55 26.24C0.61 25.9 0.74 25.28 0.84 24.86C0.93 24.44 1.11 23.76 1.22 23.35C1.34 22.94 1.51 22.37 1.61 22.08C1.7 21.79 1.9 21.25 2.03 20.88C2.17 20.51 2.4 19.92 2.54 19.59C2.69 19.25 2.98 18.62 3.18 18.19C3.39 17.77 3.58 17.42 3.61 17.42C3.64 17.42 4.17 17.69 4.81 18.01C5.45 18.34 5.99 18.62 6.01 18.64C6.03 18.65 5.89 18.99 5.69 19.39C5.5 19.79 5.22 20.42 5.06 20.79C4.91 21.16 4.7 21.7 4.6 21.97C4.49 22.25 4.3 22.81 4.17 23.22C4.04 23.63 3.85 24.3 3.74 24.71C3.64 25.12 3.48 25.8 3.39 26.22C3.3 26.64 3.18 27.37 3.11 27.84C3.04 28.31 2.94 29.08 2.9 29.55C2.84 30.18 2.83 30.82 2.83 32C2.82 32.94 2.85 33.87 2.88 34.25C2.91 34.61 2.97 35.22 3.02 35.61C3.07 36 3.17 36.66 3.24 37.08C3.31 37.5 3.44 38.15 3.53 38.52C3.61 38.89 3.75 39.46 3.84 39.77C3.92 40.08 4.12 40.74 4.29 41.24C4.45 41.73 4.73 42.49 4.9 42.92C5.08 43.35 5.37 44.02 5.55 44.41C5.73 44.79 6.03 45.4 6.23 45.77C6.42 46.13 6.73 46.67 6.91 46.97C7.09 47.27 7.38 47.74 7.55 48C7.72 48.26 8.05 48.73 8.28 49.05C8.5 49.37 8.9 49.89 9.17 50.23C9.44 50.57 9.88 51.09 10.15 51.39C10.41 51.69 11 52.31 11.46 52.76C11.91 53.21 12.48 53.75 12.72 53.96C12.96 54.17 13.45 54.57 13.8 54.85C14.15 55.13 14.67 55.53 14.96 55.73C15.25 55.94 15.66 56.23 15.88 56.37C16.09 56.51 16.55 56.8 16.88 57C17.22 57.21 17.78 57.53 18.13 57.72C18.48 57.91 19.05 58.2 19.4 58.37C19.75 58.53 20.35 58.8 20.72 58.95C21.09 59.11 21.74 59.36 22.16 59.51C22.58 59.66 23.24 59.88 23.61 59.99C23.98 60.1 24.56 60.26 24.9 60.34C25.24 60.42 25.75 60.54 26.04 60.6C26.33 60.66 26.8 60.75 27.09 60.8C27.38 60.85 27.93 60.93 28.32 60.98C28.7 61.02 29.28 61.09 29.59 61.12C29.96 61.16 30.8 61.18 32.02 61.18C33.47 61.18 34.05 61.16 34.65 61.1C35.07 61.05 35.76 60.97 36.18 60.91C36.6 60.85 37.3 60.73 37.72 60.65C38.14 60.57 38.8 60.42 39.18 60.32C39.57 60.22 40.18 60.06 40.54 59.95C40.91 59.84 41.55 59.62 41.99 59.46C42.42 59.3 43.08 59.04 43.46 58.89C43.83 58.73 44.48 58.43 44.9 58.22C45.32 58.01 45.92 57.7 46.24 57.52C46.55 57.35 47.09 57.03 47.44 56.81C47.79 56.59 48.27 56.28 48.49 56.12C48.72 55.97 49.16 55.65 49.48 55.42C49.8 55.18 50.32 54.77 50.64 54.51C50.97 54.23 51.53 53.74 51.89 53.41C52.25 53.08 52.8 52.54 53.1 52.22C53.41 51.9 53.81 51.45 54.01 51.23C54.2 51.01 54.59 50.54 54.86 50.2C55.13 49.86 55.46 49.43 55.6 49.25C55.73 49.07 55.96 48.73 56.12 48.5C56.28 48.28 56.59 47.8 56.81 47.45C57.02 47.1 57.36 46.54 57.55 46.2C57.73 45.87 58.06 45.24 58.27 44.8C58.48 44.37 58.77 43.74 58.91 43.4C59.06 43.07 59.3 42.43 59.46 42C59.62 41.57 59.84 40.92 59.95 40.56C60.06 40.19 60.22 39.58 60.32 39.2C60.42 38.81 60.57 38.15 60.65 37.73C60.74 37.31 60.85 36.62 60.91 36.2C60.97 35.78 61.06 35.09 61.1 34.67C61.16 34.07 61.18 33.49 61.18 32.04C61.18 30.82 61.16 29.98 61.12 29.61C61.09 29.3 61.02 28.73 60.98 28.34C60.93 27.96 60.85 27.41 60.8 27.12C60.75 26.83 60.66 26.35 60.6 26.07C60.54 25.78 60.42 25.26 60.34 24.93C60.26 24.59 60.13 24.11 60.05 23.85C59.98 23.6 59.82 23.1 59.7 22.74C59.58 22.38 59.34 21.72 59.16 21.27C58.99 20.83 58.68 20.12 58.49 19.7C58.29 19.28 57.96 18.61 57.75 18.23C57.55 17.84 57.21 17.25 57 16.92C56.8 16.58 56.51 16.12 56.37 15.91C56.22 15.69 55.93 15.28 55.73 14.99C55.52 14.7 55.12 14.18 54.84 13.83C54.56 13.48 54.16 13 53.95 12.76C53.74 12.52 53.2 11.95 52.75 11.49C52.3 11.04 51.69 10.45 51.39 10.18C51.08 9.92 50.56 9.48 50.22 9.21C49.89 8.94 49.36 8.54 49.04 8.31C48.73 8.09 48.25 7.76 47.99 7.59C47.73 7.42 47.26 7.13 46.96 6.95C46.66 6.77 46.12 6.46 45.76 6.27C45.4 6.07 44.78 5.77 44.4 5.59C44.01 5.41 43.34 5.12 42.91 4.94C42.47 4.77 41.72 4.49 41.22 4.33C40.73 4.16 40.06 3.96 39.75 3.88C39.44 3.8 38.88 3.66 38.51 3.57C38.13 3.48 37.48 3.35 37.06 3.28C36.64 3.21 36.06 3.12 35.77 3.08C35.48 3.04 34.91 2.99 34.5 2.95C34.08 2.91 33.24 2.87 32.61 2.86C31.93 2.84 31.11 2.85 30.55 2.88C30.05 2.91 29.35 2.96 29 3C28.65 3.03 28.09 3.1 27.75 3.15C27.41 3.2 26.7 3.33 26.17 3.43C25.64 3.54 24.81 3.73 24.33 3.87C23.85 4 23.08 4.23 22.62 4.39C22.16 4.54 21.52 4.78 21.2 4.91C20.88 5.04 20.39 5.24 20.13 5.36C19.86 5.48 19.29 5.75 18.86 5.97C18.42 6.19 17.8 6.53 17.48 6.72C17.15 6.9 16.61 7.23 16.27 7.45C15.93 7.67 15.39 8.03 15.07 8.26C14.74 8.49 14.19 8.91 13.84 9.19C13.49 9.47 13.01 9.87 12.77 10.09C12.53 10.3 12.17 10.62 11.61 11.16L15.52 11.16C17.92 11.16 19.53 11.18 19.69 11.2C19.83 11.23 20.03 11.29 20.13 11.33C20.22 11.38 20.38 11.49 20.47 11.58C20.56 11.68 20.69 11.85 20.75 11.97C20.85 12.16 20.87 12.24 20.87 12.56C20.87 12.84 20.85 12.98 20.78 13.13C20.73 13.24 20.61 13.41 20.52 13.51C20.42 13.62 20.24 13.76 19.86 13.94L6.96 13.96L6.96 7.62C6.96 1.89 6.97 1.26 7.03 1.05C7.07 0.91 7.16 0.72 7.23 0.62C7.3 0.52 7.43 0.38 7.52 0.31C7.61 0.24 7.8 0.15 7.95 0.1C8.09 0.04 8.28 0 8.36 0ZM32.07 4.25C32.3 4.26 32.45 4.29 32.59 4.36C32.7 4.41 32.87 4.54 32.98 4.64C33.08 4.75 33.21 4.92 33.26 5.03C33.32 5.16 33.36 5.34 33.38 5.53C33.38 5.73 33.37 5.91 33.32 6.06C33.28 6.19 33.17 6.37 33.04 6.51C32.93 6.64 32.74 6.8 32.61 6.86C32.42 6.96 32.34 6.98 32 6.98C31.64 6.98 31.58 6.96 31.37 6.85C31.24 6.77 31.06 6.63 30.96 6.52C30.87 6.41 30.75 6.22 30.7 6.09C30.66 5.97 30.62 5.75 30.62 5.62C30.62 5.49 30.66 5.27 30.7 5.15C30.75 5.03 30.87 4.82 30.98 4.71C31.08 4.59 31.25 4.45 31.34 4.4C31.44 4.36 31.57 4.3 31.63 4.28C31.69 4.26 31.89 4.25 32.07 4.25ZM45.3 7.76C45.47 7.77 45.66 7.82 45.8 7.88C45.92 7.94 46.1 8.06 46.19 8.16C46.29 8.26 46.42 8.43 46.48 8.55C46.56 8.73 46.58 8.85 46.58 9.12C46.59 9.41 46.57 9.52 46.48 9.71C46.41 9.85 46.28 10.03 46.15 10.15C46.01 10.27 45.84 10.38 45.69 10.44C45.55 10.48 45.33 10.52 45.19 10.52C45 10.52 44.85 10.48 44.68 10.41C44.55 10.35 44.37 10.23 44.28 10.15C44.18 10.06 44.05 9.88 43.98 9.74C43.87 9.52 43.85 9.42 43.85 9.17C43.85 9 43.88 8.77 43.92 8.66C43.95 8.55 44.06 8.38 44.15 8.27C44.24 8.16 44.39 8.02 44.49 7.96C44.58 7.91 44.74 7.83 44.84 7.8C44.94 7.77 45.13 7.75 45.3 7.76ZM55.02 17.44C55.17 17.45 55.37 17.52 55.55 17.61C55.75 17.71 55.88 17.81 55.99 17.97C56.09 18.08 56.19 18.27 56.23 18.38C56.26 18.49 56.29 18.69 56.29 18.83C56.29 18.97 56.25 19.18 56.21 19.31C56.16 19.44 56.05 19.63 55.96 19.74C55.85 19.85 55.68 19.98 55.5 20.06C55.26 20.18 55.18 20.2 54.89 20.19C54.64 20.19 54.51 20.17 54.34 20.09C54.22 20.03 54.03 19.89 53.92 19.78C53.8 19.66 53.69 19.49 53.63 19.33C53.57 19.18 53.53 18.98 53.53 18.82C53.53 18.68 53.57 18.47 53.61 18.35C53.65 18.23 53.76 18.05 53.84 17.95C53.92 17.84 54.08 17.71 54.19 17.64C54.3 17.58 54.47 17.51 54.58 17.48C54.69 17.45 54.89 17.43 55.02 17.44ZM22.76 20.79C23.17 20.79 23.64 20.82 23.92 20.86C24.17 20.9 24.56 20.97 24.79 21.03C25.02 21.09 25.37 21.2 25.56 21.27C25.75 21.35 26.03 21.47 26.17 21.54C26.32 21.62 26.6 21.78 26.81 21.92C27.01 22.06 27.37 22.35 27.61 22.59C27.89 22.86 28.14 23.15 28.34 23.44C28.49 23.68 28.7 24.05 28.79 24.27C28.88 24.49 29.02 24.87 29.08 25.12C29.18 25.53 29.19 25.68 29.2 26.35C29.2 26.83 29.17 27.23 29.13 27.42C29.1 27.59 29.02 27.9 28.95 28.12C28.87 28.34 28.71 28.72 28.58 28.98C28.45 29.23 28.21 29.64 28.05 29.88C27.89 30.13 27.58 30.54 27.37 30.8C27.17 31.06 26.74 31.56 26.43 31.91C26.12 32.26 24.68 33.74 23.22 35.22C21.02 37.44 20.59 37.91 20.59 38.13L29.57 38.13L29.57 40.84L16.38 40.84L16.38 38.61L17.95 36.98C18.81 36.08 20.31 34.53 21.27 33.53C22.23 32.53 23.26 31.46 23.55 31.14C23.85 30.83 24.29 30.34 24.54 30.05C24.79 29.76 25.12 29.33 25.28 29.1C25.45 28.88 25.68 28.5 25.8 28.25C25.92 28.01 26.06 27.66 26.11 27.47C26.18 27.22 26.2 26.98 26.21 26.61C26.21 26.27 26.19 26.02 26.13 25.83C26.09 25.67 25.98 25.39 25.9 25.21C25.79 24.99 25.62 24.77 25.4 24.53C25.19 24.31 24.94 24.11 24.72 23.98C24.53 23.86 24.2 23.71 23.98 23.64C23.75 23.56 23.39 23.49 23.11 23.46C22.73 23.42 22.52 23.42 22.16 23.46C21.9 23.49 21.54 23.57 21.31 23.64C21.09 23.71 20.83 23.82 20.72 23.89C20.61 23.95 20.42 24.08 20.28 24.18C20.15 24.28 19.94 24.49 19.81 24.64C19.68 24.8 19.51 25.06 19.43 25.23C19.34 25.4 19.23 25.7 19.18 25.89C19.14 26.08 19.08 26.4 19.03 26.96L16.21 26.96L16.21 26.6C16.21 26.4 16.24 26.07 16.27 25.85C16.31 25.63 16.38 25.28 16.45 25.06C16.51 24.84 16.65 24.48 16.76 24.25C16.87 24.02 17.07 23.67 17.2 23.46C17.34 23.26 17.65 22.89 17.89 22.65C18.15 22.39 18.51 22.1 18.75 21.93C18.97 21.78 19.32 21.58 19.51 21.49C19.71 21.4 20.07 21.25 20.32 21.17C20.58 21.08 20.94 20.98 21.13 20.94C21.33 20.9 21.61 20.86 21.77 20.84C21.93 20.82 22.37 20.8 22.76 20.79ZM41.16 21.27L45.47 21.27L45.47 34.32L48.23 34.32L48.23 37.08L45.47 37.08L45.47 40.84L42.58 40.84L42.58 37.08L33.01 37.05L32.99 34.27L33.38 33.59C33.59 33.21 33.95 32.58 34.18 32.19C34.4 31.81 34.85 31.08 35.15 30.58C35.46 30.07 36.02 29.17 36.39 28.58C36.77 27.99 37.34 27.09 37.66 26.59C37.99 26.09 38.82 24.81 39.51 23.77C40.2 22.72 40.85 21.73 40.96 21.57L41.16 21.27ZM41.59 25.19C41.23 25.72 40.6 26.67 40.17 27.31C39.75 27.95 39.21 28.8 38.95 29.19C38.7 29.59 38.34 30.17 38.14 30.48C37.95 30.8 37.59 31.38 37.35 31.77C37.11 32.17 36.69 32.88 36.42 33.34C36.14 33.81 35.92 34.23 35.92 34.29L35.92 34.4L42.62 34.4C42.62 24.01 42.62 23.94 42.54 23.94C42.49 23.94 42.4 24 42.35 24.08C42.29 24.16 41.95 24.66 41.59 25.19ZM5.57 30.64C5.72 30.64 5.92 30.67 6.05 30.72C6.18 30.77 6.37 30.89 6.48 30.98C6.59 31.07 6.74 31.26 6.81 31.39C6.93 31.6 6.94 31.66 6.94 32.02C6.94 32.36 6.93 32.44 6.83 32.63C6.76 32.75 6.61 32.94 6.47 33.06C6.35 33.18 6.15 33.3 6.04 33.33C5.94 33.37 5.73 33.4 5.58 33.4C5.44 33.4 5.22 33.36 5.1 33.32C4.95 33.27 4.81 33.17 4.62 32.98C4.41 32.78 4.33 32.66 4.27 32.48C4.21 32.3 4.2 32.15 4.21 31.93C4.23 31.72 4.27 31.55 4.35 31.4C4.4 31.28 4.55 31.1 4.67 31C4.78 30.89 4.98 30.77 5.1 30.72C5.22 30.68 5.43 30.64 5.57 30.64ZM58.51 30.65C58.73 30.66 58.88 30.7 59.03 30.78C59.15 30.84 59.32 30.96 59.4 31.04C59.48 31.12 59.59 31.26 59.65 31.36C59.71 31.46 59.77 31.64 59.79 31.77C59.82 31.93 59.82 32.11 59.79 32.26C59.77 32.39 59.7 32.59 59.64 32.71C59.57 32.83 59.43 32.99 59.34 33.07C59.24 33.15 59.06 33.26 58.93 33.31C58.79 33.36 58.6 33.39 58.41 33.39C58.18 33.39 58.06 33.37 57.85 33.27C57.7 33.2 57.52 33.07 57.41 32.95C57.32 32.85 57.2 32.67 57.16 32.56C57.11 32.46 57.06 32.28 57.05 32.17C57.04 32.06 57.05 31.87 57.08 31.73C57.11 31.6 57.2 31.39 57.27 31.28C57.35 31.16 57.49 31 57.59 30.93C57.68 30.85 57.86 30.75 57.98 30.72C58.14 30.66 58.29 30.64 58.51 30.65ZM9.11 43.86C9.39 43.86 9.48 43.88 9.7 43.98C9.84 44.06 10.03 44.19 10.12 44.28C10.2 44.37 10.31 44.56 10.37 44.69C10.45 44.86 10.48 45.01 10.48 45.19C10.48 45.34 10.45 45.57 10.4 45.7C10.35 45.85 10.24 46.02 10.12 46.16C10 46.29 9.81 46.42 9.68 46.48C9.48 46.57 9.37 46.59 9.09 46.59C8.81 46.59 8.69 46.57 8.52 46.48C8.4 46.43 8.22 46.3 8.12 46.2C8.03 46.1 7.9 45.93 7.84 45.81C7.76 45.64 7.74 45.51 7.73 45.24C7.73 44.94 7.75 44.85 7.85 44.65C7.92 44.5 8.06 44.32 8.2 44.19C8.32 44.08 8.51 43.96 8.6 43.93C8.7 43.89 8.93 43.86 9.11 43.86ZM54.9 43.86C55.09 43.86 55.28 43.89 55.43 43.95C55.57 44 55.74 44.11 55.87 44.24C55.99 44.36 56.13 44.54 56.17 44.65C56.23 44.77 56.28 44.97 56.28 45.15C56.3 45.39 56.28 45.51 56.21 45.7C56.17 45.83 56.04 46.03 55.93 46.15C55.83 46.27 55.64 46.41 55.5 46.48C55.31 46.58 55.21 46.59 54.91 46.59C54.62 46.59 54.52 46.58 54.32 46.48C54.19 46.41 54.01 46.28 53.92 46.18C53.83 46.09 53.71 45.92 53.66 45.82C53.6 45.7 53.55 45.52 53.54 45.32C53.53 45.12 53.54 44.95 53.59 44.82C53.62 44.72 53.71 44.54 53.78 44.43C53.86 44.32 53.99 44.18 54.09 44.11C54.18 44.05 54.33 43.96 54.43 43.93C54.53 43.89 54.74 43.86 54.9 43.86ZM18.78 53.54C18.96 53.53 19.14 53.57 19.29 53.62C19.41 53.67 19.58 53.76 19.66 53.82C19.74 53.88 19.85 54.01 19.92 54.12C20 54.22 20.09 54.42 20.13 54.56C20.18 54.74 20.2 54.89 20.18 55.04C20.17 55.17 20.09 55.39 20.02 55.54C19.94 55.71 19.82 55.87 19.7 55.96C19.6 56.05 19.41 56.16 19.29 56.2C19.15 56.26 18.95 56.29 18.79 56.29C18.63 56.29 18.44 56.26 18.3 56.2C18.17 56.16 17.98 56.05 17.88 55.96C17.76 55.86 17.65 55.71 17.55 55.52C17.44 55.27 17.41 55.17 17.41 54.91C17.41 54.66 17.44 54.56 17.55 54.32C17.63 54.15 17.76 53.98 17.88 53.87C17.98 53.78 18.17 53.67 18.29 53.62C18.41 53.57 18.62 53.54 18.78 53.54ZM45.27 53.55C45.53 53.56 45.68 53.59 45.81 53.66C45.91 53.71 46.08 53.83 46.18 53.92C46.28 54.01 46.41 54.19 46.47 54.32C46.57 54.52 46.59 54.62 46.59 54.91C46.59 55.2 46.57 55.31 46.47 55.5C46.41 55.64 46.27 55.82 46.15 55.93C46.03 56.04 45.83 56.16 45.69 56.21C45.51 56.28 45.38 56.3 45.14 56.28C44.96 56.27 44.76 56.23 44.64 56.17C44.53 56.12 44.36 55.99 44.25 55.89C44.15 55.79 44.03 55.63 43.99 55.55C43.94 55.46 43.89 55.33 43.88 55.24C43.86 55.16 43.84 55 43.85 54.89C43.85 54.79 43.87 54.61 43.89 54.52C43.92 54.42 44 54.25 44.08 54.13C44.16 54.01 44.31 53.86 44.42 53.78C44.53 53.71 44.69 53.62 44.77 53.59C44.87 53.56 45.06 53.54 45.27 53.55ZM32.09 57.05C32.23 57.06 32.44 57.11 32.55 57.15C32.66 57.2 32.84 57.32 32.94 57.42C33.07 57.53 33.19 57.7 33.27 57.87C33.38 58.13 33.39 58.19 33.38 58.5C33.36 58.72 33.32 58.91 33.27 59.01C33.23 59.09 33.13 59.24 33.06 59.33C32.98 59.43 32.81 59.57 32.7 59.63C32.58 59.7 32.38 59.77 32.24 59.79C32.09 59.82 31.91 59.82 31.76 59.79C31.63 59.76 31.44 59.7 31.34 59.64C31.25 59.59 31.1 59.47 31.02 59.4C30.94 59.31 30.83 59.15 30.76 59.03C30.7 58.9 30.65 58.71 30.63 58.55C30.62 58.38 30.64 58.2 30.68 58.04C30.72 57.91 30.82 57.71 30.9 57.6C30.98 57.5 31.14 57.35 31.26 57.27C31.38 57.19 31.55 57.11 31.65 57.08C31.75 57.06 31.94 57.05 32.09 57.05Z" fill="#219BE0" fill-opacity="1.000000" fill-rule="evenodd"/>
	<path id="Vector" d="M8.78 0.08C8.95 0.14 9.12 0.24 9.27 0.38C9.42 0.5 9.55 0.68 9.74 1.07L9.79 9.09L10.33 8.59C10.64 8.31 11.19 7.83 11.56 7.52C11.93 7.2 12.56 6.71 12.94 6.42C13.33 6.13 14.01 5.65 14.45 5.36C14.9 5.06 15.59 4.63 15.99 4.4C16.38 4.17 17.13 3.76 17.65 3.5C18.17 3.24 18.85 2.91 19.16 2.77C19.47 2.64 20.08 2.39 20.5 2.22C20.92 2.05 21.66 1.79 22.13 1.64C22.61 1.48 23.36 1.25 23.82 1.13C24.27 1.01 25.06 0.83 25.58 0.72C26.1 0.61 26.86 0.48 27.27 0.42C27.68 0.35 28.3 0.28 28.65 0.24C29 0.2 29.58 0.15 29.94 0.13C30.3 0.1 31.23 0.08 32 0.08C32.77 0.08 33.7 0.1 34.06 0.13C34.42 0.15 35.08 0.21 35.53 0.26C35.97 0.31 36.64 0.39 37.02 0.45C37.39 0.52 37.95 0.62 38.26 0.68C38.58 0.74 39.11 0.85 39.45 0.94C39.78 1.02 40.32 1.16 40.63 1.24C40.94 1.33 41.53 1.51 41.94 1.64C42.35 1.78 42.97 1.99 43.3 2.12C43.64 2.25 44.2 2.47 44.55 2.62C44.9 2.77 45.53 3.06 45.95 3.26C46.37 3.47 46.96 3.76 47.25 3.92C47.53 4.08 48.07 4.39 48.43 4.6C48.79 4.82 49.38 5.2 49.74 5.44C50.11 5.68 50.71 6.1 51.08 6.38C51.45 6.66 51.92 7.01 52.11 7.17C52.3 7.33 52.67 7.63 52.92 7.85C53.17 8.07 53.67 8.52 54.03 8.86C54.39 9.2 54.93 9.74 55.24 10.06C55.54 10.39 56.02 10.92 56.3 11.25C56.58 11.57 57.02 12.11 57.28 12.45C57.55 12.79 57.94 13.32 58.15 13.62C58.37 13.93 58.73 14.47 58.96 14.83C59.19 15.18 59.56 15.8 59.79 16.19C60.02 16.59 60.44 17.39 60.72 17.97C61.01 18.54 61.37 19.33 61.53 19.72C61.69 20.1 61.94 20.76 62.1 21.18C62.25 21.6 62.47 22.27 62.6 22.67C62.72 23.07 62.89 23.66 62.97 23.99C63.06 24.31 63.18 24.81 63.24 25.1C63.3 25.39 63.41 25.93 63.48 26.31C63.55 26.68 63.65 27.37 63.71 27.84C63.78 28.31 63.85 29.06 63.89 29.5C63.93 29.95 63.97 30.77 63.99 31.32C64 31.91 63.99 32.76 63.96 33.38C63.93 33.96 63.87 34.81 63.82 35.28C63.78 35.75 63.69 36.46 63.63 36.86C63.57 37.26 63.45 37.93 63.36 38.35C63.28 38.77 63.14 39.39 63.06 39.73C62.97 40.06 62.82 40.63 62.71 40.99C62.61 41.35 62.4 42 62.26 42.42C62.11 42.84 61.87 43.5 61.71 43.88C61.56 44.27 61.32 44.84 61.18 45.15C61.03 45.47 60.75 46.06 60.54 46.47C60.33 46.87 59.97 47.55 59.73 47.96C59.5 48.36 59.03 49.12 58.68 49.64C58.34 50.16 57.86 50.84 57.63 51.15C57.39 51.47 57 51.97 56.75 52.27C56.5 52.57 56.02 53.13 55.67 53.52C55.32 53.9 54.73 54.51 54.36 54.87C53.99 55.24 53.45 55.74 53.16 55.99C52.87 56.24 52.43 56.62 52.17 56.83C51.92 57.03 51.46 57.39 51.14 57.63C50.83 57.86 50.15 58.34 49.63 58.68C49.12 59.03 48.35 59.5 47.95 59.74C47.54 59.97 46.85 60.34 46.41 60.56C45.98 60.78 45.32 61.1 44.95 61.26C44.57 61.43 43.92 61.69 43.5 61.86C43.08 62.02 42.39 62.26 41.97 62.4C41.55 62.54 40.84 62.75 40.41 62.87C39.98 62.99 39.31 63.15 38.92 63.24C38.54 63.32 37.83 63.46 37.34 63.54C36.86 63.62 36.11 63.73 35.68 63.78C35.25 63.83 34.44 63.9 33.88 63.94C33.13 63.99 32.55 64.01 31.58 63.99C30.87 63.97 29.93 63.93 29.48 63.9C29.03 63.86 28.28 63.77 27.82 63.71C27.35 63.65 26.69 63.55 26.37 63.49C26.05 63.44 25.54 63.34 25.25 63.27C24.96 63.21 24.42 63.09 24.05 62.99C23.68 62.89 23.04 62.71 22.65 62.6C22.25 62.47 21.58 62.25 21.16 62.1C20.74 61.94 20.07 61.69 19.69 61.53C19.3 61.37 18.54 61.02 18 60.76C17.46 60.49 16.75 60.12 16.42 59.94C16.1 59.76 15.55 59.43 15.2 59.22C14.85 59 14.32 58.66 14.01 58.45C13.71 58.24 13.19 57.87 12.85 57.62C12.52 57.36 12.04 57 11.8 56.8C11.56 56.6 11.11 56.22 10.79 55.94C10.48 55.67 9.85 55.07 9.39 54.61C8.93 54.15 8.31 53.49 8 53.14C7.7 52.79 7.31 52.33 7.13 52.11C6.96 51.9 6.59 51.42 6.32 51.06C6.05 50.7 5.64 50.11 5.4 49.75C5.16 49.39 4.79 48.82 4.59 48.48C4.38 48.14 4.05 47.56 3.85 47.19C3.65 46.82 3.32 46.19 3.14 45.79C2.94 45.39 2.66 44.76 2.51 44.39C2.35 44.02 2.14 43.48 2.03 43.21C1.93 42.93 1.75 42.4 1.62 42.02C1.5 41.65 1.33 41.1 1.24 40.8C1.16 40.5 1.01 39.93 0.92 39.55C0.82 39.16 0.7 38.59 0.63 38.28C0.57 37.97 0.47 37.4 0.41 37.03C0.35 36.66 0.26 36 0.21 35.57C0.17 35.13 0.1 34.3 0.06 33.71C0.03 33.11 0 32.36 0 32.02C0 31.68 0.03 30.93 0.06 30.36C0.1 29.78 0.16 29.02 0.19 28.67C0.23 28.32 0.3 27.77 0.35 27.44C0.39 27.12 0.49 26.58 0.55 26.24C0.61 25.9 0.74 25.28 0.84 24.86C0.93 24.44 1.11 23.76 1.22 23.35C1.34 22.94 1.51 22.37 1.61 22.08C1.7 21.79 1.9 21.25 2.03 20.88C2.17 20.51 2.4 19.92 2.54 19.59C2.69 19.25 2.98 18.62 3.18 18.19C3.39 17.77 3.58 17.42 3.61 17.42C3.64 17.42 4.17 17.69 4.81 18.01C5.45 18.34 5.99 18.62 6.01 18.64C6.03 18.65 5.89 18.99 5.69 19.39C5.5 19.79 5.22 20.42 5.06 20.79C4.91 21.16 4.7 21.7 4.6 21.97C4.49 22.25 4.3 22.81 4.17 23.22C4.04 23.63 3.85 24.3 3.74 24.71C3.64 25.12 3.48 25.8 3.39 26.22C3.3 26.64 3.18 27.37 3.11 27.84C3.04 28.31 2.94 29.08 2.9 29.55C2.84 30.18 2.83 30.82 2.83 32C2.82 32.94 2.85 33.87 2.88 34.25C2.91 34.61 2.97 35.22 3.02 35.61C3.07 36 3.17 36.66 3.24 37.08C3.31 37.5 3.44 38.15 3.53 38.52C3.61 38.89 3.75 39.46 3.84 39.77C3.92 40.08 4.12 40.74 4.29 41.24C4.45 41.73 4.73 42.49 4.9 42.92C5.08 43.35 5.37 44.02 5.55 44.41C5.73 44.79 6.03 45.4 6.23 45.77C6.42 46.13 6.73 46.67 6.91 46.97C7.09 47.27 7.38 47.74 7.55 48C7.72 48.26 8.05 48.73 8.28 49.05C8.5 49.37 8.9 49.89 9.17 50.23C9.44 50.57 9.88 51.09 10.15 51.39C10.41 51.69 11 52.31 11.46 52.76C11.91 53.21 12.48 53.75 12.72 53.96C12.96 54.17 13.45 54.57 13.8 54.85C14.15 55.13 14.67 55.53 14.96 55.73C15.25 55.94 15.66 56.23 15.88 56.37C16.09 56.51 16.55 56.8 16.88 57C17.22 57.21 17.78 57.53 18.13 57.72C18.48 57.91 19.05 58.2 19.4 58.37C19.75 58.53 20.35 58.8 20.72 58.95C21.09 59.11 21.74 59.36 22.16 59.51C22.58 59.66 23.24 59.88 23.61 59.99C23.98 60.1 24.56 60.26 24.9 60.34C25.24 60.42 25.75 60.54 26.04 60.6C26.33 60.66 26.8 60.75 27.09 60.8C27.38 60.85 27.93 60.93 28.32 60.98C28.7 61.02 29.28 61.09 29.59 61.12C29.96 61.16 30.8 61.18 32.02 61.18C33.47 61.18 34.05 61.16 34.65 61.1C35.07 61.05 35.76 60.97 36.18 60.91C36.6 60.85 37.3 60.73 37.72 60.65C38.14 60.57 38.8 60.42 39.18 60.32C39.57 60.22 40.18 60.06 40.54 59.95C40.91 59.84 41.55 59.62 41.99 59.46C42.42 59.3 43.08 59.04 43.46 58.89C43.83 58.73 44.48 58.43 44.9 58.22C45.32 58.01 45.92 57.7 46.24 57.52C46.55 57.35 47.09 57.03 47.44 56.81C47.79 56.59 48.27 56.28 48.49 56.12C48.72 55.97 49.16 55.65 49.48 55.42C49.8 55.18 50.32 54.77 50.64 54.51C50.97 54.23 51.53 53.74 51.89 53.41C52.25 53.08 52.8 52.54 53.1 52.22C53.41 51.9 53.81 51.45 54.01 51.23C54.2 51.01 54.59 50.54 54.86 50.2C55.13 49.86 55.46 49.43 55.6 49.25C55.73 49.07 55.96 48.73 56.12 48.5C56.28 48.28 56.59 47.8 56.81 47.45C57.02 47.1 57.36 46.54 57.55 46.2C57.73 45.87 58.06 45.24 58.27 44.8C58.48 44.37 58.77 43.74 58.91 43.4C59.06 43.07 59.3 42.43 59.46 42C59.62 41.57 59.84 40.92 59.95 40.56C60.06 40.19 60.22 39.58 60.32 39.2C60.42 38.81 60.57 38.15 60.65 37.73C60.74 37.31 60.85 36.62 60.91 36.2C60.97 35.78 61.06 35.09 61.1 34.67C61.16 34.07 61.18 33.49 61.18 32.04C61.18 30.82 61.16 29.98 61.12 29.61C61.09 29.3 61.02 28.73 60.98 28.34C60.93 27.96 60.85 27.41 60.8 27.12C60.75 26.83 60.66 26.35 60.6 26.07C60.54 25.78 60.42 25.26 60.34 24.93C60.26 24.59 60.13 24.11 60.05 23.85C59.98 23.6 59.82 23.1 59.7 22.74C59.58 22.38 59.34 21.72 59.16 21.27C58.99 20.83 58.68 20.12 58.49 19.7C58.29 19.28 57.96 18.61 57.75 18.23C57.55 17.84 57.21 17.25 57 16.92C56.8 16.58 56.51 16.12 56.37 15.91C56.22 15.69 55.93 15.28 55.73 14.99C55.52 14.7 55.12 14.18 54.84 13.83C54.56 13.48 54.16 13 53.95 12.76C53.74 12.52 53.2 11.95 52.75 11.49C52.3 11.04 51.69 10.45 51.39 10.18C51.08 9.92 50.56 9.48 50.22 9.21C49.89 8.94 49.36 8.54 49.04 8.31C48.73 8.09 48.25 7.76 47.99 7.59C47.73 7.42 47.26 7.13 46.96 6.95C46.66 6.77 46.12 6.46 45.76 6.27C45.4 6.07 44.78 5.77 44.4 5.59C44.01 5.41 43.34 5.12 42.91 4.94C42.47 4.77 41.72 4.49 41.22 4.33C40.73 4.16 40.06 3.96 39.75 3.88C39.44 3.8 38.88 3.66 38.51 3.57C38.13 3.48 37.48 3.35 37.06 3.28C36.64 3.21 36.06 3.12 35.77 3.08C35.48 3.04 34.91 2.99 34.5 2.95C34.08 2.91 33.24 2.87 32.61 2.86C31.93 2.84 31.11 2.85 30.55 2.88C30.05 2.91 29.35 2.96 29 3C28.65 3.03 28.09 3.1 27.75 3.15C27.41 3.2 26.7 3.33 26.17 3.43C25.64 3.54 24.81 3.73 24.33 3.87C23.85 4 23.08 4.23 22.62 4.39C22.16 4.54 21.52 4.78 21.2 4.91C20.88 5.04 20.39 5.24 20.13 5.36C19.86 5.48 19.29 5.75 18.86 5.97C18.42 6.19 17.8 6.53 17.48 6.72C17.15 6.9 16.61 7.23 16.27 7.45C15.93 7.67 15.39 8.03 15.07 8.26C14.74 8.49 14.19 8.91 13.84 9.19C13.49 9.47 13.01 9.87 12.77 10.09C12.53 10.3 12.17 10.62 11.61 11.16L15.52 11.16C17.92 11.16 19.53 11.18 19.69 11.2C19.83 11.23 20.03 11.29 20.13 11.33C20.22 11.38 20.38 11.49 20.47 11.58C20.56 11.68 20.69 11.85 20.75 11.97C20.85 12.16 20.87 12.24 20.87 12.56C20.87 12.84 20.85 12.98 20.78 13.13C20.73 13.24 20.61 13.41 20.52 13.51C20.42 13.62 20.24 13.76 19.86 13.94L6.96 13.96L6.96 7.62C6.96 1.89 6.97 1.26 7.03 1.05C7.07 0.91 7.16 0.72 7.23 0.62C7.3 0.52 7.43 0.38 7.52 0.31C7.61 0.24 7.8 0.15 7.95 0.1C8.09 0.04 8.28 0 8.36 0C8.45 0 8.63 0.03 8.78 0.08ZM32.59 4.36C32.7 4.41 32.87 4.54 32.98 4.64C33.08 4.75 33.21 4.92 33.26 5.03C33.32 5.16 33.36 5.34 33.38 5.53C33.38 5.73 33.37 5.91 33.32 6.06C33.28 6.19 33.17 6.37 33.04 6.51C32.93 6.64 32.74 6.8 32.61 6.86C32.42 6.96 32.34 6.98 32 6.98C31.64 6.98 31.58 6.96 31.37 6.85C31.24 6.77 31.06 6.63 30.96 6.52C30.87 6.41 30.75 6.22 30.7 6.09C30.66 5.97 30.62 5.75 30.62 5.62C30.62 5.49 30.66 5.27 30.7 5.15C30.75 5.03 30.87 4.82 30.98 4.71C31.08 4.59 31.25 4.45 31.34 4.4C31.44 4.36 31.57 4.3 31.63 4.28C31.69 4.26 31.89 4.25 32.07 4.25C32.3 4.26 32.45 4.29 32.59 4.36ZM45.8 7.88C45.92 7.94 46.1 8.06 46.19 8.16C46.29 8.26 46.42 8.43 46.48 8.55C46.56 8.73 46.58 8.85 46.58 9.12C46.59 9.41 46.57 9.52 46.48 9.71C46.41 9.85 46.28 10.03 46.15 10.15C46.01 10.27 45.84 10.38 45.69 10.44C45.55 10.48 45.33 10.52 45.19 10.52C45 10.52 44.85 10.48 44.68 10.41C44.55 10.35 44.37 10.23 44.28 10.15C44.18 10.06 44.05 9.88 43.98 9.74C43.87 9.52 43.85 9.42 43.85 9.17C43.85 9 43.88 8.77 43.92 8.66C43.95 8.55 44.06 8.38 44.15 8.27C44.24 8.16 44.39 8.02 44.49 7.96C44.58 7.91 44.74 7.83 44.84 7.8C44.94 7.77 45.13 7.75 45.3 7.76C45.47 7.77 45.66 7.82 45.8 7.88ZM55.55 17.61C55.75 17.71 55.88 17.81 55.99 17.97C56.09 18.08 56.19 18.27 56.23 18.38C56.26 18.49 56.29 18.69 56.29 18.83C56.29 18.97 56.25 19.18 56.21 19.31C56.16 19.44 56.05 19.63 55.96 19.74C55.85 19.85 55.68 19.98 55.5 20.06C55.26 20.18 55.18 20.2 54.89 20.19C54.64 20.19 54.51 20.17 54.34 20.09C54.22 20.03 54.03 19.89 53.92 19.78C53.8 19.66 53.69 19.49 53.63 19.33C53.57 19.18 53.53 18.98 53.53 18.82C53.53 18.68 53.57 18.47 53.61 18.35C53.65 18.23 53.76 18.05 53.84 17.95C53.92 17.84 54.08 17.71 54.19 17.64C54.3 17.58 54.47 17.51 54.58 17.48C54.69 17.45 54.89 17.43 55.02 17.44C55.17 17.45 55.37 17.52 55.55 17.61ZM23.92 20.86C24.17 20.9 24.56 20.97 24.79 21.03C25.02 21.09 25.37 21.2 25.56 21.27C25.75 21.35 26.03 21.47 26.17 21.54C26.32 21.62 26.6 21.78 26.81 21.92C27.01 22.06 27.37 22.35 27.61 22.59C27.89 22.86 28.14 23.15 28.34 23.44C28.49 23.68 28.7 24.05 28.79 24.27C28.88 24.49 29.02 24.87 29.08 25.12C29.18 25.53 29.19 25.68 29.2 26.35C29.2 26.83 29.17 27.23 29.13 27.42C29.1 27.59 29.02 27.9 28.95 28.12C28.87 28.34 28.71 28.72 28.58 28.98C28.45 29.23 28.21 29.64 28.05 29.88C27.89 30.13 27.58 30.54 27.37 30.8C27.17 31.06 26.74 31.56 26.43 31.91C26.12 32.26 24.68 33.74 23.22 35.22C21.02 37.44 20.59 37.91 20.59 38.13L29.57 38.13L29.57 40.84L16.38 40.84L16.38 38.61L17.95 36.98C18.81 36.08 20.31 34.53 21.27 33.53C22.23 32.53 23.26 31.46 23.55 31.14C23.85 30.83 24.29 30.34 24.54 30.05C24.79 29.76 25.12 29.33 25.28 29.1C25.45 28.88 25.68 28.5 25.8 28.25C25.92 28.01 26.06 27.66 26.11 27.47C26.18 27.22 26.2 26.98 26.21 26.61C26.21 26.27 26.19 26.02 26.13 25.83C26.09 25.67 25.98 25.39 25.9 25.21C25.79 24.99 25.62 24.77 25.4 24.53C25.19 24.31 24.94 24.11 24.72 23.98C24.53 23.86 24.2 23.71 23.98 23.64C23.75 23.56 23.39 23.49 23.11 23.46C22.73 23.42 22.52 23.42 22.16 23.46C21.9 23.49 21.54 23.57 21.31 23.64C21.09 23.71 20.83 23.82 20.72 23.89C20.61 23.95 20.42 24.08 20.28 24.18C20.15 24.28 19.94 24.49 19.81 24.64C19.68 24.8 19.51 25.06 19.43 25.23C19.34 25.4 19.23 25.7 19.18 25.89C19.14 26.08 19.08 26.4 19.03 26.96L16.21 26.96L16.21 26.6C16.21 26.4 16.24 26.07 16.27 25.85C16.31 25.63 16.38 25.28 16.45 25.06C16.51 24.84 16.65 24.48 16.76 24.25C16.87 24.02 17.07 23.67 17.2 23.46C17.34 23.26 17.65 22.89 17.89 22.65C18.15 22.39 18.51 22.1 18.75 21.93C18.97 21.78 19.32 21.58 19.51 21.49C19.71 21.4 20.07 21.25 20.32 21.17C20.58 21.08 20.94 20.98 21.13 20.94C21.33 20.9 21.61 20.86 21.77 20.84C21.93 20.82 22.37 20.8 22.76 20.79C23.17 20.79 23.64 20.82 23.92 20.86ZM45.47 21.27L45.47 34.32L48.23 34.32L48.23 37.08L45.47 37.08L45.47 40.84L42.58 40.84L42.58 37.08L33.01 37.05L32.99 34.27L33.38 33.59C33.59 33.21 33.95 32.58 34.18 32.19C34.4 31.81 34.85 31.08 35.15 30.58C35.46 30.07 36.02 29.17 36.39 28.58C36.77 27.99 37.34 27.09 37.66 26.59C37.99 26.09 38.82 24.81 39.51 23.77C40.2 22.72 40.85 21.73 40.96 21.57L41.16 21.27L45.47 21.27ZM40.17 27.31C39.75 27.95 39.21 28.8 38.95 29.19C38.7 29.59 38.34 30.17 38.14 30.48C37.95 30.8 37.59 31.38 37.35 31.77C37.11 32.17 36.69 32.88 36.42 33.34C36.14 33.81 35.92 34.23 35.92 34.29L35.92 34.4L42.62 34.4C42.62 24.01 42.62 23.94 42.54 23.94C42.49 23.94 42.4 24 42.35 24.08C42.29 24.16 41.95 24.66 41.59 25.19C41.23 25.72 40.6 26.67 40.17 27.31ZM6.05 30.72C6.18 30.77 6.37 30.89 6.48 30.98C6.59 31.07 6.74 31.26 6.81 31.39C6.93 31.6 6.94 31.66 6.94 32.02C6.94 32.36 6.93 32.44 6.83 32.63C6.76 32.75 6.61 32.94 6.47 33.06C6.35 33.18 6.15 33.3 6.04 33.33C5.94 33.37 5.73 33.4 5.58 33.4C5.44 33.4 5.22 33.36 5.1 33.32C4.95 33.27 4.81 33.17 4.62 32.98C4.41 32.78 4.33 32.66 4.27 32.48C4.21 32.3 4.2 32.15 4.21 31.93C4.23 31.72 4.27 31.55 4.35 31.4C4.4 31.28 4.55 31.1 4.67 31C4.78 30.89 4.98 30.77 5.1 30.72C5.22 30.68 5.43 30.64 5.57 30.64C5.72 30.64 5.92 30.67 6.05 30.72ZM59.03 30.78C59.15 30.84 59.32 30.96 59.4 31.04C59.48 31.12 59.59 31.26 59.65 31.36C59.71 31.46 59.77 31.64 59.79 31.77C59.82 31.93 59.82 32.11 59.79 32.26C59.77 32.39 59.7 32.59 59.64 32.71C59.57 32.83 59.43 32.99 59.34 33.07C59.24 33.15 59.06 33.26 58.93 33.31C58.79 33.36 58.6 33.39 58.41 33.39C58.18 33.39 58.06 33.37 57.85 33.27C57.7 33.2 57.52 33.07 57.41 32.95C57.32 32.85 57.2 32.67 57.16 32.56C57.11 32.46 57.06 32.28 57.05 32.17C57.04 32.06 57.05 31.87 57.08 31.73C57.11 31.6 57.2 31.39 57.27 31.28C57.35 31.16 57.49 31 57.59 30.93C57.68 30.85 57.86 30.75 57.98 30.72C58.14 30.66 58.29 30.64 58.51 30.65C58.73 30.66 58.88 30.7 59.03 30.78ZM9.7 43.98C9.84 44.06 10.03 44.19 10.12 44.28C10.2 44.37 10.31 44.56 10.37 44.69C10.45 44.86 10.48 45.01 10.48 45.19C10.48 45.34 10.45 45.57 10.4 45.7C10.35 45.85 10.24 46.02 10.12 46.16C10 46.29 9.81 46.42 9.68 46.48C9.48 46.57 9.37 46.59 9.09 46.59C8.81 46.59 8.69 46.57 8.52 46.48C8.4 46.43 8.22 46.3 8.12 46.2C8.03 46.1 7.9 45.93 7.84 45.81C7.76 45.64 7.74 45.51 7.73 45.24C7.73 44.94 7.75 44.85 7.85 44.65C7.92 44.5 8.06 44.32 8.2 44.19C8.32 44.08 8.51 43.96 8.6 43.93C8.7 43.89 8.93 43.86 9.11 43.86C9.39 43.86 9.48 43.88 9.7 43.98ZM55.43 43.95C55.57 44 55.74 44.11 55.87 44.24C55.99 44.36 56.13 44.54 56.17 44.65C56.23 44.77 56.28 44.97 56.28 45.15C56.3 45.39 56.28 45.51 56.21 45.7C56.17 45.83 56.04 46.03 55.93 46.15C55.83 46.27 55.64 46.41 55.5 46.48C55.31 46.58 55.21 46.59 54.91 46.59C54.62 46.59 54.52 46.58 54.32 46.48C54.19 46.41 54.01 46.28 53.92 46.18C53.83 46.09 53.71 45.92 53.66 45.82C53.6 45.7 53.55 45.52 53.54 45.32C53.53 45.12 53.54 44.95 53.59 44.82C53.62 44.72 53.71 44.54 53.78 44.43C53.86 44.32 53.99 44.18 54.09 44.11C54.18 44.05 54.33 43.96 54.43 43.93C54.53 43.89 54.74 43.86 54.9 43.86C55.09 43.86 55.28 43.89 55.43 43.95ZM19.29 53.62C19.41 53.67 19.58 53.76 19.66 53.82C19.74 53.88 19.85 54.01 19.92 54.12C20 54.22 20.09 54.42 20.13 54.56C20.18 54.74 20.2 54.89 20.18 55.04C20.17 55.17 20.09 55.39 20.02 55.54C19.94 55.71 19.82 55.87 19.7 55.96C19.6 56.05 19.41 56.16 19.29 56.2C19.15 56.26 18.95 56.29 18.79 56.29C18.63 56.29 18.44 56.26 18.3 56.2C18.17 56.16 17.98 56.05 17.88 55.96C17.76 55.86 17.65 55.71 17.55 55.52C17.44 55.27 17.41 55.17 17.41 54.91C17.41 54.66 17.44 54.56 17.55 54.32C17.63 54.15 17.76 53.98 17.88 53.87C17.98 53.78 18.17 53.67 18.29 53.62C18.41 53.57 18.62 53.54 18.78 53.54C18.96 53.53 19.14 53.57 19.29 53.62ZM45.81 53.66C45.91 53.71 46.08 53.83 46.18 53.92C46.28 54.01 46.41 54.19 46.47 54.32C46.57 54.52 46.59 54.62 46.59 54.91C46.59 55.2 46.57 55.31 46.47 55.5C46.41 55.64 46.27 55.82 46.15 55.93C46.03 56.04 45.83 56.16 45.69 56.21C45.51 56.28 45.38 56.3 45.14 56.28C44.96 56.27 44.76 56.23 44.64 56.17C44.53 56.12 44.36 55.99 44.25 55.89C44.15 55.79 44.03 55.63 43.99 55.55C43.94 55.46 43.89 55.33 43.88 55.24C43.86 55.16 43.84 55 43.85 54.89C43.85 54.79 43.87 54.61 43.89 54.52C43.92 54.42 44 54.25 44.08 54.13C44.16 54.01 44.31 53.86 44.42 53.78C44.53 53.71 44.69 53.62 44.77 53.59C44.87 53.56 45.06 53.54 45.27 53.55C45.53 53.56 45.68 53.59 45.81 53.66ZM32.55 57.15C32.66 57.2 32.84 57.32 32.94 57.42C33.07 57.53 33.19 57.7 33.27 57.87C33.38 58.13 33.39 58.19 33.38 58.5C33.36 58.72 33.32 58.91 33.27 59.01C33.23 59.09 33.13 59.24 33.06 59.33C32.98 59.43 32.81 59.57 32.7 59.63C32.58 59.7 32.38 59.77 32.24 59.79C32.09 59.82 31.91 59.82 31.76 59.79C31.63 59.76 31.44 59.7 31.34 59.64C31.25 59.59 31.1 59.47 31.02 59.4C30.94 59.31 30.83 59.15 30.76 59.03C30.7 58.9 30.65 58.71 30.63 58.55C30.62 58.38 30.64 58.2 30.68 58.04C30.72 57.91 30.82 57.71 30.9 57.6C30.98 57.5 31.14 57.35 31.26 57.27C31.38 57.19 31.55 57.11 31.65 57.08C31.75 57.06 31.94 57.05 32.09 57.05C32.23 57.06 32.44 57.11 32.55 57.15Z" stroke="#000000" stroke-opacity="0" stroke-width="0.043780"/>
</svg>
