<svg width="69.102295" height="59.000000" viewBox="0 0 69.1023 59" fill="none" xmlns="http://www.w3.org/2000/svg" xmlns:xlink="http://www.w3.org/1999/xlink">
	<desc>
			Created with Pixso.
	</desc>
	<defs/>
	<mask id="mask_1_269" fill="white">
		<path id="Subtract" d="M12.98 0.181641C13.3501 0.11084 13.7595 0.0400391 13.8855 0.0166016C14.0115 0.000488281 14.6885 -0.00732422 15.3813 0.00878906C16.4602 0.0244141 16.8538 0.0717773 18.0979 0.31543C18.9009 0.473145 20.3496 0.780273 21.3259 0.984863C22.3022 1.19727 23.4675 1.43359 23.9241 1.51221C24.436 1.60693 25.1052 1.66211 25.6958 1.6543C26.2153 1.6543 26.853 1.60693 27.113 1.55176C27.3728 1.49658 27.9634 1.34717 28.4358 1.22119C28.9001 1.09521 29.6089 0.9375 30.0105 0.866699C30.5693 0.764648 31.0498 0.748535 32.1125 0.780273C33.2544 0.811523 33.6086 0.858887 34.1992 1.0166C34.5928 1.12646 35.459 1.39453 36.1282 1.60693C36.7974 1.82715 37.6321 2.07129 37.9785 2.1582C38.325 2.24463 38.9468 2.33936 39.3562 2.36279C39.7656 2.39404 40.3877 2.43359 40.7341 2.44922C41.0806 2.47314 43.0491 2.56738 48.844 2.81934L50.3398 2.33105C51.1665 2.07129 52.1194 1.78027 52.4658 1.70117C52.8831 1.59912 53.3711 1.54395 53.9224 1.54395C54.3789 1.54395 54.8909 1.5835 55.064 1.63037C55.2451 1.68555 55.5364 1.87451 55.7568 2.0874C55.9695 2.28418 56.2134 2.60693 56.3081 2.80371C56.4419 3.0791 56.4812 3.2998 56.4734 3.78809C56.4734 4.18164 56.426 4.52002 56.3474 4.69336C56.2844 4.84277 56.0874 5.12646 55.9143 5.32324C55.7412 5.52002 55.3396 5.87451 55.0166 6.11865C54.6938 6.3623 54.2373 6.66943 54.001 6.80322C53.7649 6.9292 53.0405 7.23633 52.387 7.48047C51.7415 7.7168 50.6785 8.09473 50.0249 8.31494C49.3794 8.54346 48.5291 8.84277 48.1353 8.98438C47.7417 9.12598 47.3401 9.28369 47.2297 9.33887C47.1196 9.38574 46.9543 9.55127 46.8599 9.69287C46.7339 9.88184 46.6787 10.0947 46.6787 10.3389C46.6787 10.6064 46.7258 10.8032 46.8599 10.9922C47.0015 11.2207 47.1982 11.3384 47.8992 11.6377C48.3794 11.8423 48.9934 12.1025 49.2769 12.2285C49.5762 12.3545 49.9067 12.5825 50.0879 12.7637C50.2532 12.937 50.458 13.2754 50.5447 13.5117C50.6707 13.8423 50.7021 14.063 50.6707 14.417C50.647 14.6768 50.6077 14.9526 50.584 15.0234C50.5447 15.1338 50.5762 15.165 50.7178 15.165C50.8201 15.165 50.9619 15.0708 51.0879 14.9131C51.1902 14.7715 52.072 13.4644 53.0405 12.0156C54.0168 10.5669 55.0325 9.0791 55.3081 8.70898C55.5835 8.33887 55.9221 7.96094 56.064 7.86621C56.2056 7.76416 56.4812 7.63037 56.678 7.55908C56.9458 7.46484 57.3472 7.43311 58.3315 7.43311C59.5439 7.42529 59.6621 7.44141 60.0637 7.62207C60.2998 7.72461 60.6699 7.96875 60.8745 8.15771C61.0872 8.35449 61.418 8.7876 61.6069 9.11816C61.7959 9.45703 62.0164 9.74805 62.095 9.77197C62.1658 9.79541 62.5122 9.72461 62.8586 9.60645C63.3862 9.43311 63.5911 9.40186 64.1184 9.43311C64.5515 9.45703 64.8586 9.52002 65.1028 9.6377C65.2996 9.72461 65.6145 9.93701 65.8035 10.1025C66.071 10.3389 66.2522 10.6143 66.6223 11.3857C66.8821 11.9292 67.3545 13.0078 67.6694 13.7871C67.9558 14.4785 68.2419 15.1572 68.3472 15.4067L68.3782 15.48C68.449 15.6299 68.6301 16.0708 68.7795 16.4644C68.9292 16.8579 69.071 17.3853 69.0945 17.6455C69.1182 17.9443 69.0867 18.3145 69.0081 18.6689C68.9292 18.9761 68.7795 19.3774 68.6694 19.5742C68.5513 19.771 68.2993 20.1021 68.1025 20.3145C67.9058 20.5269 67.6143 20.7788 67.4648 20.8735C67.3152 20.9678 66.9766 21.1255 66.7168 21.2197C66.4255 21.3301 66.0632 21.4009 65.772 21.4009C65.4963 21.4009 65.1658 21.3457 64.9846 21.2671C64.8113 21.1963 64.5278 21.0229 64.3625 20.8892C64.1973 20.7476 63.9768 20.4956 63.8745 20.3223C63.772 20.1489 63.6619 19.8027 63.5674 19.1021L63.2917 19.1489C63.1421 19.1807 62.6382 19.2988 61.3235 19.6138L61.5359 19.9287C61.6541 20.1021 61.8115 20.4087 61.8904 20.6138C61.969 20.8262 62.032 21.1177 62.032 21.2671C62.032 21.4165 61.9768 21.708 61.906 21.9126C61.8352 22.1255 61.7014 22.3931 61.6069 22.5269C61.5203 22.6528 61.2998 22.8574 61.1265 22.9756C60.9534 23.1016 60.355 23.3853 59.7881 23.6055C59.2212 23.8262 58.2527 24.2354 57.6228 24.519C56.9929 24.8101 55.8984 25.3535 55.1821 25.7393C54.4656 26.125 53.2847 26.8179 52.5444 27.2744C51.7415 27.7783 51.009 28.2983 50.71 28.5815C50.4343 28.8491 50.0486 29.314 49.8438 29.6211C49.6392 29.936 49.2769 30.5029 49.0408 30.8809C48.781 31.3057 48.3242 31.8647 47.8992 32.2979C47.5054 32.6914 46.9229 33.1797 46.5999 33.3921C46.2771 33.5972 45.7654 33.9355 45.4661 34.1323C45.167 34.3291 44.6946 34.7388 44.4189 35.0459C44.1355 35.3447 43.7891 35.8096 43.6475 36.0693C43.4978 36.3291 43.1436 37.2344 42.8601 38.0771C42.5767 38.9194 42.301 39.6831 42.238 39.77C42.1829 39.8564 41.9624 40.0454 41.7498 40.187C41.5293 40.3291 41.2144 40.4629 41.0098 40.4863C40.813 40.5181 40.4822 40.4941 40.2617 40.4468C40.0334 40.3999 39.7422 40.2578 39.561 40.1006C39.3958 39.9668 39.1123 39.6045 38.939 39.2974C38.7659 38.9902 38.561 38.6831 38.498 38.5967C38.4272 38.5181 38.2383 38.3843 38.0808 38.3052C37.9075 38.2188 37.6162 38.1558 37.4116 38.1558C37.199 38.1558 36.3408 38.2109 35.4983 38.2739C34.6558 38.3447 33.5928 38.4551 33.1362 38.5181C32.522 38.6045 32.1677 38.6992 31.7583 38.896C31.4119 39.0693 31.0339 39.3369 30.7427 39.6279C30.3962 39.9746 30.1914 40.2739 29.908 40.8721C29.7034 41.3052 29.4041 41.998 29.2546 42.4077C29.0972 42.8169 28.9397 43.2974 28.9001 43.4702C28.853 43.6909 28.8608 43.9111 28.9397 44.2183C29.0183 44.5332 29.1365 44.7461 29.3806 44.9902C29.5615 45.1792 29.8057 45.3838 29.9316 45.4468C30.0498 45.5098 30.3569 45.5571 30.6167 45.5571C31.0417 45.5571 31.1758 45.5098 31.9395 45.1079C32.4041 44.8643 33.0654 44.5176 33.4038 44.3442C33.8999 44.0845 34.1047 44.0215 34.3882 44.0371C34.585 44.0454 34.8606 44.0923 34.9866 44.1396C35.1125 44.187 35.3408 44.3208 35.4905 44.439C35.6399 44.5571 35.8289 44.793 35.9077 44.9663C35.9863 45.1553 36.0493 45.4702 36.0493 45.7539C36.0493 46.1157 35.9863 46.376 35.7817 46.856C35.6399 47.2026 35.4275 47.7065 35.3093 47.9741C35.199 48.2495 35.1204 48.5332 35.144 48.604C35.1675 48.6982 35.3408 48.793 35.6951 48.8794C35.9785 48.9585 36.3723 49.1079 36.5847 49.2104C36.7896 49.3125 37.0808 49.5488 37.2461 49.7378C37.4036 49.9268 37.6084 50.2573 37.7029 50.478C37.8052 50.6904 37.8997 51.0449 37.9155 51.2651C37.939 51.4858 37.8997 51.9424 37.8289 52.2886C37.7107 52.895 37.7107 52.9268 37.8525 53.0762C37.939 53.1626 38.4036 53.5093 39.7893 54.4541L40.8916 54.6353C41.6003 54.7534 42.0728 54.8711 42.2144 54.9736C42.3403 55.0522 42.5137 55.2808 42.6001 55.4775C42.7498 55.7925 42.7498 55.8711 42.6631 56.147C42.6082 56.3359 42.4192 56.5957 42.1987 56.8081C42.0017 56.9971 41.553 57.3906 41.2065 57.6821C40.8601 57.9658 40.364 58.3516 40.1042 58.5322C39.7971 58.7529 39.4822 58.8945 39.1987 58.9497C38.9626 58.9971 38.624 59.0127 38.4509 58.9893C38.2776 58.9653 37.9233 58.8394 37.6636 58.7134C37.3801 58.5718 36.7581 58.1074 36.1282 57.5562C35.5454 57.0522 34.5376 56.186 33.8843 55.6353L33.7415 55.5146C33.0676 54.9478 31.9343 53.9941 31.1284 53.3203C30.2625 52.5957 29.3806 51.9189 29.1602 51.8164C28.8452 51.6587 28.6482 51.6196 28.1602 51.6196C27.8215 51.6196 27.2705 51.5801 26.9397 51.5327C26.5381 51.4858 26.1208 51.3599 25.7351 51.1787C25.4124 51.021 24.814 50.667 24.4124 50.3911C24.0186 50.1157 23.2156 49.5723 22.6487 49.1787C22.074 48.793 21.3181 48.2495 20.9717 47.9741C20.6252 47.7065 20.2236 47.3047 20.082 47.0923C19.9402 46.8716 19.7512 46.5098 19.6724 46.2812C19.5859 46.061 19.4441 45.4702 19.3577 44.9819C19.2551 44.4312 19.1292 43.9824 19.0112 43.7852C18.9087 43.6123 18.6567 43.1714 18.4443 42.8091C18.0898 42.2104 18.0505 42.1714 17.9954 42.3364C17.9561 42.439 17.8616 42.6201 17.7749 42.7383C17.6963 42.8643 17.4758 43.0376 17.2947 43.1318C17.0664 43.2422 16.8066 43.2974 16.5232 43.2974C16.2002 43.2974 15.9956 43.25 15.72 43.0923C15.5073 42.9746 15.2791 42.7856 15.2083 42.6597C15.1294 42.5415 14.9011 41.9824 14.6885 41.4233C14.4839 40.8564 14.1531 39.9038 13.9641 39.2974C13.7673 38.6914 13.4524 37.5889 13.2556 36.8564C13.0588 36.1167 12.7754 35.0063 12.6257 34.3765C12.4839 33.7466 12.2556 32.668 12.1218 31.9751C11.9958 31.2822 11.8462 30.3452 11.791 29.8887C11.7361 29.4004 11.7202 28.7393 11.7517 28.2744C11.7754 27.8413 11.8855 27.1328 11.988 26.6997C12.0981 26.2666 12.24 25.7705 12.3108 25.5977C12.3816 25.4243 12.7358 24.6997 13.0981 23.9834C13.4602 23.2671 13.917 22.2905 14.106 21.8184C14.3027 21.3457 14.5706 20.5977 14.6965 20.165C14.8225 19.7319 15.0034 18.9839 15.0979 18.5112C15.1924 18.0312 15.2949 17.1333 15.3342 16.5034C15.3657 15.8735 15.3735 15.0942 15.342 14.7715C15.3105 14.4487 15.2083 13.9839 15.106 13.748C15.0115 13.5117 14.8303 13.1733 14.7122 13C14.594 12.8267 14.3186 12.5117 14.1138 12.3071C13.9011 12.1025 13.5154 11.8267 13.2556 11.6929C12.9958 11.5669 12.5154 11.4097 12.1926 11.3467C11.7517 11.252 11.4998 11.2441 11.2085 11.2993C10.9958 11.3384 10.0903 11.6299 9.20068 11.937C8.31104 12.2441 6.9646 12.7085 6.20874 12.9683C5.09082 13.3462 4.73633 13.4331 4.31909 13.4331C3.96484 13.4331 3.61841 13.3623 3.17749 13.2124C2.83105 13.0942 2.27197 12.8345 1.92554 12.6455C1.58691 12.4487 1.18555 12.1655 1.0437 12.0156C0.894043 11.8662 0.665771 11.5825 0.531982 11.3857C0.406006 11.189 0.240723 10.8506 0.169678 10.6377C0.106689 10.4175 0.0280762 9.92139 0.012207 9.53564C-0.0192871 8.94482 0.00439453 8.74023 0.14624 8.31494C0.240723 8.03174 0.413818 7.646 0.52417 7.45703C0.64209 7.26025 0.980713 6.89014 1.28784 6.62256C1.59497 6.35449 2.46094 5.66162 3.2168 5.07129C3.97266 4.48877 4.92529 3.77979 5.3269 3.48877C5.7207 3.19727 6.2876 2.81152 6.57886 2.63818C6.87793 2.45703 7.34253 2.20508 7.62598 2.07129C7.90942 1.94531 8.54712 1.67773 9.04321 1.48877C9.53931 1.29199 10.4763 0.945312 11.1296 0.717285C11.7754 0.48877 12.6099 0.252441 12.98 0.181641ZM13.6887 2.41797C13.4053 2.46484 12.7517 2.646 12.2322 2.81934C11.7124 2.99268 10.752 3.33887 10.1062 3.59082C9.45264 3.84277 8.68115 4.16553 8.37402 4.32324C8.06689 4.47266 7.55518 4.77979 7.23242 5.00049C6.90967 5.2207 6.09863 5.81934 5.42944 6.33105C4.76001 6.83496 3.86255 7.52783 3.43726 7.8584C3.01221 8.19678 2.59497 8.59082 2.5083 8.72461C2.40332 8.89795 2.35083 9.12061 2.35083 9.39355C2.35083 9.62207 2.40601 9.92139 2.46899 10.0474C2.53198 10.1733 2.79175 10.4175 3.0437 10.5825C3.28784 10.7402 3.67358 10.9292 3.88623 10.9844C4.2168 11.0786 4.34277 11.0786 4.67358 10.9922C4.89404 10.937 5.95679 10.5747 7.03564 10.189C8.12207 9.80322 9.27173 9.39355 9.59448 9.28369C9.91724 9.18115 10.429 9.05518 10.7361 9.01562C11.0432 8.98438 11.5312 8.94482 11.8384 8.94482C12.1455 8.94482 12.6572 9.00781 12.98 9.09473C13.303 9.17334 13.7832 9.33887 14.043 9.44873L14.5154 9.66162C16.3499 7.8584 17.7749 6.44922 18.8694 5.3623C19.9561 4.28369 20.8535 3.37061 20.8535 3.33105C20.8535 3.2998 20.5938 3.2207 20.2866 3.1499C19.9717 3.0791 19.019 2.88232 18.1765 2.70898C16.8616 2.44141 16.468 2.39404 15.4209 2.37061C14.7515 2.35498 13.9722 2.37842 13.6887 2.41797ZM30.6956 3.11865C30.4592 3.15771 29.7664 3.30762 29.1602 3.45703C28.554 3.61475 27.7585 3.7959 27.3887 3.8667C27.0107 3.94531 26.3098 4.0083 25.7744 4.01611C25.2549 4.01611 24.5857 4.00049 24.2786 3.96094L23.7273 3.90576C22.1448 5.45703 20.8613 6.70117 19.8694 7.67725C18.8694 8.65381 17.657 9.83447 17.1687 10.2993L16.2869 11.1494C16.9404 12.1572 17.2317 12.6929 17.3499 13C17.468 13.3071 17.6018 13.748 17.6411 13.9839C17.6885 14.2437 17.7041 15.1021 17.6804 16.1099C17.6411 17.5742 17.6018 17.9521 17.405 18.9048C17.271 19.5112 17.0586 20.4009 16.9167 20.8735C16.7751 21.3457 16.5232 22.0938 16.3577 22.5269C16.1846 22.96 16.0742 23.3301 16.0979 23.3535C16.1216 23.377 24.7588 23.4087 35.2856 23.4243L54.4341 23.4478C56.1426 22.5898 57.2764 22.0859 58.0559 21.7788C58.8354 21.4639 59.481 21.1963 59.4968 21.1802C59.5046 21.1646 59.355 20.9443 59.1582 20.6924C58.9614 20.4482 58.7725 20.1177 58.7251 19.9678C58.6858 19.8184 58.6465 19.5664 58.6465 19.417C58.6465 19.2671 58.7017 18.96 58.7803 18.7476C58.8591 18.5112 59.04 18.228 59.229 18.0391C59.481 17.7871 59.6936 17.6689 60.2212 17.5034C60.5913 17.3931 61.4417 17.165 62.1108 17.0073C62.9534 16.8027 63.5281 16.7085 63.9612 16.7085C64.457 16.7002 64.6619 16.7397 64.906 16.8657C65.0791 16.9604 65.3625 17.1885 65.5359 17.3853C65.7249 17.5981 65.8901 17.8813 65.9531 18.1021C66.0002 18.3066 66.0476 18.582 66.0476 18.708C66.0476 18.834 66.0869 18.9443 66.1262 18.9443C66.1658 18.9443 66.2917 18.8501 66.4097 18.7241C66.52 18.606 66.6382 18.3774 66.6853 18.2119C66.7405 17.9761 66.7168 17.8105 66.5752 17.3462C66.4727 17.0391 65.9294 15.6846 65.3704 14.3462C64.583 12.4565 64.3076 11.8896 64.158 11.7954C63.9768 11.6851 63.9216 11.6929 63.4099 11.8818C63.1108 11.9922 62.717 12.1104 62.5439 12.1416C62.3706 12.165 62.0164 12.1494 61.7566 12.1021C61.4966 12.0552 61.0872 11.8975 60.8511 11.7559C60.5598 11.5903 60.2998 11.3384 60.0637 11.0156C59.8669 10.748 59.6069 10.3545 59.4731 10.1494L59.2371 9.77148L57.4653 9.73242C56.938 10.4331 55.8591 12.0156 54.7334 13.7085C53.3003 15.8579 52.5918 16.8501 52.3792 17.0073C52.2139 17.1411 51.946 17.291 51.7964 17.354C51.6311 17.4248 51.2295 17.4722 50.7729 17.4722C50.269 17.48 49.8989 17.4404 49.6313 17.3462C49.4187 17.2754 49.0801 17.0864 48.8911 16.9209C48.7021 16.7554 48.4583 16.4404 48.3479 16.228C48.1667 15.8579 48.1589 15.7793 48.2063 15.0625L48.2534 14.2988C47.2456 13.9131 46.6709 13.6689 46.3245 13.5039C45.9387 13.3228 45.5686 13.0786 45.3638 12.8662C45.1829 12.6772 44.915 12.3306 44.7734 12.0942C44.6238 11.8584 44.4585 11.4331 44.4033 11.1494C44.3325 10.8345 44.3088 10.4097 44.3325 10.0474C44.356 9.69287 44.4426 9.29932 44.5449 9.06299C44.6394 8.84277 44.8284 8.49609 44.9702 8.28369C45.1118 8.0708 45.4189 7.74805 45.6553 7.56689C45.9858 7.31494 46.4426 7.11035 47.6235 6.68506C48.4661 6.37842 49.584 5.98438 50.1038 5.80322C50.6233 5.61426 51.458 5.31543 51.9539 5.11865C52.45 4.92139 53.0012 4.66943 53.1821 4.55176C53.3555 4.43359 53.623 4.23682 53.7727 4.11865C53.9224 4.00049 54.0247 3.88232 54.001 3.8667C53.9775 3.85059 53.6941 3.87451 53.3711 3.92188C53.0483 3.96094 51.9697 4.26807 50.9697 4.59082L49.1589 5.18164C42.9387 4.92139 40.5688 4.81152 39.8918 4.77197C39.2068 4.72461 38.3013 4.62256 37.884 4.54346C37.4587 4.45703 36.4431 4.17383 35.6165 3.90576C34.7898 3.63818 33.8369 3.35498 33.4905 3.26807C33.144 3.18945 32.467 3.10303 31.9946 3.08691C31.5222 3.06348 30.9316 3.0791 30.6956 3.11865ZM14.1453 28.0776C14.2004 27.542 14.3186 26.9912 14.4839 26.5264L14.7358 25.7944L32.5537 25.7944C42.3562 25.7944 50.3794 25.8179 50.3794 25.8496C50.3794 25.8887 50.1904 26.0386 49.9697 26.188C49.7495 26.3374 49.3086 26.7075 49.0015 27.0146C48.6865 27.314 48.3086 27.7231 48.1589 27.9199C48.0093 28.1172 47.7024 28.5894 47.4661 28.9829C47.23 29.377 46.915 29.8647 46.7576 30.0854C46.592 30.2979 46.3008 30.6284 46.0962 30.8096C45.8992 30.9985 45.2615 31.4556 44.6946 31.8335C44.1199 32.2114 43.3877 32.77 43.0647 33.0771C42.7498 33.3765 42.3169 33.8569 42.1121 34.1401C41.8994 34.4238 41.5688 34.9907 41.364 35.3999C41.1672 35.8096 40.9153 36.4473 40.6003 37.4863L40.3013 37.1323C40.1438 36.9355 39.813 36.644 39.5847 36.4863C39.3484 36.3213 38.947 36.1245 38.687 36.0298C38.4272 35.9434 38.0571 35.8486 37.8604 35.8252C37.6636 35.7935 36.9548 35.8174 36.2856 35.8647C35.6165 35.9194 34.5378 36.0142 33.8843 36.0771C33.2385 36.1401 32.4749 36.2344 32.1914 36.2817C31.908 36.3213 31.4119 36.4707 31.0891 36.6045C30.7585 36.7466 30.2151 37.0693 29.853 37.3447C29.4907 37.6201 29.1523 37.8408 29.105 37.8408C29.0498 37.8408 28.5618 37.6992 28.0186 37.5337C27.4751 37.3604 25.9871 36.896 24.7117 36.4946C23.436 36.1006 22.074 35.6519 21.6802 35.5024C21.2866 35.3525 20.2158 34.896 19.3025 34.4868C18.3813 34.0771 17.531 33.7466 17.4128 33.7466C17.2869 33.7466 16.7122 33.9038 16.1294 34.1011C15.5469 34.2979 15.0586 34.4551 15.0508 34.4551C15.0352 34.4551 14.9563 34.1479 14.8777 33.7622C14.791 33.3843 14.6099 32.5103 14.4761 31.8174C14.3501 31.1245 14.2004 30.1875 14.1533 29.731C14.0823 29.125 14.0823 28.6841 14.1453 28.0776ZM16.5151 36.4473C16.1372 36.5889 15.8066 36.7305 15.7673 36.7622C15.7358 36.8013 15.7515 36.9902 15.8066 37.1953C15.854 37.3999 16.0427 38.0298 16.2239 38.5889C16.3972 39.1558 16.5547 39.6279 16.5703 39.6357C16.5862 39.644 16.7515 39.5571 16.9326 39.439C17.2239 39.25 17.334 39.2188 17.9089 39.2188C18.4993 39.2188 18.5859 39.2422 18.8931 39.4629C19.1057 39.6045 19.4207 39.9746 19.7119 40.4077C19.9717 40.7935 20.4363 41.5571 20.7434 42.1006C21.0583 42.6357 21.3652 43.2734 21.4363 43.5098C21.4993 43.7539 21.6094 44.2578 21.6802 44.6357C21.7432 45.0137 21.8691 45.4624 21.9558 45.6357C22.074 45.8716 22.3259 46.1079 22.9558 46.5566C23.4204 46.8794 24.4597 47.5884 25.2627 48.1157C26.0659 48.6431 26.7507 49.1001 26.7981 49.1235C26.8374 49.1553 27.4043 49.21 28.0579 49.2573C28.7034 49.3047 29.4199 49.3989 29.6482 49.4619C29.8767 49.5249 30.3018 49.7378 30.593 49.9424C30.8845 50.147 31.5852 50.6826 32.1521 51.1392C32.7112 51.5957 33.6716 52.3911 34.2778 52.9106C34.8843 53.4302 35.4431 53.9106 35.522 53.9814C35.6558 54.0996 35.6558 54.0918 35.5376 53.7451C35.4668 53.5483 35.4116 53.1626 35.4116 52.8398C35.4116 52.5405 35.4668 52.1157 35.5298 51.895C35.6401 51.5405 35.6401 51.4937 35.5142 51.3677C35.4353 51.2886 35.1992 51.1943 34.9866 51.147C34.7661 51.0996 34.4512 51.0054 34.2778 50.9268C34.1047 50.8477 33.7898 50.6274 33.585 50.4385C33.3726 50.2417 33.1125 49.895 32.9946 49.6509C32.8606 49.3755 32.7742 49.0371 32.7505 48.7061C32.7295 48.3701 32.7583 48.0815 32.8372 47.8403C32.908 47.6514 32.9946 47.4229 33.0261 47.3442C33.0811 47.2261 32.9866 47.2495 32.5063 47.478C32.1836 47.6274 31.7583 47.793 31.5615 47.8403C31.3647 47.8794 30.979 47.9189 30.6956 47.9189C30.4121 47.9189 29.9553 47.8638 29.6719 47.8008C29.3884 47.73 28.9475 47.5645 28.6877 47.4307C28.428 47.2891 27.9949 46.9585 27.7192 46.6826C27.3728 46.3364 27.1445 46.0137 26.9556 45.5962C26.8059 45.2734 26.6406 44.8247 26.5933 44.5962C26.5461 44.3521 26.5303 43.9033 26.5618 43.5098C26.5933 43.1475 26.6877 42.6279 26.7744 42.3682C26.8611 42.1162 27.1052 41.4863 27.3176 40.9746C27.5303 40.4629 27.7036 40.022 27.7036 39.9902C27.7036 39.959 26.8452 39.6519 25.7903 39.313C24.7432 38.9746 23.1211 38.4473 22.1921 38.1479C21.1685 37.8174 19.8772 37.3213 18.9246 36.896C18.0583 36.5103 17.3105 36.1953 17.271 36.1953C17.2239 36.1953 16.8853 36.3135 16.5151 36.4473Z" clip-rule="evenodd" fill="" fill-opacity="1.000000" fill-rule="evenodd"/>
	</mask>
	<path id="Subtract" d="M12.98 0.181641C13.3501 0.11084 13.7595 0.0400391 13.8855 0.0166016C14.0115 0.000488281 14.6885 -0.00732422 15.3813 0.00878906C16.4602 0.0244141 16.8538 0.0717773 18.0979 0.31543C18.9009 0.473145 20.3496 0.780273 21.3259 0.984863C22.3022 1.19727 23.4675 1.43359 23.9241 1.51221C24.436 1.60693 25.1052 1.66211 25.6958 1.6543C26.2153 1.6543 26.853 1.60693 27.113 1.55176C27.3728 1.49658 27.9634 1.34717 28.4358 1.22119C28.9001 1.09521 29.6089 0.9375 30.0105 0.866699C30.5693 0.764648 31.0498 0.748535 32.1125 0.780273C33.2544 0.811523 33.6086 0.858887 34.1992 1.0166C34.5928 1.12646 35.459 1.39453 36.1282 1.60693C36.7974 1.82715 37.6321 2.07129 37.9785 2.1582C38.325 2.24463 38.9468 2.33936 39.3562 2.36279C39.7656 2.39404 40.3877 2.43359 40.7341 2.44922C41.0806 2.47314 43.0491 2.56738 48.844 2.81934L50.3398 2.33105C51.1665 2.07129 52.1194 1.78027 52.4658 1.70117C52.8831 1.59912 53.3711 1.54395 53.9224 1.54395C54.3789 1.54395 54.8909 1.5835 55.064 1.63037C55.2451 1.68555 55.5364 1.87451 55.7568 2.0874C55.9695 2.28418 56.2134 2.60693 56.3081 2.80371C56.4419 3.0791 56.4812 3.2998 56.4734 3.78809C56.4734 4.18164 56.426 4.52002 56.3474 4.69336C56.2844 4.84277 56.0874 5.12646 55.9143 5.32324C55.7412 5.52002 55.3396 5.87451 55.0166 6.11865C54.6938 6.3623 54.2373 6.66943 54.001 6.80322C53.7649 6.9292 53.0405 7.23633 52.387 7.48047C51.7415 7.7168 50.6785 8.09473 50.0249 8.31494C49.3794 8.54346 48.5291 8.84277 48.1353 8.98438C47.7417 9.12598 47.3401 9.28369 47.2297 9.33887C47.1196 9.38574 46.9543 9.55127 46.8599 9.69287C46.7339 9.88184 46.6787 10.0947 46.6787 10.3389C46.6787 10.6064 46.7258 10.8032 46.8599 10.9922C47.0015 11.2207 47.1982 11.3384 47.8992 11.6377C48.3794 11.8423 48.9934 12.1025 49.2769 12.2285C49.5762 12.3545 49.9067 12.5825 50.0879 12.7637C50.2532 12.937 50.458 13.2754 50.5447 13.5117C50.6707 13.8423 50.7021 14.063 50.6707 14.417C50.647 14.6768 50.6077 14.9526 50.584 15.0234C50.5447 15.1338 50.5762 15.165 50.7178 15.165C50.8201 15.165 50.9619 15.0708 51.0879 14.9131C51.1902 14.7715 52.072 13.4644 53.0405 12.0156C54.0168 10.5669 55.0325 9.0791 55.3081 8.70898C55.5835 8.33887 55.9221 7.96094 56.064 7.86621C56.2056 7.76416 56.4812 7.63037 56.678 7.55908C56.9458 7.46484 57.3472 7.43311 58.3315 7.43311C59.5439 7.42529 59.6621 7.44141 60.0637 7.62207C60.2998 7.72461 60.6699 7.96875 60.8745 8.15771C61.0872 8.35449 61.418 8.7876 61.6069 9.11816C61.7959 9.45703 62.0164 9.74805 62.095 9.77197C62.1658 9.79541 62.5122 9.72461 62.8586 9.60645C63.3862 9.43311 63.5911 9.40186 64.1184 9.43311C64.5515 9.45703 64.8586 9.52002 65.1028 9.6377C65.2996 9.72461 65.6145 9.93701 65.8035 10.1025C66.071 10.3389 66.2522 10.6143 66.6223 11.3857C66.8821 11.9292 67.3545 13.0078 67.6694 13.7871C67.9558 14.4785 68.2419 15.1572 68.3472 15.4067L68.3782 15.48C68.449 15.6299 68.6301 16.0708 68.7795 16.4644C68.9292 16.8579 69.071 17.3853 69.0945 17.6455C69.1182 17.9443 69.0867 18.3145 69.0081 18.6689C68.9292 18.9761 68.7795 19.3774 68.6694 19.5742C68.5513 19.771 68.2993 20.1021 68.1025 20.3145C67.9058 20.5269 67.6143 20.7788 67.4648 20.8735C67.3152 20.9678 66.9766 21.1255 66.7168 21.2197C66.4255 21.3301 66.0632 21.4009 65.772 21.4009C65.4963 21.4009 65.1658 21.3457 64.9846 21.2671C64.8113 21.1963 64.5278 21.0229 64.3625 20.8892C64.1973 20.7476 63.9768 20.4956 63.8745 20.3223C63.772 20.1489 63.6619 19.8027 63.5674 19.1021L63.2917 19.1489C63.1421 19.1807 62.6382 19.2988 61.3235 19.6138L61.5359 19.9287C61.6541 20.1021 61.8115 20.4087 61.8904 20.6138C61.969 20.8262 62.032 21.1177 62.032 21.2671C62.032 21.4165 61.9768 21.708 61.906 21.9126C61.8352 22.1255 61.7014 22.3931 61.6069 22.5269C61.5203 22.6528 61.2998 22.8574 61.1265 22.9756C60.9534 23.1016 60.355 23.3853 59.7881 23.6055C59.2212 23.8262 58.2527 24.2354 57.6228 24.519C56.9929 24.8101 55.8984 25.3535 55.1821 25.7393C54.4656 26.125 53.2847 26.8179 52.5444 27.2744C51.7415 27.7783 51.009 28.2983 50.71 28.5815C50.4343 28.8491 50.0486 29.314 49.8438 29.6211C49.6392 29.936 49.2769 30.5029 49.0408 30.8809C48.781 31.3057 48.3242 31.8647 47.8992 32.2979C47.5054 32.6914 46.9229 33.1797 46.5999 33.3921C46.2771 33.5972 45.7654 33.9355 45.4661 34.1323C45.167 34.3291 44.6946 34.7388 44.4189 35.0459C44.1355 35.3447 43.7891 35.8096 43.6475 36.0693C43.4978 36.3291 43.1436 37.2344 42.8601 38.0771C42.5767 38.9194 42.301 39.6831 42.238 39.77C42.1829 39.8564 41.9624 40.0454 41.7498 40.187C41.5293 40.3291 41.2144 40.4629 41.0098 40.4863C40.813 40.5181 40.4822 40.4941 40.2617 40.4468C40.0334 40.3999 39.7422 40.2578 39.561 40.1006C39.3958 39.9668 39.1123 39.6045 38.939 39.2974C38.7659 38.9902 38.561 38.6831 38.498 38.5967C38.4272 38.5181 38.2383 38.3843 38.0808 38.3052C37.9075 38.2188 37.6162 38.1558 37.4116 38.1558C37.199 38.1558 36.3408 38.2109 35.4983 38.2739C34.6558 38.3447 33.5928 38.4551 33.1362 38.5181C32.522 38.6045 32.1677 38.6992 31.7583 38.896C31.4119 39.0693 31.0339 39.3369 30.7427 39.6279C30.3962 39.9746 30.1914 40.2739 29.908 40.8721C29.7034 41.3052 29.4041 41.998 29.2546 42.4077C29.0972 42.8169 28.9397 43.2974 28.9001 43.4702C28.853 43.6909 28.8608 43.9111 28.9397 44.2183C29.0183 44.5332 29.1365 44.7461 29.3806 44.9902C29.5615 45.1792 29.8057 45.3838 29.9316 45.4468C30.0498 45.5098 30.3569 45.5571 30.6167 45.5571C31.0417 45.5571 31.1758 45.5098 31.9395 45.1079C32.4041 44.8643 33.0654 44.5176 33.4038 44.3442C33.8999 44.0845 34.1047 44.0215 34.3882 44.0371C34.585 44.0454 34.8606 44.0923 34.9866 44.1396C35.1125 44.187 35.3408 44.3208 35.4905 44.439C35.6399 44.5571 35.8289 44.793 35.9077 44.9663C35.9863 45.1553 36.0493 45.4702 36.0493 45.7539C36.0493 46.1157 35.9863 46.376 35.7817 46.856C35.6399 47.2026 35.4275 47.7065 35.3093 47.9741C35.199 48.2495 35.1204 48.5332 35.144 48.604C35.1675 48.6982 35.3408 48.793 35.6951 48.8794C35.9785 48.9585 36.3723 49.1079 36.5847 49.2104C36.7896 49.3125 37.0808 49.5488 37.2461 49.7378C37.4036 49.9268 37.6084 50.2573 37.7029 50.478C37.8052 50.6904 37.8997 51.0449 37.9155 51.2651C37.939 51.4858 37.8997 51.9424 37.8289 52.2886C37.7107 52.895 37.7107 52.9268 37.8525 53.0762C37.939 53.1626 38.4036 53.5093 39.7893 54.4541L40.8916 54.6353C41.6003 54.7534 42.0728 54.8711 42.2144 54.9736C42.3403 55.0522 42.5137 55.2808 42.6001 55.4775C42.7498 55.7925 42.7498 55.8711 42.6631 56.147C42.6082 56.3359 42.4192 56.5957 42.1987 56.8081C42.0017 56.9971 41.553 57.3906 41.2065 57.6821C40.8601 57.9658 40.364 58.3516 40.1042 58.5322C39.7971 58.7529 39.4822 58.8945 39.1987 58.9497C38.9626 58.9971 38.624 59.0127 38.4509 58.9893C38.2776 58.9653 37.9233 58.8394 37.6636 58.7134C37.3801 58.5718 36.7581 58.1074 36.1282 57.5562C35.5454 57.0522 34.5376 56.186 33.8843 55.6353L33.7415 55.5146C33.0676 54.9478 31.9343 53.9941 31.1284 53.3203C30.2625 52.5957 29.3806 51.9189 29.1602 51.8164C28.8452 51.6587 28.6482 51.6196 28.1602 51.6196C27.8215 51.6196 27.2705 51.5801 26.9397 51.5327C26.5381 51.4858 26.1208 51.3599 25.7351 51.1787C25.4124 51.021 24.814 50.667 24.4124 50.3911C24.0186 50.1157 23.2156 49.5723 22.6487 49.1787C22.074 48.793 21.3181 48.2495 20.9717 47.9741C20.6252 47.7065 20.2236 47.3047 20.082 47.0923C19.9402 46.8716 19.7512 46.5098 19.6724 46.2812C19.5859 46.061 19.4441 45.4702 19.3577 44.9819C19.2551 44.4312 19.1292 43.9824 19.0112 43.7852C18.9087 43.6123 18.6567 43.1714 18.4443 42.8091C18.0898 42.2104 18.0505 42.1714 17.9954 42.3364C17.9561 42.439 17.8616 42.6201 17.7749 42.7383C17.6963 42.8643 17.4758 43.0376 17.2947 43.1318C17.0664 43.2422 16.8066 43.2974 16.5232 43.2974C16.2002 43.2974 15.9956 43.25 15.72 43.0923C15.5073 42.9746 15.2791 42.7856 15.2083 42.6597C15.1294 42.5415 14.9011 41.9824 14.6885 41.4233C14.4839 40.8564 14.1531 39.9038 13.9641 39.2974C13.7673 38.6914 13.4524 37.5889 13.2556 36.8564C13.0588 36.1167 12.7754 35.0063 12.6257 34.3765C12.4839 33.7466 12.2556 32.668 12.1218 31.9751C11.9958 31.2822 11.8462 30.3452 11.791 29.8887C11.7361 29.4004 11.7202 28.7393 11.7517 28.2744C11.7754 27.8413 11.8855 27.1328 11.988 26.6997C12.0981 26.2666 12.24 25.7705 12.3108 25.5977C12.3816 25.4243 12.7358 24.6997 13.0981 23.9834C13.4602 23.2671 13.917 22.2905 14.106 21.8184C14.3027 21.3457 14.5706 20.5977 14.6965 20.165C14.8225 19.7319 15.0034 18.9839 15.0979 18.5112C15.1924 18.0312 15.2949 17.1333 15.3342 16.5034C15.3657 15.8735 15.3735 15.0942 15.342 14.7715C15.3105 14.4487 15.2083 13.9839 15.106 13.748C15.0115 13.5117 14.8303 13.1733 14.7122 13C14.594 12.8267 14.3186 12.5117 14.1138 12.3071C13.9011 12.1025 13.5154 11.8267 13.2556 11.6929C12.9958 11.5669 12.5154 11.4097 12.1926 11.3467C11.7517 11.252 11.4998 11.2441 11.2085 11.2993C10.9958 11.3384 10.0903 11.6299 9.20068 11.937C8.31104 12.2441 6.9646 12.7085 6.20874 12.9683C5.09082 13.3462 4.73633 13.4331 4.31909 13.4331C3.96484 13.4331 3.61841 13.3623 3.17749 13.2124C2.83105 13.0942 2.27197 12.8345 1.92554 12.6455C1.58691 12.4487 1.18555 12.1655 1.0437 12.0156C0.894043 11.8662 0.665771 11.5825 0.531982 11.3857C0.406006 11.189 0.240723 10.8506 0.169678 10.6377C0.106689 10.4175 0.0280762 9.92139 0.012207 9.53564C-0.0192871 8.94482 0.00439453 8.74023 0.14624 8.31494C0.240723 8.03174 0.413818 7.646 0.52417 7.45703C0.64209 7.26025 0.980713 6.89014 1.28784 6.62256C1.59497 6.35449 2.46094 5.66162 3.2168 5.07129C3.97266 4.48877 4.92529 3.77979 5.3269 3.48877C5.7207 3.19727 6.2876 2.81152 6.57886 2.63818C6.87793 2.45703 7.34253 2.20508 7.62598 2.07129C7.90942 1.94531 8.54712 1.67773 9.04321 1.48877C9.53931 1.29199 10.4763 0.945312 11.1296 0.717285C11.7754 0.48877 12.6099 0.252441 12.98 0.181641ZM13.6887 2.41797C13.4053 2.46484 12.7517 2.646 12.2322 2.81934C11.7124 2.99268 10.752 3.33887 10.1062 3.59082C9.45264 3.84277 8.68115 4.16553 8.37402 4.32324C8.06689 4.47266 7.55518 4.77979 7.23242 5.00049C6.90967 5.2207 6.09863 5.81934 5.42944 6.33105C4.76001 6.83496 3.86255 7.52783 3.43726 7.8584C3.01221 8.19678 2.59497 8.59082 2.5083 8.72461C2.40332 8.89795 2.35083 9.12061 2.35083 9.39355C2.35083 9.62207 2.40601 9.92139 2.46899 10.0474C2.53198 10.1733 2.79175 10.4175 3.0437 10.5825C3.28784 10.7402 3.67358 10.9292 3.88623 10.9844C4.2168 11.0786 4.34277 11.0786 4.67358 10.9922C4.89404 10.937 5.95679 10.5747 7.03564 10.189C8.12207 9.80322 9.27173 9.39355 9.59448 9.28369C9.91724 9.18115 10.429 9.05518 10.7361 9.01562C11.0432 8.98438 11.5312 8.94482 11.8384 8.94482C12.1455 8.94482 12.6572 9.00781 12.98 9.09473C13.303 9.17334 13.7832 9.33887 14.043 9.44873L14.5154 9.66162C16.3499 7.8584 17.7749 6.44922 18.8694 5.3623C19.9561 4.28369 20.8535 3.37061 20.8535 3.33105C20.8535 3.2998 20.5938 3.2207 20.2866 3.1499C19.9717 3.0791 19.019 2.88232 18.1765 2.70898C16.8616 2.44141 16.468 2.39404 15.4209 2.37061C14.7515 2.35498 13.9722 2.37842 13.6887 2.41797ZM30.6956 3.11865C30.4592 3.15771 29.7664 3.30762 29.1602 3.45703C28.554 3.61475 27.7585 3.7959 27.3887 3.8667C27.0107 3.94531 26.3098 4.0083 25.7744 4.01611C25.2549 4.01611 24.5857 4.00049 24.2786 3.96094L23.7273 3.90576C22.1448 5.45703 20.8613 6.70117 19.8694 7.67725C18.8694 8.65381 17.657 9.83447 17.1687 10.2993L16.2869 11.1494C16.9404 12.1572 17.2317 12.6929 17.3499 13C17.468 13.3071 17.6018 13.748 17.6411 13.9839C17.6885 14.2437 17.7041 15.1021 17.6804 16.1099C17.6411 17.5742 17.6018 17.9521 17.405 18.9048C17.271 19.5112 17.0586 20.4009 16.9167 20.8735C16.7751 21.3457 16.5232 22.0938 16.3577 22.5269C16.1846 22.96 16.0742 23.3301 16.0979 23.3535C16.1216 23.377 24.7588 23.4087 35.2856 23.4243L54.4341 23.4478C56.1426 22.5898 57.2764 22.0859 58.0559 21.7788C58.8354 21.4639 59.481 21.1963 59.4968 21.1802C59.5046 21.1646 59.355 20.9443 59.1582 20.6924C58.9614 20.4482 58.7725 20.1177 58.7251 19.9678C58.6858 19.8184 58.6465 19.5664 58.6465 19.417C58.6465 19.2671 58.7017 18.96 58.7803 18.7476C58.8591 18.5112 59.04 18.228 59.229 18.0391C59.481 17.7871 59.6936 17.6689 60.2212 17.5034C60.5913 17.3931 61.4417 17.165 62.1108 17.0073C62.9534 16.8027 63.5281 16.7085 63.9612 16.7085C64.457 16.7002 64.6619 16.7397 64.906 16.8657C65.0791 16.9604 65.3625 17.1885 65.5359 17.3853C65.7249 17.5981 65.8901 17.8813 65.9531 18.1021C66.0002 18.3066 66.0476 18.582 66.0476 18.708C66.0476 18.834 66.0869 18.9443 66.1262 18.9443C66.1658 18.9443 66.2917 18.8501 66.4097 18.7241C66.52 18.606 66.6382 18.3774 66.6853 18.2119C66.7405 17.9761 66.7168 17.8105 66.5752 17.3462C66.4727 17.0391 65.9294 15.6846 65.3704 14.3462C64.583 12.4565 64.3076 11.8896 64.158 11.7954C63.9768 11.6851 63.9216 11.6929 63.4099 11.8818C63.1108 11.9922 62.717 12.1104 62.5439 12.1416C62.3706 12.165 62.0164 12.1494 61.7566 12.1021C61.4966 12.0552 61.0872 11.8975 60.8511 11.7559C60.5598 11.5903 60.2998 11.3384 60.0637 11.0156C59.8669 10.748 59.6069 10.3545 59.4731 10.1494L59.2371 9.77148L57.4653 9.73242C56.938 10.4331 55.8591 12.0156 54.7334 13.7085C53.3003 15.8579 52.5918 16.8501 52.3792 17.0073C52.2139 17.1411 51.946 17.291 51.7964 17.354C51.6311 17.4248 51.2295 17.4722 50.7729 17.4722C50.269 17.48 49.8989 17.4404 49.6313 17.3462C49.4187 17.2754 49.0801 17.0864 48.8911 16.9209C48.7021 16.7554 48.4583 16.4404 48.3479 16.228C48.1667 15.8579 48.1589 15.7793 48.2063 15.0625L48.2534 14.2988C47.2456 13.9131 46.6709 13.6689 46.3245 13.5039C45.9387 13.3228 45.5686 13.0786 45.3638 12.8662C45.1829 12.6772 44.915 12.3306 44.7734 12.0942C44.6238 11.8584 44.4585 11.4331 44.4033 11.1494C44.3325 10.8345 44.3088 10.4097 44.3325 10.0474C44.356 9.69287 44.4426 9.29932 44.5449 9.06299C44.6394 8.84277 44.8284 8.49609 44.9702 8.28369C45.1118 8.0708 45.4189 7.74805 45.6553 7.56689C45.9858 7.31494 46.4426 7.11035 47.6235 6.68506C48.4661 6.37842 49.584 5.98438 50.1038 5.80322C50.6233 5.61426 51.458 5.31543 51.9539 5.11865C52.45 4.92139 53.0012 4.66943 53.1821 4.55176C53.3555 4.43359 53.623 4.23682 53.7727 4.11865C53.9224 4.00049 54.0247 3.88232 54.001 3.8667C53.9775 3.85059 53.6941 3.87451 53.3711 3.92188C53.0483 3.96094 51.9697 4.26807 50.9697 4.59082L49.1589 5.18164C42.9387 4.92139 40.5688 4.81152 39.8918 4.77197C39.2068 4.72461 38.3013 4.62256 37.884 4.54346C37.4587 4.45703 36.4431 4.17383 35.6165 3.90576C34.7898 3.63818 33.8369 3.35498 33.4905 3.26807C33.144 3.18945 32.467 3.10303 31.9946 3.08691C31.5222 3.06348 30.9316 3.0791 30.6956 3.11865ZM14.1453 28.0776C14.2004 27.542 14.3186 26.9912 14.4839 26.5264L14.7358 25.7944L32.5537 25.7944C42.3562 25.7944 50.3794 25.8179 50.3794 25.8496C50.3794 25.8887 50.1904 26.0386 49.9697 26.188C49.7495 26.3374 49.3086 26.7075 49.0015 27.0146C48.6865 27.314 48.3086 27.7231 48.1589 27.9199C48.0093 28.1172 47.7024 28.5894 47.4661 28.9829C47.23 29.377 46.915 29.8647 46.7576 30.0854C46.592 30.2979 46.3008 30.6284 46.0962 30.8096C45.8992 30.9985 45.2615 31.4556 44.6946 31.8335C44.1199 32.2114 43.3877 32.77 43.0647 33.0771C42.7498 33.3765 42.3169 33.8569 42.1121 34.1401C41.8994 34.4238 41.5688 34.9907 41.364 35.3999C41.1672 35.8096 40.9153 36.4473 40.6003 37.4863L40.3013 37.1323C40.1438 36.9355 39.813 36.644 39.5847 36.4863C39.3484 36.3213 38.947 36.1245 38.687 36.0298C38.4272 35.9434 38.0571 35.8486 37.8604 35.8252C37.6636 35.7935 36.9548 35.8174 36.2856 35.8647C35.6165 35.9194 34.5378 36.0142 33.8843 36.0771C33.2385 36.1401 32.4749 36.2344 32.1914 36.2817C31.908 36.3213 31.4119 36.4707 31.0891 36.6045C30.7585 36.7466 30.2151 37.0693 29.853 37.3447C29.4907 37.6201 29.1523 37.8408 29.105 37.8408C29.0498 37.8408 28.5618 37.6992 28.0186 37.5337C27.4751 37.3604 25.9871 36.896 24.7117 36.4946C23.436 36.1006 22.074 35.6519 21.6802 35.5024C21.2866 35.3525 20.2158 34.896 19.3025 34.4868C18.3813 34.0771 17.531 33.7466 17.4128 33.7466C17.2869 33.7466 16.7122 33.9038 16.1294 34.1011C15.5469 34.2979 15.0586 34.4551 15.0508 34.4551C15.0352 34.4551 14.9563 34.1479 14.8777 33.7622C14.791 33.3843 14.6099 32.5103 14.4761 31.8174C14.3501 31.1245 14.2004 30.1875 14.1533 29.731C14.0823 29.125 14.0823 28.6841 14.1453 28.0776ZM16.5151 36.4473C16.1372 36.5889 15.8066 36.7305 15.7673 36.7622C15.7358 36.8013 15.7515 36.9902 15.8066 37.1953C15.854 37.3999 16.0427 38.0298 16.2239 38.5889C16.3972 39.1558 16.5547 39.6279 16.5703 39.6357C16.5862 39.644 16.7515 39.5571 16.9326 39.439C17.2239 39.25 17.334 39.2188 17.9089 39.2188C18.4993 39.2188 18.5859 39.2422 18.8931 39.4629C19.1057 39.6045 19.4207 39.9746 19.7119 40.4077C19.9717 40.7935 20.4363 41.5571 20.7434 42.1006C21.0583 42.6357 21.3652 43.2734 21.4363 43.5098C21.4993 43.7539 21.6094 44.2578 21.6802 44.6357C21.7432 45.0137 21.8691 45.4624 21.9558 45.6357C22.074 45.8716 22.3259 46.1079 22.9558 46.5566C23.4204 46.8794 24.4597 47.5884 25.2627 48.1157C26.0659 48.6431 26.7507 49.1001 26.7981 49.1235C26.8374 49.1553 27.4043 49.21 28.0579 49.2573C28.7034 49.3047 29.4199 49.3989 29.6482 49.4619C29.8767 49.5249 30.3018 49.7378 30.593 49.9424C30.8845 50.147 31.5852 50.6826 32.1521 51.1392C32.7112 51.5957 33.6716 52.3911 34.2778 52.9106C34.8843 53.4302 35.4431 53.9106 35.522 53.9814C35.6558 54.0996 35.6558 54.0918 35.5376 53.7451C35.4668 53.5483 35.4116 53.1626 35.4116 52.8398C35.4116 52.5405 35.4668 52.1157 35.5298 51.895C35.6401 51.5405 35.6401 51.4937 35.5142 51.3677C35.4353 51.2886 35.1992 51.1943 34.9866 51.147C34.7661 51.0996 34.4512 51.0054 34.2778 50.9268C34.1047 50.8477 33.7898 50.6274 33.585 50.4385C33.3726 50.2417 33.1125 49.895 32.9946 49.6509C32.8606 49.3755 32.7742 49.0371 32.7505 48.7061C32.7295 48.3701 32.7583 48.0815 32.8372 47.8403C32.908 47.6514 32.9946 47.4229 33.0261 47.3442C33.0811 47.2261 32.9866 47.2495 32.5063 47.478C32.1836 47.6274 31.7583 47.793 31.5615 47.8403C31.3647 47.8794 30.979 47.9189 30.6956 47.9189C30.4121 47.9189 29.9553 47.8638 29.6719 47.8008C29.3884 47.73 28.9475 47.5645 28.6877 47.4307C28.428 47.2891 27.9949 46.9585 27.7192 46.6826C27.3728 46.3364 27.1445 46.0137 26.9556 45.5962C26.8059 45.2734 26.6406 44.8247 26.5933 44.5962C26.5461 44.3521 26.5303 43.9033 26.5618 43.5098C26.5933 43.1475 26.6877 42.6279 26.7744 42.3682C26.8611 42.1162 27.1052 41.4863 27.3176 40.9746C27.5303 40.4629 27.7036 40.022 27.7036 39.9902C27.7036 39.959 26.8452 39.6519 25.7903 39.313C24.7432 38.9746 23.1211 38.4473 22.1921 38.1479C21.1685 37.8174 19.8772 37.3213 18.9246 36.896C18.0583 36.5103 17.3105 36.1953 17.271 36.1953C17.2239 36.1953 16.8853 36.3135 16.5151 36.4473Z" clip-rule="evenodd" fill="#219BE0" fill-opacity="1.000000" fill-rule="evenodd" mask="url(#mask_1_269)"/>
	<path id="Subtract" d="" fill="#000000" fill-opacity="0.000000" fill-rule="nonzero"/>
</svg>
