<svg width="66.110840" height="71.043457" viewBox="0 0 66.1108 71.0435" fill="none" xmlns="http://www.w3.org/2000/svg" xmlns:xlink="http://www.w3.org/1999/xlink">
	<desc>
			Created with Pixso.
	</desc>
	<defs/>
	<path id="Vector" d="M32.39 5.03C32.33 1.37 32.41 0.48 32.69 0.23C32.9 0.05 33.48 -0.08 34.86 0.05L34.91 4.9C34.97 8.55 34.91 9.8 34.66 9.93C34.51 10.03 34.07 10.14 33.71 10.14C33.36 10.14 32.92 10.01 32.74 9.83C32.51 9.6 32.41 8.25 32.39 5.03ZM23.78 4.64C23.19 5.03 23.16 5.18 23.22 7.74C23.22 9.19 23.37 10.62 23.5 10.9C23.65 11.24 24.01 11.41 24.47 11.41C24.85 11.41 25.31 11.26 25.49 11.08C25.69 10.88 25.8 9.81 25.8 7.89C25.8 5.21 25.77 5 25.21 4.64C24.9 4.44 24.59 4.26 24.52 4.26C24.44 4.26 24.11 4.44 23.78 4.64ZM42.4 4.54C41.81 4.75 41.79 4.82 41.84 7.76C41.86 9.8 41.99 10.88 42.19 11.11C42.37 11.29 42.76 11.41 43.04 11.44C43.32 11.44 43.7 11.29 43.85 11.11C44.08 10.88 44.16 9.88 44.11 7.74C44.06 4.9 44.03 4.7 43.52 4.52C43.22 4.41 42.71 4.41 42.4 4.54ZM30.01 12.84C29.01 13.05 27.12 13.76 25.8 14.4C23.75 15.4 23.01 15.94 21.17 17.77C19.43 19.54 18.77 20.41 17.93 22.14C17.34 23.34 16.65 25.05 16.42 25.97C16.11 27.07 15.99 28.58 15.99 30.44C15.99 32.64 16.11 33.66 16.57 35.17C16.88 36.22 17.57 37.88 18.08 38.85C18.62 39.85 19.82 41.48 20.81 42.53C21.78 43.57 23.42 44.93 24.39 45.52C25.36 46.13 27.1 46.95 28.22 47.33C29.75 47.84 30.96 48.04 32.95 48.15C34.97 48.25 36.14 48.15 37.67 47.81C38.82 47.56 40.71 46.84 42.02 46.21C43.83 45.29 44.75 44.6 46.36 42.99C47.84 41.51 48.71 40.33 49.47 38.87C50.06 37.75 50.78 35.91 51.08 34.79C51.42 33.42 51.59 31.93 51.59 30.32C51.59 28.7 51.42 27.21 51.08 25.85C50.78 24.72 50.06 22.88 49.47 21.76C48.73 20.33 47.81 19.13 46.49 17.8C45.44 16.75 43.83 15.45 42.91 14.91C41.99 14.38 40.33 13.66 39.21 13.3C37.7 12.82 36.45 12.61 34.48 12.54C32.67 12.49 31.21 12.56 30.01 12.84ZM30.09 15.4C29.27 15.6 27.84 16.14 26.87 16.6C25.67 17.19 24.57 18 23.11 19.46C21.86 20.69 20.74 22.12 20.25 23.04C19.79 23.88 19.2 25.49 18.9 26.61C18.62 27.74 18.39 29.4 18.39 30.32C18.39 31.24 18.54 32.72 18.74 33.64C18.95 34.56 19.46 36.04 19.89 36.96C20.33 37.88 21.25 39.31 21.91 40.15C22.63 41.02 23.96 42.25 25.05 42.99C26.1 43.68 27.69 44.52 28.6 44.85C29.81 45.29 31.06 45.49 33.08 45.57C35.22 45.67 36.29 45.59 37.55 45.29C38.47 45.03 39.95 44.49 40.84 44.03C41.76 43.57 43.29 42.48 44.29 41.53C45.29 40.59 46.54 39.1 47.07 38.21C47.61 37.32 48.27 35.78 48.61 34.79C49.02 33.41 49.14 32.39 49.14 30.32C49.14 28.02 49.02 27.33 48.38 25.46C47.97 24.26 47.15 22.6 46.61 21.79C46.05 20.94 44.9 19.64 44.06 18.87C43.19 18.11 41.66 17.08 40.48 16.52C39.36 15.99 37.83 15.42 37.09 15.27C36.37 15.12 34.81 14.99 33.64 15.02C32.49 15.02 30.88 15.19 30.06 15.4L30.09 15.4ZM32.41 20.18C32.39 19.56 32.51 19.26 32.97 18.95C33.31 18.75 33.66 18.57 33.79 18.57C33.89 18.57 34.2 18.8 34.48 19.08C34.76 19.36 34.99 19.92 34.99 20.35C34.99 20.97 35.12 21.15 35.63 21.25C35.99 21.33 36.68 21.76 37.21 22.19C37.72 22.65 38.34 23.5 38.59 24.06C38.85 24.62 39.08 25.41 39.08 25.85C39.08 26.28 38.87 26.82 38.62 27.07C38.39 27.33 38.01 27.51 37.8 27.51C37.6 27.51 37.21 27.3 36.96 27.05C36.7 26.82 36.5 26.31 36.52 25.92C36.52 25.49 36.24 24.88 35.02 23.55L34.99 29.04L35.83 29.4C36.27 29.58 37.01 30.06 37.42 30.47C37.85 30.88 38.41 31.72 38.67 32.36C39 33.18 39.08 33.87 39 34.79C38.9 35.55 38.57 36.52 38.13 37.19C37.67 37.93 36.98 38.57 36.19 38.98C35.35 39.44 34.97 39.79 34.99 40.15C34.99 40.43 34.81 40.92 34.61 41.22C34.4 41.56 33.97 41.81 33.66 41.81C33.33 41.81 32.92 41.68 32.74 41.51C32.56 41.33 32.44 40.79 32.44 40.33C32.44 39.62 32.28 39.44 31.29 38.87C30.65 38.52 29.86 37.8 29.5 37.27C29.14 36.75 28.76 35.78 28.66 35.14C28.53 34.25 28.58 33.84 28.86 33.54C29.06 33.31 29.47 33.1 29.75 33.1C30.04 33.1 30.39 33.25 30.55 33.43C30.7 33.61 30.96 34.23 31.11 34.79C31.26 35.35 31.62 36.04 32.46 36.83L32.44 31.34L31.75 31.06C31.34 30.93 30.7 30.5 30.32 30.11C29.91 29.73 29.37 28.99 29.09 28.48C28.81 27.89 28.6 26.97 28.6 26.23C28.6 25.54 28.81 24.52 29.06 24.01C29.29 23.5 29.86 22.76 30.27 22.35C30.7 21.96 31.36 21.48 31.75 21.3C32.33 21.04 32.44 20.84 32.41 20.18ZM31.06 26.1C31.08 25.64 31.29 24.98 31.54 24.6C31.77 24.24 32.08 23.93 32.21 23.93C32.33 23.93 32.44 24.98 32.44 26.23C32.44 27.97 32.36 28.5 32.13 28.4C31.95 28.35 31.62 27.97 31.41 27.61C31.21 27.23 31.03 26.56 31.06 26.1ZM35.4 36.52C35.04 36.68 34.99 36.42 34.99 34.28C34.97 32.1 35.02 31.88 35.4 32.05C35.63 32.16 35.99 32.54 36.17 32.95C36.37 33.33 36.52 33.92 36.52 34.28C36.52 34.63 36.37 35.22 36.17 35.63C35.99 36.01 35.63 36.4 35.4 36.52ZM0.76 46.77C0.53 47.02 0.38 49.37 0.22 54.74C0.1 58.95 0 64.06 0 66.13C0 69.48 0.05 69.94 0.43 70.14C0.68 70.27 3.19 70.42 6 70.5C8.81 70.55 11.31 70.52 11.54 70.4C11.8 70.27 12.05 69.76 12.15 69.22C12.28 68.33 12.44 68.17 13.94 67.43C15.02 66.87 15.96 66.59 16.65 66.59C17.26 66.59 21.22 67.59 25.54 68.81L33.33 71.04C39.15 71.06 40.02 70.96 41.5 70.5C42.91 70.04 45.67 68.38 54.66 62.55C64.67 56.07 66.03 55.1 66.1 54.51C66.13 54.02 65.87 53.51 65.21 52.75C64.67 52.18 63.73 51.47 63.09 51.19C62.4 50.88 61.38 50.68 60.54 50.65C59.28 50.65 58.54 50.93 53.64 53.23L48.15 55.81C46.51 53.69 45.8 53.1 44.77 52.62C43.65 52.11 42.68 51.88 40.87 51.72C39.54 51.62 37.01 51.54 35.25 51.52C33.48 51.52 31.54 51.39 30.9 51.26C30.27 51.11 28.78 50.55 27.58 49.99C26.38 49.42 24.67 48.79 23.75 48.56C22.53 48.25 21.4 48.17 19.41 48.25C17.65 48.35 16.22 48.56 15.19 48.91C14.64 49.1 14.06 49.29 13.67 49.43C13.46 49.5 13.31 49.55 13.23 49.58C12.84 49.71 12.77 49.55 12.77 48.66C12.77 48.04 12.64 47.38 12.51 47.18C12.33 46.9 11.59 46.74 9.91 46.61C8.6 46.54 6.07 46.44 4.31 46.44C1.86 46.41 0.99 46.49 0.76 46.77ZM2.45 66.28C2.52 65.39 2.65 61.15 2.73 56.83L2.88 48.96L10.24 48.96L10.11 53.13C10.05 54.91 9.96 57.96 9.8 63.29L9.8 63.3C9.76 64.77 9.71 66.41 9.65 68.25L7.58 68.07C6.46 67.94 4.8 67.87 2.32 67.87L2.45 66.28ZM18.28 50.75C17.6 50.85 16.55 51.08 15.99 51.26C15.42 51.44 14.45 51.88 13.81 52.21L12.67 52.82C12.38 62.4 12.33 65.24 12.41 65.26C12.49 65.29 13.02 65.08 13.64 64.78C14.22 64.47 15.4 64.19 16.24 64.11C17.6 64.04 18.8 64.29 26.08 66.36C33.56 68.48 34.61 68.71 36.55 68.74C37.95 68.74 39.31 68.56 40.38 68.25C41.63 67.89 43.52 66.79 48.04 63.88C51.34 61.74 56.09 58.7 58.57 57.11C61.07 55.5 63.09 54.12 63.12 54.02C63.12 53.92 62.66 53.66 62.09 53.46C61.53 53.23 60.82 53.08 60.51 53.08C60.18 53.08 58.82 53.59 57.5 54.2C56.17 54.81 53.72 55.96 52.08 56.76L49.07 58.19C49.09 59.85 48.94 60.48 48.76 60.66C48.5 60.92 46.77 60.94 40.76 60.82C34.91 60.71 32.97 60.59 32.54 60.31C32.21 60.13 31.95 59.69 31.95 59.39C31.93 59.08 32.08 58.67 32.26 58.49C32.54 58.21 34.02 58.19 39.59 58.36L46.59 58.57C45.92 56.99 45.46 56.24 45.16 55.91C44.85 55.58 44.14 55.07 43.57 54.79C42.68 54.3 41.91 54.23 36.68 54.05C32.33 53.92 30.44 53.77 29.4 53.43C28.63 53.21 27.35 52.69 26.59 52.29C25.82 51.9 24.54 51.42 23.78 51.19C23.01 50.98 21.73 50.75 20.97 50.68C20.2 50.62 19 50.65 18.28 50.75Z" fill="#219BE0" fill-opacity="1.000000" fill-rule="evenodd"/>
	<path id="Vector" d="M32.39 5.03C32.41 8.25 32.51 9.6 32.74 9.83C32.92 10.01 33.36 10.14 33.71 10.14C34.07 10.14 34.51 10.03 34.66 9.93C34.91 9.8 34.97 8.55 34.91 4.9L34.86 0.05C33.48 -0.08 32.9 0.05 32.69 0.23C32.41 0.48 32.33 1.37 32.39 5.03ZM23.22 7.74C23.22 9.19 23.37 10.62 23.5 10.9C23.65 11.24 24.01 11.41 24.47 11.41C24.85 11.41 25.31 11.26 25.49 11.08C25.69 10.88 25.8 9.81 25.8 7.89C25.8 5.21 25.77 5 25.21 4.64C24.9 4.44 24.59 4.26 24.52 4.26C24.44 4.26 24.11 4.44 23.78 4.64C23.19 5.03 23.16 5.18 23.22 7.74ZM42.4 4.54C42.71 4.41 43.22 4.41 43.52 4.52C44.03 4.7 44.06 4.9 44.11 7.74C44.16 9.88 44.08 10.88 43.85 11.11C43.7 11.29 43.32 11.44 43.04 11.44C42.76 11.41 42.37 11.29 42.19 11.11C41.99 10.88 41.86 9.8 41.84 7.76C41.79 4.82 41.81 4.75 42.4 4.54ZM25.8 14.4C23.75 15.4 23.01 15.94 21.17 17.77C19.43 19.54 18.77 20.41 17.93 22.14C17.34 23.34 16.65 25.05 16.42 25.97C16.11 27.07 15.99 28.58 15.99 30.44C15.99 32.64 16.11 33.66 16.57 35.17C16.88 36.22 17.57 37.88 18.08 38.85C18.62 39.85 19.82 41.48 20.81 42.53C21.78 43.57 23.42 44.93 24.39 45.52C25.36 46.13 27.1 46.95 28.22 47.33C29.75 47.84 30.96 48.04 32.95 48.15C34.97 48.25 36.14 48.15 37.67 47.81C38.82 47.56 40.71 46.84 42.02 46.21C43.83 45.29 44.75 44.6 46.36 42.99C47.84 41.51 48.71 40.33 49.47 38.87C50.06 37.75 50.78 35.91 51.08 34.79C51.42 33.42 51.59 31.93 51.59 30.32C51.59 28.7 51.42 27.21 51.08 25.85C50.78 24.72 50.06 22.88 49.47 21.76C48.73 20.33 47.81 19.13 46.49 17.8C45.44 16.75 43.83 15.45 42.91 14.91C41.99 14.38 40.33 13.66 39.21 13.3C37.7 12.82 36.45 12.61 34.48 12.54C32.67 12.49 31.21 12.56 30.01 12.84C29.01 13.05 27.12 13.76 25.8 14.4ZM0.76 46.77C0.99 46.49 1.86 46.41 4.31 46.44C6.07 46.44 8.6 46.54 9.91 46.61C11.59 46.74 12.33 46.9 12.51 47.18C12.64 47.38 12.77 48.04 12.77 48.66C12.77 49.55 12.84 49.71 13.23 49.58C13.31 49.55 13.46 49.5 13.67 49.43C14.06 49.29 14.64 49.1 15.19 48.91C16.22 48.56 17.65 48.35 19.41 48.25C21.4 48.17 22.53 48.25 23.75 48.56C24.67 48.79 26.38 49.42 27.58 49.99C28.78 50.55 30.27 51.11 30.9 51.26C31.54 51.39 33.48 51.52 35.25 51.52C37.01 51.54 39.54 51.62 40.87 51.72C42.68 51.88 43.65 52.11 44.77 52.62C45.8 53.1 46.51 53.69 48.15 55.81L53.64 53.23C58.54 50.93 59.28 50.65 60.54 50.65C61.38 50.68 62.4 50.88 63.09 51.19C63.73 51.47 64.67 52.18 65.21 52.75C65.87 53.51 66.13 54.02 66.1 54.51C66.03 55.1 64.67 56.07 54.66 62.55C45.67 68.38 42.91 70.04 41.5 70.5C40.02 70.96 39.15 71.06 33.33 71.04L25.54 68.81C21.22 67.59 17.26 66.59 16.65 66.59C15.96 66.59 15.02 66.87 13.94 67.43C12.44 68.17 12.28 68.33 12.15 69.22C12.05 69.76 11.8 70.27 11.54 70.4C11.31 70.52 8.81 70.55 6 70.5C3.19 70.42 0.68 70.27 0.43 70.14C0.05 69.94 0 69.48 0 66.13C0 64.06 0.1 58.95 0.22 54.74C0.38 49.37 0.53 47.02 0.76 46.77ZM26.87 16.6C25.67 17.19 24.57 18 23.11 19.46C21.86 20.69 20.74 22.12 20.25 23.04C19.79 23.88 19.2 25.49 18.9 26.61C18.62 27.74 18.39 29.4 18.39 30.32C18.39 31.24 18.54 32.72 18.74 33.64C18.95 34.56 19.46 36.04 19.89 36.96C20.33 37.88 21.25 39.31 21.91 40.15C22.63 41.02 23.96 42.25 25.05 42.99C26.1 43.68 27.69 44.52 28.6 44.85C29.81 45.29 31.06 45.49 33.08 45.57C35.22 45.67 36.29 45.59 37.55 45.29C38.47 45.03 39.95 44.49 40.84 44.03C41.76 43.57 43.29 42.48 44.29 41.53C45.29 40.59 46.54 39.1 47.07 38.21C47.61 37.32 48.27 35.78 48.61 34.79C49.02 33.41 49.14 32.39 49.14 30.32C49.14 28.02 49.02 27.33 48.38 25.46C47.97 24.26 47.15 22.6 46.61 21.79C46.05 20.94 44.9 19.64 44.06 18.87C43.19 18.11 41.66 17.08 40.48 16.52C39.36 15.99 37.83 15.42 37.09 15.27C36.37 15.12 34.81 14.99 33.64 15.02C32.49 15.02 30.88 15.19 30.06 15.4L30.09 15.4C29.27 15.6 27.84 16.14 26.87 16.6ZM2.45 66.28L2.32 67.87C4.8 67.87 6.46 67.94 7.58 68.07L9.65 68.25C9.71 66.41 9.76 64.77 9.8 63.3L9.8 63.29C9.96 57.96 10.05 54.91 10.11 53.13L10.24 48.96L2.88 48.96L2.73 56.83C2.65 61.15 2.52 65.39 2.45 66.28ZM18.28 50.75C19 50.65 20.2 50.62 20.97 50.68C21.73 50.75 23.01 50.98 23.78 51.19C24.54 51.42 25.82 51.9 26.59 52.29C27.35 52.69 28.63 53.21 29.4 53.43C30.44 53.77 32.33 53.92 36.68 54.05C41.91 54.23 42.68 54.3 43.57 54.79C44.14 55.07 44.85 55.58 45.16 55.91C45.46 56.24 45.92 56.99 46.59 58.57L39.59 58.36C34.02 58.19 32.54 58.21 32.26 58.49C32.08 58.67 31.93 59.08 31.95 59.39C31.95 59.69 32.21 60.13 32.54 60.31C32.97 60.59 34.91 60.71 40.76 60.82C46.77 60.94 48.5 60.92 48.76 60.66C48.94 60.48 49.09 59.85 49.07 58.19L52.08 56.76C53.72 55.96 56.17 54.81 57.5 54.2C58.82 53.59 60.18 53.08 60.51 53.08C60.82 53.08 61.53 53.23 62.09 53.46C62.66 53.66 63.12 53.92 63.12 54.02C63.09 54.12 61.07 55.5 58.57 57.11C56.09 58.7 51.34 61.74 48.04 63.88C43.52 66.79 41.63 67.89 40.38 68.25C39.31 68.56 37.95 68.74 36.55 68.74C34.61 68.71 33.56 68.48 26.08 66.36C18.8 64.29 17.6 64.04 16.24 64.11C15.4 64.19 14.22 64.47 13.64 64.78C13.02 65.08 12.49 65.29 12.41 65.26C12.33 65.24 12.38 62.4 12.67 52.82L13.81 52.21C14.45 51.88 15.42 51.44 15.99 51.26C16.55 51.08 17.6 50.85 18.28 50.75ZM32.97 18.95C33.31 18.75 33.66 18.57 33.79 18.57C33.89 18.57 34.2 18.8 34.48 19.08C34.76 19.36 34.99 19.92 34.99 20.35C34.99 20.97 35.12 21.15 35.63 21.25C35.99 21.33 36.68 21.76 37.21 22.19C37.72 22.65 38.34 23.5 38.59 24.06C38.85 24.62 39.08 25.41 39.08 25.85C39.08 26.28 38.87 26.82 38.62 27.07C38.39 27.33 38.01 27.51 37.8 27.51C37.6 27.51 37.21 27.3 36.96 27.05C36.7 26.82 36.5 26.31 36.52 25.92C36.52 25.49 36.24 24.88 35.02 23.55L34.99 29.04L35.83 29.4C36.27 29.58 37.01 30.06 37.42 30.47C37.85 30.88 38.41 31.72 38.67 32.36C39 33.18 39.08 33.87 39 34.79C38.9 35.55 38.57 36.52 38.13 37.19C37.67 37.93 36.98 38.57 36.19 38.98C35.35 39.44 34.97 39.79 34.99 40.15C34.99 40.43 34.81 40.92 34.61 41.22C34.4 41.56 33.97 41.81 33.66 41.81C33.33 41.81 32.92 41.68 32.74 41.51C32.56 41.33 32.44 40.79 32.44 40.33C32.44 39.62 32.28 39.44 31.29 38.87C30.65 38.52 29.86 37.8 29.5 37.27C29.14 36.75 28.76 35.78 28.66 35.14C28.53 34.25 28.58 33.84 28.86 33.54C29.06 33.31 29.47 33.1 29.75 33.1C30.04 33.1 30.39 33.25 30.55 33.43C30.7 33.61 30.96 34.23 31.11 34.79C31.26 35.35 31.62 36.04 32.46 36.83L32.44 31.34L31.75 31.06C31.34 30.93 30.7 30.5 30.32 30.11C29.91 29.73 29.37 28.99 29.09 28.48C28.81 27.89 28.6 26.97 28.6 26.23C28.6 25.54 28.81 24.52 29.06 24.01C29.29 23.5 29.86 22.76 30.27 22.35C30.7 21.96 31.36 21.48 31.75 21.3C32.33 21.04 32.44 20.84 32.41 20.18C32.39 19.56 32.51 19.26 32.97 18.95ZM31.54 24.6C31.77 24.24 32.08 23.93 32.21 23.93C32.33 23.93 32.44 24.98 32.44 26.23C32.44 27.97 32.36 28.5 32.13 28.4C31.95 28.35 31.62 27.97 31.41 27.61C31.21 27.23 31.03 26.56 31.06 26.1C31.08 25.64 31.29 24.98 31.54 24.6ZM34.99 34.28C34.97 32.1 35.02 31.88 35.4 32.05C35.63 32.16 35.99 32.54 36.17 32.95C36.37 33.33 36.52 33.92 36.52 34.28C36.52 34.63 36.37 35.22 36.17 35.63C35.99 36.01 35.63 36.4 35.4 36.52C35.04 36.68 34.99 36.42 34.99 34.28Z" stroke="#000000" stroke-opacity="0" stroke-width="0.223514"/>
</svg>
