<svg width="80.000000" height="80.000000" viewBox="0 0 80 80" fill="none" xmlns="http://www.w3.org/2000/svg" xmlns:xlink="http://www.w3.org/1999/xlink">
	<desc>
			Created with Pixso.
	</desc>
	<defs/>
	<rect id="Rectangle 34624401" x="0.500000" y="0.500000" rx="39.500000" width="79.000000" height="79.000000" stroke="#FFFFFF" stroke-opacity="1.000000" stroke-width="1.000000"/>
	<path id="Vector" d="M38.41 40.79L39.5 41.87C39.89 42.26 39.89 42.9 39.5 43.29C39.1 43.68 38.47 43.68 38.08 43.29L35.29 40.5C34.9 40.1 34.9 39.47 35.29 39.08L38.08 36.29C38.47 35.9 39.1 35.9 39.5 36.29C39.89 36.68 39.89 37.31 39.5 37.7L38.41 38.79L45 38.79C45.55 38.79 46 39.24 46 39.79C46 40.34 45.55 40.79 45 40.79L38.41 40.79Z" fill="#FFFFFF" fill-opacity="1.000000" fill-rule="evenodd"/>
</svg>
