<svg width="102.250000" height="20.000000" viewBox="0 0 102.25 20" fill="none" xmlns="http://www.w3.org/2000/svg" xmlns:xlink="http://www.w3.org/1999/xlink">
	<desc>
			Created with Pixso.
	</desc>
	<defs/>
	<path id="Vector 26" d="M9.11 3.57L0 9.91L9.11 16.42L10.5 16.42L1.5 9.91L10.5 3.57L9.11 3.57Z" fill="#219BE0" fill-opacity="1.000000" fill-rule="evenodd"/>
	<path id="Vector 27" d="M34.42 0L20.25 9.87L34.42 20L38.25 20L24.25 9.87L38.25 0L34.42 0Z" fill="#219BE0" fill-opacity="1.000000" fill-rule="evenodd"/>
	<path id="Vector 26" d="M93.13 3.57L102.25 9.91L93.13 16.42L91.75 16.42L100.75 9.91L91.75 3.57L93.13 3.57Z" fill="#219BE0" fill-opacity="1.000000" fill-rule="evenodd"/>
	<path id="Vector 27" d="M67.82 0L82 9.87L67.82 20L64 20L78 9.87L64 0L67.82 0Z" fill="#219BE0" fill-opacity="1.000000" fill-rule="evenodd"/>
	<ellipse id="Ellipse 12" cx="51.000000" cy="10.000488" rx="3.000000" ry="2.142857" fill="#219BE0" fill-opacity="1.000000"/>
</svg>
