<svg width="120.000000" height="120.000000" viewBox="0 0 120 120" fill="none" xmlns="http://www.w3.org/2000/svg" xmlns:xlink="http://www.w3.org/1999/xlink">
	<desc>
			Created with Pixso.
	</desc>
	<defs/>
	<circle id="Ellipse 371" cx="60.000000" cy="60.000000" r="60.000000" fill="#219BE0" fill-opacity="1.000000"/>
	<path id="Vector" d="M69.88 48.05C69.88 46.97 69.46 45.94 68.7 45.18C67.94 44.42 66.9 44 65.83 44L54.05 44C52.97 44 51.94 44.42 51.18 45.18C50.42 45.94 50 46.97 50 48.05L50 71.62C50 72.69 50.42 73.72 51.18 74.48C51.94 75.24 52.97 75.67 54.05 75.67L65.83 75.67C66.9 75.67 67.94 75.24 68.7 74.48C69.46 73.72 69.88 72.69 69.88 71.62L69.88 48.05ZM65.83 46.2L65.22 46.2C65.14 46.51 65.05 46.87 64.97 47.2C64.68 48.35 63.65 49.15 62.47 49.15L57.41 49.15C56.22 49.15 55.19 48.35 54.91 47.2C54.82 46.87 54.73 46.51 54.66 46.2L54.05 46.2C53.56 46.2 53.09 46.4 52.74 46.74C52.4 47.09 52.2 47.56 52.2 48.05L52.2 71.62C52.2 72.1 52.4 72.57 52.74 72.92C53.09 73.26 53.56 73.46 54.05 73.46L65.83 73.46C66.32 73.46 66.79 73.26 67.13 72.92C67.48 72.57 67.67 72.1 67.67 71.62L67.67 48.05C67.67 47.56 67.48 47.09 67.13 46.74C66.79 46.4 66.32 46.2 65.83 46.2ZM62.83 46.66L62.94 46.2L56.93 46.2L57.05 46.66C57.09 46.83 57.24 46.94 57.41 46.94L62.47 46.94C62.64 46.94 62.79 46.83 62.83 46.66ZM60.68 71.98L59.2 71.98C58.59 71.98 58.1 71.49 58.1 70.88C58.1 70.27 58.59 69.77 59.2 69.77L60.68 69.77C61.29 69.77 61.78 70.27 61.78 70.88C61.78 71.49 61.29 71.98 60.68 71.98Z" fill="#FFFFFF" fill-opacity="1.000000" fill-rule="evenodd"/>
</svg>
