<svg width="56.000000" height="56.000000" viewBox="0 0 56 56" fill="none" xmlns="http://www.w3.org/2000/svg" xmlns:xlink="http://www.w3.org/1999/xlink">
	<desc>
			Created with Pixso.
	</desc>
	<defs/>
	<rect id="Rectangle 34624389" x="56.000000" y="56.000000" rx="28.000000" width="56.000000" height="56.000000" transform="rotate(180 56.000000 56.000000)" fill="#219BE0" fill-opacity="1.000000"/>
	<rect id="Rectangle 34624390" x="53.000000" y="53.000000" rx="25.000000" width="50.000000" height="50.000000" transform="rotate(180 53.000000 53.000000)" fill="#219BE0" fill-opacity="1.000000"/>
	<path id="Vector" d="M37.88 16.05C37.88 14.97 37.45 13.94 36.7 13.18C35.94 12.42 34.9 12 33.83 12L22.05 12C20.97 12 19.94 12.42 19.18 13.18C18.42 13.94 18 14.97 18 16.05L18 39.62C18 40.69 18.42 41.72 19.18 42.48C19.94 43.24 20.97 43.67 22.05 43.67L33.83 43.67C34.9 43.67 35.94 43.24 36.7 42.48C37.45 41.72 37.88 40.69 37.88 39.62L37.88 16.05ZM33.83 14.21L33.22 14.21C33.14 14.51 33.05 14.87 32.97 15.2C32.68 16.35 31.65 17.15 30.47 17.15L25.41 17.15C24.22 17.15 23.19 16.35 22.9 15.2C22.82 14.87 22.73 14.51 22.66 14.21L22.05 14.21C21.56 14.21 21.09 14.4 20.74 14.74C20.4 15.09 20.2 15.56 20.2 16.05L20.2 39.62C20.2 40.11 20.4 40.57 20.74 40.92C21.09 41.26 21.56 41.46 22.05 41.46L33.83 41.46C34.32 41.46 34.79 41.26 35.13 40.92C35.48 40.57 35.67 40.11 35.67 39.62L35.67 16.05C35.67 15.56 35.48 15.09 35.13 14.74C34.79 14.4 34.32 14.21 33.83 14.21ZM30.83 14.66L30.94 14.21L24.93 14.21L25.05 14.66C25.09 14.83 25.24 14.94 25.41 14.94L30.47 14.94C30.64 14.94 30.79 14.83 30.83 14.66ZM28.68 39.98L27.2 39.98C26.59 39.98 26.1 39.49 26.1 38.88C26.1 38.27 26.59 37.77 27.2 37.77L28.68 37.77C29.29 37.77 29.78 38.27 29.78 38.88C29.78 39.49 29.29 39.98 28.68 39.98Z" fill="#FFFFFF" fill-opacity="1.000000" fill-rule="evenodd"/>
</svg>
