<svg width="19.968262" height="20.000000" viewBox="0 0 19.9683 20" fill="none" xmlns="http://www.w3.org/2000/svg" xmlns:xlink="http://www.w3.org/1999/xlink">
	<desc>
			Created with Pixso.
	</desc>
	<defs/>
	<path id="Vector" d="M10.92 0.04C11.12 0.06 11.45 0.11 11.65 0.15C11.86 0.19 12.16 0.26 12.32 0.3C12.49 0.34 12.77 0.43 12.94 0.48C13.12 0.54 13.35 0.63 13.47 0.67C13.58 0.72 13.75 0.79 13.83 0.83C13.92 0.87 14.16 0.98 14.36 1.08C14.56 1.19 14.9 1.39 15.12 1.53C15.34 1.67 15.61 1.85 15.74 1.95C15.86 2.04 16.1 2.23 16.26 2.37C16.43 2.52 16.7 2.77 16.86 2.94C17.03 3.11 17.28 3.39 17.43 3.57C17.57 3.74 17.82 4.07 17.97 4.3C18.13 4.53 18.34 4.86 18.44 5.04C18.54 5.23 18.69 5.51 18.77 5.68C18.84 5.84 18.94 6.07 18.98 6.19C19.03 6.3 19.11 6.51 19.16 6.66C19.21 6.81 19.3 7.12 19.36 7.35C19.42 7.58 19.49 7.93 19.53 8.13C19.57 8.33 19.61 8.65 19.63 8.84C19.65 9.03 19.66 9.48 19.66 9.83C19.66 10.17 19.65 10.62 19.63 10.81C19.61 11 19.56 11.35 19.52 11.59C19.47 11.82 19.4 12.15 19.36 12.32C19.31 12.49 19.23 12.76 19.17 12.94C19.11 13.11 19.03 13.35 18.98 13.46C18.94 13.58 18.83 13.84 18.73 14.04C18.63 14.24 18.5 14.5 18.43 14.62L18.3 14.85C19.66 18.92 19.97 19.89 19.96 19.94C19.95 20.01 19.94 20.01 19.78 19.96C19.69 19.94 19.44 19.88 19.23 19.82C19.02 19.76 18.72 19.68 18.57 19.64C18.41 19.6 18.14 19.53 17.97 19.49C17.8 19.44 17.52 19.37 17.35 19.32C17.18 19.28 16.88 19.2 16.69 19.15C16.5 19.1 15.91 18.94 15.38 18.8L14.42 18.55C13.89 18.8 13.63 18.92 13.5 18.97C13.37 19.02 13.12 19.11 12.94 19.17C12.77 19.23 12.49 19.31 12.32 19.35C12.16 19.4 11.83 19.47 11.59 19.51C11.36 19.56 11 19.61 10.81 19.63C10.62 19.65 10.18 19.66 9.83 19.66C9.48 19.66 9.03 19.65 8.84 19.63C8.65 19.61 8.33 19.56 8.13 19.53C7.93 19.49 7.58 19.41 7.35 19.35C7.12 19.3 6.82 19.2 6.67 19.15C6.52 19.1 6.3 19.02 6.19 18.98C6.08 18.94 5.85 18.84 5.68 18.76C5.52 18.69 5.23 18.54 5.05 18.44C4.86 18.33 4.53 18.13 4.31 17.98C4.09 17.83 3.75 17.58 3.57 17.42C3.38 17.26 3.06 16.97 2.87 16.78C2.68 16.59 2.39 16.29 2.24 16.1C2.09 15.92 1.83 15.57 1.67 15.32C1.5 15.08 1.3 14.75 1.21 14.59C1.13 14.44 1.01 14.21 0.96 14.1C0.9 13.98 0.83 13.83 0.8 13.75C0.76 13.67 0.7 13.51 0.65 13.4C0.61 13.29 0.53 13.06 0.47 12.91C0.42 12.75 0.34 12.49 0.3 12.32C0.26 12.15 0.19 11.82 0.14 11.57C0.1 11.33 0.05 10.94 0.03 10.72C0.01 10.49 0 10.09 0 9.83C0 9.56 0.01 9.16 0.03 8.94C0.05 8.71 0.07 8.44 0.09 8.35C0.11 8.25 0.15 8.05 0.17 7.9C0.2 7.75 0.26 7.48 0.32 7.28C0.37 7.09 0.45 6.83 0.49 6.7C0.54 6.57 0.61 6.37 0.65 6.25C0.7 6.14 0.76 5.98 0.8 5.9C0.83 5.82 0.94 5.59 1.05 5.38C1.15 5.17 1.35 4.82 1.49 4.6C1.63 4.38 1.8 4.13 1.86 4.04C1.92 3.95 2.1 3.73 2.25 3.55C2.4 3.37 2.68 3.07 2.86 2.88C3.04 2.7 3.35 2.41 3.55 2.24C3.75 2.08 4.03 1.86 4.17 1.77C4.31 1.67 4.55 1.51 4.71 1.42C4.87 1.32 5.17 1.15 5.38 1.05C5.59 0.94 5.83 0.83 5.9 0.79C5.98 0.76 6.14 0.69 6.25 0.65C6.37 0.61 6.59 0.52 6.75 0.47C6.91 0.42 7.22 0.33 7.42 0.28C7.63 0.23 7.96 0.16 8.16 0.12C8.36 0.09 8.69 0.04 8.89 0.02C9.09 0.01 9.55 0 9.91 0C10.27 0 10.72 0.02 10.92 0.04Z" fill="#2CB742" fill-opacity="1.000000" fill-rule="nonzero"/>
	<path id="Vector" d="M11.65 0.15C11.86 0.19 12.16 0.26 12.32 0.3C12.49 0.34 12.77 0.43 12.94 0.48C13.12 0.54 13.35 0.63 13.47 0.67C13.58 0.72 13.75 0.79 13.83 0.83C13.92 0.87 14.16 0.98 14.36 1.08C14.56 1.19 14.9 1.39 15.12 1.53C15.34 1.67 15.61 1.85 15.74 1.95C15.86 2.04 16.1 2.23 16.26 2.37C16.43 2.52 16.7 2.77 16.86 2.94C17.03 3.11 17.28 3.39 17.43 3.57C17.57 3.74 17.82 4.07 17.97 4.3C18.13 4.53 18.34 4.86 18.44 5.04C18.54 5.23 18.69 5.51 18.77 5.68C18.84 5.84 18.94 6.07 18.98 6.19C19.03 6.3 19.11 6.51 19.16 6.66C19.21 6.81 19.3 7.12 19.36 7.35C19.42 7.58 19.49 7.93 19.53 8.13C19.57 8.33 19.61 8.65 19.63 8.84C19.65 9.03 19.66 9.48 19.66 9.83C19.66 10.17 19.65 10.62 19.63 10.81C19.61 11 19.56 11.35 19.52 11.59C19.47 11.82 19.4 12.15 19.36 12.32C19.31 12.49 19.23 12.76 19.17 12.94C19.11 13.11 19.03 13.35 18.98 13.46C18.94 13.58 18.83 13.84 18.73 14.04C18.63 14.24 18.5 14.5 18.43 14.62L18.3 14.85C19.66 18.92 19.97 19.89 19.96 19.94C19.95 20.01 19.94 20.01 19.78 19.96C19.69 19.94 19.44 19.88 19.23 19.82C19.02 19.76 18.72 19.68 18.57 19.64C18.41 19.6 18.14 19.53 17.97 19.49C17.8 19.44 17.52 19.37 17.35 19.32C17.18 19.28 16.88 19.2 16.69 19.15C16.5 19.1 15.91 18.94 15.38 18.8L14.42 18.55C13.89 18.8 13.63 18.92 13.5 18.97C13.37 19.02 13.12 19.11 12.94 19.17C12.77 19.23 12.49 19.31 12.32 19.35C12.16 19.4 11.83 19.47 11.59 19.51C11.36 19.56 11 19.61 10.81 19.63C10.62 19.65 10.18 19.66 9.83 19.66C9.48 19.66 9.03 19.65 8.84 19.63C8.65 19.61 8.33 19.56 8.13 19.53C7.93 19.49 7.58 19.41 7.35 19.35C7.12 19.3 6.82 19.2 6.67 19.15C6.52 19.1 6.3 19.02 6.19 18.98C6.08 18.94 5.85 18.84 5.68 18.76C5.52 18.69 5.23 18.54 5.05 18.44C4.86 18.33 4.53 18.13 4.31 17.98C4.09 17.83 3.75 17.58 3.57 17.42C3.38 17.26 3.06 16.97 2.87 16.78C2.68 16.59 2.39 16.29 2.24 16.1C2.09 15.92 1.83 15.57 1.67 15.32C1.5 15.08 1.3 14.75 1.21 14.59C1.13 14.44 1.01 14.21 0.96 14.1C0.9 13.98 0.83 13.83 0.8 13.75C0.76 13.67 0.7 13.51 0.65 13.4C0.61 13.29 0.53 13.06 0.47 12.91C0.42 12.75 0.34 12.49 0.3 12.32C0.26 12.15 0.19 11.82 0.14 11.57C0.1 11.33 0.05 10.94 0.03 10.72C0.01 10.49 0 10.09 0 9.83C0 9.56 0.01 9.16 0.03 8.94C0.05 8.71 0.07 8.44 0.09 8.35C0.11 8.25 0.15 8.05 0.17 7.9C0.2 7.75 0.26 7.48 0.32 7.28C0.37 7.09 0.45 6.83 0.49 6.7C0.54 6.57 0.61 6.37 0.65 6.25C0.7 6.14 0.76 5.98 0.8 5.9C0.83 5.82 0.94 5.59 1.05 5.38C1.15 5.17 1.35 4.82 1.49 4.6C1.63 4.38 1.8 4.13 1.86 4.04C1.92 3.95 2.1 3.73 2.25 3.55C2.4 3.37 2.68 3.07 2.86 2.88C3.04 2.7 3.35 2.41 3.55 2.24C3.75 2.08 4.03 1.86 4.17 1.77C4.31 1.67 4.55 1.51 4.71 1.42C4.87 1.32 5.17 1.15 5.38 1.05C5.59 0.94 5.83 0.83 5.9 0.79C5.98 0.76 6.14 0.69 6.25 0.65C6.37 0.61 6.59 0.52 6.75 0.47C6.91 0.42 7.22 0.33 7.42 0.28C7.63 0.23 7.96 0.16 8.16 0.12C8.36 0.09 8.69 0.04 8.89 0.02C9.09 0.01 9.55 0 9.91 0C10.27 0 10.72 0.02 10.92 0.04C11.12 0.06 11.45 0.11 11.65 0.15Z" stroke="#000000" stroke-opacity="0" stroke-width="0.060520"/>
	<path id="Vector" d="M5.89 4.23C5.76 4.28 5.67 4.36 5.33 4.7C5.1 4.93 4.85 5.21 4.76 5.32C4.68 5.44 4.57 5.6 4.52 5.69C4.47 5.77 4.39 5.93 4.35 6.04C4.31 6.15 4.25 6.33 4.22 6.45C4.19 6.57 4.17 6.78 4.17 6.95C4.17 7.12 4.19 7.36 4.22 7.5C4.25 7.64 4.31 7.87 4.36 8.01C4.41 8.15 4.51 8.38 4.59 8.51C4.66 8.65 4.8 8.88 4.89 9.02C4.99 9.17 5.2 9.44 5.37 9.64C5.55 9.87 6.38 10.72 7.56 11.89C8.61 12.94 9.58 13.88 9.74 14.01C9.91 14.15 10.15 14.33 10.29 14.42C10.43 14.52 10.66 14.65 10.8 14.72C10.94 14.8 11.16 14.9 11.3 14.95C11.44 15 11.67 15.06 11.81 15.09C11.95 15.12 12.19 15.14 12.36 15.14C12.53 15.14 12.74 15.12 12.86 15.09C12.98 15.06 13.16 15.01 13.27 14.96C13.38 14.92 13.54 14.85 13.62 14.79C13.71 14.74 13.87 14.63 13.99 14.55C14.1 14.46 14.38 14.21 14.61 13.98C14.96 13.63 15.03 13.55 15.08 13.41C15.11 13.32 15.14 13.18 15.14 13.1C15.14 13.02 15.13 12.91 15.11 12.86C15.1 12.8 15.04 12.68 14.98 12.59C14.92 12.5 14.77 12.32 14.66 12.21C14.54 12.09 14.32 11.89 14.17 11.77C14.02 11.65 13.72 11.44 13.51 11.3C13.28 11.14 13.07 11.03 12.97 11C12.88 10.97 12.77 10.94 12.72 10.94C12.67 10.94 12.58 10.96 12.52 10.97C12.43 11 12.35 11.07 12.05 11.42C11.75 11.77 11.65 11.86 11.51 11.94C11.41 12 11.25 12.06 11.15 12.09C11.02 12.12 10.92 12.12 10.8 12.11C10.7 12.1 10.55 12.05 10.45 12.01C10.28 11.93 10.13 11.78 8.83 10.48C7.53 9.18 7.39 9.03 7.3 8.86C7.26 8.76 7.21 8.61 7.2 8.51C7.19 8.39 7.2 8.29 7.23 8.16C7.25 8.06 7.32 7.9 7.37 7.8C7.45 7.66 7.54 7.56 7.89 7.26C8.24 6.96 8.32 6.88 8.34 6.79C8.35 6.73 8.37 6.64 8.37 6.59C8.37 6.55 8.34 6.43 8.32 6.34C8.29 6.25 8.17 6.03 8.02 5.8C7.88 5.59 7.66 5.3 7.54 5.14C7.42 4.99 7.22 4.77 7.11 4.65C6.99 4.54 6.82 4.39 6.72 4.33C6.63 4.28 6.51 4.21 6.46 4.2C6.4 4.18 6.29 4.17 6.2 4.17C6.12 4.17 5.98 4.2 5.89 4.23Z" fill="#000000" fill-opacity="1.000000" fill-rule="nonzero"/>
	<path id="Vector" d="M5.33 4.7C5.1 4.93 4.85 5.21 4.76 5.32C4.68 5.44 4.57 5.6 4.52 5.69C4.47 5.77 4.39 5.93 4.35 6.04C4.31 6.15 4.25 6.33 4.22 6.45C4.19 6.57 4.17 6.78 4.17 6.95C4.17 7.12 4.19 7.36 4.22 7.5C4.25 7.64 4.31 7.87 4.36 8.01C4.41 8.15 4.51 8.38 4.59 8.51C4.66 8.65 4.8 8.88 4.89 9.02C4.99 9.17 5.2 9.44 5.37 9.64C5.55 9.87 6.38 10.72 7.56 11.89C8.61 12.94 9.58 13.88 9.74 14.01C9.91 14.15 10.15 14.33 10.29 14.42C10.43 14.52 10.66 14.65 10.8 14.72C10.94 14.8 11.16 14.9 11.3 14.95C11.44 15 11.67 15.06 11.81 15.09C11.95 15.12 12.19 15.14 12.36 15.14C12.53 15.14 12.74 15.12 12.86 15.09C12.98 15.06 13.16 15.01 13.27 14.96C13.38 14.92 13.54 14.85 13.62 14.79C13.71 14.74 13.87 14.63 13.99 14.55C14.1 14.46 14.38 14.21 14.61 13.98C14.96 13.63 15.03 13.55 15.08 13.41C15.11 13.32 15.14 13.18 15.14 13.1C15.14 13.02 15.13 12.91 15.11 12.86C15.1 12.8 15.04 12.68 14.98 12.59C14.92 12.5 14.77 12.32 14.66 12.21C14.54 12.09 14.32 11.89 14.17 11.77C14.02 11.65 13.72 11.44 13.51 11.3C13.28 11.14 13.07 11.03 12.97 11C12.88 10.97 12.77 10.94 12.72 10.94C12.67 10.94 12.58 10.96 12.52 10.97C12.43 11 12.35 11.07 12.05 11.42C11.75 11.77 11.65 11.86 11.51 11.94C11.41 12 11.25 12.06 11.15 12.09C11.02 12.12 10.92 12.12 10.8 12.11C10.7 12.1 10.55 12.05 10.45 12.01C10.28 11.93 10.13 11.78 8.83 10.48C7.53 9.18 7.39 9.03 7.3 8.86C7.26 8.76 7.21 8.61 7.2 8.51C7.19 8.39 7.2 8.29 7.23 8.16C7.25 8.06 7.32 7.9 7.37 7.8C7.45 7.66 7.54 7.56 7.89 7.26C8.24 6.96 8.32 6.88 8.34 6.79C8.35 6.73 8.37 6.64 8.37 6.59C8.37 6.55 8.34 6.43 8.32 6.34C8.29 6.25 8.17 6.03 8.02 5.8C7.88 5.59 7.66 5.3 7.54 5.14C7.42 4.99 7.22 4.77 7.11 4.65C6.99 4.54 6.82 4.39 6.72 4.33C6.63 4.28 6.51 4.21 6.46 4.2C6.4 4.18 6.29 4.17 6.2 4.17C6.12 4.17 5.98 4.2 5.89 4.23C5.76 4.28 5.67 4.36 5.33 4.7Z" stroke="#000000" stroke-opacity="0" stroke-width="0.053531"/>
</svg>
