<svg width="180.800049" height="40.000000" viewBox="0 0 180.8 40" fill="none" xmlns="http://www.w3.org/2000/svg" xmlns:xlink="http://www.w3.org/1999/xlink">
	<desc>
			Created with Pixso.
	</desc>
	<defs/>
	<rect id="Rectangle 34624395" rx="20.000000" width="180.800003" height="40.000000" fill="#168728" fill-opacity="1.000000"/>
	<rect id="Rectangle 34624395" x="0.800049" y="0.799805" rx="19.200001" width="179.199997" height="38.400002" stroke="#168728" stroke-opacity="1.000000" stroke-width="1.600000"/>
	<path id="WhatsApp" d="M79.06 17.61Q78.08 16.94 76.64 16.94Q75.64 16.94 74.83 17.26Q74.12 17.53 73.62 18.01Q73.54 18.08 73.46 18.16L73.46 13.33L71.23 13.33L71.23 26.59L73.46 26.59L73.46 21.77Q73.46 20.42 74.13 19.68Q74.15 19.66 74.18 19.64Q74.33 19.47 74.52 19.34Q75.17 18.89 76.12 18.89Q77.04 18.89 77.6 19.34Q77.71 19.42 77.8 19.53Q78.39 20.16 78.39 21.41L78.39 26.59L80.62 26.59L80.62 21.13Q80.62 19.15 79.64 18.11Q79.59 18.05 79.53 18Q79.31 17.78 79.06 17.61ZM63.34 26.59L67.49 14.08L65.27 14.08L62.07 23.65L58.91 14.08L56.77 14.08L53.53 23.59L50.42 14.08L48.01 14.08L52.16 26.59L54.64 26.59L57.78 17.34L60.88 26.59L63.34 26.59ZM119.09 26.59L120.32 23.7L126.58 23.7L127.83 26.59L130.26 26.59L124.61 14.08L122.32 14.08L116.69 26.59L119.09 26.59ZM102.67 26.56Q103.24 26.4 103.63 26.08L103 24.49Q102.94 24.54 102.87 24.58Q102.41 24.88 101.75 24.88Q101.19 24.88 100.86 24.6Q100.81 24.56 100.77 24.51Q100.43 24.15 100.43 23.45L100.43 18.91L102.98 18.91L102.98 17.12L100.43 17.12L100.43 14.94L98.2 14.94L98.2 17.12L96.62 17.12L96.62 18.91L98.2 18.91L98.2 23.5Q98.2 24.94 98.91 25.75Q98.98 25.83 99.05 25.9Q99.1 25.94 99.14 25.98Q99.99 26.72 101.48 26.72Q102.11 26.72 102.67 26.56ZM123.45 16.41L125.81 21.88L121.11 21.88L123.45 16.41ZM92.13 17.96Q91.01 16.94 88.9 16.94Q87.72 16.94 86.66 17.25Q85.61 17.55 84.86 18.12L85.74 19.75Q86.27 19.3 87.05 19.05Q87.62 18.87 88.2 18.82Q88.41 18.8 88.63 18.8Q89.81 18.8 90.41 19.34Q90.53 19.44 90.62 19.57Q91.01 20.07 91.01 20.87L91.01 21.02L88.55 21.02Q86.49 21.02 85.53 21.79Q85.11 22.14 84.87 22.58Q84.57 23.14 84.57 23.86Q84.57 24.39 84.75 24.84Q84.85 25.1 85.01 25.34Q85.06 25.41 85.12 25.49Q85.55 26.03 86.25 26.35Q87.06 26.72 88.13 26.72Q89.2 26.72 89.96 26.39Q90.58 26.12 90.97 25.66Q91.06 25.55 91.13 25.43L91.13 26.59L93.24 26.59L93.24 21Q93.24 19.15 92.32 18.15Q92.23 18.05 92.13 17.96ZM108.64 26.58Q109.41 26.72 110.21 26.72Q112.2 26.72 113.37 25.92Q114.02 25.46 114.31 24.84Q114.53 24.35 114.53 23.77Q114.53 22.79 114.04 22.24Q114.02 22.22 114 22.2Q113.75 21.93 113.44 21.74Q113.12 21.53 112.74 21.41Q112.01 21.18 110.87 21Q109.72 20.8 109.18 20.58Q108.86 20.45 108.73 20.21Q108.63 20.04 108.63 19.82Q108.63 19.67 108.68 19.54Q108.79 19.25 109.14 19.05Q109.65 18.75 110.63 18.75Q111.79 18.75 112.76 19.16Q113.08 19.29 113.37 19.46L114.23 17.77Q113.6 17.39 112.62 17.17Q111.63 16.94 110.65 16.94L110.65 16.94Q108.72 16.94 107.59 17.76Q106.98 18.19 106.7 18.78Q106.45 19.29 106.45 19.93Q106.45 20.91 106.94 21.48Q106.97 21.52 107 21.55Q107.32 21.89 107.71 22.11Q107.98 22.26 108.28 22.36Q109.02 22.59 110.21 22.77Q111.33 22.95 111.84 23.15Q112.13 23.26 112.26 23.47Q112.35 23.63 112.35 23.84Q112.35 24.07 112.25 24.25Q111.91 24.9 110.35 24.9Q109.47 24.9 108.57 24.64Q107.67 24.38 107.03 23.95L106.17 25.65Q106.83 26.11 107.93 26.42Q108.28 26.51 108.64 26.58ZM140.98 17.44Q139.96 16.94 138.71 16.94Q137.73 16.94 136.91 17.28Q136.48 17.46 136.13 17.74Q135.81 17.98 135.55 18.3L135.55 17.05L133.42 17.05L133.42 30.06L135.66 30.06L135.66 25.43Q136.02 25.86 136.48 26.14Q137.41 26.72 138.71 26.72Q139.98 26.72 141 26.22Q141.11 26.17 141.21 26.11Q141.69 25.84 142.09 25.47Q142.58 25.01 142.93 24.39Q142.95 24.34 142.98 24.3Q143.55 23.21 143.55 21.82Q143.55 20.43 142.97 19.34Q142.95 19.31 142.93 19.27Q142.59 18.67 142.11 18.21Q141.71 17.83 141.21 17.55Q141.09 17.49 140.98 17.44ZM155.03 17.44Q154.01 16.94 152.76 16.94Q151.78 16.94 150.96 17.28Q150.53 17.46 150.17 17.74Q149.86 17.98 149.59 18.3L149.59 17.05L147.47 17.05L147.47 30.06L149.7 30.06L149.7 25.43Q150.07 25.86 150.53 26.14Q151.46 26.72 152.76 26.72Q154.03 26.72 155.05 26.22Q155.15 26.17 155.25 26.11Q155.74 25.84 156.13 25.47Q156.63 25.01 156.98 24.39Q157 24.34 157.02 24.3Q157.6 23.21 157.6 21.82Q157.6 20.43 157.02 19.34Q157 19.31 156.98 19.27Q156.64 18.67 156.16 18.21Q155.76 17.83 155.25 17.55Q155.14 17.49 155.03 17.44ZM139.84 24.48Q139.24 24.81 138.46 24.81Q137.82 24.81 137.29 24.58Q137.15 24.52 137.01 24.44Q136.79 24.31 136.6 24.15Q136.24 23.84 136 23.4Q135.62 22.72 135.62 21.82Q135.62 20.93 136 20.25Q136.25 19.79 136.62 19.48Q136.8 19.32 137.01 19.2Q137.15 19.13 137.29 19.07Q137.82 18.84 138.46 18.84Q139.23 18.84 139.83 19.16Q140.19 19.35 140.49 19.66Q140.67 19.85 140.81 20.06Q141.28 20.79 141.28 21.82Q141.28 22.87 140.8 23.59Q140.67 23.8 140.49 23.99Q140.19 24.29 139.84 24.48ZM153.89 24.48Q153.28 24.81 152.51 24.81Q151.87 24.81 151.33 24.58Q151.19 24.52 151.06 24.44Q150.84 24.31 150.65 24.15Q150.29 23.84 150.04 23.4Q149.67 22.72 149.67 21.82Q149.67 20.93 150.04 20.25Q150.3 19.79 150.67 19.48Q150.85 19.32 151.06 19.2Q151.19 19.13 151.33 19.07Q151.87 18.84 152.51 18.84Q153.28 18.84 153.88 19.16Q154.24 19.35 154.54 19.66Q154.72 19.85 154.86 20.06Q155.33 20.79 155.33 21.82Q155.33 22.87 154.85 23.59Q154.71 23.8 154.54 23.99Q154.24 24.29 153.89 24.48ZM89.9 24.81Q89.32 25.09 88.6 25.09Q87.74 25.09 87.25 24.74Q87.02 24.56 86.9 24.33Q86.77 24.08 86.77 23.77Q86.77 23.39 86.95 23.12Q87.36 22.5 88.7 22.5L91.01 22.5L91.01 23.61Q90.87 23.98 90.63 24.26Q90.4 24.52 90.09 24.71Q90 24.76 89.9 24.81Z" fill="#FFFFFF" fill-opacity="1.000000" fill-rule="evenodd"/>
	<path id="Vector" d="M21.86 9.25C22.08 9.28 22.45 9.34 22.67 9.38C22.9 9.42 23.24 9.5 23.42 9.54C23.61 9.59 23.92 9.69 24.12 9.75C24.31 9.82 24.58 9.91 24.71 9.97C24.83 10.02 25.02 10.09 25.12 10.14C25.22 10.18 25.48 10.31 25.7 10.43C25.93 10.54 26.31 10.77 26.56 10.92C26.81 11.08 27.12 11.29 27.25 11.39C27.39 11.5 27.66 11.71 27.84 11.87C28.03 12.03 28.33 12.32 28.52 12.51C28.7 12.7 28.99 13.01 29.15 13.21C29.31 13.41 29.59 13.77 29.76 14.03C29.93 14.29 30.17 14.66 30.28 14.87C30.4 15.07 30.57 15.4 30.65 15.58C30.74 15.77 30.85 16.02 30.9 16.15C30.94 16.28 31.03 16.52 31.09 16.69C31.15 16.85 31.25 17.2 31.31 17.45C31.38 17.71 31.47 18.1 31.51 18.33C31.55 18.55 31.6 18.91 31.62 19.13C31.64 19.34 31.66 19.84 31.66 20.23C31.66 20.62 31.64 21.12 31.62 21.34C31.6 21.55 31.54 21.95 31.49 22.21C31.44 22.47 31.36 22.84 31.31 23.03C31.26 23.21 31.17 23.53 31.1 23.72C31.04 23.92 30.94 24.18 30.89 24.31C30.85 24.44 30.72 24.73 30.61 24.95C30.5 25.18 30.35 25.47 30.27 25.61L30.13 25.86C31.66 30.43 32.01 31.52 31.99 31.58C31.98 31.66 31.97 31.66 31.79 31.61C31.69 31.58 31.41 31.51 31.17 31.44C30.94 31.38 30.6 31.29 30.43 31.25C30.25 31.2 29.95 31.12 29.76 31.07C29.57 31.02 29.25 30.94 29.06 30.89C28.87 30.83 28.54 30.75 28.32 30.69C28.11 30.64 27.45 30.46 26.85 30.3L25.78 30.02C25.18 30.3 24.89 30.43 24.74 30.49C24.6 30.55 24.31 30.65 24.12 30.71C23.92 30.78 23.61 30.87 23.42 30.92C23.24 30.97 22.87 31.05 22.6 31.1C22.34 31.15 21.94 31.21 21.73 31.23C21.52 31.25 21.02 31.26 20.63 31.26C20.23 31.26 19.73 31.25 19.52 31.23C19.31 31.21 18.94 31.16 18.72 31.12C18.49 31.07 18.1 30.99 17.85 30.92C17.59 30.86 17.25 30.75 17.08 30.7C16.91 30.64 16.67 30.55 16.54 30.5C16.42 30.45 16.16 30.34 15.97 30.26C15.79 30.17 15.47 30 15.26 29.89C15.06 29.78 14.68 29.54 14.43 29.38C14.19 29.21 13.81 28.93 13.6 28.75C13.39 28.57 13.04 28.25 12.82 28.04C12.61 27.82 12.29 27.48 12.11 27.27C11.94 27.06 11.65 26.67 11.47 26.4C11.29 26.12 11.06 25.75 10.96 25.58C10.86 25.4 10.74 25.15 10.67 25.03C10.61 24.9 10.53 24.72 10.49 24.63C10.45 24.54 10.38 24.37 10.33 24.24C10.28 24.11 10.19 23.86 10.13 23.69C10.08 23.51 9.99 23.21 9.94 23.03C9.89 22.84 9.81 22.47 9.76 22.19C9.71 21.92 9.65 21.48 9.63 21.23C9.61 20.98 9.6 20.52 9.6 20.23C9.6 19.94 9.61 19.49 9.63 19.23C9.65 18.98 9.68 18.68 9.71 18.57C9.72 18.47 9.77 18.24 9.79 18.08C9.82 17.91 9.89 17.6 9.95 17.38C10.01 17.16 10.1 16.87 10.15 16.72C10.2 16.58 10.29 16.35 10.33 16.22C10.38 16.09 10.45 15.92 10.49 15.83C10.53 15.74 10.66 15.48 10.78 15.24C10.9 15.01 11.12 14.61 11.27 14.37C11.43 14.12 11.62 13.84 11.68 13.75C11.75 13.65 11.95 13.4 12.12 13.19C12.3 12.99 12.6 12.65 12.81 12.44C13.01 12.24 13.36 11.92 13.59 11.73C13.81 11.54 14.12 11.3 14.28 11.19C14.44 11.08 14.71 10.91 14.89 10.8C15.07 10.69 15.4 10.5 15.64 10.38C15.87 10.27 16.13 10.14 16.22 10.1C16.31 10.06 16.49 9.99 16.62 9.94C16.74 9.89 17 9.8 17.18 9.74C17.36 9.68 17.7 9.58 17.92 9.52C18.16 9.46 18.53 9.39 18.75 9.35C18.98 9.31 19.35 9.26 19.57 9.24C19.8 9.22 20.31 9.2 20.71 9.2C21.12 9.21 21.63 9.23 21.86 9.25Z" fill="#FFFFFF" fill-opacity="1.000000" fill-rule="nonzero"/>
	<path id="Vector" d="M22.67 9.38C22.9 9.42 23.24 9.5 23.42 9.54C23.61 9.59 23.92 9.69 24.12 9.75C24.31 9.82 24.58 9.91 24.71 9.97C24.83 10.02 25.02 10.09 25.12 10.14C25.22 10.18 25.48 10.31 25.7 10.43C25.93 10.54 26.31 10.77 26.56 10.92C26.81 11.08 27.12 11.29 27.25 11.39C27.39 11.5 27.66 11.71 27.84 11.87C28.03 12.03 28.33 12.32 28.52 12.51C28.7 12.7 28.99 13.01 29.15 13.21C29.31 13.41 29.59 13.77 29.76 14.03C29.93 14.29 30.17 14.66 30.28 14.87C30.4 15.07 30.57 15.4 30.65 15.58C30.74 15.77 30.85 16.02 30.9 16.15C30.94 16.28 31.03 16.52 31.09 16.69C31.15 16.85 31.25 17.2 31.31 17.45C31.38 17.71 31.47 18.1 31.51 18.33C31.55 18.55 31.6 18.91 31.62 19.13C31.64 19.34 31.66 19.84 31.66 20.23C31.66 20.62 31.64 21.12 31.62 21.34C31.6 21.55 31.54 21.95 31.49 22.21C31.44 22.47 31.36 22.84 31.31 23.03C31.26 23.21 31.17 23.53 31.1 23.72C31.04 23.92 30.94 24.18 30.89 24.31C30.85 24.44 30.72 24.73 30.61 24.95C30.5 25.18 30.35 25.47 30.27 25.61L30.13 25.86C31.66 30.43 32.01 31.52 31.99 31.58C31.98 31.66 31.97 31.66 31.79 31.61C31.69 31.58 31.41 31.51 31.17 31.44C30.94 31.38 30.6 31.29 30.43 31.25C30.25 31.2 29.95 31.12 29.76 31.07C29.57 31.02 29.25 30.94 29.06 30.89C28.87 30.83 28.54 30.75 28.32 30.69C28.11 30.64 27.45 30.46 26.85 30.3L25.78 30.02C25.18 30.3 24.89 30.43 24.74 30.49C24.6 30.55 24.31 30.65 24.12 30.71C23.92 30.78 23.61 30.87 23.42 30.92C23.24 30.97 22.87 31.05 22.6 31.1C22.34 31.15 21.94 31.21 21.73 31.23C21.52 31.25 21.02 31.26 20.63 31.26C20.23 31.26 19.73 31.25 19.52 31.23C19.31 31.21 18.94 31.16 18.72 31.12C18.49 31.07 18.1 30.99 17.85 30.92C17.59 30.86 17.25 30.75 17.08 30.7C16.91 30.64 16.67 30.55 16.54 30.5C16.42 30.45 16.16 30.34 15.97 30.26C15.79 30.17 15.47 30 15.26 29.89C15.06 29.78 14.68 29.54 14.43 29.38C14.19 29.21 13.81 28.93 13.6 28.75C13.39 28.57 13.04 28.25 12.82 28.04C12.61 27.82 12.29 27.48 12.11 27.27C11.94 27.06 11.65 26.67 11.47 26.4C11.29 26.12 11.06 25.75 10.96 25.58C10.86 25.4 10.74 25.15 10.67 25.03C10.61 24.9 10.53 24.72 10.49 24.63C10.45 24.54 10.38 24.37 10.33 24.24C10.28 24.11 10.19 23.86 10.13 23.69C10.08 23.51 9.99 23.21 9.94 23.03C9.89 22.84 9.81 22.47 9.76 22.19C9.71 21.92 9.65 21.48 9.63 21.23C9.61 20.98 9.6 20.52 9.6 20.23C9.6 19.94 9.61 19.49 9.63 19.23C9.65 18.98 9.68 18.68 9.71 18.57C9.72 18.47 9.77 18.24 9.79 18.08C9.82 17.91 9.89 17.6 9.95 17.38C10.01 17.16 10.1 16.87 10.15 16.72C10.2 16.58 10.29 16.35 10.33 16.22C10.38 16.09 10.45 15.92 10.49 15.83C10.53 15.74 10.66 15.48 10.78 15.24C10.9 15.01 11.12 14.61 11.27 14.37C11.43 14.12 11.62 13.84 11.68 13.75C11.75 13.65 11.95 13.4 12.12 13.19C12.3 12.99 12.6 12.65 12.81 12.44C13.01 12.24 13.36 11.92 13.59 11.73C13.81 11.54 14.12 11.3 14.28 11.19C14.44 11.08 14.71 10.91 14.89 10.8C15.07 10.69 15.4 10.5 15.64 10.38C15.87 10.27 16.13 10.14 16.22 10.1C16.31 10.06 16.49 9.99 16.62 9.94C16.74 9.89 17 9.8 17.18 9.74C17.36 9.68 17.7 9.58 17.92 9.52C18.16 9.46 18.53 9.39 18.75 9.35C18.98 9.31 19.35 9.26 19.57 9.24C19.8 9.22 20.31 9.2 20.71 9.2C21.12 9.21 21.63 9.23 21.86 9.25C22.08 9.28 22.45 9.34 22.67 9.38Z" stroke="#000000" stroke-opacity="0" stroke-width="0.067890"/>
	<path id="Vector" d="M16.21 13.96C16.07 14.01 15.97 14.1 15.58 14.48C15.33 14.74 15.04 15.05 14.94 15.18C14.85 15.31 14.72 15.5 14.67 15.59C14.61 15.69 14.53 15.87 14.48 15.99C14.43 16.11 14.37 16.31 14.34 16.44C14.3 16.58 14.28 16.81 14.28 17.01C14.28 17.19 14.3 17.47 14.34 17.62C14.36 17.78 14.44 18.04 14.49 18.19C14.55 18.35 14.66 18.61 14.75 18.76C14.83 18.91 14.98 19.17 15.09 19.33C15.19 19.49 15.43 19.8 15.62 20.03C15.83 20.28 16.76 21.23 18.08 22.55C19.26 23.72 20.34 24.78 20.53 24.93C20.71 25.08 20.99 25.28 21.15 25.39C21.3 25.49 21.56 25.64 21.71 25.73C21.87 25.81 22.12 25.92 22.28 25.98C22.44 26.04 22.69 26.11 22.85 26.14C23.01 26.17 23.28 26.19 23.46 26.19C23.66 26.19 23.89 26.17 24.03 26.14C24.16 26.11 24.36 26.04 24.49 26C24.61 25.95 24.79 25.86 24.88 25.81C24.98 25.75 25.16 25.62 25.29 25.53C25.42 25.43 25.74 25.15 25.99 24.89C26.38 24.5 26.46 24.41 26.52 24.25C26.55 24.15 26.58 24 26.58 23.9C26.58 23.82 26.57 23.69 26.55 23.63C26.54 23.57 26.47 23.43 26.4 23.33C26.33 23.23 26.17 23.03 26.04 22.9C25.91 22.77 25.67 22.55 25.5 22.41C25.32 22.28 24.99 22.04 24.75 21.88C24.5 21.71 24.26 21.58 24.15 21.54C24.05 21.51 23.92 21.49 23.87 21.49C23.81 21.49 23.71 21.5 23.64 21.52C23.54 21.54 23.46 21.63 23.12 22.02C22.78 22.41 22.67 22.51 22.51 22.61C22.4 22.67 22.22 22.74 22.11 22.77C21.96 22.8 21.85 22.81 21.71 22.79C21.61 22.79 21.44 22.73 21.32 22.68C21.13 22.59 20.96 22.43 19.5 20.97C18.05 19.51 17.89 19.34 17.79 19.15C17.74 19.04 17.69 18.87 17.68 18.76C17.66 18.62 17.67 18.51 17.71 18.37C17.73 18.25 17.81 18.07 17.87 17.96C17.96 17.8 18.06 17.69 18.45 17.36C18.84 17.02 18.93 16.93 18.95 16.83C18.97 16.76 18.99 16.66 18.99 16.61C18.99 16.55 18.96 16.42 18.93 16.32C18.89 16.22 18.76 15.98 18.59 15.72C18.43 15.48 18.19 15.15 18.06 14.98C17.92 14.8 17.7 14.56 17.57 14.43C17.44 14.3 17.25 14.14 17.14 14.07C17.04 14.01 16.9 13.94 16.84 13.92C16.78 13.9 16.65 13.89 16.56 13.89C16.46 13.89 16.31 13.92 16.21 13.96Z" fill="#000000" fill-opacity="1.000000" fill-rule="nonzero"/>
	<path id="Vector" d="M15.58 14.48C15.33 14.74 15.04 15.05 14.94 15.18C14.85 15.31 14.72 15.5 14.67 15.59C14.61 15.69 14.53 15.87 14.48 15.99C14.43 16.11 14.37 16.31 14.34 16.44C14.3 16.58 14.28 16.81 14.28 17.01C14.28 17.19 14.3 17.47 14.34 17.62C14.36 17.78 14.44 18.04 14.49 18.19C14.55 18.35 14.66 18.61 14.75 18.76C14.83 18.91 14.98 19.17 15.09 19.33C15.19 19.49 15.43 19.8 15.62 20.03C15.83 20.28 16.76 21.23 18.08 22.55C19.26 23.72 20.34 24.78 20.53 24.93C20.71 25.08 20.99 25.28 21.15 25.39C21.3 25.49 21.56 25.64 21.71 25.73C21.87 25.81 22.12 25.92 22.28 25.98C22.44 26.04 22.69 26.11 22.85 26.14C23.01 26.17 23.28 26.19 23.46 26.19C23.66 26.19 23.89 26.17 24.03 26.14C24.16 26.11 24.36 26.04 24.49 26C24.61 25.95 24.79 25.86 24.88 25.81C24.98 25.75 25.16 25.62 25.29 25.53C25.42 25.43 25.74 25.15 25.99 24.89C26.38 24.5 26.46 24.41 26.52 24.25C26.55 24.15 26.58 24 26.58 23.9C26.58 23.82 26.57 23.69 26.55 23.63C26.54 23.57 26.47 23.43 26.4 23.33C26.33 23.23 26.17 23.03 26.04 22.9C25.91 22.77 25.67 22.55 25.5 22.41C25.32 22.28 24.99 22.04 24.75 21.88C24.5 21.71 24.26 21.58 24.15 21.54C24.05 21.51 23.92 21.49 23.87 21.49C23.81 21.49 23.71 21.5 23.64 21.52C23.54 21.54 23.46 21.63 23.12 22.02C22.78 22.41 22.67 22.51 22.51 22.61C22.4 22.67 22.22 22.74 22.11 22.77C21.96 22.8 21.85 22.81 21.71 22.79C21.61 22.79 21.44 22.73 21.32 22.68C21.13 22.59 20.96 22.43 19.5 20.97C18.05 19.51 17.89 19.34 17.79 19.15C17.74 19.04 17.69 18.87 17.68 18.76C17.66 18.62 17.67 18.51 17.71 18.37C17.73 18.25 17.81 18.07 17.87 17.96C17.96 17.8 18.06 17.69 18.45 17.36C18.84 17.02 18.93 16.93 18.95 16.83C18.97 16.76 18.99 16.66 18.99 16.61C18.99 16.55 18.96 16.42 18.93 16.32C18.89 16.22 18.76 15.98 18.59 15.72C18.43 15.48 18.19 15.15 18.06 14.98C17.92 14.8 17.7 14.56 17.57 14.43C17.44 14.3 17.25 14.14 17.14 14.07C17.04 14.01 16.9 13.94 16.84 13.92C16.78 13.9 16.65 13.89 16.56 13.89C16.46 13.89 16.31 13.92 16.21 13.96C16.07 14.01 15.97 14.1 15.58 14.48Z" stroke="#000000" stroke-opacity="0" stroke-width="0.060050"/>
</svg>
