<svg width="40.604248" height="40.000000" viewBox="0 0 40.6042 40" fill="none" xmlns="http://www.w3.org/2000/svg" xmlns:xlink="http://www.w3.org/1999/xlink">
	<desc>
			Created with Pixso.
	</desc>
	<defs/>
	<path id="Vector" d="M22.26 0.06C21.68 0.02 20.7 0 20.07 0C19.44 0 18.58 0.03 18.16 0.06C17.73 0.09 17.04 0.16 16.61 0.22C16.19 0.28 15.47 0.4 15.01 0.49C14.54 0.58 13.85 0.75 13.46 0.85C13.08 0.97 12.43 1.18 12.02 1.33C11.62 1.48 10.92 1.78 10.48 1.99C10.04 2.21 9.32 2.62 8.87 2.92C8.43 3.21 7.8 3.67 7.47 3.96C7.14 4.23 6.65 4.68 6.39 4.95C6.13 5.23 5.78 5.62 5.61 5.82C5.44 6.02 5.07 6.53 4.79 6.94C4.51 7.35 4.12 8.04 3.91 8.45C3.7 8.86 3.4 9.53 3.25 9.94C3.08 10.35 2.86 10.99 2.76 11.38C2.64 11.77 2.47 12.46 2.38 12.92C2.29 13.38 2.17 14.13 2.11 14.6C2.05 15.06 1.99 15.93 1.96 16.54L1.92 17.65C1.5 17.92 1.2 18.18 1 18.39C0.79 18.61 0.54 18.95 0.44 19.15C0.34 19.35 0.2 19.75 0.13 20.03C0.01 20.47 0 20.76 0 22.83C0 24.74 0.02 25.18 0.1 25.53C0.16 25.77 0.26 26.06 0.32 26.19C0.37 26.32 0.51 26.58 0.63 26.76C0.75 26.94 0.95 27.2 1.07 27.33C1.2 27.46 1.46 27.66 1.64 27.79C1.82 27.92 2.15 28.1 2.37 28.19C2.76 28.35 2.84 28.37 4.51 28.4L6.23 28.44C6.55 29.21 6.76 29.72 6.91 30.04C7.06 30.38 7.37 30.96 7.59 31.35C7.81 31.74 8.16 32.3 8.36 32.59C8.57 32.89 9.02 33.49 9.38 33.93C9.74 34.37 10.4 35.1 10.86 35.54C11.31 35.98 12.05 36.62 12.49 36.95C12.94 37.28 13.57 37.72 13.9 37.92C14.24 38.13 14.77 38.43 15.11 38.6C15.44 38.77 15.99 39.02 16.33 39.15C16.67 39.28 17.26 39.48 17.64 39.59C18.01 39.7 18.64 39.83 19.03 39.89C19.42 39.95 19.99 40 20.3 40C20.61 40 21.18 39.95 21.57 39.89C21.96 39.83 22.48 39.73 22.75 39.66C23.01 39.59 23.46 39.46 23.75 39.36C24.05 39.26 24.66 39 25.12 38.78C25.59 38.56 26.26 38.19 26.63 37.97C27 37.74 27.65 37.3 28.07 36.99C28.55 36.64 29.27 35.99 29.95 35.3C30.56 34.69 31.29 33.9 31.56 33.53C31.85 33.16 32.28 32.54 32.54 32.15C32.79 31.77 33.19 31.06 33.43 30.58C33.68 30.1 33.99 29.41 34.12 29.06L34.37 28.4L34.38 28.4C37.82 28.37 37.82 28.37 38.26 28.18C38.5 28.08 38.86 27.88 39.06 27.74C39.26 27.6 39.57 27.31 39.75 27.09C39.93 26.87 40.14 26.56 40.22 26.39C40.29 26.22 40.4 25.96 40.46 25.79C40.54 25.55 40.57 25.02 40.59 23.14C40.61 21.59 40.59 20.62 40.54 20.29C40.5 20.02 40.38 19.6 40.26 19.35C40.15 19.11 39.94 18.76 39.79 18.56C39.65 18.38 39.35 18.09 39.13 17.93C38.75 17.66 38.73 17.63 38.7 17.31C38.68 17.13 38.65 16.6 38.63 16.14C38.6 15.68 38.54 14.94 38.49 14.5C38.43 14.05 38.33 13.39 38.25 13.02C38.18 12.65 38.01 11.98 37.88 11.51C37.75 11.05 37.54 10.39 37.41 10.04C37.28 9.69 36.99 9.03 36.76 8.57C36.53 8.1 36.2 7.5 36.02 7.23C35.84 6.95 35.51 6.48 35.29 6.19C35.07 5.89 34.61 5.37 34.28 5.02C33.94 4.68 33.41 4.18 33.1 3.92C32.78 3.65 32.23 3.24 31.86 2.99C31.49 2.74 30.81 2.35 30.35 2.11C29.89 1.88 29.2 1.56 28.81 1.41C28.42 1.26 27.75 1.03 27.3 0.9C26.86 0.77 26.18 0.6 25.8 0.52C25.41 0.45 24.69 0.32 24.21 0.26C23.72 0.18 22.84 0.1 22.26 0.06ZM17.35 2.3C16.93 2.35 16.23 2.45 15.81 2.53C15.39 2.6 14.72 2.76 14.34 2.86C13.95 2.97 13.32 3.17 12.93 3.31C12.54 3.44 11.88 3.71 11.45 3.92C11.03 4.12 10.43 4.45 10.11 4.66C9.8 4.86 9.26 5.26 8.91 5.54C8.57 5.83 8.07 6.28 7.82 6.56C7.56 6.83 7.23 7.23 7.07 7.43C6.92 7.63 6.66 8.01 6.49 8.26C6.32 8.52 6.03 9.02 5.86 9.37C5.68 9.72 5.41 10.34 5.26 10.74C5.1 11.15 4.89 11.76 4.8 12.08C4.71 12.41 4.57 12.99 4.49 13.36C4.42 13.73 4.31 14.38 4.26 14.8C4.2 15.22 4.14 15.94 4.1 16.39L4.05 17.21L5.46 17.21C5.64 16.2 5.8 15.5 5.93 15C6.05 14.5 6.27 13.73 6.43 13.29C6.58 12.85 6.92 12.05 7.19 11.51C7.45 10.98 7.89 10.19 8.18 9.77C8.47 9.35 8.92 8.75 9.19 8.43C9.46 8.12 10 7.59 10.38 7.27C10.77 6.94 11.33 6.52 11.62 6.32C11.92 6.13 12.46 5.82 12.83 5.64C13.2 5.45 13.71 5.22 13.97 5.11C14.23 5.01 14.72 4.85 15.07 4.74C15.42 4.63 16.09 4.47 16.55 4.38C17.01 4.29 17.83 4.17 18.38 4.11C18.92 4.06 19.76 4.01 20.25 4.01C20.74 4.01 21.5 4.04 21.94 4.08C22.38 4.12 23.11 4.21 23.55 4.28C23.99 4.36 24.69 4.5 25.09 4.61C25.5 4.72 26.08 4.9 26.4 5.01C26.71 5.13 27.27 5.38 27.64 5.55C28.01 5.73 28.6 6.07 28.94 6.29C29.29 6.52 29.81 6.9 30.08 7.13C30.36 7.35 30.81 7.78 31.09 8.07C31.36 8.37 31.73 8.78 31.9 9C32.07 9.22 32.38 9.66 32.58 9.97C32.78 10.29 33.09 10.8 33.25 11.11C33.42 11.43 33.7 12.03 33.87 12.45C34.04 12.87 34.3 13.62 34.45 14.09C34.59 14.57 34.82 15.46 34.94 16.07L35.16 17.18L36.52 17.21C36.52 16.56 36.47 15.95 36.42 15.43C36.36 14.92 36.27 14.22 36.22 13.89C36.16 13.57 36.03 12.99 35.95 12.62C35.86 12.25 35.7 11.68 35.59 11.35C35.48 11.02 35.25 10.43 35.08 10.04C34.91 9.65 34.61 9.06 34.41 8.73C34.21 8.41 33.88 7.89 33.66 7.59C33.43 7.3 33.05 6.84 32.79 6.56C32.54 6.29 32.07 5.85 31.76 5.58C31.44 5.32 30.92 4.93 30.59 4.71C30.26 4.5 29.68 4.17 29.31 3.99C28.94 3.81 28.33 3.53 27.94 3.39C27.55 3.25 26.86 3.02 26.4 2.9C25.94 2.77 25.23 2.61 24.82 2.54C24.42 2.46 23.68 2.35 23.18 2.3C22.55 2.23 21.65 2.21 20.2 2.21C19.03 2.21 17.79 2.25 17.35 2.3ZM14.58 11.97C14.56 12.1 14.54 12.35 14.54 12.5C14.54 12.66 14.48 13.1 14.4 13.47C14.33 13.85 14.21 14.36 14.13 14.6C14.05 14.84 13.8 15.43 13.57 15.9C13.32 16.38 13 16.96 12.83 17.18C12.66 17.4 12.38 17.75 12.21 17.95C12.03 18.14 11.66 18.5 11.39 18.74C11.11 18.97 10.64 19.31 10.35 19.49C10.05 19.67 9.57 19.91 9.28 20.03C8.98 20.15 8.58 20.29 8.39 20.33C8.2 20.39 7.96 20.43 7.87 20.43C7.7 20.43 7.7 20.44 7.66 21.07L7.66 21.08C7.63 21.44 7.63 22.11 7.66 22.57C7.68 23.03 7.74 23.68 7.78 24.01C7.81 24.34 7.92 24.98 8 25.42C8.1 25.86 8.24 26.47 8.34 26.77C8.49 27.28 8.55 27.37 8.96 27.78C9.21 28.03 9.65 28.4 9.95 28.6C10.24 28.8 10.74 29.09 11.05 29.25C11.37 29.4 11.97 29.65 12.39 29.8C12.81 29.94 13.48 30.12 13.87 30.2C14.26 30.28 14.93 30.39 15.36 30.45C15.79 30.5 16.28 30.55 16.45 30.55C16.72 30.55 16.78 30.52 17.08 30.19C17.26 30 17.58 29.75 17.79 29.63C18.02 29.51 18.42 29.35 18.69 29.27C19.09 29.15 19.35 29.11 19.93 29.11C20.41 29.11 20.82 29.15 21.09 29.23C21.32 29.29 21.71 29.44 21.96 29.57C22.21 29.7 22.57 29.94 22.75 30.13C22.93 30.31 23.15 30.61 23.25 30.79C23.38 31.05 23.42 31.22 23.42 31.58C23.41 31.96 23.38 32.12 23.23 32.4C23.13 32.6 22.91 32.89 22.75 33.06C22.57 33.24 22.22 33.47 21.89 33.63C21.59 33.77 21.1 33.94 20.82 34C20.53 34.05 20.13 34.1 19.93 34.1C19.73 34.1 19.33 34.05 19.05 33.99C18.76 33.94 18.3 33.78 18.02 33.65C17.65 33.47 17.4 33.29 17.07 32.95L16.61 32.49C15.39 32.38 14.66 32.29 14.2 32.21C13.74 32.13 13 31.97 12.56 31.85C12.12 31.73 11.49 31.52 11.17 31.39C10.82 31.25 10.57 31.18 10.55 31.22C10.53 31.25 10.66 31.47 10.83 31.7C11 31.93 11.37 32.39 11.66 32.72C11.95 33.06 12.41 33.53 12.67 33.77C12.94 34.02 13.34 34.37 13.57 34.55C13.79 34.73 14.18 35.03 14.44 35.21C14.7 35.4 15.09 35.65 15.31 35.79C15.53 35.92 15.9 36.14 16.15 36.26C16.39 36.39 16.86 36.61 17.18 36.75C17.52 36.89 18.12 37.09 18.52 37.19C19.03 37.33 19.5 37.4 20.03 37.43C20.62 37.46 20.94 37.44 21.41 37.35C21.74 37.28 22.32 37.13 22.71 37C23.1 36.87 23.78 36.59 24.22 36.38C24.66 36.17 25.34 35.79 25.73 35.53C26.12 35.27 26.61 34.92 26.83 34.73C27.06 34.56 27.49 34.18 27.8 33.9C28.11 33.62 28.61 33.11 28.91 32.76C29.21 32.41 29.59 31.94 29.76 31.72C29.92 31.5 30.25 31 30.51 30.61C30.75 30.22 31.16 29.49 31.42 28.97C31.68 28.46 32.01 27.67 32.16 27.23C32.32 26.79 32.52 25.99 32.63 25.45C32.74 24.92 32.86 24.11 32.91 23.64C32.96 23.09 32.97 22.26 32.94 21.23C32.92 20.37 32.88 19.58 32.85 19.47C32.82 19.35 32.62 19.15 32.26 18.89C31.97 18.66 31.3 18.27 30.79 18.02C30.27 17.77 29.53 17.45 29.15 17.32C28.76 17.19 28.13 17 27.74 16.91C27.35 16.81 26.63 16.65 26.13 16.57C25.63 16.48 25.13 16.41 25.01 16.41C24.89 16.41 24.79 16.43 24.79 16.45C24.78 16.49 24.84 16.55 24.9 16.61C24.96 16.66 25.13 16.9 25.27 17.14C25.41 17.38 25.58 17.75 25.66 17.96C25.74 18.2 25.77 18.36 25.73 18.38C25.69 18.4 25.58 18.36 25.48 18.29C25.37 18.22 25.04 18.04 24.72 17.89C24.41 17.75 23.78 17.51 23.32 17.38C22.85 17.24 22.06 16.98 21.54 16.8C21.02 16.63 20.25 16.33 19.83 16.13C19.41 15.94 18.82 15.65 18.52 15.48C18.23 15.31 17.75 14.99 17.45 14.76C17.16 14.54 16.65 14.07 16.33 13.72C16.02 13.38 15.54 12.78 15.26 12.41C14.99 12.03 14.74 11.72 14.7 11.72C14.65 11.72 14.6 11.83 14.58 11.96L14.58 11.97ZM13.9 20.25C14.04 20.15 14.3 20.03 14.47 19.98C14.64 19.94 14.88 19.9 15.01 19.9C15.13 19.9 15.37 19.92 15.54 19.96C15.71 20 16 20.13 16.2 20.26C16.39 20.39 16.64 20.63 16.75 20.8C16.86 20.96 17 21.29 17.06 21.51C17.12 21.79 17.15 22.04 17.12 22.24C17.09 22.4 17.02 22.67 16.94 22.84C16.87 23.01 16.68 23.28 16.53 23.44C16.37 23.6 16.1 23.8 15.91 23.89C15.65 24.01 15.46 24.05 15.06 24.05C14.65 24.05 14.46 24.01 14.18 23.89C13.99 23.8 13.71 23.6 13.55 23.44C13.4 23.28 13.2 22.99 13.12 22.81C13.02 22.57 12.98 22.33 12.98 22C12.98 21.64 13.02 21.45 13.14 21.16C13.24 20.96 13.38 20.72 13.47 20.62C13.56 20.53 13.75 20.36 13.9 20.25ZM25.09 19.95C24.98 19.98 24.78 20.06 24.66 20.12C24.53 20.19 24.28 20.38 24.1 20.55C23.9 20.75 23.73 20.99 23.65 21.21C23.57 21.43 23.52 21.73 23.52 21.98C23.52 22.22 23.57 22.55 23.63 22.74C23.71 22.95 23.88 23.2 24.12 23.44C24.38 23.71 24.59 23.86 24.82 23.93C25.01 24 25.36 24.05 25.63 24.05C25.98 24.05 26.18 24.01 26.43 23.89C26.62 23.8 26.89 23.62 27.03 23.47C27.18 23.33 27.37 23.04 27.46 22.84C27.6 22.54 27.64 22.37 27.64 21.97C27.63 21.59 27.6 21.39 27.48 21.16C27.4 21 27.24 20.74 27.12 20.59C26.99 20.45 26.73 20.25 26.53 20.14C26.28 20.02 26.02 19.94 25.73 19.92C25.49 19.91 25.2 19.92 25.09 19.95Z" fill="#219BE0" fill-opacity="1.000000" fill-rule="evenodd"/>
	<path id="Vector" d="M22.26 0.06C22.84 0.1 23.72 0.18 24.21 0.26C24.69 0.32 25.41 0.45 25.8 0.52C26.18 0.6 26.86 0.77 27.3 0.9C27.75 1.03 28.42 1.26 28.81 1.41C29.2 1.56 29.89 1.88 30.35 2.11C30.81 2.35 31.49 2.74 31.86 2.99C32.23 3.24 32.78 3.65 33.1 3.92C33.41 4.18 33.94 4.68 34.28 5.02C34.61 5.37 35.07 5.89 35.29 6.19C35.51 6.48 35.84 6.95 36.02 7.23C36.2 7.5 36.53 8.1 36.76 8.57C36.99 9.03 37.28 9.69 37.41 10.04C37.54 10.39 37.75 11.05 37.88 11.51C38.01 11.98 38.18 12.65 38.25 13.02C38.33 13.39 38.43 14.05 38.49 14.5C38.54 14.94 38.6 15.68 38.63 16.14C38.65 16.6 38.68 17.13 38.7 17.31C38.73 17.63 38.75 17.66 39.13 17.93C39.35 18.09 39.65 18.38 39.79 18.56C39.94 18.76 40.15 19.11 40.26 19.35C40.38 19.6 40.5 20.02 40.54 20.29C40.59 20.62 40.61 21.59 40.59 23.14C40.57 25.02 40.54 25.55 40.46 25.79C40.4 25.96 40.29 26.22 40.22 26.39C40.14 26.56 39.93 26.87 39.75 27.09C39.57 27.31 39.26 27.6 39.06 27.74C38.86 27.88 38.5 28.08 38.26 28.18C37.82 28.37 37.82 28.37 34.38 28.4L34.37 28.4L34.12 29.06C33.99 29.41 33.68 30.1 33.43 30.58C33.19 31.06 32.79 31.77 32.54 32.15C32.28 32.54 31.85 33.16 31.56 33.53C31.29 33.9 30.56 34.69 29.95 35.3C29.27 35.99 28.55 36.64 28.07 36.99C27.65 37.3 27 37.74 26.63 37.97C26.26 38.19 25.59 38.56 25.12 38.78C24.66 39 24.05 39.26 23.75 39.36C23.46 39.46 23.01 39.59 22.75 39.66C22.48 39.73 21.96 39.83 21.57 39.89C21.18 39.95 20.61 40 20.3 40C19.99 40 19.42 39.95 19.03 39.89C18.64 39.83 18.01 39.7 17.64 39.59C17.26 39.48 16.67 39.28 16.33 39.15C15.99 39.02 15.44 38.77 15.11 38.6C14.77 38.43 14.24 38.13 13.9 37.92C13.57 37.72 12.94 37.28 12.49 36.95C12.05 36.62 11.31 35.98 10.86 35.54C10.4 35.1 9.74 34.37 9.38 33.93C9.02 33.49 8.57 32.89 8.36 32.59C8.16 32.3 7.81 31.74 7.59 31.35C7.37 30.96 7.06 30.38 6.91 30.04C6.76 29.72 6.55 29.21 6.23 28.44L4.51 28.4C2.84 28.37 2.76 28.35 2.37 28.19C2.15 28.1 1.82 27.92 1.64 27.79C1.46 27.66 1.2 27.46 1.07 27.33C0.95 27.2 0.75 26.94 0.63 26.76C0.51 26.58 0.37 26.32 0.32 26.19C0.26 26.06 0.16 25.77 0.1 25.53C0.02 25.18 0 24.74 0 22.83C0 20.76 0.01 20.47 0.13 20.03C0.2 19.75 0.34 19.35 0.44 19.15C0.54 18.95 0.79 18.61 1 18.39C1.2 18.18 1.5 17.92 1.92 17.65L1.96 16.54C1.99 15.93 2.05 15.06 2.11 14.6C2.17 14.13 2.29 13.38 2.38 12.92C2.47 12.46 2.64 11.77 2.76 11.38C2.86 10.99 3.08 10.35 3.25 9.94C3.4 9.53 3.7 8.86 3.91 8.45C4.12 8.04 4.51 7.35 4.79 6.94C5.07 6.53 5.44 6.02 5.61 5.82C5.78 5.62 6.13 5.23 6.39 4.95C6.65 4.68 7.14 4.23 7.47 3.96C7.8 3.67 8.43 3.21 8.87 2.92C9.32 2.62 10.04 2.21 10.48 1.99C10.92 1.78 11.62 1.48 12.02 1.33C12.43 1.18 13.08 0.97 13.46 0.85C13.85 0.75 14.54 0.58 15.01 0.49C15.47 0.4 16.19 0.28 16.61 0.22C17.04 0.16 17.73 0.09 18.16 0.06C18.58 0.03 19.44 0 20.07 0C20.7 0 21.68 0.02 22.26 0.06ZM17.35 2.3C17.79 2.25 19.03 2.21 20.2 2.21C21.65 2.21 22.55 2.23 23.18 2.3C23.68 2.35 24.42 2.46 24.82 2.54C25.23 2.61 25.94 2.77 26.4 2.9C26.86 3.02 27.55 3.25 27.94 3.39C28.33 3.53 28.94 3.81 29.31 3.99C29.68 4.17 30.26 4.5 30.59 4.71C30.92 4.93 31.44 5.32 31.76 5.58C32.07 5.85 32.54 6.29 32.79 6.56C33.05 6.84 33.43 7.3 33.66 7.59C33.88 7.89 34.21 8.41 34.41 8.73C34.61 9.06 34.91 9.65 35.08 10.04C35.25 10.43 35.48 11.02 35.59 11.35C35.7 11.68 35.86 12.25 35.95 12.62C36.03 12.99 36.16 13.57 36.22 13.89C36.27 14.22 36.36 14.92 36.42 15.43C36.47 15.95 36.52 16.56 36.52 17.21L35.16 17.18L34.94 16.07C34.82 15.46 34.59 14.57 34.45 14.09C34.3 13.62 34.04 12.87 33.87 12.45C33.7 12.03 33.42 11.43 33.25 11.11C33.09 10.8 32.78 10.29 32.58 9.97C32.38 9.66 32.07 9.22 31.9 9C31.73 8.78 31.36 8.37 31.09 8.07C30.81 7.78 30.36 7.35 30.08 7.13C29.81 6.9 29.29 6.52 28.94 6.29C28.6 6.07 28.01 5.73 27.64 5.55C27.27 5.38 26.71 5.13 26.4 5.01C26.08 4.9 25.5 4.72 25.09 4.61C24.69 4.5 23.99 4.36 23.55 4.28C23.11 4.21 22.38 4.12 21.94 4.08C21.5 4.04 20.74 4.01 20.25 4.01C19.76 4.01 18.92 4.06 18.38 4.11C17.83 4.17 17.01 4.29 16.55 4.38C16.09 4.47 15.42 4.63 15.07 4.74C14.72 4.85 14.23 5.01 13.97 5.11C13.71 5.22 13.2 5.45 12.83 5.64C12.46 5.82 11.92 6.13 11.62 6.32C11.33 6.52 10.77 6.94 10.38 7.27C10 7.59 9.46 8.12 9.19 8.43C8.92 8.75 8.47 9.35 8.18 9.77C7.89 10.19 7.45 10.98 7.19 11.51C6.92 12.05 6.58 12.85 6.43 13.29C6.27 13.73 6.05 14.5 5.93 15C5.8 15.5 5.64 16.2 5.46 17.21L4.05 17.21L4.1 16.39C4.14 15.94 4.2 15.22 4.26 14.8C4.31 14.38 4.42 13.73 4.49 13.36C4.57 12.99 4.71 12.41 4.8 12.08C4.89 11.76 5.1 11.15 5.26 10.74C5.41 10.34 5.68 9.72 5.86 9.37C6.03 9.02 6.32 8.52 6.49 8.26C6.66 8.01 6.92 7.63 7.07 7.43C7.23 7.23 7.56 6.83 7.82 6.56C8.07 6.28 8.57 5.83 8.91 5.54C9.26 5.26 9.8 4.86 10.11 4.66C10.43 4.45 11.03 4.12 11.45 3.92C11.88 3.71 12.54 3.44 12.93 3.31C13.32 3.17 13.95 2.97 14.34 2.86C14.72 2.76 15.39 2.6 15.81 2.53C16.23 2.45 16.93 2.35 17.35 2.3ZM14.58 11.97L14.58 11.96C14.6 11.83 14.65 11.72 14.7 11.72C14.74 11.72 14.99 12.03 15.26 12.41C15.54 12.78 16.02 13.38 16.33 13.72C16.65 14.07 17.16 14.54 17.45 14.76C17.75 14.99 18.23 15.31 18.52 15.48C18.82 15.65 19.41 15.94 19.83 16.13C20.25 16.33 21.02 16.63 21.54 16.8C22.06 16.98 22.85 17.24 23.32 17.38C23.78 17.51 24.41 17.75 24.72 17.89C25.04 18.04 25.37 18.22 25.48 18.29C25.58 18.36 25.69 18.4 25.73 18.38C25.77 18.36 25.74 18.2 25.66 17.96C25.58 17.75 25.41 17.38 25.27 17.14C25.13 16.9 24.96 16.66 24.9 16.61C24.84 16.55 24.78 16.49 24.79 16.45C24.79 16.43 24.89 16.41 25.01 16.41C25.13 16.41 25.63 16.48 26.13 16.57C26.63 16.65 27.35 16.81 27.74 16.91C28.13 17 28.76 17.19 29.15 17.32C29.53 17.45 30.27 17.77 30.79 18.02C31.3 18.27 31.97 18.66 32.26 18.89C32.62 19.15 32.82 19.35 32.85 19.47C32.88 19.58 32.92 20.37 32.94 21.23C32.97 22.26 32.96 23.09 32.91 23.64C32.86 24.11 32.74 24.92 32.63 25.45C32.52 25.99 32.32 26.79 32.16 27.23C32.01 27.67 31.68 28.46 31.42 28.97C31.16 29.49 30.75 30.22 30.51 30.61C30.25 31 29.92 31.5 29.76 31.72C29.59 31.94 29.21 32.41 28.91 32.76C28.61 33.11 28.11 33.62 27.8 33.9C27.49 34.18 27.06 34.56 26.83 34.73C26.61 34.92 26.12 35.27 25.73 35.53C25.34 35.79 24.66 36.17 24.22 36.38C23.78 36.59 23.1 36.87 22.71 37C22.32 37.13 21.74 37.28 21.41 37.35C20.94 37.44 20.62 37.46 20.03 37.43C19.5 37.4 19.03 37.33 18.52 37.19C18.12 37.09 17.52 36.89 17.18 36.75C16.86 36.61 16.39 36.39 16.15 36.26C15.9 36.14 15.53 35.92 15.31 35.79C15.09 35.65 14.7 35.4 14.44 35.21C14.18 35.03 13.79 34.73 13.57 34.55C13.34 34.37 12.94 34.02 12.67 33.77C12.41 33.53 11.95 33.06 11.66 32.72C11.37 32.39 11 31.93 10.83 31.7C10.66 31.47 10.53 31.25 10.55 31.22C10.57 31.18 10.82 31.25 11.17 31.39C11.49 31.52 12.12 31.73 12.56 31.85C13 31.97 13.74 32.13 14.2 32.21C14.66 32.29 15.39 32.38 16.61 32.49L17.07 32.95C17.4 33.29 17.65 33.47 18.02 33.65C18.3 33.78 18.76 33.94 19.05 33.99C19.33 34.05 19.73 34.1 19.93 34.1C20.13 34.1 20.53 34.05 20.82 34C21.1 33.94 21.59 33.77 21.89 33.63C22.22 33.47 22.57 33.24 22.75 33.06C22.91 32.89 23.13 32.6 23.23 32.4C23.38 32.12 23.41 31.96 23.42 31.58C23.42 31.22 23.38 31.05 23.25 30.79C23.15 30.61 22.93 30.31 22.75 30.13C22.57 29.94 22.21 29.7 21.96 29.57C21.71 29.44 21.32 29.29 21.09 29.23C20.82 29.15 20.41 29.11 19.93 29.11C19.35 29.11 19.09 29.15 18.69 29.27C18.42 29.35 18.02 29.51 17.79 29.63C17.58 29.75 17.26 30 17.08 30.19C16.78 30.52 16.72 30.55 16.45 30.55C16.28 30.55 15.79 30.5 15.36 30.45C14.93 30.39 14.26 30.28 13.87 30.2C13.48 30.12 12.81 29.94 12.39 29.8C11.97 29.65 11.37 29.4 11.05 29.25C10.74 29.09 10.24 28.8 9.95 28.6C9.65 28.4 9.21 28.03 8.96 27.78C8.55 27.37 8.49 27.28 8.34 26.77C8.24 26.47 8.1 25.86 8 25.42C7.92 24.98 7.81 24.34 7.78 24.01C7.74 23.68 7.68 23.03 7.66 22.57C7.63 22.11 7.63 21.44 7.66 21.08L7.66 21.07C7.7 20.44 7.7 20.43 7.87 20.43C7.96 20.43 8.2 20.39 8.39 20.33C8.58 20.29 8.98 20.15 9.28 20.03C9.57 19.91 10.05 19.67 10.35 19.49C10.64 19.31 11.11 18.97 11.39 18.74C11.66 18.5 12.03 18.14 12.21 17.95C12.38 17.75 12.66 17.4 12.83 17.18C13 16.96 13.32 16.38 13.57 15.9C13.8 15.43 14.05 14.84 14.13 14.6C14.21 14.36 14.33 13.85 14.4 13.47C14.48 13.1 14.54 12.66 14.54 12.5C14.54 12.35 14.56 12.1 14.58 11.97ZM13.9 20.25C13.75 20.36 13.56 20.53 13.47 20.62C13.38 20.72 13.24 20.96 13.14 21.16C13.02 21.45 12.98 21.64 12.98 22C12.98 22.33 13.02 22.57 13.12 22.81C13.2 22.99 13.4 23.28 13.55 23.44C13.71 23.6 13.99 23.8 14.18 23.89C14.46 24.01 14.65 24.05 15.06 24.05C15.46 24.05 15.65 24.01 15.91 23.89C16.1 23.8 16.37 23.6 16.53 23.44C16.68 23.28 16.87 23.01 16.94 22.84C17.02 22.67 17.09 22.4 17.12 22.24C17.15 22.04 17.12 21.79 17.06 21.51C17 21.29 16.86 20.96 16.75 20.8C16.64 20.63 16.39 20.39 16.2 20.26C16 20.13 15.71 20 15.54 19.96C15.37 19.92 15.13 19.9 15.01 19.9C14.88 19.9 14.64 19.94 14.47 19.98C14.3 20.03 14.04 20.15 13.9 20.25ZM24.66 20.12C24.53 20.19 24.28 20.38 24.1 20.55C23.9 20.75 23.73 20.99 23.65 21.21C23.57 21.43 23.52 21.73 23.52 21.98C23.52 22.22 23.57 22.55 23.63 22.74C23.71 22.95 23.88 23.2 24.12 23.44C24.38 23.71 24.59 23.86 24.82 23.93C25.01 24 25.36 24.05 25.63 24.05C25.98 24.05 26.18 24.01 26.43 23.89C26.62 23.8 26.89 23.62 27.03 23.47C27.18 23.33 27.37 23.04 27.46 22.84C27.6 22.54 27.64 22.37 27.64 21.97C27.63 21.59 27.6 21.39 27.48 21.16C27.4 21 27.24 20.74 27.12 20.59C26.99 20.45 26.73 20.25 26.53 20.14C26.28 20.02 26.02 19.94 25.73 19.92C25.49 19.91 25.2 19.92 25.09 19.95C24.98 19.98 24.78 20.06 24.66 20.12Z" stroke="#000000" stroke-opacity="0" stroke-width="0.067013"/>
</svg>
