<svg width="36.937012" height="40.000000" viewBox="0 0 36.937 40" fill="none" xmlns="http://www.w3.org/2000/svg" xmlns:xlink="http://www.w3.org/1999/xlink">
	<desc>
			Created with Pixso.
	</desc>
	<defs/>
	<path id="Vector" d="M17.26 0.04C17.08 0.06 16.8 0.11 16.64 0.13C16.47 0.16 16.06 0.25 15.73 0.34C15.41 0.43 14.88 0.59 14.58 0.71C14.27 0.82 13.78 1.05 13.49 1.2C13.2 1.36 12.76 1.61 12.52 1.77C12.28 1.93 11.9 2.21 11.68 2.38C11.47 2.56 11.08 2.91 10.83 3.17C10.57 3.42 10.19 3.85 9.98 4.12C9.78 4.38 9.49 4.79 9.35 5.01C9.2 5.24 8.97 5.64 8.85 5.89C8.72 6.15 8.52 6.6 8.41 6.89C8.3 7.18 8.15 7.65 8.07 7.93C8 8.21 7.91 8.61 7.87 8.81C7.83 9.01 7.78 9.39 7.75 9.64C7.72 9.88 7.7 10.36 7.7 10.69C7.7 11.02 7.73 11.51 7.78 11.79C7.82 12.06 7.92 12.56 8 12.89C8.09 13.21 8.27 13.81 8.4 14.21C8.53 14.6 8.77 15.24 8.93 15.62C9.09 16 9.34 16.58 9.49 16.91C9.64 17.24 10 17.98 10.29 18.56C10.58 19.13 10.98 19.91 11.19 20.29C11.39 20.68 11.85 21.49 12.19 22.1C12.54 22.71 13.05 23.59 13.33 24.04C13.6 24.5 14.14 25.38 14.52 25.99C14.9 26.6 15.51 27.55 15.87 28.1C16.23 28.64 16.65 29.29 16.82 29.53C16.92 29.68 17.12 29.98 17.34 30.31L17.35 30.32C17.49 30.53 17.64 30.75 17.78 30.96C18.14 31.49 18.46 31.94 18.48 31.94C18.5 31.93 18.72 31.63 18.97 31.25C19.22 30.88 19.84 29.96 20.34 29.21C20.84 28.46 21.55 27.37 21.92 26.8C22.28 26.23 22.83 25.34 23.14 24.83C23.45 24.32 23.96 23.47 24.28 22.93C24.59 22.4 25.14 21.43 25.5 20.78C25.85 20.13 26.43 19.01 26.8 18.28C27.16 17.55 27.61 16.58 27.81 16.13C28 15.67 28.26 15.01 28.39 14.67C28.52 14.33 28.7 13.75 28.81 13.39C28.91 13.04 29.04 12.53 29.09 12.26C29.14 11.99 29.2 11.56 29.23 11.29C29.25 11.02 29.25 10.51 29.23 10.13C29.21 9.76 29.16 9.26 29.12 9.02C29.07 8.78 28.99 8.37 28.93 8.12C28.86 7.86 28.75 7.46 28.67 7.24C28.59 7.01 28.43 6.6 28.31 6.33C28.19 6.07 27.94 5.6 27.76 5.29C27.58 4.99 27.28 4.53 27.09 4.27C26.9 4.02 26.55 3.6 26.31 3.35C26.07 3.1 25.68 2.73 25.43 2.53C25.19 2.32 24.75 1.99 24.44 1.79C24.13 1.58 23.58 1.26 23.21 1.08C22.84 0.9 22.25 0.65 21.89 0.54C21.54 0.42 20.99 0.27 20.67 0.2C20.35 0.14 19.88 0.06 19.63 0.04C19.39 0.01 18.82 0 18.38 0C17.95 0 17.44 0.02 17.26 0.04ZM17.66 3.09C17.47 3.12 17.14 3.17 16.94 3.21C16.73 3.25 16.33 3.36 16.04 3.46C15.74 3.56 15.29 3.74 15.04 3.87C14.79 4 14.4 4.22 14.18 4.37C13.97 4.51 13.73 4.69 13.65 4.75C13.58 4.81 13.4 4.97 13.26 5.1C13.12 5.23 12.86 5.49 12.69 5.68C12.52 5.88 12.24 6.23 12.08 6.47C11.91 6.71 11.67 7.15 11.53 7.44C11.39 7.74 11.21 8.19 11.13 8.44C11.05 8.7 10.96 9.05 10.92 9.23C10.89 9.4 10.83 9.8 10.8 10.11C10.76 10.53 10.76 10.77 10.8 11.13C10.83 11.38 10.9 11.76 10.95 11.97C10.99 12.18 11.11 12.59 11.2 12.87C11.29 13.16 11.5 13.73 11.66 14.14C11.82 14.54 12.11 15.23 12.31 15.66C12.51 16.1 12.82 16.76 13.02 17.14C13.21 17.52 13.57 18.22 13.83 18.7C14.08 19.17 14.54 20 14.86 20.55C15.17 21.09 15.67 21.95 15.97 22.45C16.26 22.94 16.61 23.52 16.73 23.72C16.86 23.92 17.29 24.61 17.7 25.25C18.1 25.88 18.45 26.41 18.47 26.41C18.49 26.41 18.73 26.06 19 25.64C19.27 25.22 19.8 24.39 20.17 23.79C20.54 23.19 21.01 22.41 21.22 22.05C21.42 21.72 21.78 21.09 22.08 20.58C22.1 20.54 22.12 20.5 22.15 20.46C22.44 19.93 22.87 19.17 23.09 18.77C23.31 18.36 23.78 17.43 24.13 16.71C24.49 15.98 24.92 15.05 25.09 14.64C25.26 14.24 25.51 13.57 25.65 13.16C25.78 12.76 25.95 12.2 26.01 11.91C26.08 11.63 26.14 11.2 26.16 10.94C26.18 10.69 26.16 10.26 26.13 10C26.11 9.74 26.05 9.37 26.01 9.17C25.97 8.97 25.87 8.59 25.78 8.32C25.69 8.06 25.51 7.63 25.39 7.38C25.27 7.12 25.04 6.72 24.89 6.5C24.74 6.27 24.45 5.89 24.25 5.66C24.04 5.44 23.7 5.1 23.49 4.92C23.27 4.74 22.94 4.48 22.75 4.35C22.56 4.23 22.19 4.01 21.93 3.88C21.67 3.75 21.31 3.6 21.14 3.53C20.97 3.47 20.66 3.37 20.46 3.32C20.25 3.26 19.91 3.19 19.69 3.16C19.48 3.12 19.01 3.08 18.65 3.07C18.3 3.06 17.85 3.07 17.66 3.09ZM17.99 7.71C17.94 7.73 17.75 7.78 17.58 7.83C17.41 7.88 17.14 7.98 16.98 8.06C16.82 8.15 16.55 8.36 16.33 8.58C16.11 8.81 15.89 9.07 15.79 9.25C15.7 9.42 15.58 9.71 15.52 9.9C15.43 10.17 15.41 10.35 15.41 10.76C15.41 11.16 15.43 11.34 15.52 11.61C15.58 11.8 15.7 12.09 15.79 12.26C15.89 12.43 16.11 12.71 16.31 12.91C16.51 13.11 16.79 13.33 16.96 13.43C17.13 13.52 17.42 13.64 17.61 13.71C17.89 13.79 18.05 13.81 18.49 13.81C18.86 13.81 19.11 13.78 19.3 13.72C19.45 13.68 19.69 13.58 19.83 13.51C19.97 13.44 20.21 13.29 20.36 13.17C20.52 13.06 20.74 12.84 20.86 12.7C20.98 12.54 21.15 12.27 21.24 12.08C21.33 11.89 21.44 11.57 21.48 11.38C21.54 11.13 21.55 10.91 21.54 10.59C21.52 10.3 21.47 10.03 21.39 9.78C21.32 9.58 21.18 9.28 21.07 9.11C20.96 8.95 20.75 8.69 20.59 8.53C20.4 8.34 20.17 8.19 19.87 8.03C19.62 7.91 19.3 7.78 19.11 7.75C18.93 7.71 18.63 7.68 18.44 7.69C18.25 7.69 18.05 7.7 17.99 7.71ZM9.88 25.44C9.59 25.5 9.12 25.6 8.84 25.67C8.55 25.73 8 25.88 7.61 25.99C7.22 26.1 6.57 26.3 6.17 26.44C5.78 26.58 5.23 26.79 4.95 26.91C4.66 27.03 4.16 27.27 3.84 27.44C3.5 27.61 3.08 27.85 2.89 27.98C2.7 28.1 2.37 28.33 2.17 28.49C1.96 28.65 1.65 28.92 1.47 29.1C1.29 29.27 1.03 29.57 0.89 29.76C0.74 29.95 0.54 30.28 0.44 30.48C0.34 30.68 0.21 30.99 0.16 31.17C0.1 31.36 0.04 31.67 0.02 31.89C-0.01 32.16 -0.01 32.43 0.02 32.73C0.05 32.97 0.11 33.3 0.16 33.47C0.21 33.63 0.33 33.92 0.43 34.11C0.52 34.3 0.67 34.56 0.76 34.69C0.84 34.82 1.04 35.07 1.2 35.25C1.35 35.43 1.66 35.73 1.89 35.92C2.12 36.11 2.52 36.4 2.77 36.57C3.02 36.74 3.47 37 3.77 37.16C4.06 37.31 4.59 37.56 4.95 37.72C5.3 37.87 5.88 38.09 6.22 38.21C6.56 38.33 7.14 38.51 7.49 38.61C7.85 38.72 8.43 38.87 8.79 38.95C9.15 39.04 9.71 39.16 10.04 39.23C10.37 39.29 10.89 39.38 11.2 39.43C11.5 39.49 12.16 39.58 12.66 39.64C13.15 39.71 13.92 39.79 14.37 39.83C14.81 39.87 15.58 39.92 16.06 39.95C16.54 39.97 17.64 40 18.49 40C19.34 40 20.43 39.97 20.9 39.95C21.37 39.92 22.12 39.87 22.56 39.83C23.01 39.79 23.63 39.73 23.95 39.69C24.27 39.65 24.87 39.57 25.27 39.51C25.68 39.44 26.25 39.35 26.52 39.3C26.8 39.25 27.36 39.13 27.75 39.05C28.14 38.96 28.74 38.81 29.07 38.72C29.4 38.63 29.96 38.46 30.32 38.35C30.68 38.23 31.21 38.04 31.5 37.93C31.79 37.81 32.37 37.56 32.77 37.36C33.18 37.16 33.7 36.87 33.93 36.73C34.16 36.59 34.49 36.36 34.67 36.23C34.85 36.09 35.17 35.82 35.39 35.61C35.6 35.42 35.9 35.08 36.05 34.88C36.2 34.68 36.42 34.32 36.53 34.09C36.64 33.86 36.78 33.51 36.83 33.3C36.91 33 36.94 32.81 36.93 32.29C36.93 31.72 36.92 31.59 36.81 31.23C36.74 31.01 36.6 30.67 36.51 30.47C36.41 30.27 36.23 29.98 36.12 29.83C36.01 29.68 35.78 29.41 35.62 29.23C35.45 29.06 35.16 28.79 34.97 28.64C34.78 28.48 34.41 28.21 34.14 28.04C33.87 27.86 33.26 27.52 32.77 27.28C32.29 27.04 31.6 26.74 31.25 26.61C30.89 26.48 30.34 26.29 30.02 26.19C29.7 26.09 29.09 25.91 28.65 25.8C28.22 25.69 27.56 25.54 27.18 25.46C26.81 25.38 26.46 25.32 26.42 25.32C26.37 25.31 26.05 25.75 25.42 26.68C24.92 27.43 24.51 28.06 24.51 28.08C24.51 28.1 24.69 28.15 24.91 28.18C25.14 28.22 25.73 28.32 26.22 28.42C26.72 28.52 27.46 28.68 27.87 28.79C28.27 28.9 29 29.11 29.49 29.28C29.97 29.43 30.62 29.68 30.92 29.81C31.23 29.94 31.69 30.17 31.94 30.31C32.2 30.45 32.53 30.65 32.68 30.75C32.83 30.85 33.12 31.09 33.31 31.29C33.5 31.48 33.7 31.73 33.76 31.86C33.82 31.99 33.86 32.17 33.86 32.31C33.86 32.47 33.82 32.62 33.73 32.8C33.65 32.97 33.49 33.17 33.26 33.39C33.07 33.57 32.75 33.83 32.54 33.97C32.34 34.1 31.88 34.36 31.52 34.53C31.17 34.7 30.68 34.93 30.44 35.02C30.19 35.11 29.71 35.28 29.37 35.4C29.03 35.51 28.47 35.68 28.14 35.76C27.81 35.85 27.27 35.99 26.94 36.06C26.61 36.13 25.99 36.25 25.55 36.33C25.12 36.41 24.45 36.51 24.07 36.56C23.68 36.62 22.93 36.7 22.38 36.75C21.83 36.81 20.73 36.87 19.92 36.9C18.79 36.94 18.15 36.94 17.01 36.9C16.21 36.87 15.11 36.81 14.58 36.75C14.04 36.7 13.28 36.62 12.89 36.56C12.49 36.51 11.82 36.41 11.39 36.33C10.97 36.26 10.25 36.11 9.79 36.01C9.35 35.9 8.7 35.74 8.37 35.64C8.04 35.54 7.6 35.41 7.4 35.34C7.2 35.27 6.79 35.12 6.5 35.01C6.21 34.89 5.71 34.68 5.41 34.53C5.1 34.38 4.65 34.13 4.41 33.97C4.17 33.81 3.83 33.54 3.64 33.36C3.41 33.13 3.27 32.94 3.18 32.75C3.08 32.51 3.06 32.43 3.09 32.22C3.11 32.05 3.17 31.88 3.27 31.71C3.35 31.58 3.54 31.35 3.7 31.21C3.85 31.07 4.15 30.84 4.37 30.69C4.59 30.55 5.01 30.3 5.32 30.15C5.62 29.99 6.16 29.75 6.52 29.61C6.88 29.47 7.47 29.26 7.84 29.15C8.21 29.03 8.72 28.88 8.97 28.82C9.23 28.75 9.66 28.65 9.92 28.59C10.19 28.53 10.75 28.41 11.17 28.34C11.6 28.26 12.04 28.18 12.17 28.16C12.29 28.15 12.41 28.12 12.43 28.11C12.46 28.1 12.05 27.47 11.54 26.71C10.77 25.55 10.6 25.32 10.51 25.32C10.46 25.33 10.17 25.38 9.88 25.44Z" fill="#219BE0" fill-opacity="1.000000" fill-rule="evenodd"/>
	<path id="Vector" d="M17.26 0.04C17.44 0.02 17.95 0 18.38 0C18.82 0 19.39 0.01 19.63 0.04C19.88 0.06 20.35 0.14 20.67 0.2C20.99 0.27 21.54 0.42 21.89 0.54C22.25 0.65 22.84 0.9 23.21 1.08C23.58 1.26 24.13 1.58 24.44 1.79C24.75 1.99 25.19 2.32 25.43 2.53C25.68 2.73 26.07 3.1 26.31 3.35C26.55 3.6 26.9 4.02 27.09 4.27C27.28 4.53 27.58 4.99 27.76 5.29C27.94 5.6 28.19 6.07 28.31 6.33C28.43 6.6 28.59 7.01 28.67 7.24C28.75 7.46 28.86 7.86 28.93 8.12C28.99 8.37 29.07 8.78 29.12 9.02C29.16 9.26 29.21 9.76 29.23 10.13C29.25 10.51 29.25 11.02 29.23 11.29C29.2 11.56 29.14 11.99 29.09 12.26C29.04 12.53 28.91 13.04 28.81 13.39C28.7 13.75 28.52 14.33 28.39 14.67C28.26 15.01 28 15.67 27.81 16.13C27.61 16.58 27.16 17.55 26.8 18.28C26.43 19.01 25.85 20.13 25.5 20.78C25.14 21.43 24.59 22.4 24.28 22.93C23.96 23.47 23.45 24.32 23.14 24.83C22.83 25.34 22.28 26.23 21.92 26.8C21.55 27.37 20.84 28.46 20.34 29.21C19.84 29.96 19.22 30.88 18.97 31.25C18.72 31.63 18.5 31.93 18.48 31.94C18.46 31.94 18.14 31.49 17.78 30.96C17.64 30.75 17.49 30.53 17.35 30.32L17.34 30.31C17.12 29.98 16.92 29.68 16.82 29.53C16.65 29.29 16.23 28.64 15.87 28.1C15.51 27.55 14.9 26.6 14.52 25.99C14.14 25.38 13.6 24.5 13.33 24.04C13.05 23.59 12.54 22.71 12.19 22.1C11.85 21.49 11.39 20.68 11.19 20.29C10.98 19.91 10.58 19.13 10.29 18.56C10 17.98 9.64 17.24 9.49 16.91C9.34 16.58 9.09 16 8.93 15.62C8.77 15.24 8.53 14.6 8.4 14.21C8.27 13.81 8.09 13.21 8 12.89C7.92 12.56 7.82 12.06 7.78 11.79C7.73 11.51 7.7 11.02 7.7 10.69C7.7 10.36 7.72 9.88 7.75 9.64C7.78 9.39 7.83 9.01 7.87 8.81C7.91 8.61 8 8.21 8.07 7.93C8.15 7.65 8.3 7.18 8.41 6.89C8.52 6.6 8.72 6.15 8.85 5.89C8.97 5.64 9.2 5.24 9.35 5.01C9.49 4.79 9.78 4.38 9.98 4.12C10.19 3.85 10.57 3.42 10.83 3.17C11.08 2.91 11.47 2.56 11.68 2.38C11.9 2.21 12.28 1.93 12.52 1.77C12.76 1.61 13.2 1.36 13.49 1.2C13.78 1.05 14.27 0.82 14.58 0.71C14.88 0.59 15.41 0.43 15.73 0.34C16.06 0.25 16.47 0.16 16.64 0.13C16.8 0.11 17.08 0.06 17.26 0.04ZM9.88 25.44C10.17 25.38 10.46 25.33 10.51 25.32C10.6 25.32 10.77 25.55 11.54 26.71C12.05 27.47 12.46 28.1 12.43 28.11C12.41 28.12 12.29 28.15 12.17 28.16C12.04 28.18 11.6 28.26 11.17 28.34C10.75 28.41 10.19 28.53 9.92 28.59C9.66 28.65 9.23 28.75 8.97 28.82C8.72 28.88 8.21 29.03 7.84 29.15C7.47 29.26 6.88 29.47 6.52 29.61C6.16 29.75 5.62 29.99 5.32 30.15C5.01 30.3 4.59 30.55 4.37 30.69C4.15 30.84 3.85 31.07 3.7 31.21C3.54 31.35 3.35 31.58 3.27 31.71C3.17 31.88 3.11 32.05 3.09 32.22C3.06 32.43 3.08 32.51 3.18 32.75C3.27 32.94 3.41 33.13 3.64 33.36C3.83 33.54 4.17 33.81 4.41 33.97C4.65 34.13 5.1 34.38 5.41 34.53C5.71 34.68 6.21 34.89 6.5 35.01C6.79 35.12 7.2 35.27 7.4 35.34C7.6 35.41 8.04 35.54 8.37 35.64C8.7 35.74 9.35 35.9 9.79 36.01C10.25 36.11 10.97 36.26 11.39 36.33C11.82 36.41 12.49 36.51 12.89 36.56C13.28 36.62 14.04 36.7 14.58 36.75C15.11 36.8 16.21 36.87 17.01 36.9C18.15 36.94 18.79 36.94 19.92 36.9C20.73 36.87 21.83 36.8 22.38 36.75C22.93 36.7 23.68 36.62 24.07 36.56C24.45 36.51 25.12 36.41 25.55 36.33C25.99 36.25 26.61 36.13 26.94 36.06C27.27 35.99 27.81 35.85 28.14 35.76C28.47 35.68 29.03 35.51 29.37 35.4C29.71 35.28 30.19 35.11 30.44 35.02C30.68 34.93 31.17 34.7 31.52 34.53C31.88 34.36 32.34 34.1 32.54 33.97C32.75 33.83 33.07 33.57 33.26 33.39C33.49 33.17 33.65 32.97 33.73 32.8C33.82 32.62 33.86 32.47 33.86 32.31C33.86 32.17 33.82 31.99 33.76 31.86C33.7 31.73 33.5 31.48 33.31 31.29C33.12 31.09 32.83 30.85 32.68 30.75C32.53 30.65 32.2 30.45 31.94 30.31C31.69 30.17 31.23 29.94 30.92 29.81C30.62 29.68 29.97 29.43 29.49 29.28C29 29.11 28.27 28.9 27.87 28.79C27.46 28.68 26.72 28.52 26.22 28.42C25.73 28.32 25.14 28.22 24.91 28.18C24.69 28.15 24.51 28.1 24.51 28.08C24.51 28.06 24.92 27.43 25.42 26.68C26.05 25.75 26.37 25.31 26.42 25.32C26.46 25.32 26.81 25.38 27.18 25.46C27.56 25.54 28.22 25.69 28.65 25.8C29.09 25.91 29.7 26.09 30.02 26.19C30.34 26.29 30.89 26.48 31.25 26.61C31.6 26.74 32.29 27.04 32.77 27.28C33.26 27.52 33.87 27.86 34.14 28.04C34.41 28.21 34.78 28.48 34.97 28.64C35.16 28.79 35.45 29.06 35.62 29.23C35.78 29.41 36.01 29.68 36.12 29.83C36.23 29.98 36.41 30.27 36.51 30.47C36.6 30.67 36.74 31.01 36.81 31.23C36.92 31.59 36.93 31.72 36.93 32.29C36.94 32.81 36.91 33 36.83 33.3C36.78 33.51 36.64 33.86 36.53 34.09C36.42 34.32 36.2 34.68 36.05 34.88C35.9 35.08 35.6 35.42 35.39 35.61C35.17 35.82 34.85 36.09 34.67 36.23C34.49 36.36 34.16 36.59 33.93 36.73C33.7 36.87 33.18 37.16 32.77 37.36C32.37 37.56 31.79 37.81 31.5 37.93C31.21 38.04 30.68 38.23 30.32 38.35C29.96 38.46 29.4 38.63 29.07 38.72C28.74 38.81 28.14 38.96 27.75 39.05C27.36 39.13 26.8 39.25 26.52 39.3C26.25 39.35 25.68 39.44 25.27 39.51C24.87 39.57 24.27 39.65 23.95 39.69C23.63 39.73 23.01 39.79 22.56 39.83C22.12 39.87 21.37 39.92 20.9 39.95C20.43 39.97 19.34 40 18.49 40C17.64 40 16.54 39.97 16.06 39.95C15.58 39.92 14.81 39.87 14.37 39.83C13.92 39.79 13.15 39.71 12.66 39.64C12.16 39.58 11.5 39.49 11.2 39.43C10.89 39.38 10.37 39.29 10.04 39.23C9.71 39.16 9.15 39.04 8.79 38.95C8.43 38.87 7.85 38.72 7.49 38.61C7.14 38.51 6.56 38.33 6.22 38.21C5.88 38.09 5.3 37.87 4.95 37.72C4.59 37.56 4.06 37.31 3.77 37.16C3.47 37 3.02 36.74 2.77 36.57C2.52 36.4 2.12 36.11 1.89 35.92C1.66 35.73 1.35 35.43 1.2 35.25C1.04 35.07 0.84 34.82 0.76 34.69C0.67 34.56 0.52 34.3 0.43 34.11C0.33 33.92 0.21 33.63 0.16 33.47C0.11 33.3 0.05 32.97 0.02 32.73C-0.01 32.43 -0.01 32.16 0.02 31.89C0.04 31.67 0.1 31.36 0.16 31.17C0.21 30.99 0.34 30.68 0.44 30.48C0.54 30.28 0.74 29.95 0.89 29.76C1.03 29.57 1.29 29.27 1.47 29.1C1.65 28.92 1.96 28.65 2.17 28.49C2.37 28.33 2.7 28.1 2.89 27.98C3.08 27.85 3.5 27.61 3.84 27.44C4.16 27.27 4.66 27.03 4.95 26.91C5.23 26.79 5.78 26.58 6.17 26.44C6.57 26.3 7.22 26.1 7.61 25.99C8 25.88 8.55 25.73 8.84 25.67C9.12 25.6 9.59 25.5 9.88 25.44ZM17.66 3.09C17.85 3.07 18.3 3.06 18.65 3.07C19.01 3.08 19.48 3.12 19.69 3.16C19.91 3.19 20.25 3.26 20.46 3.32C20.66 3.37 20.97 3.47 21.14 3.53C21.31 3.6 21.67 3.75 21.93 3.88C22.19 4.01 22.56 4.23 22.75 4.35C22.94 4.48 23.27 4.74 23.49 4.92C23.7 5.1 24.04 5.44 24.25 5.66C24.45 5.89 24.74 6.27 24.89 6.5C25.04 6.72 25.27 7.12 25.39 7.38C25.51 7.63 25.69 8.06 25.78 8.32C25.87 8.59 25.97 8.97 26.01 9.17C26.05 9.37 26.11 9.74 26.13 10C26.16 10.26 26.18 10.69 26.16 10.94C26.14 11.2 26.08 11.63 26.01 11.91C25.95 12.2 25.78 12.76 25.65 13.16C25.51 13.57 25.26 14.24 25.09 14.64C24.92 15.05 24.49 15.98 24.13 16.71C23.78 17.43 23.31 18.36 23.09 18.77C22.87 19.17 22.44 19.93 22.15 20.46C22.12 20.5 22.1 20.54 22.08 20.58C21.78 21.09 21.42 21.72 21.22 22.05C21.01 22.41 20.54 23.19 20.17 23.79C19.8 24.39 19.27 25.22 19 25.64C18.73 26.06 18.49 26.41 18.47 26.41C18.45 26.41 18.1 25.88 17.7 25.25C17.29 24.61 16.86 23.92 16.73 23.72C16.61 23.52 16.26 22.94 15.97 22.45C15.67 21.95 15.17 21.09 14.86 20.55C14.54 20 14.08 19.17 13.83 18.7C13.57 18.22 13.21 17.52 13.02 17.14C12.82 16.76 12.51 16.1 12.31 15.66C12.11 15.23 11.82 14.54 11.66 14.14C11.5 13.73 11.29 13.16 11.2 12.87C11.11 12.59 10.99 12.18 10.95 11.97C10.9 11.76 10.83 11.38 10.8 11.13C10.76 10.77 10.76 10.53 10.8 10.11C10.83 9.8 10.89 9.4 10.92 9.23C10.96 9.05 11.05 8.7 11.13 8.44C11.21 8.19 11.39 7.74 11.53 7.44C11.67 7.15 11.91 6.71 12.08 6.47C12.24 6.23 12.52 5.88 12.69 5.68C12.86 5.49 13.12 5.23 13.26 5.1C13.4 4.97 13.58 4.81 13.65 4.75C13.73 4.69 13.97 4.51 14.18 4.37C14.4 4.22 14.79 4 15.04 3.87C15.29 3.74 15.74 3.56 16.04 3.46C16.33 3.36 16.73 3.25 16.94 3.21C17.14 3.17 17.47 3.12 17.66 3.09ZM17.99 7.71C18.05 7.7 18.25 7.69 18.44 7.69C18.63 7.68 18.93 7.71 19.11 7.75C19.3 7.78 19.62 7.91 19.87 8.03C20.17 8.19 20.4 8.34 20.59 8.53C20.75 8.69 20.96 8.95 21.07 9.11C21.18 9.28 21.32 9.58 21.39 9.78C21.47 10.03 21.52 10.3 21.54 10.59C21.55 10.91 21.54 11.13 21.48 11.38C21.44 11.57 21.33 11.89 21.24 12.08C21.15 12.27 20.98 12.54 20.86 12.7C20.74 12.84 20.52 13.06 20.36 13.17C20.21 13.29 19.97 13.44 19.83 13.51C19.69 13.58 19.45 13.68 19.3 13.72C19.11 13.78 18.86 13.81 18.49 13.81C18.05 13.81 17.89 13.79 17.61 13.71C17.42 13.64 17.13 13.52 16.96 13.43C16.79 13.33 16.51 13.11 16.31 12.91C16.11 12.71 15.89 12.43 15.79 12.26C15.7 12.09 15.58 11.8 15.52 11.61C15.43 11.34 15.41 11.16 15.41 10.76C15.41 10.35 15.43 10.17 15.52 9.9C15.58 9.71 15.7 9.42 15.79 9.25C15.89 9.07 16.11 8.81 16.33 8.58C16.55 8.36 16.82 8.15 16.98 8.06C17.14 7.98 17.41 7.88 17.58 7.83C17.75 7.78 17.94 7.73 17.99 7.71Z" stroke="#000000" stroke-opacity="0" stroke-width="0.041009"/>
</svg>
