<svg width="36.796387" height="40.000000" viewBox="0 0 36.7964 40" fill="none" xmlns="http://www.w3.org/2000/svg" xmlns:xlink="http://www.w3.org/1999/xlink">
	<desc>
			Created with Pixso.
	</desc>
	<defs/>
	<path id="Vector" d="M15.98 1.78C16.42 1.47 17.11 0.95 17.53 0.61C17.95 0.27 18.33 0 18.37 0C18.42 -0.01 18.86 0.31 19.35 0.7C19.84 1.08 20.7 1.71 21.28 2.09C21.86 2.47 22.66 2.98 23.08 3.22C23.5 3.46 24.32 3.9 24.92 4.19C25.51 4.49 26.43 4.92 26.94 5.13C27.46 5.35 28.26 5.66 28.71 5.82C29.17 5.98 29.87 6.21 30.26 6.34C30.66 6.46 31.37 6.65 31.85 6.77C32.33 6.89 33.18 7.07 33.76 7.16C34.34 7.25 35.18 7.37 35.64 7.42C36.09 7.46 36.54 7.53 36.63 7.57C36.79 7.64 36.79 7.64 36.79 9.31C36.79 10.23 36.76 11.38 36.72 11.86C36.68 12.33 36.58 13.24 36.5 13.88C36.42 14.51 36.27 15.47 36.17 16.01C36.08 16.54 35.83 17.64 35.63 18.46C35.43 19.27 35.07 20.51 34.84 21.2C34.61 21.89 34.26 22.89 34.05 23.4C33.85 23.91 33.41 24.89 33.08 25.56C32.76 26.24 32.29 27.14 32.04 27.59C31.78 28.03 31.25 28.88 30.84 29.5C30.43 30.11 29.74 31.06 29.32 31.59C28.89 32.12 27.94 33.17 27.2 33.91C26.47 34.64 25.46 35.56 24.96 35.96C24.46 36.36 23.73 36.91 23.34 37.18C22.94 37.46 22.12 37.98 21.52 38.34C20.93 38.69 19.98 39.21 18.4 40L17.3 39.45C16.69 39.14 15.77 38.65 15.25 38.34C14.74 38.03 13.96 37.53 13.52 37.22C13.08 36.93 12.33 36.36 11.83 35.96C11.33 35.56 10.34 34.66 9.62 33.93C8.91 33.22 8 32.23 7.6 31.73C7.2 31.24 6.65 30.51 6.37 30.11C6.09 29.71 5.61 28.98 5.29 28.49C4.98 27.99 4.4 26.94 4 26.14C3.6 25.35 3.08 24.24 2.85 23.69C2.63 23.13 2.25 22.11 2.02 21.42C1.78 20.72 1.46 19.65 1.3 19.04C1.14 18.42 0.88 17.27 0.72 16.47C0.57 15.68 0.37 14.5 0.29 13.84C0.21 13.18 0.11 12.26 0.07 11.78C0.03 11.31 0 10.18 0 9.28C0 8.04 0.02 7.62 0.08 7.59C0.13 7.56 0.68 7.48 1.29 7.41C1.91 7.34 2.87 7.2 3.42 7.09C3.98 6.99 4.81 6.81 5.26 6.7C5.72 6.58 6.56 6.34 7.14 6.15C7.71 5.97 8.67 5.62 9.27 5.38C9.86 5.15 10.93 4.66 11.65 4.32C12.36 3.96 13.45 3.38 14.06 3C14.68 2.64 15.54 2.08 15.98 1.78ZM16.48 5C16.92 4.72 17.51 4.32 17.81 4.12C18.1 3.91 18.36 3.74 18.39 3.74C18.41 3.74 18.96 4.09 19.62 4.53C20.28 4.96 21.25 5.57 21.78 5.88C22.32 6.18 23.34 6.72 24.06 7.07C24.77 7.41 25.89 7.9 26.55 8.16C27.2 8.42 28.21 8.78 28.78 8.97C29.36 9.15 30.27 9.41 30.8 9.55C31.34 9.68 32.25 9.88 33.85 10.2L33.8 11.06C33.78 11.54 33.71 12.35 33.65 12.87C33.59 13.38 33.47 14.21 33.39 14.71C33.31 15.2 33.14 16.13 33 16.76C32.87 17.4 32.59 18.47 32.4 19.14C32.2 19.82 31.83 20.9 31.59 21.56C31.35 22.22 30.91 23.26 30.63 23.87C30.35 24.48 29.87 25.41 29.58 25.93C29.3 26.44 28.78 27.27 28.45 27.77C28.12 28.26 27.55 29.06 27.18 29.53C26.81 30.01 25.91 31.01 25.18 31.74C24.44 32.48 23.49 33.36 23.05 33.71C22.61 34.06 21.8 34.64 21.24 35.02C20.69 35.38 19.83 35.92 18.43 36.71L17.71 36.32C17.31 36.11 16.61 35.71 16.16 35.41C15.7 35.12 14.97 34.63 14.53 34.3C14.1 33.98 13.4 33.41 12.98 33.05C12.56 32.7 11.82 31.99 11.33 31.47C10.84 30.96 10.19 30.23 9.89 29.86C9.58 29.48 9.09 28.83 8.8 28.41C8.5 28 8.02 27.25 7.71 26.76C7.41 26.26 6.94 25.4 6.65 24.84C6.37 24.29 5.93 23.31 5.66 22.68C5.4 22.04 5.01 21.01 4.79 20.37C4.58 19.74 4.27 18.63 4.09 17.92C3.91 17.2 3.67 16.18 3.57 15.64C3.47 15.11 3.34 14.33 3.29 13.91C3.23 13.49 3.14 12.83 3.1 12.43C3.06 12.04 3.01 11.39 2.98 10.99C2.95 10.58 2.96 10.25 3 10.22C3.03 10.19 3.42 10.1 3.85 10.02C4.3 9.94 5.23 9.73 5.95 9.56C6.66 9.37 7.75 9.06 8.36 8.86C8.98 8.65 9.91 8.31 10.42 8.1C10.93 7.9 11.81 7.51 12.37 7.25C12.92 6.99 13.9 6.5 14.53 6.14C15.17 5.79 16.05 5.27 16.48 5ZM21.52 18.12L16.73 22.9L12.4 18.57L10.31 20.66L16.73 27.08C25.74 18.08 28.35 15.44 28.35 15.39C28.35 15.35 27.9 14.87 27.35 14.32C26.81 13.78 26.35 13.34 26.33 13.34C26.31 13.34 24.14 15.49 21.52 18.11L21.52 18.12Z" fill="#219BE0" fill-opacity="1.000000" fill-rule="evenodd"/>
	<path id="Vector" d="M17.53 0.61C17.95 0.27 18.33 0 18.37 0C18.42 -0.01 18.86 0.31 19.35 0.7C19.84 1.08 20.7 1.71 21.28 2.09C21.86 2.47 22.66 2.98 23.08 3.22C23.5 3.46 24.32 3.9 24.92 4.19C25.51 4.49 26.43 4.92 26.94 5.13C27.46 5.35 28.26 5.66 28.71 5.82C29.17 5.98 29.87 6.21 30.26 6.34C30.66 6.46 31.37 6.65 31.85 6.77C32.33 6.89 33.18 7.07 33.76 7.16C34.34 7.25 35.18 7.37 35.64 7.42C36.09 7.46 36.54 7.53 36.63 7.57C36.79 7.64 36.79 7.64 36.79 9.31C36.79 10.23 36.76 11.38 36.72 11.86C36.68 12.33 36.58 13.24 36.5 13.88C36.42 14.51 36.27 15.47 36.17 16.01C36.08 16.54 35.83 17.64 35.63 18.46C35.43 19.27 35.07 20.51 34.84 21.2C34.61 21.89 34.26 22.89 34.05 23.4C33.85 23.91 33.41 24.89 33.08 25.56C32.76 26.24 32.29 27.14 32.04 27.59C31.78 28.03 31.25 28.88 30.84 29.5C30.43 30.11 29.74 31.06 29.32 31.59C28.89 32.12 27.94 33.17 27.2 33.91C26.47 34.64 25.46 35.56 24.96 35.96C24.46 36.36 23.73 36.91 23.34 37.18C22.94 37.46 22.12 37.98 21.52 38.34C20.93 38.69 19.98 39.21 18.4 40L17.3 39.45C16.69 39.14 15.77 38.65 15.25 38.34C14.74 38.03 13.96 37.53 13.52 37.22C13.08 36.93 12.33 36.36 11.83 35.96C11.33 35.56 10.34 34.66 9.62 33.93C8.91 33.22 8 32.23 7.6 31.73C7.2 31.24 6.65 30.51 6.37 30.11C6.09 29.71 5.61 28.98 5.29 28.49C4.98 27.99 4.4 26.94 4 26.14C3.6 25.35 3.08 24.24 2.85 23.69C2.63 23.13 2.25 22.11 2.02 21.42C1.78 20.72 1.46 19.65 1.3 19.04C1.14 18.42 0.88 17.27 0.72 16.47C0.57 15.68 0.37 14.5 0.29 13.84C0.21 13.18 0.11 12.26 0.07 11.78C0.03 11.31 0 10.18 0 9.28C0 8.04 0.02 7.62 0.08 7.59C0.13 7.56 0.68 7.48 1.29 7.41C1.91 7.34 2.87 7.2 3.42 7.09C3.98 6.99 4.81 6.81 5.26 6.7C5.72 6.58 6.56 6.34 7.14 6.15C7.71 5.97 8.67 5.62 9.27 5.38C9.86 5.15 10.93 4.66 11.65 4.32C12.36 3.96 13.45 3.38 14.06 3C14.68 2.64 15.54 2.08 15.98 1.78C16.42 1.47 17.11 0.95 17.53 0.61ZM17.81 4.12C18.1 3.91 18.36 3.74 18.39 3.74C18.41 3.74 18.96 4.09 19.62 4.53C20.28 4.96 21.25 5.57 21.78 5.88C22.32 6.18 23.34 6.72 24.06 7.07C24.77 7.41 25.89 7.9 26.55 8.16C27.2 8.42 28.21 8.78 28.78 8.97C29.36 9.15 30.27 9.41 30.8 9.55C31.34 9.68 32.25 9.88 33.85 10.2L33.8 11.06C33.78 11.54 33.71 12.35 33.65 12.87C33.59 13.38 33.47 14.21 33.39 14.71C33.31 15.2 33.14 16.13 33 16.76C32.87 17.4 32.59 18.47 32.4 19.14C32.2 19.82 31.83 20.9 31.59 21.56C31.35 22.22 30.91 23.26 30.63 23.87C30.35 24.48 29.87 25.41 29.58 25.93C29.3 26.44 28.78 27.27 28.45 27.77C28.12 28.26 27.55 29.06 27.18 29.53C26.81 30.01 25.91 31.01 25.18 31.74C24.44 32.48 23.49 33.36 23.05 33.71C22.61 34.06 21.8 34.64 21.24 35.02C20.69 35.38 19.83 35.92 18.43 36.71L17.71 36.32C17.31 36.11 16.61 35.71 16.16 35.41C15.7 35.12 14.97 34.63 14.53 34.3C14.1 33.98 13.4 33.41 12.98 33.05C12.56 32.7 11.82 31.99 11.33 31.47C10.84 30.96 10.19 30.23 9.89 29.86C9.58 29.48 9.09 28.83 8.8 28.41C8.5 28 8.02 27.25 7.71 26.76C7.41 26.26 6.94 25.4 6.65 24.84C6.37 24.29 5.93 23.31 5.66 22.68C5.4 22.04 5.01 21.01 4.79 20.37C4.58 19.74 4.27 18.63 4.09 17.92C3.91 17.2 3.67 16.18 3.57 15.64C3.47 15.11 3.34 14.33 3.29 13.91C3.23 13.49 3.14 12.83 3.1 12.43C3.06 12.04 3.01 11.39 2.98 10.99C2.95 10.58 2.96 10.25 3 10.22C3.03 10.19 3.42 10.1 3.85 10.02C4.3 9.94 5.23 9.73 5.95 9.56C6.66 9.37 7.75 9.06 8.36 8.86C8.98 8.65 9.91 8.31 10.42 8.1C10.93 7.9 11.81 7.51 12.37 7.25C12.92 6.99 13.9 6.5 14.53 6.14C15.17 5.79 16.05 5.27 16.48 5C16.92 4.72 17.51 4.32 17.81 4.12ZM21.52 18.12L21.52 18.11C24.14 15.49 26.31 13.34 26.33 13.34C26.35 13.34 26.81 13.78 27.35 14.32C27.9 14.87 28.35 15.35 28.35 15.39C28.35 15.44 25.74 18.08 16.73 27.08L10.31 20.66L12.4 18.57L16.73 22.9L21.52 18.12Z" stroke="#000000" stroke-opacity="0" stroke-width="0.072150"/>
</svg>
