<svg width="45.184570" height="39.000000" viewBox="0 0 45.1846 39" fill="none" xmlns="http://www.w3.org/2000/svg" xmlns:xlink="http://www.w3.org/1999/xlink">
	<desc>
			Created with Pixso.
	</desc>
	<defs/>
	<mask id="mask_1_1088" fill="white">
		<path id="Subtract" d="M34.5332 0.0151367C34.8135 0.0351562 35.2634 0.125 35.5334 0.214844C35.8135 0.305176 36.2634 0.515137 36.5337 0.695312C36.8137 0.865234 37.1836 1.16504 37.3738 1.35498C37.5637 1.54541 37.8538 1.89502 38.0137 2.14551C38.1838 2.39551 38.4038 2.84521 38.5139 3.14551C38.6838 3.63525 38.6938 3.88525 38.6438 5.49561C38.6138 6.48584 38.5139 8.19629 38.4338 9.29639C38.3538 10.3965 38.2539 11.5566 38.2139 11.8765C38.1638 12.2266 38.0837 12.4468 38.0037 12.4468C37.9438 12.4468 37.6238 12.2363 37.3037 11.9863C36.9937 11.7266 36.5237 11.3164 36.2537 11.0566C35.9336 10.7466 35.7634 10.4863 35.7134 10.2461C35.6836 10.0562 35.7334 8.72607 35.8335 7.2959C35.9236 5.86572 35.9834 4.50537 35.9436 4.26562C35.9136 4.03564 35.8235 3.76562 35.7534 3.65527C35.6934 3.55566 35.4734 3.34521 35.2834 3.18555C35.0935 3.03516 34.7534 2.86523 34.5332 2.81543C34.3032 2.77539 33.4331 2.78516 32.533 2.84521C31.6531 2.89551 29.2927 3.08545 27.2825 3.24561C25.2722 3.41553 23.1819 3.61523 22.6318 3.70557C21.9016 3.80566 21.5217 3.91553 21.2317 4.10547C21.0115 4.25537 16.981 8.21582 3.72949 21.4478L17.3911 35.0996L34.8833 17.5474L36.0334 18.0972C36.6636 18.3975 37.1836 18.7075 37.1836 18.7676C37.1836 18.8374 36.7236 19.4175 36.1636 20.0474C35.6035 20.6777 31.1428 25.1982 17.3711 39L8.75 30.3687C4.00952 25.6284 0.0788574 21.668 0.00878906 21.5679C-0.0910645 21.418 0.588867 20.7075 5.25952 15.9971C8.21997 13.0269 12.3606 8.88623 14.4807 6.78564C16.6011 4.6958 18.6213 2.72559 18.9814 2.40527C19.3413 2.08545 19.8813 1.69531 20.1814 1.54541C20.4814 1.38525 21.0715 1.19531 21.4817 1.11523C21.8916 1.0249 23.272 0.865234 24.532 0.754883C25.7922 0.635254 28.2524 0.435059 29.9827 0.294922C31.7129 0.165039 33.3333 0.0351562 33.5833 0.0151367C33.8333 -0.00488281 34.2632 -0.00488281 34.5332 0.0151367ZM40.9441 5.32568C41.1941 5.52588 41.6943 6.0459 42.0642 6.47559C42.4343 6.90576 42.9744 7.60596 43.2644 8.02588C43.5645 8.44629 43.9346 9.06592 44.1045 9.396C44.2747 9.72607 44.5247 10.3062 44.6545 10.6963C44.7847 11.0767 44.9546 11.6963 45.0347 12.0664C45.1147 12.4468 45.1846 12.9868 45.1846 13.2666C45.1846 13.5566 45.1448 14.0469 45.0847 14.3467C45.0247 14.647 44.8647 15.1367 44.7346 15.417C44.5947 15.707 44.2646 16.187 43.9946 16.4673C43.7246 16.7573 43.2644 17.1172 42.9744 17.2671C42.6743 17.417 42.1443 17.6172 41.7842 17.707C41.3242 17.8271 40.9041 17.8574 40.334 17.8174C39.894 17.7871 39.1738 17.6675 38.7339 17.5474C38.2937 17.437 37.5537 17.1572 37.0837 16.937C36.6135 16.7173 35.7834 16.2373 35.2334 15.8672C34.6833 15.4971 33.7932 14.7671 33.2432 14.2466C32.7031 13.7266 31.9729 12.9165 31.623 12.4468C31.2729 11.9766 30.8127 11.2764 30.6128 10.8965C30.4128 10.5063 29.9727 9.90625 29.6328 9.54639C29.2827 9.18604 28.9326 8.74609 28.8425 8.56592C28.7527 8.396 28.6526 8.07617 28.6226 7.86621C28.5825 7.646 28.6226 7.26611 28.7227 6.91602C28.8425 6.47559 28.9927 6.24561 29.3625 5.88574C29.6826 5.57568 29.9927 5.38574 30.3528 5.27588C30.6628 5.18555 31.033 5.14551 31.2729 5.18555C31.5029 5.21582 31.833 5.31592 32.0129 5.40576C32.1831 5.49561 32.4631 5.68555 32.613 5.83594C32.7732 5.97559 32.9932 6.27588 33.103 6.49561C33.2131 6.71582 33.3333 7.146 33.3633 7.4458C33.4031 7.896 33.3633 8.09619 32.9031 9.09619L33.2532 9.69629C33.4431 10.0264 33.8232 10.5664 34.0833 10.8965C34.3433 11.2266 34.9133 11.8364 35.3435 12.2466C35.7834 12.6665 36.4937 13.2466 36.9336 13.5469C37.3738 13.8369 38.0037 14.207 38.3337 14.3467C38.6638 14.4971 39.2239 14.6968 39.584 14.7969C39.9741 14.897 40.4641 14.957 40.8042 14.937C41.1641 14.9067 41.4641 14.8267 41.6543 14.687C41.8042 14.5767 42.0144 14.3267 42.1042 14.1367C42.2144 13.9468 42.2844 13.5767 42.2844 13.2666C42.2844 12.9766 42.1743 12.4165 42.0342 11.9966C41.8943 11.5864 41.6843 11.0566 41.5742 10.8164C41.4541 10.5864 41.1143 10.0161 40.2441 8.69629L40.324 6.99609C40.364 6.05566 40.4141 5.21582 40.4441 5.12549C40.4941 4.97559 40.5642 4.99561 40.9441 5.32568ZM19.5813 11.2666C20.4116 11.2964 20.6016 11.3467 21.0615 11.5967C21.3516 11.7666 21.7217 12.0566 21.8716 12.2466C22.0217 12.4365 22.2317 12.7568 22.3318 12.9468C22.4419 13.1665 22.5317 13.6069 22.5618 14.147C22.6018 14.937 22.5918 15.0371 22.3118 15.5972C22.1318 15.957 21.8118 16.3672 21.5217 16.627C21.2417 16.8672 20.8115 17.127 20.5315 17.2173C20.1914 17.3174 19.7915 17.3574 19.2812 17.3374C18.7412 17.3071 18.3914 17.2271 18.0413 17.0474C17.7812 16.9072 17.4011 16.6172 17.2012 16.397C17.001 16.1772 16.751 15.7969 16.6411 15.5469C16.491 15.2168 16.4309 14.8867 16.4309 14.2969C16.4309 13.7065 16.491 13.377 16.6411 13.0469C16.751 12.7969 17.021 12.4067 17.2412 12.1665C17.4512 11.9268 17.8611 11.6167 18.1313 11.4863C18.5813 11.2563 18.7312 11.2363 19.5813 11.2666ZM18.8914 13.0264C18.7014 13.1167 18.4614 13.3066 18.3613 13.4468C18.2512 13.5869 18.1514 13.8965 18.1213 14.147C18.0813 14.4766 18.1213 14.6968 18.2612 14.9468C18.3613 15.1367 18.6313 15.397 18.8413 15.5171C19.0515 15.647 19.3716 15.7471 19.5315 15.7471C19.6914 15.7471 19.9814 15.647 20.1716 15.5269C20.3616 15.397 20.6116 15.167 20.7217 15.0171C20.8616 14.8267 20.9316 14.5869 20.9216 14.3169C20.9216 14.0767 20.8318 13.7466 20.7117 13.5469C20.5815 13.3267 20.3516 13.1265 20.0916 13.0166C19.8716 12.9268 19.5815 12.8467 19.4514 12.8467C19.3315 12.8467 19.0815 12.9268 18.8914 13.0264ZM11.8704 18.5474L27.0823 18.5474L27.0823 20.2476L11.9304 20.1978L11.8704 18.5474ZM19.6313 21.3779C20.2114 21.4077 20.5515 21.4775 20.8516 21.6279C21.0916 21.7476 21.4517 21.998 21.6516 22.188C21.8618 22.3677 22.1418 22.748 22.2817 23.0078C22.4917 23.4282 22.5317 23.6279 22.5317 24.4482C22.5317 25.2383 22.4917 25.4683 22.3018 25.8184C22.1816 26.0581 21.9517 26.3984 21.7917 26.5684C21.6316 26.7485 21.2417 27.0386 20.9216 27.1982C20.4016 27.4585 20.2314 27.4985 19.4814 27.4985C18.8413 27.4985 18.5312 27.4487 18.2312 27.2983C18.0112 27.1982 17.6011 26.8784 17.321 26.5986C17.051 26.3286 16.741 25.9282 16.6511 25.7183C16.531 25.4482 16.481 25.0781 16.481 24.3682C16.481 23.478 16.501 23.3579 16.761 22.9478C16.9111 22.6978 17.2612 22.3076 17.5312 22.0679C17.8113 21.8379 18.2112 21.5776 18.4312 21.4976C18.6914 21.3979 19.1113 21.3579 19.6313 21.3779ZM18.6714 23.3179C18.5015 23.478 18.2913 23.7178 18.2214 23.8682C18.1414 24.0278 18.0813 24.2979 18.0813 24.4683C18.0813 24.6479 18.1714 24.9482 18.2812 25.1182C18.3914 25.2983 18.6313 25.5381 18.8015 25.6484C18.9814 25.7583 19.2815 25.8481 19.4514 25.8481C19.6316 25.8481 19.9316 25.7881 20.1016 25.7183C20.2815 25.6484 20.5117 25.478 20.6116 25.3384C20.7117 25.208 20.8318 24.9282 20.8816 24.7183C20.9617 24.418 20.9417 24.2681 20.7817 23.8979C20.6616 23.6279 20.4517 23.3682 20.2517 23.248C20.0515 23.1279 19.7515 23.0479 19.4614 23.0479C19.1016 23.0479 18.9314 23.1079 18.6714 23.3179Z" clip-rule="evenodd" fill="" fill-opacity="1.000000" fill-rule="evenodd"/>
	</mask>
	<path id="Subtract" d="M34.5332 0.0151367C34.8135 0.0351562 35.2634 0.125 35.5334 0.214844C35.8135 0.305176 36.2634 0.515137 36.5337 0.695312C36.8137 0.865234 37.1836 1.16504 37.3738 1.35498C37.5637 1.54541 37.8538 1.89502 38.0137 2.14551C38.1838 2.39551 38.4038 2.84521 38.5139 3.14551C38.6838 3.63525 38.6938 3.88525 38.6438 5.49561C38.6138 6.48584 38.5139 8.19629 38.4338 9.29639C38.3538 10.3965 38.2539 11.5566 38.2139 11.8765C38.1638 12.2266 38.0837 12.4468 38.0037 12.4468C37.9438 12.4468 37.6238 12.2363 37.3037 11.9863C36.9937 11.7266 36.5237 11.3164 36.2537 11.0566C35.9336 10.7466 35.7634 10.4863 35.7134 10.2461C35.6836 10.0562 35.7334 8.72607 35.8335 7.2959C35.9236 5.86572 35.9834 4.50537 35.9436 4.26562C35.9136 4.03564 35.8235 3.76562 35.7534 3.65527C35.6934 3.55566 35.4734 3.34521 35.2834 3.18555C35.0935 3.03516 34.7534 2.86523 34.5332 2.81543C34.3032 2.77539 33.4331 2.78516 32.533 2.84521C31.6531 2.89551 29.2927 3.08545 27.2825 3.24561C25.2722 3.41553 23.1819 3.61523 22.6318 3.70557C21.9016 3.80566 21.5217 3.91553 21.2317 4.10547C21.0115 4.25537 16.981 8.21582 3.72949 21.4478L17.3911 35.0996L34.8833 17.5474L36.0334 18.0972C36.6636 18.3975 37.1836 18.7075 37.1836 18.7676C37.1836 18.8374 36.7236 19.4175 36.1636 20.0474C35.6035 20.6777 31.1428 25.1982 17.3711 39L8.75 30.3687C4.00952 25.6284 0.0788574 21.668 0.00878906 21.5679C-0.0910645 21.418 0.588867 20.7075 5.25952 15.9971C8.21997 13.0269 12.3606 8.88623 14.4807 6.78564C16.6011 4.6958 18.6213 2.72559 18.9814 2.40527C19.3413 2.08545 19.8813 1.69531 20.1814 1.54541C20.4814 1.38525 21.0715 1.19531 21.4817 1.11523C21.8916 1.0249 23.272 0.865234 24.532 0.754883C25.7922 0.635254 28.2524 0.435059 29.9827 0.294922C31.7129 0.165039 33.3333 0.0351562 33.5833 0.0151367C33.8333 -0.00488281 34.2632 -0.00488281 34.5332 0.0151367ZM40.9441 5.32568C41.1941 5.52588 41.6943 6.0459 42.0642 6.47559C42.4343 6.90576 42.9744 7.60596 43.2644 8.02588C43.5645 8.44629 43.9346 9.06592 44.1045 9.396C44.2747 9.72607 44.5247 10.3062 44.6545 10.6963C44.7847 11.0767 44.9546 11.6963 45.0347 12.0664C45.1147 12.4468 45.1846 12.9868 45.1846 13.2666C45.1846 13.5566 45.1448 14.0469 45.0847 14.3467C45.0247 14.647 44.8647 15.1367 44.7346 15.417C44.5947 15.707 44.2646 16.187 43.9946 16.4673C43.7246 16.7573 43.2644 17.1172 42.9744 17.2671C42.6743 17.417 42.1443 17.6172 41.7842 17.707C41.3242 17.8271 40.9041 17.8574 40.334 17.8174C39.894 17.7871 39.1738 17.6675 38.7339 17.5474C38.2937 17.437 37.5537 17.1572 37.0837 16.937C36.6135 16.7173 35.7834 16.2373 35.2334 15.8672C34.6833 15.4971 33.7932 14.7671 33.2432 14.2466C32.7031 13.7266 31.9729 12.9165 31.623 12.4468C31.2729 11.9766 30.8127 11.2764 30.6128 10.8965C30.4128 10.5063 29.9727 9.90625 29.6328 9.54639C29.2827 9.18604 28.9326 8.74609 28.8425 8.56592C28.7527 8.396 28.6526 8.07617 28.6226 7.86621C28.5825 7.646 28.6226 7.26611 28.7227 6.91602C28.8425 6.47559 28.9927 6.24561 29.3625 5.88574C29.6826 5.57568 29.9927 5.38574 30.3528 5.27588C30.6628 5.18555 31.033 5.14551 31.2729 5.18555C31.5029 5.21582 31.833 5.31592 32.0129 5.40576C32.1831 5.49561 32.4631 5.68555 32.613 5.83594C32.7732 5.97559 32.9932 6.27588 33.103 6.49561C33.2131 6.71582 33.3333 7.146 33.3633 7.4458C33.4031 7.896 33.3633 8.09619 32.9031 9.09619L33.2532 9.69629C33.4431 10.0264 33.8232 10.5664 34.0833 10.8965C34.3433 11.2266 34.9133 11.8364 35.3435 12.2466C35.7834 12.6665 36.4937 13.2466 36.9336 13.5469C37.3738 13.8369 38.0037 14.207 38.3337 14.3467C38.6638 14.4971 39.2239 14.6968 39.584 14.7969C39.9741 14.897 40.4641 14.957 40.8042 14.937C41.1641 14.9067 41.4641 14.8267 41.6543 14.687C41.8042 14.5767 42.0144 14.3267 42.1042 14.1367C42.2144 13.9468 42.2844 13.5767 42.2844 13.2666C42.2844 12.9766 42.1743 12.4165 42.0342 11.9966C41.8943 11.5864 41.6843 11.0566 41.5742 10.8164C41.4541 10.5864 41.1143 10.0161 40.2441 8.69629L40.324 6.99609C40.364 6.05566 40.4141 5.21582 40.4441 5.12549C40.4941 4.97559 40.5642 4.99561 40.9441 5.32568ZM19.5813 11.2666C20.4116 11.2964 20.6016 11.3467 21.0615 11.5967C21.3516 11.7666 21.7217 12.0566 21.8716 12.2466C22.0217 12.4365 22.2317 12.7568 22.3318 12.9468C22.4419 13.1665 22.5317 13.6069 22.5618 14.147C22.6018 14.937 22.5918 15.0371 22.3118 15.5972C22.1318 15.957 21.8118 16.3672 21.5217 16.627C21.2417 16.8672 20.8115 17.127 20.5315 17.2173C20.1914 17.3174 19.7915 17.3574 19.2812 17.3374C18.7412 17.3071 18.3914 17.2271 18.0413 17.0474C17.7812 16.9072 17.4011 16.6172 17.2012 16.397C17.001 16.1772 16.751 15.7969 16.6411 15.5469C16.491 15.2168 16.4309 14.8867 16.4309 14.2969C16.4309 13.7065 16.491 13.377 16.6411 13.0469C16.751 12.7969 17.021 12.4067 17.2412 12.1665C17.4512 11.9268 17.8611 11.6167 18.1313 11.4863C18.5813 11.2563 18.7312 11.2363 19.5813 11.2666ZM18.8914 13.0264C18.7014 13.1167 18.4614 13.3066 18.3613 13.4468C18.2512 13.5869 18.1514 13.8965 18.1213 14.147C18.0813 14.4766 18.1213 14.6968 18.2612 14.9468C18.3613 15.1367 18.6313 15.397 18.8413 15.5171C19.0515 15.647 19.3716 15.7471 19.5315 15.7471C19.6914 15.7471 19.9814 15.647 20.1716 15.5269C20.3616 15.397 20.6116 15.167 20.7217 15.0171C20.8616 14.8267 20.9316 14.5869 20.9216 14.3169C20.9216 14.0767 20.8318 13.7466 20.7117 13.5469C20.5815 13.3267 20.3516 13.1265 20.0916 13.0166C19.8716 12.9268 19.5815 12.8467 19.4514 12.8467C19.3315 12.8467 19.0815 12.9268 18.8914 13.0264ZM11.8704 18.5474L27.0823 18.5474L27.0823 20.2476L11.9304 20.1978L11.8704 18.5474ZM19.6313 21.3779C20.2114 21.4077 20.5515 21.4775 20.8516 21.6279C21.0916 21.7476 21.4517 21.998 21.6516 22.188C21.8618 22.3677 22.1418 22.748 22.2817 23.0078C22.4917 23.4282 22.5317 23.6279 22.5317 24.4482C22.5317 25.2383 22.4917 25.4683 22.3018 25.8184C22.1816 26.0581 21.9517 26.3984 21.7917 26.5684C21.6316 26.7485 21.2417 27.0386 20.9216 27.1982C20.4016 27.4585 20.2314 27.4985 19.4814 27.4985C18.8413 27.4985 18.5312 27.4487 18.2312 27.2983C18.0112 27.1982 17.6011 26.8784 17.321 26.5986C17.051 26.3286 16.741 25.9282 16.6511 25.7183C16.531 25.4482 16.481 25.0781 16.481 24.3682C16.481 23.478 16.501 23.3579 16.761 22.9478C16.9111 22.6978 17.2612 22.3076 17.5312 22.0679C17.8113 21.8379 18.2112 21.5776 18.4312 21.4976C18.6914 21.3979 19.1113 21.3579 19.6313 21.3779ZM18.6714 23.3179C18.5015 23.478 18.2913 23.7178 18.2214 23.8682C18.1414 24.0278 18.0813 24.2979 18.0813 24.4683C18.0813 24.6479 18.1714 24.9482 18.2812 25.1182C18.3914 25.2983 18.6313 25.5381 18.8015 25.6484C18.9814 25.7583 19.2815 25.8481 19.4514 25.8481C19.6316 25.8481 19.9316 25.7881 20.1016 25.7183C20.2815 25.6484 20.5117 25.478 20.6116 25.3384C20.7117 25.208 20.8318 24.9282 20.8816 24.7183C20.9617 24.418 20.9417 24.2681 20.7817 23.8979C20.6616 23.6279 20.4517 23.3682 20.2517 23.248C20.0515 23.1279 19.7515 23.0479 19.4614 23.0479C19.1016 23.0479 18.9314 23.1079 18.6714 23.3179Z" clip-rule="evenodd" fill="#219BE0" fill-opacity="1.000000" fill-rule="evenodd" mask="url(#mask_1_1088)"/>
	<path id="Subtract" d="" fill="#000000" fill-opacity="0.000000" fill-rule="nonzero"/>
</svg>
